<?xml version="1.0" encoding="UTF-8" standalone="no"?>
<!-- Created with Inkscape (http://www.inkscape.org/) -->

<svg
   xmlns:dc="http://purl.org/dc/elements/1.1/"
   xmlns:cc="http://creativecommons.org/ns#"
   xmlns:rdf="http://www.w3.org/1999/02/22-rdf-syntax-ns#"
   xmlns:svg="http://www.w3.org/2000/svg"
   xmlns="http://www.w3.org/2000/svg"
   xmlns:sodipodi="http://sodipodi.sourceforge.net/DTD/sodipodi-0.dtd"
   xmlns:inkscape="http://www.inkscape.org/namespaces/inkscape"
   version="1.1"
   id="svg10"
   width="466.66666"
   height="866.66669"
   viewBox="0 0 466.66666 866.66669"
   sodipodi:docname="girl.svg"
   inkscape:version="0.92.4 (5da689c313, 2019-01-14)">
  <metadata
     id="metadata16">
    <rdf:RDF>
      <cc:Work
         rdf:about="">
        <dc:format>image/svg+xml</dc:format>
        <dc:type
           rdf:resource="http://purl.org/dc/dcmitype/StillImage" />
        <dc:title></dc:title>
      </cc:Work>
    </rdf:RDF>
  </metadata>
  <defs
     id="defs14" />
  <sodipodi:namedview
     pagecolor="#ffffff"
     bordercolor="#666666"
     borderopacity="1"
     objecttolerance="10"
     gridtolerance="10"
     guidetolerance="10"
     inkscape:pageopacity="0"
     inkscape:pageshadow="2"
     inkscape:window-width="1366"
     inkscape:window-height="705"
     id="namedview12"
     showgrid="false"
     inkscape:zoom="0.61846152"
     inkscape:cx="233.33333"
     inkscape:cy="433.33334"
     inkscape:window-x="-8"
     inkscape:window-y="-8"
     inkscape:window-maximized="1"
     inkscape:current-layer="svg10" />
  <path
     style="fill:#000000;stroke-width:1.33333337"
     d="m 245.83084,852.5007 c -0.73334,-0.25654 -2.98334,-0.83034 -5,-1.27512 -5.47072,-1.20659 -5.14524,-8.06335 0.66666,-14.04456 7.29332,-7.50579 13.73832,-9.56664 28.49026,-9.11008 12.50506,0.38702 12.88429,0.31044 15.48516,-3.12767 2.57712,-3.40669 2.61341,-4.29735 1.08654,-26.66667 -3.41682,-50.05785 -6.39924,-76.00723 -9.98592,-86.88515 -4.32006,-13.10221 -5.62001,-18.92449 -7.95456,-35.62739 -1.96717,-14.0744 -2.98997,-16.29804 -8.90312,-19.35584 -5.46313,-2.8251 -56.88041,-5.28198 -65.3127,-3.12085 -5.00534,1.28283 -8.20171,1.26405 -15.44208,-0.0908 -5.02163,-0.93964 -16.65728,-2.08805 -25.85699,-2.55203 -16.90277,-0.85246 -17.32075,-0.97138 -25.92435,-7.37564 -1.01033,-0.75206 -3.17633,-0.37945 -5.81298,1 -2.31143,1.2093 -5.99829,3.14052 -8.19303,4.2916 -5.08129,2.66502 -8.38158,1.62478 -15.954227,-5.02872 -3.26957,-2.8727 -8.51957,-5.91178 -11.66667,-6.7535 -3.14709,-0.84167 -5.72199,-2.25803 -5.72199,-3.14743 0,-1.99596 57.428457,-73.92498 65.333327,-81.82984 0.36667,-0.36667 3.925,-4.56667 7.90743,-9.33334 3.98241,-4.76666 8.03293,-9.61449 9.00117,-10.77296 0.96823,-1.15845 3.55495,-8.49714 5.74825,-16.3082 2.1933,-7.81105 6.97446,-21.60882 10.62478,-30.66173 5.01234,-12.43072 6.96034,-19.30584 7.95808,-28.08655 1.58489,-13.94804 8.09026,-33.71363 18.89726,-57.41639 6.076,-13.32637 7.86303,-18.6872 7.86303,-23.58797 0,-3.48819 0.45,-6.61005 1,-6.93749 0.55,-0.32744 4,0.81576 7.66667,2.54045 7.3001,3.43373 12.71833,4.01059 16.8585,1.79484 1.47576,-0.78981 3.68632,-1.0006 4.91235,-0.46843 1.22603,0.53218 3.57915,0.83544 5.22915,0.67392 3.43985,-0.33672 3.92585,2.12132 1.16574,5.89599 -1.16544,1.59383 -4.1521,2.78063 -8.19104,3.25484 -6.06646,0.71225 -6.42901,0.99167 -7.93792,6.1178 -4.50662,15.31013 -20.314,36.62855 -27.15965,36.62855 -5.01817,0 -9.60767,10.45298 -13.54692,30.85436 -1.47957,7.66268 -5.40069,20.04847 -9.70853,30.66667 -8.72354,21.50222 -12.17015,31.70829 -11.07708,32.80134 2.70474,2.70475 17.94225,-25.31068 37.52293,-68.98904 8.49937,-18.95945 12.97836,-27.47683 14.61991,-27.80173 2.03426,-0.40263 2.26781,0.26798 1.66318,4.77572 -0.8577,6.39474 -8.39848,25.73327 -17.0373,43.69268 -3.52747,7.33333 -8.95592,19.23937 -12.06323,26.45785 -3.10731,7.2185 -8.84877,18.0185 -12.7588,24 -7.07123,10.81747 -8.41775,14.60619 -5.77216,16.24124 1.51017,0.93334 11.94753,-9.74425 11.94753,-12.22252 0,-0.83853 0.82404,-1.84081 1.83119,-2.22729 1.00716,-0.38648 3.78264,-5.40068 6.16775,-11.14265 6.42096,-15.45803 20.12572,-42.36698 28.82333,-56.5939 4.20732,-6.882 9.64348,-15.77744 12.08036,-19.76763 2.99008,-4.896 4.43071,-8.91973 4.43071,-12.37518 0,-3.20418 0.71178,-5.39342 1.90204,-5.85016 1.04613,-0.40144 3.13144,-4.7326 4.63404,-9.62483 1.5026,-4.89221 5.1921,-12.49284 8.19889,-16.89028 6.07245,-8.88099 6.28893,-12.74092 1.11052,-19.80168 -1.53161,-2.08837 -2.27343,-4.25767 -1.64847,-4.82064 0.62498,-0.56299 5.33631,-2.61765 10.46964,-4.56595 15.18214,-5.76216 27.31304,-16.38966 27.32835,-23.9415 0.004,-2.17666 -0.74269,-2.35562 -6.51788,-1.56132 -10.92641,1.50276 -10.09528,-3.45582 1.85109,-11.04376 6.8416,-4.34556 3.94043,-5.43074 -4.64492,-1.73742 -11.80861,5.07992 -18.48226,2.76892 -7.6833,-2.66064 7.64578,-3.84418 10.33333,-6.40055 10.33333,-9.82895 0,-3.5666 -5.45664,-8.91964 -13.34388,-13.0905 -3.2942,-1.74202 -5.98945,-4.01892 -5.98945,-5.0598 0,-2.32784 5.76866,-3.32383 7.75378,-1.33871 2.72468,2.72468 5.26212,1.43684 12.91288,-6.55379 4.21286,-4.4 8.35654,-8 9.20816,-8 0.85164,0 2.74444,2.02708 4.20623,4.50462 1.46179,2.47754 6.87184,8.24985 12.02236,12.82734 7.722,6.86292 10.42805,10.4403 15.4278,20.39536 8.68384,17.29059 11.91786,22.01005 15.4232,22.50731 2.43828,0.3459 3.19194,1.49554 3.77956,5.76538 0.40368,2.93333 2.92626,8.63333 5.60574,12.66666 6.28812,9.46534 7.5304,15.12442 8.55335,38.96395 0.83756,19.51896 0.82279,19.66017 -2.59781,24.82904 -1.89208,2.85913 -7.98255,9.31247 -13.53438,14.34073 -9.09436,8.23673 -10.09421,9.62959 -10.09421,14.06191 0,2.70579 0.37413,5.89459 0.83141,7.08622 0.76135,1.98406 1.0422,1.97585 3.33334,-0.0976 1.37605,-1.24531 2.50192,-3.03216 2.50192,-3.97076 0,-0.9386 0.58317,-3.24042 1.29594,-5.11514 1.16907,-3.07489 1.62592,-3.25824 4.66667,-1.87277 4.12583,1.87985 4.23068,4.61437 0.50872,13.26632 -2.26763,5.27121 -3.65217,6.81095 -6.66667,7.41384 -5.13841,1.02768 -5.38113,5.76093 -0.29544,5.76093 7.1985,0 19.49427,-18.35156 21.80391,-32.54257 0.6188,-3.802 2.96712,-9.8853 5.21851,-13.51842 5.08364,-8.20361 9.27414,-24.24525 10.37789,-39.72745 0.89535,-12.55919 2.92475,-15.79864 6.74172,-10.76153 3.34511,4.41442 1.54225,30.69708 -3.0228,44.0674 l -3.70481,10.85076 6.06013,12.48257 c 11.80223,24.31011 15.26964,43.93754 17.04479,96.48258 1.49558,44.27037 2.37517,50.13643 10.88598,72.60037 2.90344,7.66354 5.32583,15.58092 5.38307,17.59418 0.32632,11.47721 -19.75224,21.0706 -44.71924,21.36652 -14.44065,0.17114 -15.57837,1.03952 -15.57837,11.89037 0,8.49903 4.72016,24.23369 12.78122,42.6062 7.70067,17.55112 8.5191,31.2778 3.65008,61.21946 -1.89036,11.6246 -1.83482,16.17336 0.36071,29.54678 0.54427,3.31518 0.05,6.23426 -1.58036,9.33334 -1.69228,3.21681 -2.40948,7.75817 -2.502,15.84279 -0.084,7.34481 -0.79745,12.36286 -2.02715,14.25874 -1.67332,2.57984 -1.62502,3.22646 0.40883,5.47384 1.33139,1.47118 1.94459,3.49103 1.45061,4.7783 -2.664,6.94226 -17.32736,8.5951 -76.54194,8.6277 -27.5,0.0151 -50.6,-0.18237 -51.33333,-0.4389 z m 133.2513,-498.21494 c -4.14344,-9.1885 -9.91797,-15.05326 -9.91797,-10.07293 0,0.95984 -0.7975,2.8358 -1.77223,4.16881 -2.49499,3.41211 -6.42527,1.04007 -9.47215,-5.71669 -1.314,-2.91395 -3.39906,-5.5622 -4.63345,-5.885 -1.5756,-0.41203 -2.34188,-2.23985 -2.57167,-6.1342 -0.18002,-3.051 -1.46534,-8.2022 -2.85628,-11.44711 -1.39092,-3.24491 -4.41429,-12.08684 -6.71858,-19.64873 -8.14123,-26.71664 -19.2484,-45.08224 -27.26491,-45.08224 -5.69046,0 -12.07242,3.67784 -19.006,10.95293 -10.3778,10.88893 -11.40189,11.71373 -14.54412,11.71373 -7.28992,0 -5.50166,-9.22362 3.75107,-19.34757 7.68996,-8.41405 12.41788,-11.31909 18.42165,-11.31909 5.62959,0 10.60762,-2.80227 16.43354,-9.25086 5.23649,-5.79617 6.23917,-10.64438 2.7929,-13.50452 -1.72758,-1.43377 -2.86777,-1.43884 -6.33333,-0.0281 -7.30955,2.97543 -10.22644,3.28981 -10.22644,1.10223 0,-2.39162 2.36323,-4.47935 6,-5.30056 2.12052,-0.47883 1.43785,-1.18488 -3.33333,-3.44752 -8.15471,-3.8672 -11.78599,-3.62604 -19.18379,1.27405 -5.41559,3.58713 -6.76787,3.96831 -9.56192,2.69525 -3.51432,-1.60122 -4.59167,-7.46148 -1.58763,-8.636 3.59447,-1.40536 -19.31732,-18.9459 -35.33333,-27.05007 -11.49405,-5.81604 -12.07557,-9.60065 -1.33333,-8.67742 2.35906,0.20276 3,-0.43462 3,-2.98331 0,-3.29776 2.17784,-4.85979 6.77572,-4.85979 2.69446,0 3.66089,-4.49409 1.2825,-5.96401 -2.64038,-1.63185 0.35394,-4.5706 5.05616,-4.96232 4.02683,-0.33545 4.96647,-0.9798 5.34558,-3.66563 0.27388,-1.94036 -0.44362,-3.91934 -1.77358,-4.89184 -1.28462,-0.93933 -2.0465,-2.95369 -1.79329,-4.74136 0.33087,-2.33594 1.43296,-3.22088 4.43591,-3.56181 2.19761,-0.24951 4.29761,-0.84951 4.66666,-1.33334 1.63747,-2.14677 9.40239,-5.54638 12.66822,-5.54638 2.50222,0 3.80337,-0.83212 4.30589,-2.75374 0.61419,-2.34866 1.42941,-2.63525 5.54184,-1.94824 3.93225,0.65692 5.13045,0.30532 6.49535,-1.90597 1.42129,-2.30267 1.27052,-3.11457 -1,-5.3851 -4.08104,-4.08103 -3.4306,-6.67362 1.67428,-6.67362 2.99201,0 5.9053,-1.35135 9.34198,-4.33333 5.74674,-4.9864 6.10742,-6.5907 2.08252,-9.26312 -4.00606,-2.659935 -2.02677,-5.070215 4.16363,-5.070215 5.88671,0 7.50033,-2.30774 4.55444,-6.5136 -1.69095,-2.41415 -3.31761,-2.81973 -11.30925,-2.81973 -5.13382,0 -13.51015,0.68964 -18.61408,1.53253 -5.10392,0.8429 -9.69827,1.11412 -10.20968,0.60272 -2.30978,-2.30979 3.03806,-5.90738 16.77998,-11.2882 11.53966,-4.51849 14.86255,-6.37594 14.86255,-8.30793 0,-3.73905 -5.55963,-4.47473 -15.30897,-2.02577 -4.71483,1.18432 -9.1991,2.15331 -9.96506,2.15331 -1.77885,0 -1.8293,-6.2394 -0.0593,-7.33333 2.99753,-1.85258 0.98784,-3.33333 -4.52402,-3.33333 -4.08208,0 -6.09978,-0.63178 -6.65725,-2.08451 -0.99248,-2.58637 -3.4854,-1.24448 -3.4854,1.87612 0,2.37082 -3.17756,6.65815 -13,17.54026 -3.65751,4.0521 -5.66667,7.52902 -5.66667,9.8064 0,2.57303 -0.68341,3.5284 -2.52401,3.5284 -4.31596,0 -5.85396,8.91988 -2.07831,12.053395 2.49464,2.07037 2.05442,6.51559 -0.82381,8.31856 -1.58312,0.99168 -3.62572,0.14087 -8.38699,-3.4935 -5.92718,-4.52432 -20.63905,-10.211795 -26.41498,-10.211795 -3.77496,0 -7.7719,-2.44107 -7.7719,-4.74658 0,-5.42491 12.88582,-4.61898 23.8346,1.49073 6.99112,3.90122 6.83207,3.88311 6.83207,0.77796 0,-2.76042 -9.39867,-9.49111 -22.46051,-16.08471 -10.515,-5.30795 -11.06281,-9.31162 -0.73692,-5.38573 2.19815,0.83574 3.95111,0.89604 4.42014,0.15207 0.4275,-0.67812 7.41221,-1.45697 15.52156,-1.73077 11.21722,-0.37873 15.60281,-1.06036 18.33333,-2.84946 4.46616,-2.92635 4.53109,-4.5848 0.25573,-6.53278 -4.12912,-1.88136 -4.23049,-3.19007 -0.33333,-4.30344 2.93025,-0.83713 2.90861,-0.90695 -0.93124,-3.00338 l -3.93125,-2.14633 3.90386,-3.11284 c 5.71824,-4.55956 3.02438,-6.10418 -12.01818,-6.891 -10.86036,-0.56807 -12.74867,-0.99783 -12.38467,-2.81867 0.33603,-1.6809 2.09287,-2.14098 8.07352,-2.11429 4.64024,0.0207 7.46753,-0.50324 7.19489,-1.33334 -0.24702,-0.75209 -1.70857,-1.55346 -3.24788,-1.78082 -1.5393,-0.22736 -3.48104,-1.23551 -4.31498,-2.24035 -2.66236,-3.20795 2.46461,-4.73032 8.66449,-2.57277 7.28709,2.5359 10.51228,2.36187 16.93297,-0.91373 4.91794,-2.50894 6.0479,-2.62672 10.64492,-1.10957 4.68698,1.54684 5.91088,1.38196 13.80464,-1.85977 9.92144,-4.07443 13.3634,-4.31055 22.48748,-1.54266 8.2304,2.49677 13.25087,2.48216 20.54918,-0.0598 6.95302,-2.42171 14.02049,-0.98249 20.03743,4.08044 3.08454,2.59546 5.44135,3.30571 11.06063,3.33323 3.92747,0.0192 9.36189,1.06923 12.07649,2.33333 5.45399,2.53975 27.09178,25.41525 31.12612,32.90657 1.39956,2.59882 3.30822,4.72513 4.24144,4.72513 0.93324,0 1.6968,1.30743 1.6968,2.9054 0,1.59797 1.1556,6.84797 2.56799,11.66667 1.4124,4.81869 3.5394,15.361255 4.72669,23.427925 1.95579,13.28801 1.96566,15.39115 0.10507,22.374 -1.12952,4.23904 -3.19392,9.94242 -4.58756,12.67416 -1.39364,2.73176 -3.24595,7.66347 -4.11625,10.95934 -0.8703,3.29588 -3.58871,9.5925 -6.04091,13.9925 -9.02416,16.19212 -29.70005,36.94433 -38.56776,38.71009 -9.64525,1.92058 -12.75393,3.4618 -12.75393,6.32308 0,1.80294 5.25054,8.16254 14.50038,17.56326 15.28184,15.53111 21.49962,25.13152 21.49962,33.19599 0,2.50125 -0.9,5.29467 -2,6.20759 -1.22042,1.01285 -2,3.93498 -2,7.49658 0,3.21022 -0.6,5.83675 -1.33334,5.83675 -0.8,0 -1.33333,5.33333 -1.33333,13.33333 0,8 0.53333,13.33334 1.33333,13.33334 0.76828,0 1.33334,4.16442 1.33334,9.82661 0,7.03744 1.13534,13.64834 4,23.29111 4.55129,15.32023 4.6729,16.21561 2.20249,16.21561 -0.98861,0 -2.91665,-2.48185 -4.28452,-5.51524 z M 202.4975,349.59352 c 0,-1.2141 1.65,-4.3641 3.66667,-7 l 3.66667,-4.79252 -0.43299,-22.66667 -0.43299,-22.66666 6.09966,-12.22735 c 6.35676,-12.74275 7.48465,-18.86384 4.09965,-22.24884 -1.1,-1.1 -2,-3.14987 -2,-4.55525 0,-4.66519 -10.5256,-10.99498 -33.51848,-20.15704 -18.77515,-7.48142 -27.50069,-12.52107 -83.933907,-48.47819 -6.61788,-4.21667 -12.83422,-7.66667 -13.81408,-7.66667 -0.97986,0 -2.11651,-0.87289 -2.52591,-1.93976 -0.4094,-1.06687 -3.27646,-3.23155 -6.37125,-4.81039 -8.03085,-4.09704 -18.094142,-3.17157 -29.581869,2.72048 -7.517849,3.8559 -9.064579,4.23716 -10.925158,2.69302 -1.455689,-1.20811 -1.895153,-2.88366 -1.338275,-5.10244 1.05455,-4.20166 8.335411,-14.84739 10.801756,-15.79382 5.24054,-2.01098 -2.043887,-10.84282 -20.196145,-24.48636 -12.477717,-9.37847 -15.151512,-12.59256 -12.599078,-15.14499 1.002241,-1.00224 3.264265,-0.70959 7.710375,0.99754 10.351187,3.97445 12.292134,4.18849 12.291282,1.35549 -4.12e-4,-1.36882 -2.400075,-6.38877 -5.332586,-11.15544 -11.082135,-18.013525 -5.409572,-16.183945 17.134172,5.52629 10.009539,9.63946 20.98844,19.25356 24.397558,21.36467 3.409118,2.11111 8.342588,6.4551 10.963268,9.65328 2.62068,3.1982 6.4314,6.22658 8.46827,6.72972 2.03687,0.50316 6.41099,2.64352 9.72027,4.75636 12.171257,7.77086 53.167307,23.9 60.999067,23.99896 4.30248,0.0544 13.66343,5.16168 23.345,12.73699 5.29581,4.1437 14.22464,9.84475 19.84184,12.66903 14.31019,7.19501 38.92251,15.42928 51.70492,17.29832 5.93691,0.86808 11.10431,2.07981 11.48311,2.69272 0.3788,0.61292 -4.94279,6.69272 -11.82575,13.51069 -12.97201,12.84954 -25.59468,30.42607 -33.01228,45.96824 -4.72189,9.89384 -7.99268,25.94811 -5.45859,26.7928 1.05684,0.35228 1.57247,4.5741 1.57247,12.87487 0,12.6035 -1.13705,16.69823 -6.96821,25.09374 -2.81496,4.05289 -7.69846,4.97852 -7.69846,1.45918 z m 27.26154,-183.24203 c -1.29571,-2.09649 1.50533,-4.38651 4.13234,-3.37843 1.81868,0.6979 1.93018,1.23255 0.59303,2.84371 -1.951,2.35081 -3.49499,2.52553 -4.72537,0.53472 z m 7.40513,-8.48371 c -2.83899,-1.59604 -3.00168,-2.00276 -1.09697,-2.74248 3.50134,-1.3598 8.4303,-0.19585 8.4303,1.99076 0,2.68764 -3.2899,3.02488 -7.33333,0.75172 z m 2.66667,-7.95292 c -4.90359,-1.76873 -6.80459,-5.26398 -3.54358,-6.51536 2.72378,-1.04521 10.78464,3.28196 11.3041,6.06816 0.50344,2.70035 -1.236,2.80059 -7.76052,0.4472 z m -5.9244,-15.74387 c -4.13198,-5.89922 -1.99842,-10.68159 2.76777,-6.20398 2.28228,2.14409 4.04092,2.65713 7.04723,2.05587 5.21998,-1.044 6.76164,1.48557 2.8405,4.66072 -4.1951,3.39698 -10.08418,3.15845 -12.6555,-0.51261 z m 33.25036,-18.38193 c -0.45728,-0.73989 -0.45226,-2.53989 0.0107,-4 0.48259,-1.51892 0.23418,-2.65473 -0.5801,-2.65473 -0.78276,0 -1.42319,1.25 -1.42319,2.77778 0,4.21177 -3.262,2.30242 -3.78235,-2.21394 -0.24696,-2.14344 -1.29696,-4.37699 -2.33333,-4.96343 -3.15507,-1.78532 -2.20355,-4.933745 1.49108,-4.933745 4.45121,0 19.45705,5.042705 21.80692,7.328215 2.67119,2.59802 0.88348,5.83514 -4.45408,8.06532 -5.4196,2.26445 -9.56177,2.49384 -10.73561,0.59453 z"
     id="path20"
     inkscape:connector-curvature="0" />
</svg>
