<?xml version="1.0" encoding="UTF-8" standalone="no"?>
<!-- Created with Inkscape (http://www.inkscape.org/) -->

<svg
   xmlns:dc="http://purl.org/dc/elements/1.1/"
   xmlns:cc="http://creativecommons.org/ns#"
   xmlns:rdf="http://www.w3.org/1999/02/22-rdf-syntax-ns#"
   xmlns:svg="http://www.w3.org/2000/svg"
   xmlns="http://www.w3.org/2000/svg"
   xmlns:sodipodi="http://sodipodi.sourceforge.net/DTD/sodipodi-0.dtd"
   xmlns:inkscape="http://www.inkscape.org/namespaces/inkscape"
   version="1.1"
   id="svg44"
   width="773.33331"
   height="1360"
   viewBox="0 0 773.33331 1360"
   sodipodi:docname="heart.svg"
   inkscape:version="0.92.4 (5da689c313, 2019-01-14)">
  <metadata
     id="metadata50">
    <rdf:RDF>
      <cc:Work
         rdf:about="">
        <dc:format>image/svg+xml</dc:format>
        <dc:type
           rdf:resource="http://purl.org/dc/dcmitype/StillImage" />
        <dc:title></dc:title>
      </cc:Work>
    </rdf:RDF>
  </metadata>
  <defs
     id="defs48" />
  <sodipodi:namedview
     pagecolor="#ffffff"
     bordercolor="#666666"
     borderopacity="1"
     objecttolerance="10"
     gridtolerance="10"
     guidetolerance="10"
     inkscape:pageopacity="0"
     inkscape:pageshadow="2"
     inkscape:window-width="1366"
     inkscape:window-height="705"
     id="namedview46"
     showgrid="false"
     inkscape:zoom="0.27868326"
     inkscape:cx="386.66666"
     inkscape:cy="819.53898"
     inkscape:window-x="-8"
     inkscape:window-y="-8"
     inkscape:window-maximized="1"
     inkscape:current-layer="svg44" />
  <g
     id="g54"
     transform="translate(-12.686568,7.6119401)">
    <path
       style="fill:#eea9a9;stroke-width:1.33333325"
       d="m 547.63977,1331.8983 c -12.36292,-8.0125 -27.38508,-22.5246 -36.04912,-34.8252 -5.96607,-8.4702 -22.25733,-36.1681 -22.25733,-37.8412 0,-0.4317 -1.89364,-5.0855 -4.20809,-10.3418 -4.92335,-11.1811 -12.73095,-32.587 -14.67116,-40.2234 -0.74528,-2.9334 -2.20019,-8.0334 -3.23314,-11.3334 -1.94933,-6.2276 -3.06862,-11.1049 -7.19074,-31.3333 -3.4023,-16.6961 -5.13842,-26.3184 -5.17223,-28.6667 -0.0159,-1.1 -0.67808,-4.5931 -1.47163,-7.7624 -2.37348,-9.4794 -3.81082,-23.4776 -4.95306,-48.2376 -1.18684,-25.7269 -0.59703,-42.588 2.21544,-63.3333 0.79534,-5.8667 1.62733,-12.4667 1.84885,-14.6667 0.99823,-9.91406 14.57039,-61.68785 22.19481,-84.66663 8.4087,-25.34244 14.44122,-49.0986 17.26759,-68 0.60311,-4.03334 1.47413,-8.2559 1.9356,-9.38347 1.1306,-2.76251 1.8622,-9.78051 2.85323,-27.37005 0.66362,-11.77847 0.2563,-18.2013 -2.01995,-31.85118 -1.56816,-9.4037 -3.72367,-18.78482 -4.79003,-20.84693 -1.06636,-2.06211 -1.93882,-4.90987 -1.93882,-6.32836 0,-3.10384 -6.95518,-14.58845 -13.15515,-21.72219 C 470.77049,728.47651 469.7516,728 463.80201,728 c -8.2897,0 -13.2694,-2.18949 -22.45924,-9.875 -4.02813,-3.36875 -8.40242,-6.125 -9.72065,-6.125 -3.45628,0 -10.2888,5.42684 -10.2888,8.17205 0,3.34835 -2.72167,4.57228 -3.50515,1.57627 -0.36244,-1.38599 -1.97205,-3.09636 -3.57692,-3.80081 -2.40178,-1.05428 -2.99442,-2.578 -3.35037,-8.61418 -0.37308,-6.32668 0.24573,-8.64005 4.50801,-16.85265 5.77298,-11.1234 10.05088,-14.14632 23.67744,-16.73125 8.85151,-1.67911 8.91366,-1.72155 8.91366,-6.0865 0,-3.35492 -0.72324,-4.67057 -3.0548,-5.55704 -1.68014,-0.63878 -3.76107,-2.01244 -4.62431,-3.05257 -2.06691,-2.49048 -12.64008,-7.00412 -20.98756,-8.95951 -3.66667,-0.85892 -10.56667,-3.85054 -15.33333,-6.64808 -4.76667,-2.79752 -11.05231,-5.85854 -13.96808,-6.80228 -4.22353,-1.367 -48.25939,-23.08673 -56.69859,-27.96534 -1.1,-0.6359 -7.1,-3.92223 -13.33333,-7.30295 -6.23333,-3.38073 -13.43333,-7.38195 -16,-8.8916 -2.56667,-1.50964 -7.06419,-4.03603 -9.99449,-5.61419 -6.29782,-3.39177 -30.37744,-19.41045 -31.33884,-20.84778 -0.36667,-0.54819 -3.36667,-2.35714 -6.66667,-4.01991 -5.63224,-2.83791 -14.97178,-9.34692 -18.03072,-12.56615 -0.75022,-0.78954 -2.31729,-2.03553 -3.48237,-2.76886 -3.72955,-2.34748 -15.68019,-11.75072 -25.84179,-20.33334 C 203.21857,523.75 198.3515,520 197.82941,520 c -0.52208,0 -4.91862,-3.75 -9.77007,-8.33333 -4.85145,-4.58334 -12.93271,-11.93334 -17.95833,-16.33334 -13.18756,-11.54586 -36.96257,-35.33384 -49.97274,-50 -6.18005,-6.96666 -12.02359,-13.13892 -12.98566,-13.7161 -0.96207,-0.5772 -3.68795,-3.86731 -6.05752,-7.31138 C 98.715516,420.8618 93.752,414.95744 90.055053,411.18504 85.203033,406.234 80.753886,399.21367 74.060031,385.9464 68.959717,375.83755 63.409717,365.53752 61.726698,363.05745 c -1.683018,-2.48006 -3.060033,-5.0068 -3.060033,-5.61496 0,-0.60817 -2.4,-6.51272 -5.333333,-13.12121 -2.933334,-6.60851 -5.333333,-13.16428 -5.333333,-14.56837 0,-1.4041 -0.643756,-3.19667 -1.430568,-3.98348 -0.786812,-0.78682 -1.650675,-3.45682 -1.919695,-5.93334 -0.953776,-8.78018 -3.416863,-23.24344 -4.854008,-28.50276 -2.997869,-10.97088 -0.998988,-69.93432 2.518352,-74.28685 0.761427,-0.94223 1.820211,-4.41315 2.352853,-7.71315 0.532643,-3.3 1.747519,-7.5 2.699723,-9.33333 0.952205,-1.83333 2.760461,-6.84811 4.018348,-11.14393 1.257886,-4.29584 4.891976,-12.51994 8.075754,-18.27578 3.183779,-5.75585 6.676947,-12.59108 7.762595,-15.1894 1.085649,-2.59832 2.539478,-4.72422 3.230732,-4.72422 0.691254,0 1.63043,-1.48856 2.087058,-3.30791 0.456628,-1.81936 2.771672,-5.37236 5.144544,-7.89559 2.372871,-2.52321 6.71431,-7.62375 9.647644,-11.33452 2.933333,-3.71078 8.509746,-9.30777 12.392029,-12.43776 3.88228,-3.12999 8.79252,-7.2818 10.91165,-9.22626 2.11913,-1.94445 6.89271,-5.1898 10.60797,-7.211901 C 124.96024,97.230632 128,95.118079 128,94.558164 c 0,-0.559913 2.25,-1.740413 5,-2.623331 2.75,-0.882918 5.9,-2.34627 7,-3.251893 3.96712,-3.266107 20.76902,-11.10334 25.33333,-11.816716 2.56666,-0.401155 9.16666,-1.71512 14.66666,-2.919921 7.6573,-1.677367 14.52923,-2.048419 29.33334,-1.583859 16.48772,0.517393 21.5902,1.234321 34.66666,4.870881 15.24639,4.240012 34.37059,12.063244 43.75453,17.898896 2.70168,1.680103 7.52335,4.082303 10.71484,5.338229 15.33939,6.03638 54.62847,43.13958 59.15398,55.86288 0.7173,2.01667 2.14048,3.66667 3.16261,3.66667 1.03423,0 5.1862,-6.65237 9.362,-15 4.12696,-8.25 8.33197,-15.47981 9.34447,-16.06625 1.01249,-0.58644 1.8409,-1.86298 1.8409,-2.83674 0,-0.97377 0.93467,-2.54619 2.07704,-3.49428 1.14236,-0.94808 2.85223,-3.5791 3.79971,-5.84672 4.72677,-11.31277 48.44549,-47.850046 78.27337,-65.415826 21.77401,-12.822821 32.10688,-18.006851 35.89144,-18.006851 1.39405,0 4.50498,-0.833396 6.9132,-1.85199 6.70277,-2.83505 21.09233,-7.168139 27.04524,-8.14406 16.57357,-2.717072 46.34161,-3.637586 56.66666,-1.752298 29.97408,5.473072 52.22144,14.381962 78.42373,31.404548 8.84355,5.745307 35.13591,31.512406 38.10504,37.3438 1.21351,2.383334 2.72808,4.333334 3.36574,4.333334 0.63764,0 2.78388,3.106852 4.76941,6.904113 1.98553,3.79727 4.11578,7.84727 4.73389,9 2.86839,5.34942 9.26885,24.38389 9.26885,27.56485 0,1.95524 0.64284,6.0246 1.42854,9.04301 0.78568,3.01841 1.87276,7.28803 2.41573,9.48803 0.54296,2.2 0.48724,6.35712 -0.12387,9.23804 -0.69892,3.29518 -0.60585,5.74321 0.25094,6.6 1.75477,1.75477 1.77793,13.74749 0.0287,14.82862 -0.73333,0.45323 -1.34438,3.63864 -1.3579,7.0787 -0.0235,5.99053 -1.4341,15.12626 -5.89126,38.15536 -3.13917,16.21941 -11.3297,42.45741 -15.55886,49.84216 -1.38892,2.42525 -2.52531,5.22992 -2.52531,6.23258 0,2.04326 -6.74078,19.30343 -9.9195,25.39947 -1.13524,2.17712 -2.06776,4.8884 -2.07228,6.02507 -0.004,1.13666 -0.52248,2.63666 -1.15102,3.33333 -0.62854,0.69667 -3.10026,6.04724 -5.49272,11.89015 -2.39244,5.84292 -5.1068,11.84292 -6.0319,13.33333 -0.9251,1.49043 -2.06091,4.34431 -2.52402,6.34196 -0.4631,1.99765 -2.33352,5.82996 -4.15648,8.51624 -1.82296,2.68628 -3.91746,7.12351 -4.65446,9.86049 -0.73699,2.737 -2.53796,6.49934 -4.00214,8.36074 -1.46418,1.8614 -2.66214,4.20045 -2.66214,5.19788 0,0.99744 -1.4692,3.97565 -3.26491,6.61825 -1.79569,2.6426 -3.65145,6.34493 -4.12393,8.2274 -0.47247,1.88247 -3.50326,7.44857 -6.7351,12.36913 -3.23184,4.92056 -5.87606,9.3675 -5.87606,9.88207 0,0.51457 -1.76351,3.37004 -3.91891,6.34548 -2.1554,2.97544 -5.87087,8.91547 -8.25659,13.20005 -2.38572,4.28459 -7.37221,11.81352 -11.08109,16.73098 -12.65221,16.77502 -15.19108,20.5886 -32.1022,48.21993 -2.186,3.57175 -4.73217,7.28651 -5.65814,8.25503 -0.92599,0.96853 -4.75586,6.74618 -8.51083,12.83925 -3.75496,6.09307 -9.34896,14.07831 -12.43111,17.74497 -3.08213,3.66667 -6.75058,8.43771 -8.1521,10.60232 -1.40152,2.16462 -3.7499,5.26352 -5.21863,6.88648 -1.46872,1.62295 -5.9704,7.26662 -10.00373,12.5415 C 527.69896,595.19492 517.0499,608 515.85528,608 c -0.65375,0 -1.18863,0.85 -1.18863,1.88889 0,1.03888 -0.51883,2.08888 -1.15296,2.33334 -0.63413,0.24444 -6.77892,6.74444 -13.65508,14.44444 -6.87616,7.7 -14.2124,15.44966 -16.30274,17.22149 -3.01611,2.55652 -3.64796,3.98476 -3.06107,6.91921 0.67304,3.3652 0.35813,3.73496 -3.50175,4.11184 -5.2692,0.51448 -10.3264,7.37699 -10.3264,14.01267 0,3.97255 0.62258,4.80503 5,6.68589 2.75,1.1816 10.30075,3.16783 16.77943,4.41383 9.81108,1.88691 11.89582,1.96215 12.47598,0.45027 1.53294,-3.99478 4.3232,-1.46943 6.46528,5.85146 2.0687,7.0701 2.07606,7.96039 0.0947,11.44139 -1.18176,2.07609 -2.14864,4.55263 -2.14864,5.5034 0,0.95079 -0.92509,2.49645 -2.05575,3.43481 -1.70486,1.41492 -2.71976,1.2152 -5.94601,-1.17006 -6.42284,-4.74862 -9.45761,-3.84699 -13.88486,4.12516 -2.13764,3.84925 -4.98764,8.42956 -6.33334,10.17845 -3.48521,4.52948 -3.06393,6.86713 2.06399,11.45299 4.55095,4.06986 13.14429,19.38366 14.93315,26.61166 0.53237,2.15112 1.77161,5.45112 2.75384,7.33334 0.98223,1.88221 1.7967,4.6222 1.80993,6.08886 0.0133,1.46667 0.94186,5.96667 2.06365,10 1.19943,4.31252 1.96321,12.00187 1.85415,18.66667 -0.102,6.23333 -0.15223,14.33333 -0.1116,18 0.0643,5.80555 -2.79978,27.49425 -6.30315,47.73184 -0.60921,3.51919 -1.79833,7.08919 -2.64248,7.93333 -0.84424,0.84416 -1.5349,3.3121 -1.5349,5.48431 0,4.05632 -3.36052,17.04001 -5.47826,21.16576 -0.65362,1.27339 -1.18841,3.48797 -1.18841,4.92131 0,1.43334 -0.6,2.97689 -1.33333,3.43012 -0.73334,0.45322 -1.33334,2.09869 -1.33334,3.65658 0,1.5579 -1.16382,6.17248 -2.58629,10.25464 -5.76821,16.5536 -14.76945,52.28198 -20.68105,82.08881 -6.95374,35.0613 -6.58102,95.078 0.80966,130.379 0.80079,3.8249 1.8983,9.9543 2.43892,13.621 0.54063,3.6666 2.21152,11.4666 3.71311,17.3333 3.30351,12.9067 6.69912,26.7799 8.97457,36.6667 0.92828,4.0333 3.89706,13.3333 6.59727,20.6666 2.70021,7.3334 5.47055,15.1834 6.15629,17.4445 0.68575,2.2611 3.84904,9.1611 7.02956,15.3333 3.18051,6.1722 7.79329,15.1222 10.25064,19.8889 2.45735,4.7667 6.75452,11.4499 9.54928,14.8517 2.79475,3.4018 5.08137,6.587 5.08137,7.0782 0,1.8189 8.96859,12.1285 18.92787,21.7579 11.49648,11.1157 18.07948,16.3122 20.66451,16.3122 0.95753,0 1.74096,0.6 1.74096,1.3333 0,2.5779 -3.43116,1.216 -13.69355,-5.435 z"
       id="path68"
       inkscape:connector-curvature="0" />
    <path
       style="fill:#af8484;stroke-width:1.33333325"
       d="m 548.71576,1332.5957 c -12.98642,-8.412 -24.81115,-19.2646 -33.34547,-30.6041 -6.66732,-8.8588 -26.03697,-40.5987 -26.03697,-42.6653 0,-0.4836 -1.89364,-5.1799 -4.20809,-10.4362 -5.83304,-13.2471 -13.00358,-33.4223 -15.0849,-42.4433 -0.95848,-4.1542 -2.1389,-8.1943 -2.62318,-8.9778 -1.76735,-2.8597 -12.47255,-54.118 -12.55919,-60.1357 -0.0159,-1.1 -0.67808,-4.5931 -1.47163,-7.7624 -2.37053,-9.4676 -3.61241,-21.6646 -4.91148,-48.2376 -1.2433,-25.4322 -0.65981,-42.4317 2.17386,-63.3333 0.79534,-5.8667 1.63017,-12.4667 1.85516,-14.6667 1.04962,-10.2639 13.55344,-57.89986 22.04889,-83.99997 8.79715,-27.02701 14.60883,-49.9525 17.4072,-68.66666 0.60311,-4.03334 1.47413,-8.2559 1.9356,-9.38347 1.1306,-2.76251 1.8622,-9.78051 2.85323,-27.37005 0.66362,-11.77847 0.2563,-18.2013 -2.01995,-31.85118 -1.56816,-9.4037 -3.72367,-18.78482 -4.79003,-20.84693 -1.06636,-2.06211 -1.93882,-4.90987 -1.93882,-6.32836 0,-3.10384 -6.95518,-14.58845 -13.15515,-21.72219 C 470.77049,728.47651 469.7516,728 463.80201,728 c -8.2897,0 -13.2694,-2.18949 -22.45924,-9.875 -4.02813,-3.36875 -8.4355,-6.125 -9.79417,-6.125 -3.65949,0 -10.21528,5.14187 -10.21528,8.01211 0,3.47004 -2.70177,4.80832 -3.50515,1.73621 -0.36244,-1.38599 -1.97205,-3.09636 -3.57692,-3.80081 -2.42856,-1.06603 -2.98452,-2.55084 -3.315,-8.85328 -0.33346,-6.35978 0.26219,-8.80783 3.71955,-15.28676 4.49585,-8.42507 7.3382,-12.02032 11.09077,-14.02863 3.17091,-1.69703 16.29916,-5.11217 19.6518,-5.11217 2.08787,0 2.60162,-0.92807 2.60162,-4.69967 0,-3.73547 -0.65731,-4.94957 -3.20382,-5.91776 -1.76209,-0.66995 -3.60281,-1.86367 -4.09046,-2.65272 -1.5355,-2.48448 -11.71596,-7.04684 -20.03494,-8.97863 -4.40226,-1.02228 -11.48268,-3.92589 -15.73424,-6.45249 -4.25157,-2.5266 -12.12088,-6.35196 -17.48737,-8.5008 -11.94677,-4.78372 -74.8569,-36.94529 -79.44917,-40.61683 -1.77653,-1.42034 -5.52156,-3.54518 -16.18892,-9.18525 -4.94655,-2.61535 -25.98429,-16.69288 -28.08397,-18.79256 -1.04185,-1.04185 -4.55667,-3.24364 -7.81069,-4.89288 -5.5724,-2.82425 -14.92175,-9.35763 -17.94714,-12.54155 -0.75022,-0.78954 -2.31729,-2.03553 -3.48237,-2.76886 -3.72955,-2.34748 -15.68019,-11.75072 -25.84179,-20.33334 C 203.21857,523.75 198.3515,520 197.82941,520 c -0.52208,0 -4.91862,-3.75 -9.77007,-8.33333 -4.85145,-4.58334 -12.91591,-11.93334 -17.92101,-16.33334 -13.54375,-11.90633 -37.29478,-35.64922 -50.01715,-50 -6.17615,-6.96666 -12.0165,-13.13892 -12.97857,-13.7161 -0.96207,-0.5772 -3.68795,-3.86731 -6.05752,-7.31138 -2.369574,-3.44405 -7.33309,-9.34644 -11.030037,-13.11642 -5.015686,-5.11478 -9.383469,-12.13338 -17.20891,-27.65307 -5.767952,-11.4392 -11.317952,-21.48803 -12.333333,-22.33072 -1.01538,-0.84268 -1.846145,-2.25523 -1.846145,-3.13897 0,-0.88375 -2.4,-7.1403 -5.333333,-13.90343 -2.933334,-6.76313 -5.333333,-13.3466 -5.333333,-14.62993 0,-1.28332 -0.643756,-2.97707 -1.430568,-3.76388 -0.786812,-0.78682 -1.650675,-3.45682 -1.919695,-5.93334 -0.964877,-8.88237 -3.423636,-23.26702 -4.871959,-28.50276 -2.975275,-10.75572 -0.943789,-69.97897 2.548715,-74.30181 0.7546,-0.934 1.807799,-4.39819 2.340441,-7.69819 0.532643,-3.3 1.747519,-7.5 2.699723,-9.33333 0.952205,-1.83333 2.760461,-6.84811 4.018348,-11.14393 1.257886,-4.29584 4.891976,-12.51994 8.075754,-18.27578 3.183779,-5.75585 6.676947,-12.59108 7.762595,-15.1894 1.085649,-2.59832 2.539478,-4.72422 3.230732,-4.72422 0.691254,0 1.63043,-1.48856 2.087058,-3.30791 0.456628,-1.81936 2.771672,-5.37236 5.144544,-7.89559 2.372871,-2.52321 6.71431,-7.62375 9.647644,-11.33452 2.933333,-3.71078 8.509746,-9.30777 12.392029,-12.43776 3.88228,-3.12999 8.85377,-7.34167 11.04774,-9.35929 2.19398,-2.01762 6.96756,-5.17773 10.60797,-7.02246 C 125.02148,97.464405 128,95.411716 128,94.747608 c 0,-0.664108 2.25,-1.929857 5,-2.812775 2.75,-0.882918 5.9,-2.362076 7,-3.287016 3.49312,-2.937204 19.20222,-10.394161 22.66666,-10.759641 1.83334,-0.193407 6.93333,-1.436223 11.33333,-2.761812 6.4427,-1.940992 12.54216,-2.398699 31.33334,-2.351264 22.0399,0.05564 24.15414,0.291233 38.14086,4.250187 15.23064,4.311052 35.23016,12.475262 44.14229,18.019794 2.7776,1.72803 7.66139,4.169443 10.85288,5.425369 15.33939,6.03638 54.62847,43.13958 59.15398,55.86288 0.7173,2.01667 2.14048,3.66667 3.16261,3.66667 1.02853,0 5.08408,-6.43175 9.08172,-14.40284 3.97281,-7.92156 8.17783,-15.19503 9.34448,-16.16326 1.16664,-0.96823 2.12117,-2.51349 2.12117,-3.4339 0,-0.92041 0.93467,-2.44918 2.07704,-3.39727 1.14236,-0.94808 2.85223,-3.5791 3.79971,-5.84672 4.72677,-11.31277 48.44549,-47.850046 78.27337,-65.415826 21.77401,-12.822821 32.10688,-18.006851 35.89144,-18.006851 1.39405,0 4.50498,-0.833396 6.9132,-1.85199 7.75413,-3.279742 21.5277,-7.272055 28.37857,-8.225622 12.40369,-1.726456 14.64649,-1.963921 26,-2.752853 17.99424,-1.25038 45.03068,2.733963 60,8.842164 3.3,1.346559 10.2,4.041103 15.33333,5.987876 9.11429,3.456519 18.08759,8.343005 32.42373,17.656625 8.84355,5.745307 35.13591,31.512406 38.10504,37.3438 1.21351,2.383334 2.72808,4.333334 3.36574,4.333334 0.63764,0 2.78388,3.106852 4.76941,6.904113 1.98553,3.79727 4.10396,7.84727 4.7076,9 3.0047,5.73786 8.02484,20.7668 9.24074,27.66434 0.75284,4.27068 2.03687,10.76488 2.85339,14.43155 0.81653,3.66666 1.33512,8.46666 1.15243,10.66666 -0.39407,4.74559 -0.2633,7.20318 0.84021,15.78932 0.51832,4.03299 0.27527,7.01046 -0.64761,7.93334 -0.81255,0.81254 -1.47735,4.12382 -1.47735,7.3584 0,18.10096 -14.84573,78.07954 -22.07986,89.20537 -1.05608,1.6242 -1.92014,3.77075 -1.92014,4.77012 0,1.89361 -5.3029,16.01548 -8.6155,22.94345 -1.05194,2.2 -4.69432,10.84827 -8.09422,19.21836 -3.39989,8.37011 -6.95969,16.47011 -7.91066,18 -0.95098,1.52991 -2.10795,4.4161 -2.57106,6.41375 -0.4631,1.99765 -2.33352,5.82996 -4.15648,8.51624 -1.82296,2.68628 -3.91746,7.12351 -4.65446,9.86049 -0.73699,2.737 -2.53796,6.49934 -4.00214,8.36074 -1.46418,1.8614 -2.66214,4.20045 -2.66214,5.19788 0,0.99744 -1.4692,3.97565 -3.26491,6.61825 -1.79569,2.6426 -3.65145,6.34493 -4.12393,8.2274 -0.47247,1.88247 -3.50326,7.44857 -6.7351,12.36913 -3.23184,4.92056 -5.87606,9.18946 -5.87606,9.48642 0,0.29696 -2.61451,4.558 -5.81002,9.46897 -3.1955,4.91097 -6.88413,11.02904 -8.19694,13.59571 -1.31283,2.56666 -5.44832,8.69002 -9.18999,13.60748 -12.40559,16.30385 -15.10911,20.35722 -32.16184,48.21993 -2.186,3.57175 -4.73217,7.28651 -5.65814,8.25503 -0.92599,0.96853 -4.76562,6.73017 -8.53252,12.80366 -3.7669,6.0735 -9.74683,14.52494 -13.28875,18.78098 -3.54192,4.25605 -7.06631,8.90881 -7.83197,10.33946 -0.76567,1.43066 -2.72811,4.05822 -4.36098,5.83902 -1.63286,1.78081 -6.15136,7.34406 -10.04108,12.3628 C 524.97316,598.32067 516.96873,608 515.85528,608 c -0.65375,0 -1.18863,0.85 -1.18863,1.88889 0,1.03888 -0.51883,2.08888 -1.15296,2.33334 -0.63413,0.24444 -6.77892,6.74444 -13.65508,14.44444 -6.87616,7.7 -14.2124,15.44966 -16.30274,17.22149 -3.01611,2.55652 -3.64796,3.98476 -3.06107,6.91921 0.67304,3.3652 0.35813,3.73496 -3.50175,4.11184 -5.26065,0.51366 -10.3264,7.3776 -10.3264,13.99202 0,4.0782 0.5782,4.76472 5.95352,7.06885 3.27444,1.40359 10.83306,3.37861 16.79691,4.38893 8.99169,1.52327 10.95934,1.53476 11.52246,0.0673 1.51635,-3.95154 4.3151,-1.39186 6.4478,5.89701 2.0687,7.07009 2.07606,7.96039 0.0947,11.44139 -1.18176,2.07609 -2.14864,4.55262 -2.14864,5.5034 0,0.95078 -0.92509,2.49645 -2.05575,3.43481 -1.70486,1.41492 -2.71976,1.2152 -5.94601,-1.17007 -6.42284,-4.74861 -9.45761,-3.84698 -13.88486,4.12516 -2.13764,3.84926 -4.98764,8.42956 -6.33334,10.17846 -3.48521,4.52948 -3.06393,6.86713 2.06399,11.45298 4.55095,4.06987 13.14429,19.38367 14.93315,26.61167 0.53237,2.15112 1.77161,5.45112 2.75384,7.33333 0.98223,1.88222 1.7967,4.6222 1.80993,6.08887 0.0133,1.46667 0.94186,5.96667 2.06365,10 1.19943,4.31252 1.96321,12.00187 1.85415,18.66667 -0.102,6.23333 -0.15223,14.33333 -0.1116,18 0.0643,5.80554 -2.79978,27.49425 -6.30315,47.73184 -0.60921,3.51918 -1.79833,7.08918 -2.64248,7.93333 -0.84424,0.84413 -1.5349,3.31207 -1.5349,5.48428 0,4.05632 -3.36052,17.04001 -5.47826,21.16576 -0.65362,1.27339 -1.18841,3.48797 -1.18841,4.92131 0,1.43334 -0.6,2.97689 -1.33333,3.43012 -0.73334,0.45322 -1.33334,2.09869 -1.33334,3.65658 0,1.5579 -1.16382,6.17248 -2.58629,10.25464 -5.76821,16.5536 -14.76945,52.28198 -20.68105,82.08885 -6.89008,34.7404 -6.58126,94.9639 0.66469,129.6223 0.73335,3.5077 1.65477,8.7777 2.04761,11.711 0.39286,2.9333 2.12571,11.0333 3.85082,18 4.72946,19.0996 7.50376,30.5443 9.37314,38.6667 0.92828,4.0333 3.89443,13.3333 6.59143,20.6666 2.69701,7.3334 5.46112,15.1334 6.14247,17.3334 1.68342,5.4356 5.9563,14.4864 10.94451,23.1826 1.51978,2.6496 4.52908,8.4126 6.68732,12.8068 2.15826,4.3941 6.25838,10.7774 9.11139,14.185 2.85301,3.4076 5.18729,6.5976 5.18729,7.0888 0,3.431 25.08396,29.0394 35.04804,35.7809 6.84219,4.6292 7.16959,4.9625 4.84086,4.9273 -1.0389,-0.016 -6.0668,-2.7348 -11.17312,-6.0424 z"
       id="path66"
       inkscape:connector-curvature="0" />
    <path
       style="fill:#f45c5c;stroke-width:1.33333325"
       d="m 548.71576,1332.5957 c -20.26684,-13.128 -33.16988,-27.538 -49.19323,-54.9388 -11.35317,-19.4145 -25.30922,-53.1234 -29.4822,-71.2101 -0.95848,-4.1542 -2.1389,-8.1943 -2.62318,-8.9778 -1.76735,-2.8597 -12.47255,-54.118 -12.55919,-60.1357 -0.0159,-1.1 -0.67808,-4.5931 -1.47163,-7.7624 -2.37053,-9.4676 -3.61241,-21.6646 -4.91148,-48.2376 -1.2433,-25.4322 -0.65981,-42.4317 2.17386,-63.3333 0.79534,-5.8667 1.63017,-12.4667 1.85516,-14.6667 1.04962,-10.2639 13.55344,-57.89986 22.04889,-83.99997 8.79715,-27.02701 14.60883,-49.9525 17.4072,-68.66666 0.60311,-4.03334 1.47413,-8.2559 1.9356,-9.38347 1.1306,-2.76251 1.8622,-9.78051 2.85323,-27.37005 0.66362,-11.77847 0.2563,-18.2013 -2.01995,-31.85118 -1.56816,-9.4037 -3.72367,-18.78482 -4.79003,-20.84693 -1.06636,-2.06211 -1.93882,-4.949 -1.93882,-6.41532 0,-1.46632 -1.8,-5.33313 -4,-8.59291 -2.2,-3.25978 -4,-6.46809 -4,-7.12958 0,-0.66148 -2.2753,-3.42447 -5.05622,-6.13996 C 470.55188,728.64871 469.05719,728 463.56761,728 c -8.05432,0 -13.09504,-2.23971 -22.22484,-9.875 -4.02813,-3.36875 -8.4355,-6.125 -9.79417,-6.125 -3.65949,0 -10.21528,5.14187 -10.21528,8.01211 0,3.47004 -2.70177,4.80832 -3.50515,1.73621 -0.36244,-1.38599 -1.97205,-3.09636 -3.57692,-3.80081 -2.42856,-1.06603 -2.98452,-2.55084 -3.315,-8.85328 -0.33346,-6.35978 0.26219,-8.80783 3.71955,-15.28676 4.49585,-8.42507 7.3382,-12.02032 11.09077,-14.02863 3.17091,-1.69703 16.29916,-5.11217 19.6518,-5.11217 2.08787,0 2.60162,-0.92807 2.60162,-4.69967 0,-3.73547 -0.65731,-4.94957 -3.20382,-5.91776 -1.76209,-0.66995 -3.60281,-1.86367 -4.09046,-2.65272 -1.5355,-2.48448 -11.71596,-7.04684 -20.03494,-8.97863 -4.40226,-1.02228 -11.48268,-3.92589 -15.73424,-6.45249 -4.25157,-2.5266 -12.12088,-6.35196 -17.48737,-8.5008 -11.94677,-4.78372 -74.8569,-36.94529 -79.44917,-40.61683 -1.77653,-1.42034 -5.52156,-3.54518 -16.18892,-9.18525 -4.94655,-2.61535 -25.98429,-16.69288 -28.08397,-18.79256 -1.04185,-1.04185 -4.55667,-3.24364 -7.81069,-4.89288 -5.5724,-2.82425 -14.92175,-9.35763 -17.94714,-12.54155 -0.75022,-0.78954 -2.31729,-2.03553 -3.48237,-2.76886 -3.72955,-2.34748 -15.68019,-11.75072 -25.84179,-20.33334 C 203.21857,523.75 198.3515,520 197.82941,520 c -0.52208,0 -4.91862,-3.75 -9.77007,-8.33333 -4.85145,-4.58334 -12.91591,-11.93334 -17.92101,-16.33334 -13.54375,-11.90633 -37.29478,-35.64922 -50.01715,-50 -6.17615,-6.96666 -12.0165,-13.13892 -12.97857,-13.7161 -0.96207,-0.5772 -3.68795,-3.86731 -6.05752,-7.31138 -2.369574,-3.44405 -7.33309,-9.34644 -11.030037,-13.11642 -5.015686,-5.11478 -9.383469,-12.13338 -17.20891,-27.65307 -5.767952,-11.4392 -11.317952,-21.48803 -12.333333,-22.33072 -1.01538,-0.84268 -1.846145,-2.25523 -1.846145,-3.13897 0,-0.88375 -2.4,-7.1403 -5.333333,-13.90343 -2.933334,-6.76313 -5.333333,-13.3466 -5.333333,-14.62993 0,-1.28332 -0.643756,-2.97707 -1.430568,-3.76388 -0.786812,-0.78682 -1.650675,-3.45682 -1.919695,-5.93334 -0.964877,-8.88237 -3.423636,-23.26702 -4.871959,-28.50276 -2.975275,-10.75572 -0.943789,-69.97897 2.548715,-74.30181 0.7546,-0.934 1.807799,-4.39819 2.340441,-7.69819 0.532643,-3.3 1.747519,-7.5 2.699723,-9.33333 0.952205,-1.83333 2.760461,-6.84811 4.018348,-11.14393 1.257886,-4.29584 4.891976,-12.51994 8.075754,-18.27578 3.183779,-5.75585 6.676947,-12.59108 7.762595,-15.1894 1.085649,-2.59832 2.539478,-4.72422 3.230732,-4.72422 0.691254,0 1.63043,-1.48856 2.087058,-3.30791 0.456628,-1.81936 2.771672,-5.37236 5.144544,-7.89559 2.372871,-2.52321 6.71431,-7.62375 9.647644,-11.33452 2.933333,-3.71078 8.509746,-9.30777 12.392029,-12.43776 3.88228,-3.12999 8.85377,-7.34167 11.04774,-9.35929 2.19398,-2.01762 6.96756,-5.17773 10.60797,-7.02246 C 125.02148,97.464405 128,95.411716 128,94.747608 c 0,-0.664108 2.25,-1.929857 5,-2.812775 2.75,-0.882918 5.9,-2.362076 7,-3.287016 3.49312,-2.937204 19.20222,-10.394161 22.66666,-10.759641 1.83334,-0.193407 6.93333,-1.436223 11.33333,-2.761812 6.4427,-1.940992 12.54216,-2.398699 31.33334,-2.351264 22.0399,0.05564 24.15414,0.291233 38.14086,4.250187 15.23064,4.311052 35.23016,12.475262 44.14229,18.019794 2.7776,1.72803 7.66139,4.169443 10.85288,5.425369 15.33939,6.03638 54.62847,43.13958 59.15398,55.86288 0.7173,2.01667 2.14048,3.66667 3.16261,3.66667 1.02853,0 5.08408,-6.43175 9.08172,-14.40284 3.97281,-7.92156 8.17783,-15.19503 9.34448,-16.16326 1.16664,-0.96823 2.12117,-2.51349 2.12117,-3.4339 0,-0.92041 0.93467,-2.44918 2.07704,-3.39727 1.14236,-0.94808 2.85223,-3.5791 3.79971,-5.84672 4.72677,-11.31277 48.44549,-47.850046 78.27337,-65.415826 21.77401,-12.822821 32.10688,-18.006851 35.89144,-18.006851 1.39405,0 4.50498,-0.833396 6.9132,-1.85199 7.75413,-3.279742 21.5277,-7.272055 28.37857,-8.225622 12.40369,-1.726456 14.64649,-1.963921 26,-2.752853 17.99424,-1.25038 45.03068,2.733963 60,8.842164 3.3,1.346559 10.2,4.041103 15.33333,5.987876 9.11429,3.456519 18.08759,8.343005 32.42373,17.656625 8.84355,5.745307 35.13591,31.512406 38.10504,37.3438 1.21351,2.383334 2.72808,4.333334 3.36574,4.333334 0.63764,0 2.78388,3.106852 4.76941,6.904113 1.98553,3.79727 4.10396,7.84727 4.7076,9 3.0047,5.73786 8.02484,20.7668 9.24074,27.66434 0.75284,4.27068 2.03687,10.76488 2.85339,14.43155 0.81653,3.66666 1.33512,8.46666 1.15243,10.66666 -0.39407,4.74559 -0.2633,7.20318 0.84021,15.78932 0.51832,4.03299 0.27527,7.01046 -0.64761,7.93334 -0.81255,0.81254 -1.47735,4.12382 -1.47735,7.3584 0,18.10096 -14.84573,78.07954 -22.07986,89.20537 -1.05608,1.6242 -1.92014,3.77075 -1.92014,4.77012 0,1.89361 -5.3029,16.01548 -8.6155,22.94345 -1.05194,2.2 -4.69432,10.84827 -8.09422,19.21836 -3.39989,8.37011 -6.95969,16.47011 -7.91066,18 -0.95098,1.52991 -2.10795,4.4161 -2.57106,6.41375 -0.4631,1.99765 -2.33352,5.82996 -4.15648,8.51624 -1.82296,2.68628 -3.91746,7.12351 -4.65446,9.86049 -0.73699,2.737 -2.53796,6.49934 -4.00214,8.36074 -1.46418,1.8614 -2.66214,4.20045 -2.66214,5.19788 0,0.99744 -1.4692,3.97565 -3.26491,6.61825 -1.79569,2.6426 -3.65145,6.34493 -4.12393,8.2274 -0.47247,1.88247 -3.50326,7.44857 -6.7351,12.36913 -3.23184,4.92056 -5.87606,9.18946 -5.87606,9.48642 0,0.29696 -2.61451,4.558 -5.81002,9.46897 -3.1955,4.91097 -6.88413,11.02904 -8.19694,13.59571 -1.31283,2.56666 -5.44832,8.69002 -9.18999,13.60748 -12.40559,16.30385 -15.10911,20.35722 -32.16184,48.21993 -2.186,3.57175 -4.73217,7.28651 -5.65814,8.25503 -0.92599,0.96853 -4.76562,6.73017 -8.53252,12.80366 -3.7669,6.0735 -9.74683,14.52494 -13.28875,18.78098 -3.54192,4.25605 -7.06631,8.90881 -7.83197,10.33946 -0.76567,1.43066 -2.72811,4.05822 -4.36098,5.83902 -1.63286,1.78081 -6.15136,7.34406 -10.04108,12.3628 C 524.97316,598.32067 516.96873,608 515.85528,608 c -0.65375,0 -1.18863,0.85 -1.18863,1.88889 0,1.03888 -0.51883,2.08888 -1.15296,2.33334 -0.63413,0.24444 -6.77892,6.74444 -13.65508,14.44444 -6.87616,7.7 -14.2124,15.44966 -16.30274,17.22149 -3.01611,2.55652 -3.64796,3.98476 -3.06107,6.91921 0.67304,3.3652 0.35813,3.73496 -3.50175,4.11184 -5.26065,0.51366 -10.3264,7.3776 -10.3264,13.99202 0,4.0782 0.5782,4.76472 5.95352,7.06885 3.27444,1.40359 10.83306,3.37861 16.79691,4.38893 8.99169,1.52327 10.95934,1.53476 11.52246,0.0673 1.51635,-3.95154 4.3151,-1.39186 6.4478,5.89701 2.0687,7.07009 2.07606,7.96039 0.0947,11.44139 -1.18176,2.07609 -2.14864,4.55262 -2.14864,5.5034 0,0.95078 -0.92509,2.49645 -2.05575,3.43481 -1.70486,1.41492 -2.71976,1.2152 -5.94601,-1.17007 -6.42284,-4.74861 -9.45761,-3.84698 -13.88486,4.12516 -2.13764,3.84926 -4.98764,8.42956 -6.33334,10.17846 -3.48521,4.52948 -3.06393,6.86713 2.06399,11.45298 4.55095,4.06987 13.14429,19.38367 14.93315,26.61167 0.53237,2.15112 1.77161,5.45112 2.75384,7.33333 0.98223,1.88222 1.7967,4.6222 1.80993,6.08887 0.0133,1.46667 0.94186,5.96667 2.06365,10 1.19943,4.31252 1.96321,12.00187 1.85415,18.66667 -0.102,6.23333 -0.16079,14.33333 -0.13067,18 0.0477,5.81325 -2.83676,27.70686 -6.28877,47.73184 -0.60665,3.51918 -1.79368,7.08918 -2.63783,7.93333 -0.8442,0.84413 -1.53486,3.31207 -1.53486,5.48428 0,4.05632 -3.36052,17.04001 -5.47826,21.16576 -0.65362,1.27339 -1.18841,3.48797 -1.18841,4.92131 0,1.43334 -0.6,2.97689 -1.33333,3.43012 -0.73334,0.45322 -1.33334,2.09869 -1.33334,3.65658 0,1.5579 -1.16382,6.17248 -2.58629,10.25464 -10.52115,30.1935 -23.26696,88.69865 -24.85519,114.08885 -2.75898,44.1067 0.85636,86.8433 10.77188,127.3333 5.99295,24.4722 7.66572,31.3984 9.33852,38.6667 0.92828,4.0333 3.89443,13.3333 6.59143,20.6666 2.69701,7.3334 5.46112,15.1334 6.14247,17.3334 1.68342,5.4356 5.9563,14.4864 10.94451,23.1826 1.51978,2.6496 4.52908,8.4126 6.68732,12.8068 2.15826,4.3941 6.25838,10.7774 9.11139,14.185 2.85301,3.4076 5.18729,6.5976 5.18729,7.0888 0,3.431 25.08396,29.0394 35.04804,35.7809 6.84219,4.6292 7.16959,4.9625 4.84086,4.9273 -1.0389,-0.016 -6.0668,-2.7348 -11.17312,-6.0424 z"
       id="path64"
       inkscape:connector-curvature="0" />
    <path
       style="fill:#8d5d5d;stroke-width:1.33333325"
       d="m 548.71576,1332.5957 c -20.26684,-13.128 -33.16988,-27.538 -49.19323,-54.9388 -11.35317,-19.4145 -25.30922,-53.1234 -29.4822,-71.2101 -0.95848,-4.1542 -2.1389,-8.1943 -2.62318,-8.9778 -1.76735,-2.8597 -12.47255,-54.118 -12.55919,-60.1357 -0.0159,-1.1 -0.67808,-4.5931 -1.47163,-7.7624 -2.37053,-9.4676 -3.61241,-21.6646 -4.91148,-48.2376 -1.2433,-25.4322 -0.65981,-42.4317 2.17386,-63.3333 0.79534,-5.8667 1.63017,-12.4667 1.85516,-14.6667 1.04962,-10.2639 13.55344,-57.89986 22.04889,-83.99997 8.79715,-27.02701 14.60883,-49.9525 17.4072,-68.66666 0.60311,-4.03334 1.47413,-8.2559 1.9356,-9.38347 1.1306,-2.76251 1.8622,-9.78051 2.85323,-27.37005 0.66362,-11.77847 0.2563,-18.2013 -2.01995,-31.85118 -1.56816,-9.4037 -3.72367,-18.78482 -4.79003,-20.84693 -1.06636,-2.06211 -1.93882,-4.949 -1.93882,-6.41532 0,-1.46632 -1.8,-5.33313 -4,-8.59291 -2.2,-3.25978 -4,-6.46809 -4,-7.12958 0,-0.66148 -2.2753,-3.42447 -5.05622,-6.13996 C 470.55188,728.64871 469.05719,728 463.56761,728 c -8.05432,0 -13.09504,-2.23971 -22.22484,-9.875 -4.02813,-3.36875 -8.4355,-6.125 -9.79417,-6.125 -3.65949,0 -10.21528,5.14187 -10.21528,8.01211 0,3.47004 -2.70177,4.80832 -3.50515,1.73621 -0.36244,-1.38599 -1.97205,-3.09636 -3.57692,-3.80081 -2.47116,-1.08474 -2.96978,-2.50575 -3.25657,-9.28084 -0.30289,-7.15588 0.18951,-8.89986 4.66667,-16.52822 2.75292,-4.6905 6.5053,-9.6389 8.33864,-10.99644 3.35106,-2.48136 16.54956,-6.47534 21.39838,-6.47534 2.08787,0 2.60162,-0.92807 2.60162,-4.69967 0,-3.73547 -0.65731,-4.94957 -3.20382,-5.91776 -1.76209,-0.66995 -3.60456,-1.86651 -4.09436,-2.65901 -1.50728,-2.43884 -12.97794,-7.5271 -20.7258,-9.19372 -4.04652,-0.87044 -9.44652,-2.89552 -12,-4.50018 -7.46478,-4.691 -10.66654,-6.28348 -20.75512,-10.32314 -11.76174,-4.70963 -74.6817,-36.89631 -79.2209,-40.52542 -1.1,-0.87945 -4.7,-3.03609 -8,-4.79252 -3.3,-1.75644 -7.17205,-3.83741 -8.60456,-4.62438 -4.10471,-2.255 -27.98825,-18.44842 -28.72877,-19.47856 -0.36667,-0.51008 -3.36667,-2.28786 -6.66667,-3.95063 -5.63224,-2.83791 -14.97178,-9.34692 -18.03072,-12.56615 -0.75022,-0.78954 -2.31729,-2.03553 -3.48237,-2.76886 -3.72955,-2.34748 -15.68019,-11.75072 -25.84179,-20.33334 C 203.21857,523.75 198.20346,520 197.50043,520 c -0.70301,0 -1.47821,-0.45 -1.72266,-1 -0.48043,-1.08097 -11.10256,-10.90117 -25.59932,-23.66667 -12.49952,-11.00677 -38.25078,-36.69797 -49.51179,-49.39632 -5.13333,-5.78854 -11.17349,-12.34241 -13.42257,-14.56414 -2.24908,-2.22175 -5.81163,-6.43954 -7.916784,-9.37287 -2.10515,-2.93333 -6.564993,-8.08772 -9.910761,-11.45419 -4.350794,-4.37772 -9.069827,-12.05684 -16.570402,-26.96442 -5.767952,-11.46398 -11.317952,-21.53306 -12.333333,-22.37575 -1.01538,-0.84268 -1.846145,-2.25523 -1.846145,-3.13897 0,-0.88375 -2.4,-7.1403 -5.333333,-13.90343 -2.933334,-6.76313 -5.333333,-13.3466 -5.333333,-14.62993 0,-1.28332 -0.617232,-2.95054 -1.371627,-3.70494 -0.754395,-0.7544 -1.605351,-3.4244 -1.891013,-5.93333 -1.026199,-9.01297 -3.512098,-23.32901 -4.959582,-28.56171 -2.975275,-10.75572 -0.943789,-69.97897 2.548715,-74.30181 0.7546,-0.934 1.807799,-4.39819 2.340441,-7.69819 0.532643,-3.3 1.747519,-7.5 2.699723,-9.33333 0.952205,-1.83333 2.74991,-6.81456 3.994902,-11.0694 1.244992,-4.25483 5.497956,-13.63452 9.451031,-20.84376 3.953074,-7.20924 7.187409,-13.74819 7.187409,-14.53101 0,-0.78283 0.75,-1.90314 1.666667,-2.48958 0.916666,-0.58644 2.811149,-3.31625 4.209961,-6.06625 1.39881,-2.75 3.041284,-5 3.64994,-5 0.608656,0 2.540978,-2.25 4.294052,-5 3.722698,-5.8397 14.266767,-16.89388 20.666822,-21.66667 2.4584,-1.83333 6.22592,-4.98411 8.37227,-7.00173 2.14634,-2.01762 6.88095,-5.17773 10.52136,-7.02246 C 125.02148,97.464405 128,95.411716 128,94.747608 c 0,-0.664108 2.25,-1.929857 5,-2.812775 2.75,-0.882918 5.9,-2.362076 7,-3.287016 3.39304,-2.853053 19.14614,-10.383958 22.66666,-10.835986 1.83334,-0.235396 8.73333,-1.66474 15.33333,-3.176319 18.00952,-4.124668 43.71703,-3.164013 64.79962,2.421472 14.93533,3.956872 35.54702,12.276629 45.20038,18.244809 2.56667,1.586838 7.18375,3.875066 10.26017,5.084947 15.59834,6.13444 55.70471,44.23305 59.65014,56.66401 1.75844,5.54033 4.70338,3.00174 10.8863,-9.38408 3.38619,-6.78334 7.5922,-14.24331 9.34671,-16.57771 1.75451,-2.3344 3.19001,-4.81093 3.19001,-5.5034 0,-0.69247 0.93467,-2.03474 2.07704,-2.98283 1.14236,-0.94808 2.85223,-3.5791 3.79971,-5.84672 4.69889,-11.24606 48.61321,-47.946566 78.27388,-65.415826 21.75897,-12.815393 32.10649,-18.006851 35.89093,-18.006851 1.39405,0 4.50498,-0.833396 6.9132,-1.85199 7.75413,-3.279742 21.5277,-7.272055 28.37857,-8.225622 12.79416,-1.780805 14.74611,-1.981478 26.66667,-2.741517 17.95314,-1.144667 44.4675,2.806991 59.33333,8.842943 3.3,1.339894 10.2,4.028988 15.33333,5.975761 9.11429,3.456519 18.08759,8.343005 32.42373,17.656625 8.84355,5.745307 35.13591,31.512406 38.10504,37.3438 1.21351,2.383334 2.72808,4.333334 3.36574,4.333334 0.63764,0 2.78388,3.106852 4.76941,6.904113 1.98553,3.79727 4.10396,7.84727 4.7076,9 3.0047,5.73786 8.02484,20.7668 9.24074,27.66434 0.75284,4.27068 1.97642,10.72987 2.71907,14.35375 0.74265,3.62388 1.3132,9.62388 1.26788,13.33333 -0.0453,3.70945 0.31615,9.64967 0.80321,13.20045 0.56206,4.09736 0.34587,6.99572 -0.59174,7.93334 -0.81255,0.81254 -1.47735,4.32781 -1.47735,7.81172 0,3.4839 -0.57364,9.2139 -1.27475,12.73333 -0.70112,3.51943 -2.52346,12.99896 -4.04968,21.06563 -1.5262,8.06666 -3.97346,18.56666 -5.43836,23.33333 -5.95329,19.37157 -8.36899,26.20895 -10.74403,30.40955 -1.37124,2.42525 -2.49318,5.02292 -2.49318,5.77258 0,1.49647 -5.70472,16.80276 -8.62856,23.1512 -1.01322,2.2 -4.28526,10 -7.27118,17.33334 -2.98592,7.33333 -6.54252,15.43333 -7.90355,18 -1.36104,2.56666 -2.8696,6.30112 -3.35239,8.29877 -0.48277,1.99765 -2.36928,5.82996 -4.19224,8.51624 -1.82296,2.68628 -3.91746,7.12351 -4.65446,9.86049 -0.73699,2.737 -2.53796,6.49934 -4.00214,8.36074 -1.46418,1.8614 -2.66214,4.20045 -2.66214,5.19788 0,0.99744 -1.41528,3.9028 -3.14508,6.45637 -1.72979,2.55356 -3.58982,6.14284 -4.13339,7.97617 -0.54357,1.83334 -2.53224,5.73334 -4.41925,8.66667 -7.58706,11.79391 -12.0054,19.07689 -19.8178,32.66667 -2.74023,4.76666 -8.02024,12.69002 -11.73336,17.60748 -12.33527,16.33614 -16.24419,22.206 -33.55788,50.39252 -2.02704,3.3 -4.43041,6.7485 -5.34084,7.66336 -0.91041,0.91484 -3.89753,5.41484 -6.63804,10 -2.74052,4.58514 -8.08053,12.23664 -11.86671,17.0033 -3.78617,4.76667 -8.0366,10.43771 -9.4454,12.60232 -1.40878,2.16462 -3.76312,5.25838 -5.23185,6.87503 -1.46872,1.61665 -5.85291,7.04561 -9.74263,12.06435 C 524.97316,598.32067 516.96873,608 515.85528,608 c -0.65375,0 -1.18863,0.85 -1.18863,1.88889 0,1.03888 -0.51883,2.08888 -1.15296,2.33334 -0.63413,0.24444 -6.77892,6.74444 -13.65508,14.44444 -6.87616,7.7 -14.2124,15.44966 -16.30274,17.22149 -3.01611,2.55652 -3.64796,3.98476 -3.06107,6.91921 0.67304,3.3652 0.35813,3.73496 -3.50175,4.11184 -5.26065,0.51366 -10.3264,7.3776 -10.3264,13.99202 0,4.0782 0.5782,4.76472 5.95352,7.06885 3.27444,1.40359 10.83306,3.37861 16.79691,4.38893 8.99169,1.52327 10.95934,1.53476 11.52246,0.0673 1.51635,-3.95154 4.3151,-1.39186 6.4478,5.89701 2.0687,7.07009 2.07606,7.96039 0.0947,11.44139 -1.18176,2.07609 -2.14864,4.55262 -2.14864,5.5034 0,0.95078 -0.92509,2.49645 -2.05575,3.43481 -1.70486,1.41492 -2.71976,1.2152 -5.94601,-1.17007 -6.42284,-4.74861 -9.45761,-3.84698 -13.88486,4.12516 -2.13764,3.84926 -4.98764,8.42956 -6.33334,10.17846 -3.48521,4.52948 -3.06393,6.86713 2.06399,11.45298 4.55095,4.06987 13.14429,19.38367 14.93315,26.61167 0.53237,2.15112 1.77161,5.45112 2.75384,7.33333 0.98223,1.88222 1.7967,4.6222 1.80993,6.08887 0.0133,1.46667 0.94186,5.96667 2.06365,10 1.19943,4.31252 1.96321,12.00187 1.85415,18.66667 -0.102,6.23333 -0.16079,14.33333 -0.13067,18 0.0477,5.81325 -2.83676,27.70686 -6.28877,47.73184 -0.60665,3.51918 -1.79368,7.08918 -2.63783,7.93333 -0.8442,0.84413 -1.53486,3.31207 -1.53486,5.48428 0,4.05632 -3.36052,17.04001 -5.47826,21.16576 -0.65362,1.27339 -1.18841,3.48797 -1.18841,4.92131 0,1.43334 -0.6,2.97689 -1.33333,3.43012 -0.73334,0.45322 -1.33334,2.09869 -1.33334,3.65658 0,1.5579 -1.16382,6.17248 -2.58629,10.25464 -10.52115,30.1935 -23.26696,88.69865 -24.85519,114.08885 -2.75898,44.1067 0.85636,86.8433 10.77188,127.3333 5.99295,24.4722 7.66572,31.3984 9.33852,38.6667 0.92828,4.0333 3.89443,13.3333 6.59143,20.6666 2.69701,7.3334 5.46112,15.1334 6.14247,17.3334 1.68342,5.4356 5.9563,14.4864 10.94451,23.1826 1.51978,2.6496 4.52908,8.4126 6.68732,12.8068 2.15826,4.3941 6.25838,10.7774 9.11139,14.185 2.85301,3.4076 5.18729,6.5976 5.18729,7.0888 0,3.431 25.08396,29.0394 35.04804,35.7809 6.84219,4.6292 7.16959,4.9625 4.84086,4.9273 -1.0389,-0.016 -6.0668,-2.7348 -11.17312,-6.0424 z"
       id="path62"
       inkscape:connector-curvature="0" />
    <path
       style="fill:#fd0000;stroke-width:1.33333325"
       d="m 549.11804,1332.8545 c -20.50138,-13.2839 -33.62958,-27.895 -49.59551,-55.1976 -11.35317,-19.4145 -25.30922,-53.1234 -29.4822,-71.2101 -0.95848,-4.1542 -2.1389,-8.1943 -2.62318,-8.9778 -1.10222,-1.7835 -4.24806,-15.5157 -7.42587,-32.4155 -1.33895,-7.1206 -2.76919,-13.4881 -3.17831,-14.1501 -0.40912,-0.662 -1.0494,-4.436 -1.42282,-8.3868 -0.37344,-3.9508 -1.3017,-9.7764 -2.06282,-12.9457 -2.33308,-9.7153 -3.57069,-22.0181 -4.85248,-48.2376 -1.2433,-25.4322 -0.65981,-42.4317 2.17386,-63.3333 0.79534,-5.8667 1.63017,-12.4667 1.85516,-14.6667 1.15918,-11.33523 19.09528,-78.40545 23.53318,-87.99997 1.65396,-3.57581 5.91899,-19.41357 10.05366,-37.33333 1.86124,-8.06667 3.95224,-16.50927 4.64668,-18.76133 0.69442,-2.25207 1.2626,-5.963 1.2626,-8.24654 0,-2.28352 0.60532,-5.74397 1.34514,-7.68986 1.64027,-4.31424 2.32456,-10.22215 3.40402,-29.38912 0.66329,-11.77754 0.25577,-18.20238 -2.02031,-31.85118 -1.56816,-9.4037 -3.72367,-18.78482 -4.79003,-20.84693 -1.06636,-2.06211 -1.93882,-4.949 -1.93882,-6.41532 0,-1.46632 -1.8,-5.33313 -4,-8.59291 -2.2,-3.25978 -4,-6.46809 -4,-7.12958 0,-0.66148 -2.2753,-3.42447 -5.05622,-6.13996 C 470.55188,728.64871 469.05719,728 463.56761,728 c -8.05432,0 -13.09504,-2.23971 -22.22484,-9.875 -4.02813,-3.36875 -8.4355,-6.125 -9.79417,-6.125 -3.65949,0 -10.21528,5.14187 -10.21528,8.01211 0,3.47004 -2.70177,4.80832 -3.50515,1.73621 -0.36244,-1.38599 -1.97205,-3.09636 -3.57692,-3.80081 -2.47116,-1.08474 -2.96978,-2.50575 -3.25657,-9.28084 -0.30289,-7.15588 0.18951,-8.89986 4.66667,-16.52822 2.75292,-4.6905 6.5053,-9.6389 8.33864,-10.99644 3.35106,-2.48136 16.54956,-6.47534 21.39838,-6.47534 2.08787,0 2.60162,-0.92807 2.60162,-4.69967 0,-3.73547 -0.65731,-4.94957 -3.20382,-5.91776 -1.76209,-0.66995 -3.60456,-1.86651 -4.09436,-2.65901 -1.50728,-2.43884 -12.97794,-7.5271 -20.7258,-9.19372 -4.04652,-0.87044 -9.44652,-2.89552 -12,-4.50018 -7.46478,-4.691 -10.66654,-6.28348 -20.75512,-10.32314 -11.76174,-4.70963 -74.6817,-36.89631 -79.2209,-40.52542 -1.1,-0.87945 -4.7,-3.03609 -8,-4.79252 -3.3,-1.75644 -7.17205,-3.83741 -8.60456,-4.62438 -4.10471,-2.255 -27.98825,-18.44842 -28.72877,-19.47856 -0.36667,-0.51008 -3.36667,-2.28786 -6.66667,-3.95063 -5.63224,-2.83791 -14.97178,-9.34692 -18.03072,-12.56615 -0.75022,-0.78954 -2.31729,-2.03553 -3.48237,-2.76886 -3.72955,-2.34748 -15.68019,-11.75072 -25.84179,-20.33334 C 203.21857,523.75 198.20346,520 197.50043,520 c -0.70301,0 -1.47821,-0.45 -1.72266,-1 -0.48043,-1.08097 -11.10256,-10.90117 -25.59932,-23.66667 -12.49952,-11.00677 -38.25078,-36.69797 -49.51179,-49.39632 -5.13333,-5.78854 -11.17349,-12.34241 -13.42257,-14.56414 -2.24908,-2.22175 -5.81163,-6.43954 -7.916784,-9.37287 -2.10515,-2.93333 -6.564993,-8.08772 -9.910761,-11.45419 -4.350794,-4.37772 -9.069827,-12.05684 -16.570402,-26.96442 -5.767952,-11.46398 -11.317952,-21.53306 -12.333333,-22.37575 -1.01538,-0.84268 -1.846145,-2.25523 -1.846145,-3.13897 0,-0.88375 -2.4,-7.1403 -5.333333,-13.90343 -2.933334,-6.76313 -5.333333,-13.3466 -5.333333,-14.62993 0,-1.28332 -0.617232,-2.95054 -1.371627,-3.70494 -0.754395,-0.7544 -1.605351,-3.4244 -1.891013,-5.93333 -1.026199,-9.01297 -3.512098,-23.32901 -4.959582,-28.56171 -2.975275,-10.75572 -0.943789,-69.97897 2.548715,-74.30181 0.7546,-0.934 1.807799,-4.39819 2.340441,-7.69819 0.532643,-3.3 1.747519,-7.5 2.699723,-9.33333 0.952205,-1.83333 2.74991,-6.81456 3.994902,-11.0694 1.244992,-4.25483 5.497956,-13.63452 9.451031,-20.84376 3.953074,-7.20924 7.187409,-13.74819 7.187409,-14.53101 0,-0.78283 0.75,-1.90314 1.666667,-2.48958 0.916666,-0.58644 2.811149,-3.31625 4.209961,-6.06625 1.39881,-2.75 3.041284,-5 3.64994,-5 0.608656,0 2.540978,-2.25 4.294052,-5 3.722698,-5.8397 14.266767,-16.89388 20.666822,-21.66667 2.4584,-1.83333 6.22592,-4.98411 8.37227,-7.00173 2.14634,-2.01762 6.88095,-5.17773 10.52136,-7.02246 C 125.02148,97.464405 128,95.411716 128,94.747608 c 0,-0.664108 2.25,-1.929857 5,-2.812775 2.75,-0.882918 5.9,-2.362076 7,-3.287016 3.39304,-2.853053 19.14614,-10.383958 22.66666,-10.835986 1.83334,-0.235396 8.73333,-1.66474 15.33333,-3.176319 18.00952,-4.124668 43.71703,-3.164013 64.79962,2.421472 14.93533,3.956872 35.54702,12.276629 45.20038,18.244809 2.56667,1.586838 7.18375,3.875066 10.26017,5.084947 15.59834,6.13444 55.70471,44.23305 59.65014,56.66401 1.75844,5.54033 4.70338,3.00174 10.8863,-9.38408 3.38619,-6.78334 7.5922,-14.24331 9.34671,-16.57771 1.75451,-2.3344 3.19001,-4.81093 3.19001,-5.5034 0,-0.69247 0.93467,-2.03474 2.07704,-2.98283 1.14236,-0.94808 2.85223,-3.5791 3.79971,-5.84672 4.69889,-11.24606 48.61321,-47.946566 78.27388,-65.415826 21.75897,-12.815393 32.10649,-18.006851 35.89093,-18.006851 1.39405,0 4.50498,-0.833396 6.9132,-1.85199 7.75413,-3.279742 21.5277,-7.272055 28.37857,-8.225622 12.79416,-1.780805 14.74611,-1.981478 26.66667,-2.741517 17.95314,-1.144667 44.4675,2.806991 59.33333,8.842943 3.3,1.339894 10.2,4.028988 15.33333,5.975761 9.11429,3.456519 18.08759,8.343005 32.42373,17.656625 8.84355,5.745307 35.13591,31.512406 38.10504,37.3438 1.21351,2.383334 2.72808,4.333334 3.36574,4.333334 0.63764,0 2.78388,3.106852 4.76941,6.904113 1.98553,3.79727 4.10396,7.84727 4.7076,9 3.0047,5.73786 8.02484,20.7668 9.24074,27.66434 0.75284,4.27068 1.97642,10.72987 2.71907,14.35375 0.74265,3.62388 1.3132,9.62388 1.26788,13.33333 -0.0453,3.70945 0.31615,9.64967 0.80321,13.20045 0.56206,4.09736 0.34587,6.99572 -0.59174,7.93334 -0.81255,0.81254 -1.47735,4.32781 -1.47735,7.81172 0,3.4839 -0.57364,9.2139 -1.27475,12.73333 -0.70112,3.51943 -2.52346,12.99896 -4.04968,21.06563 -1.5262,8.06666 -3.97346,18.56666 -5.43836,23.33333 -5.95329,19.37157 -8.36899,26.20895 -10.74403,30.40955 -1.37124,2.42525 -2.49318,5.02292 -2.49318,5.77258 0,1.49647 -5.70472,16.80276 -8.62856,23.1512 -1.01322,2.2 -4.28526,10 -7.27118,17.33334 -2.98592,7.33333 -6.54252,15.43333 -7.90355,18 -1.36104,2.56666 -2.8696,6.30112 -3.35239,8.29877 -0.48277,1.99765 -2.36928,5.82996 -4.19224,8.51624 -1.82296,2.68628 -3.91746,7.12351 -4.65446,9.86049 -0.73699,2.737 -2.53796,6.49934 -4.00214,8.36074 -1.46418,1.8614 -2.66214,4.20045 -2.66214,5.19788 0,0.99744 -1.41528,3.9028 -3.14508,6.45637 -1.72979,2.55356 -3.58982,6.14284 -4.13339,7.97617 -0.54357,1.83334 -2.53224,5.73334 -4.41925,8.66667 -7.58706,11.79391 -12.0054,19.07689 -19.8178,32.66667 -2.74023,4.76666 -8.02024,12.69002 -11.73336,17.60748 -12.33527,16.33614 -16.24419,22.206 -33.55788,50.39252 -2.02704,3.3 -4.43041,6.7485 -5.34084,7.66336 -0.91041,0.91484 -3.89753,5.41484 -6.63804,10 -2.74052,4.58514 -8.08053,12.23664 -11.86671,17.0033 -3.78617,4.76667 -8.0366,10.43771 -9.4454,12.60232 -1.40878,2.16462 -3.76312,5.25838 -5.23185,6.87503 -1.46872,1.61665 -5.85291,7.04561 -9.74263,12.06435 C 524.97316,598.32067 516.96873,608 515.85528,608 c -0.65375,0 -1.18863,0.85 -1.18863,1.88889 0,1.03888 -0.51883,2.08888 -1.15296,2.33334 -0.63413,0.24444 -6.77892,6.74444 -13.65508,14.44444 -6.87616,7.7 -14.2124,15.44966 -16.30274,17.22149 -3.01611,2.55652 -3.64796,3.98476 -3.06107,6.91921 0.67304,3.3652 0.35813,3.73496 -3.50175,4.11184 -5.26065,0.51366 -10.3264,7.3776 -10.3264,13.99202 0,4.0782 0.5782,4.76472 5.95352,7.06885 3.27444,1.40359 10.83306,3.37861 16.79691,4.38893 8.99169,1.52327 10.95934,1.53476 11.52246,0.0673 1.51635,-3.95154 4.3151,-1.39186 6.4478,5.89701 2.0687,7.07009 2.07606,7.96039 0.0947,11.44139 -1.18176,2.07609 -2.14864,4.55262 -2.14864,5.5034 0,0.95078 -0.92509,2.49645 -2.05575,3.43481 -1.70486,1.41492 -2.71976,1.2152 -5.94601,-1.17007 -6.42284,-4.74861 -9.45761,-3.84698 -13.88486,4.12516 -2.13764,3.84926 -4.98764,8.42956 -6.33334,10.17846 -3.48521,4.52948 -3.06393,6.86713 2.06399,11.45298 4.55095,4.06987 13.14429,19.38367 14.93315,26.61167 0.53237,2.15112 1.77161,5.45112 2.75384,7.33333 0.98223,1.88222 1.7967,4.6222 1.80993,6.08887 0.0133,1.46667 0.94226,5.96667 2.06454,10 1.18282,4.25089 1.94812,11.81688 1.82074,18 -0.1208,5.86667 -0.17591,13.96667 -0.12227,18 0.0845,6.35839 -2.62199,27.26788 -6.2646,48.39851 -0.60665,3.51918 -1.79368,7.08918 -2.63782,7.93333 -0.84426,0.84413 -1.53492,3.31207 -1.53492,5.48428 0,4.05632 -3.36052,17.04001 -5.47826,21.16576 -0.65362,1.27339 -1.18841,3.48797 -1.18841,4.92131 0,1.43334 -0.6,2.97689 -1.33333,3.43012 -0.73334,0.45322 -1.33334,2.09869 -1.33334,3.65658 0,1.5579 -1.16382,6.17248 -2.58629,10.25464 -10.52115,30.1935 -23.26696,88.69865 -24.85519,114.08885 -2.77129,44.3035 0.81212,86.6626 10.77188,127.3333 5.99295,24.4722 7.66572,31.3984 9.33852,38.6667 0.92828,4.0333 3.89443,13.3333 6.59143,20.6666 2.69701,7.3334 5.46112,15.1334 6.14247,17.3334 1.68342,5.4356 5.9563,14.4864 10.94451,23.1826 1.51978,2.6496 4.52908,8.4126 6.68732,12.8068 2.15826,4.3941 6.25838,10.7774 9.11139,14.185 2.85301,3.4076 5.18729,6.5976 5.18729,7.0888 0,3.431 25.08396,29.0394 35.04804,35.7809 6.84219,4.6292 7.16959,4.9625 4.84086,4.9273 -1.0389,-0.016 -5.88578,-2.6182 -10.77084,-5.7836 z"
       id="path60"
       inkscape:connector-curvature="0" />
    <path
       style="fill:#562222;stroke-width:1.33333325"
       d="m 549.11804,1332.8545 c -20.50138,-13.2839 -33.62958,-27.895 -49.59551,-55.1976 -11.35317,-19.4145 -25.30922,-53.1234 -29.4822,-71.2101 -0.95848,-4.1542 -2.1389,-8.1943 -2.62318,-8.9778 -1.10222,-1.7835 -4.24806,-15.5157 -7.42587,-32.4155 -1.33895,-7.1206 -2.76919,-13.4881 -3.17831,-14.1501 -0.40912,-0.662 -1.0494,-4.436 -1.42282,-8.3868 -0.37344,-3.9508 -1.3017,-9.7764 -2.06282,-12.9457 -2.33308,-9.7153 -3.57069,-22.0181 -4.85248,-48.2376 -1.2433,-25.4322 -0.65981,-42.4317 2.17386,-63.3333 0.79534,-5.8667 1.63017,-12.4667 1.85516,-14.6667 1.15918,-11.33523 19.09528,-78.40545 23.53318,-87.99997 1.65396,-3.57581 5.91899,-19.41357 10.05366,-37.33333 1.86124,-8.06667 3.95224,-16.50927 4.64668,-18.76133 0.69442,-2.25207 1.2626,-5.963 1.2626,-8.24654 0,-2.28352 0.60532,-5.74397 1.34514,-7.68986 1.64027,-4.31424 2.32456,-10.22215 3.40402,-29.38912 0.66329,-11.77754 0.25577,-18.20238 -2.02031,-31.85118 -1.56816,-9.4037 -3.72367,-18.78482 -4.79003,-20.84693 -1.06636,-2.06211 -1.93882,-4.949 -1.93882,-6.41532 0,-1.46632 -1.8,-5.33313 -4,-8.59291 -2.2,-3.25978 -4,-6.47761 -4,-7.15072 0,-0.67312 -1.8,-2.94836 -4,-5.05609 -2.2,-2.10773 -4,-4.91999 -4,-6.24945 0,-3.29886 0.35216,-3.15086 6.45508,2.71282 5.31729,5.10886 13.81325,20.00435 15.65542,27.44776 0.53238,2.15112 1.77162,5.45112 2.75384,7.33334 0.98224,1.88221 1.79671,4.6222 1.80993,6.08886 0.0133,1.46667 0.94227,5.96667 2.06455,10 1.18281,4.2509 1.94812,11.81688 1.82073,18 -0.1208,5.86667 -0.1759,13.96667 -0.12226,18 0.0845,6.35839 -2.62199,27.26788 -6.2646,48.39851 -0.60665,3.51919 -1.79368,7.08919 -2.63783,7.93333 -0.8442,0.84416 -1.53486,3.3121 -1.53486,5.48431 0,4.05632 -3.36052,17.04001 -5.47826,21.16576 -0.65362,1.27339 -1.18841,3.48797 -1.18841,4.92131 0,1.43334 -0.6,2.97689 -1.33333,3.43012 -0.73334,0.45322 -1.33334,2.09869 -1.33334,3.65658 0,1.5579 -1.16382,6.17248 -2.58629,10.25464 -10.52115,30.1935 -23.26696,88.69861 -24.85519,114.08881 -2.77129,44.3035 0.81212,86.6626 10.77188,127.3333 5.99295,24.4722 7.66572,31.3984 9.33852,38.6667 0.92828,4.0333 3.89443,13.3333 6.59143,20.6666 2.69701,7.3334 5.46112,15.1334 6.14247,17.3334 1.68342,5.4356 5.9563,14.4864 10.94451,23.1826 1.51978,2.6496 4.52908,8.4126 6.68732,12.8068 2.15826,4.3941 6.25838,10.7774 9.11139,14.185 2.85301,3.4076 5.18729,6.5976 5.18729,7.0888 0,3.431 25.08396,29.0394 35.04804,35.7809 6.84219,4.6292 7.16959,4.9625 4.84086,4.9273 -1.0389,-0.016 -5.88578,-2.6182 -10.77084,-5.7836 z M 447.77147,669.33333 447.26285,664 h 6.2019 c 3.41105,0 7.9269,-0.345 10.03524,-0.76667 3.77534,-0.75506 3.83333,-0.6744 3.83333,5.33334 v 6.1 h -9.52661 -9.52663 z"
       id="path58"
       inkscape:connector-curvature="0" />
    <path
       style="fill:#000000;stroke-width:1.33333325"
       d="m 548.84538,1332.6791 c -19.87745,-12.8769 -33.72593,-28.3506 -49.47294,-55.2789 -11.20953,-19.1689 -25.18304,-52.9703 -29.33211,-70.9534 -0.95848,-4.1542 -2.1389,-8.1943 -2.62318,-8.9778 -1.10222,-1.7835 -4.24806,-15.5157 -7.42587,-32.4155 -1.33895,-7.1206 -2.76919,-13.4881 -3.17831,-14.1501 -0.40912,-0.662 -1.0494,-4.436 -1.42282,-8.3868 -0.37344,-3.9508 -1.29927,-9.7655 -2.0574,-12.9216 -2.21567,-9.2239 -3.55344,-22.9118 -4.84712,-49.595 -1.18279,-24.3963 -0.57631,-41.7716 2.16412,-62 0.79478,-5.8667 1.62913,-12.4667 1.85412,-14.6667 0.99332,-9.71321 13.90192,-59.16905 20.35898,-77.99997 4.63404,-13.51437 9.15614,-29.69721 13.22672,-47.33333 1.86187,-8.06667 3.95338,-16.50927 4.64782,-18.76133 0.69442,-2.25207 1.2626,-5.963 1.2626,-8.24654 0,-2.28352 0.58616,-5.69358 1.30258,-7.57792 1.77235,-4.66161 2.50047,-10.71384 3.46564,-28.80656 0.66016,-12.37506 0.26131,-18.74934 -2.03472,-32.51782 -1.57072,-9.41903 -3.72832,-18.81268 -4.79468,-20.87479 -1.06636,-2.06211 -1.93882,-4.949 -1.93882,-6.41532 0,-1.46632 -1.8,-5.33313 -4,-8.59291 -2.2,-3.25978 -4,-6.41129 -4,-7.00337 0,-0.59207 -1.85622,-2.99161 -4.12492,-5.33232 -2.2687,-2.34071 -3.9187,-5.20347 -3.66667,-6.36169 0.71173,-3.27075 10.68087,6.51694 14.75919,14.49057 4.60106,8.99563 7.69906,16.12423 7.69906,17.71576 0,0.72201 0.89631,3.03133 1.99179,5.13183 1.09548,2.10049 2.0026,5.01908 2.01582,6.48574 0.0133,1.46667 0.94227,5.96667 2.06455,10 1.18281,4.2509 1.94812,11.81688 1.82073,18 -0.1208,5.86667 -0.1759,13.96667 -0.12226,18 0.0845,6.35839 -2.62199,27.26788 -6.2646,48.39851 -0.60665,3.51919 -1.79368,7.08919 -2.63783,7.93333 -0.8442,0.84416 -1.53486,3.3121 -1.53486,5.48431 0,4.05632 -3.36052,17.04001 -5.47826,21.16576 -0.65362,1.27339 -1.18841,3.48797 -1.18841,4.92131 0,1.43334 -0.6,2.97689 -1.33333,3.43012 -0.73334,0.45322 -1.33334,2.09869 -1.33334,3.65658 0,1.5579 -1.17817,6.17248 -2.61814,10.25464 -5.50892,15.61703 -14.69962,52.13551 -20.65947,82.08881 -5.91504,29.728 -6.82384,75.6495 -2.20331,111.3333 2.97894,23.0059 5.40824,34.9909 14.18868,70 1.28747,5.1333 2.92734,12.6333 3.64416,16.6667 0.71682,4.0333 1.76094,7.9333 2.32024,8.6666 0.55931,0.7334 3.25326,7.9334 5.98654,16 6.03617,17.8144 9.24385,25.2804 15.68863,36.516 1.51978,2.6496 4.47348,8.2978 6.56379,12.5517 2.09029,4.2539 6.04043,10.6684 8.77804,14.2544 2.73763,3.5861 7.07751,9.3944 9.64417,12.9073 5.62475,7.6985 23.45116,25.0082 31.04804,30.1481 6.84219,4.6292 7.16959,4.9625 4.84086,4.9273 -1.0389,-0.016 -6.00847,-2.6972 -11.0435,-5.959 z M 448.28661,670.85881 c 0.0596,-2.09432 -0.316,-4.49432 -0.83453,-5.33333 -0.65905,-1.06636 1.03719,-1.52548 5.63588,-1.52548 3.61828,0 8.30369,-0.345 10.41203,-0.76667 3.77534,-0.75506 3.83333,-0.6744 3.83333,5.33334 v 6.1 h -9.57749 -9.57748 z"
       id="path56"
       inkscape:connector-curvature="0" />
  </g>
</svg>
