<?xml version="1.0" encoding="UTF-8" standalone="no"?>
<!-- Created with Inkscape (http://www.inkscape.org/) -->

<svg
   xmlns:dc="http://purl.org/dc/elements/1.1/"
   xmlns:cc="http://creativecommons.org/ns#"
   xmlns:rdf="http://www.w3.org/1999/02/22-rdf-syntax-ns#"
   xmlns:svg="http://www.w3.org/2000/svg"
   xmlns="http://www.w3.org/2000/svg"
   xmlns:sodipodi="http://sodipodi.sourceforge.net/DTD/sodipodi-0.dtd"
   xmlns:inkscape="http://www.inkscape.org/namespaces/inkscape"
   version="1.1"
   id="svg30"
   width="512"
   height="80"
   viewBox="0 0 512 80"
   sodipodi:docname="logo.svg"
   inkscape:version="0.92.4 (5da689c313, 2019-01-14)">
  <metadata
     id="metadata36">
    <rdf:RDF>
      <cc:Work
         rdf:about="">
        <dc:format>image/svg+xml</dc:format>
        <dc:type
           rdf:resource="http://purl.org/dc/dcmitype/StillImage" />
        <dc:title></dc:title>
      </cc:Work>
    </rdf:RDF>
  </metadata>
  <defs
     id="defs34" />
  <sodipodi:namedview
     pagecolor="#ffffff"
     bordercolor="#666666"
     borderopacity="1"
     objecttolerance="10"
     gridtolerance="10"
     guidetolerance="10"
     inkscape:pageopacity="0"
     inkscape:pageshadow="2"
     inkscape:window-width="1366"
     inkscape:window-height="705"
     id="namedview32"
     showgrid="false"
     inkscape:zoom="2.3652344"
     inkscape:cx="256"
     inkscape:cy="40"
     inkscape:window-x="-8"
     inkscape:window-y="-8"
     inkscape:window-maximized="1"
     inkscape:current-layer="svg30" />
  <path
     style="fill:#000000;stroke-width:1.33333337"
     d="m 7.7071295,63.343469 v -7.40843 l 19.0000005,-0.0204 c 10.45,-0.0112 19.809036,-0.53312 20.797857,-1.15977 0.988821,-0.62664 1.581255,-2.26745 1.316519,-3.64625 -0.442226,-2.30318 -2.132311,-2.5368 -20.797858,-2.87496 L 7.7071295,47.865589 v -6.60118 -6.60117 l 23.6666665,-0.3641 23.666667,-0.3641 v -3.33333 -3.33334 l -23.666667,-0.36409 -23.6666665,-0.3641 v -7.30257 -7.302569 l 34.3333335,0.0074 c 44.902763,0.0097 47.924848,0.834562 49.225369,13.435399 0.731967,7.09208 0.59056,7.52785 -3.5821,11.03891 l -4.34415,3.65537 3.85044,4.02213 c 3.377516,3.52812 3.844677,4.9948 3.803514,11.94133 -0.03784,6.38598 -0.625429,8.49812 -3.034928,10.90931 -2.937841,2.93992 -3.636518,2.99697 -41.61974,3.39854 l -38.6317385,0.40847 z m 116.0000105,5.91437 c -11.04886,-1.23058 -14.72969,-2.7615 -19.08535,-7.93791 -3.90396,-4.63959 -7.581327,-15.47398 -7.581327,-22.33638 0,-5.11261 3.036007,-13.10577 6.384187,-16.80826 6.89081,-7.619977 22.61502,-10.720375 51.00825,-10.057472 24.3132,0.567646 26.69702,1.467862 29.09394,10.986922 0.8325,3.30613 1.51363,15.34546 1.51363,26.75406 v 20.74291 h -13.96129 -13.96131 l -0.37203,-17.66667 -0.37204,-17.66667 h -12.79509 c -13.42424,0 -17.20491,1.33341 -17.20491,6.06803 0,4.79045 3.67977,6.59864 13.42858,6.59864 h 9.23809 v 11.33333 11.33334 l -8.33333,-0.1893 c -4.58334,-0.10412 -12.23334,-0.62367 -17,-1.15457 z M 194.3738,41.268369 V 11.93504 h 12.66667 c 11.77777,0 12.66667,0.187134 12.66667,2.666666 0,3.213333 0.007,3.213623 12.24616,0.520228 12.0619,-2.654354 32.57118,-3.048092 36.82518,-0.70697 1.68924,0.929648 4.237,3.601975 5.66168,5.938505 2.3,3.77207 2.5909,6.82621 2.59532,27.24824 l 0.005,23 h -14.62683 -14.62684 l -0.37316,-17 -0.37317,-17 -11.66667,-0.38525 -11.66666,-0.38524 v 17.38524 17.38525 H 209.04047 194.3738 Z m 109.94851,21.2365 c -15.67879,-13.67708 -16.61517,-14.97187 -16.61517,-22.97474 v -7.02951 l 8.33333,-5.64591 c 4.58333,-3.10525 11.24885,-7.73251 14.81225,-10.282791 l 6.47892,-4.636878 h 18.52108 c 13.9303,0 18.52,0.413114 18.51674,1.666666 -0.003,0.916667 -7.20043,7.366663 -15.99566,14.333333 -8.79522,6.96667 -15.99132,12.96667 -15.99132,13.33333 0,0.36667 7.1961,6.36667 15.99132,13.33334 8.79523,6.96666 15.99327,13.41666 15.99566,14.33333 0.003,1.26085 -4.95919,1.66667 -20.38048,1.66667 h -20.38483 z m 61.05149,7.13231 -4.33333,-0.53776 v -10.58219 -10.58219 h 13.83675 c 10.62005,0 14.21933,-0.461 15.48249,-1.98302 2.91344,-3.51048 0.58571,-5.25841 -13.32308,-10.00448 -15.2144,-5.19159 -15.99616,-6.04355 -15.99616,-17.43263 V 11.93504 h 15.33333 15.33334 l 0.0204,3.666666 c 0.0107,2.016663 0.4854,4.398483 1.05372,5.292933 0.56832,0.89444 7.72652,4.91117 15.9071,8.92607 11.4339,5.61155 15.35312,8.22668 16.9463,11.30752 2.91314,5.63341 2.54076,13.23756 -0.94947,19.38836 -4.59844,8.10378 -11.53211,10.01326 -35.64473,9.81628 -10.63334,-0.0869 -21.28334,-0.39992 -23.66667,-0.69569 z m 79.66667,-8.36881 v -9.33333 h 18.66667 18.66666 v 9.33333 9.33334 h -18.66666 -18.66667 z m -7.96757,-18.63698 c -9.44498,-6.26583 -10.63552,-8.53802 -10.66944,-20.36302 l -0.0297,-10.333329 h 12 12 v 5.733329 c 0,3.15334 0.72,6.45334 1.6,7.33334 2.1377,2.13768 21.32898,2.13768 23.46667,0 0.88,-0.88 1.6,-4.18 1.6,-7.33334 V 11.93504 h 13.33333 13.33334 v 10.046909 c 0,11.86165 -1.46643,14.71598 -10.55752,20.54972 l -6.3426,4.07004 -21.88324,-0.006 -21.88327,-0.006 -5.96757,-3.95891 z"
     id="path40"
     inkscape:connector-curvature="0" />
</svg>
