<?xml version="1.0" encoding="UTF-8" standalone="no"?>
<!-- Created with Inkscape (http://www.inkscape.org/) -->

<svg
   xmlns:dc="http://purl.org/dc/elements/1.1/"
   xmlns:cc="http://creativecommons.org/ns#"
   xmlns:rdf="http://www.w3.org/1999/02/22-rdf-syntax-ns#"
   xmlns:svg="http://www.w3.org/2000/svg"
   xmlns="http://www.w3.org/2000/svg"
   xmlns:sodipodi="http://sodipodi.sourceforge.net/DTD/sodipodi-0.dtd"
   xmlns:inkscape="http://www.inkscape.org/namespaces/inkscape"
   version="1.1"
   id="svg10"
   width="518.40002"
   height="518.40002"
   viewBox="0 0 518.40002 518.40002"
   sodipodi:docname="anarchy_rat.svg"
   inkscape:version="0.92.4 (5da689c313, 2019-01-14)">
  <metadata
     id="metadata16">
    <rdf:RDF>
      <cc:Work
         rdf:about="">
        <dc:format>image/svg+xml</dc:format>
        <dc:type
           rdf:resource="http://purl.org/dc/dcmitype/StillImage" />
        <dc:title></dc:title>
      </cc:Work>
    </rdf:RDF>
  </metadata>
  <defs
     id="defs14" />
  <sodipodi:namedview
     pagecolor="#ffffff"
     bordercolor="#666666"
     borderopacity="1"
     objecttolerance="10"
     gridtolerance="10"
     guidetolerance="10"
     inkscape:pageopacity="0"
     inkscape:pageshadow="2"
     inkscape:window-width="1366"
     inkscape:window-height="705"
     id="namedview12"
     showgrid="false"
     inkscape:zoom="1.0339506"
     inkscape:cx="259.20001"
     inkscape:cy="259.20001"
     inkscape:window-x="-8"
     inkscape:window-y="-8"
     inkscape:window-maximized="1"
     inkscape:current-layer="svg10" />
  <path
     style="fill:#000000;stroke-width:0.96000004"
     d="m 88.038838,406.1173 c 0.20073,-0.3223 -1.38824,-1.37658 -3.53104,-2.34285 -2.1428,-0.96627 -5.91103,-3.9019 -8.37384,-6.52362 -2.46281,-2.62172 -5.23384,-5.56344 -6.15784,-6.53715 -0.924,-0.97371 -1.65215,-1.87839 -1.61812,-2.01039 0.034,-0.132 -1.25303,-3.04987 -2.86013,-6.48415 -1.6071,-3.4343 -3.38053,-8.6183 -3.94097,-11.52 -1.26269,-6.53766 -1.30149,-25.89889 -0.0711,-35.47172 0.50586,-3.93573 0.86683,-7.39173 0.80215,-7.68 -0.63779,-2.84282 10.67951,-33.19425 18.4514,-49.48413 13.65879,-28.62879 14.91064,-32.9915 14.66848,-51.12 -0.11305,-8.46357 0.17887,-14.64 0.69193,-14.64 0.48812,0 1.49074,0.86125 2.22803,1.91389 0.7373,1.05264 1.64863,1.60581 2.025182,1.22926 0.37655,-0.37655 0.37238,0.12907 -0.009,1.1236 -0.440652,1.1483 -0.33176,1.58441 0.29838,1.19497 0.6684,-0.4131 0.952,4.15707 0.86892,14.00251 -0.11624,13.77418 -0.30259,15.1479 -3.236192,23.85711 -1.71206,5.08274 -5.19607,13.72274 -7.74224,19.2 -8.89105,19.12624 -14.09495,36.00502 -16.53735,53.63866 -1.46144,10.55137 -1.14296,32.50047 0.59358,40.90757 2.31276,11.19681 6.87954,20.44455 9.34393,18.92147 0.60628,-0.37471 0.68035,-0.12081 0.19422,0.66578 -0.57535,0.93092 -0.3446,1.10215 0.86153,0.63932 1.01659,-0.3901 1.41282,-0.25267 1.03483,0.35891 -1.07228,1.73499 1.5181,3.81216 3.98264,3.19361 2.09131,-0.5249 2.29012,-0.27901 2.29012,2.83261 0,1.87409 0.432,3.67441 0.96,4.00073 0.528,0.32633 0.96,-0.32458 0.96,-1.44645 0,-2.73337 1.79344,-5.94508 2.92816,-5.24378 0.50151,0.30995 0.94594,2.37406 0.98763,4.58689 0.0816,4.33167 0.0618,4.35661 2.411632,-3.04477 0.732,-2.30567 3.26186,0.7435 3.37324,4.06566 0.0996,2.96923 0.11378,2.95996 1.28663,-0.83755 1.68573,-5.45809 3.81754,-5.0237 4.19078,0.85393 0.16394,2.58167 -0.1799,5.17367 -0.76409,5.76 -1.08683,1.09084 -21.252082,2.50112 -20.591262,1.44008 z m 79.738792,0.38885 c -0.10769,-0.10843 -9.68309,-0.26595 -21.27866,-0.35003 -11.59556,-0.0841 -23.89085,-0.42767 -27.32285,-0.76352 -6.22301,-0.609 -6.23939,-0.61849 -6.01604,-3.48998 0.12318,-1.58363 -0.24519,-4.31625 -0.81859,-6.0725 -0.8962,-2.74488 -0.77209,-3.48615 0.88402,-5.28 2.43292,-2.63527 4.01929,-8.38066 4.02207,-14.56683 0.003,-5.806 -3.32897,-23.56333 -4.57364,-24.37755 -1.90746,-1.24778 -3.09781,-4.99048 -3.09781,-9.74011 0,-3.92714 -0.60152,-5.85517 -2.88001,-9.23124 -1.584,-2.34704 -2.88,-5.50369 -2.88,-7.01477 0,-2.57725 2.17597,-15.1621 3.39283,-19.62259 0.41343,-1.51551 0.12171,-1.35445 -1.17907,0.65094 -2.11933,3.26735 -4.7584,3.09691 -4.27483,-0.27608 0.39866,-2.78075 6.12187,-17.16677 8.84554,-22.23441 1.69684,-3.15713 1.73174,-3.55866 0.33375,-3.84 -1.19079,-0.23964 -0.0853,-2.26977 4.6588,-8.55572 4.80126,-6.36167 5.92772,-8.44192 4.93849,-9.12 -0.97061,-0.66534 0.66112,-2.89512 6.72566,-9.19068 4.40396,-4.57171 9.19059,-9.86371 10.63696,-11.76 1.44637,-1.89629 3.24041,-3.44779 3.98675,-3.44779 1.53534,0 3.44516,4.14409 2.13837,4.64 -1.30084,0.49365 -0.99711,2.08 0.39823,2.08 0.68282,0 1.65482,1.37339 2.16,3.05199 0.78326,2.60255 1.90811,3.46251 7.63853,5.83972 7.05215,2.92551 9.32747,4.8106 8.4781,7.02402 -0.38573,1.00517 -0.96756,1.08424 -2.38729,0.32443 -1.03249,-0.55257 -2.39331,-0.8303 -3.02404,-0.61717 -1.85028,0.62523 4.21966,3.27043 9.15085,3.98781 2.49569,0.36307 4.76509,1.02819 5.04312,1.47804 0.87928,1.42271 -0.56198,3.77205 -1.98019,3.22783 -0.7483,-0.28715 -1.36055,0.0281 -1.36055,0.70062 0,0.67249 0.28425,0.93846 0.63167,0.59104 0.34742,-0.34742 1.21142,-0.15052 1.92,0.43754 0.70858,0.58807 1.28833,0.7835 1.28833,0.43428 0,-0.34922 0.94545,0.24588 2.10101,1.32245 2.24961,2.09583 5.09104,2.56357 6.05899,0.9974 1.05123,-1.70095 6.10083,-1.09381 7.14604,0.85919 1.20709,2.25545 0.74861,2.65033 -8.38356,7.2207 -3.84864,1.92612 -6.72829,3.93768 -6.39922,4.47012 0.76612,1.23961 3.02668,0.56001 12.20753,-3.67001 6.73973,-3.10528 7.68125,-3.30954 9.8659,-2.14037 3.12804,1.67409 4.0537,5.26211 1.95564,7.58044 -1.4665,1.62047 -1.46935,1.811 -0.0352,2.36131 0.85797,0.32924 2.58316,0.59862 3.83374,0.59862 1.25057,0 2.68114,0.7279 3.17901,1.61755 0.8445,1.50904 1.08086,1.50248 3.52315,-0.0978 1.43985,-0.94343 2.83235,-2.53534 3.09443,-3.53757 0.26209,-1.00222 1.05895,-1.82222 1.77079,-1.82222 2.40343,0 3.28443,-3.51562 2.68783,-10.72574 l -0.58206,-7.03426 5.86802,-2.23837 c 3.22738,-1.23112 5.86799,-2.66061 5.86799,-3.17666 0,-0.51606 0.3861,-0.69965 0.85802,-0.408 0.78293,0.48388 2.78469,-0.18903 11.14198,-3.74551 1.584,-0.67408 6.984,-2.85225 12,-4.84039 5.016,-1.98814 13.15108,-5.49946 18.07796,-7.80294 4.92688,-2.30347 9.38037,-4.18813 9.89665,-4.18813 0.51629,0 0.63046,-0.49875 0.25372,-1.10833 -0.43018,-0.69603 -0.26271,-0.84735 0.45016,-0.40677 0.65664,0.40583 1.92498,-0.23983 3.00883,-1.53167 1.60478,-1.91274 2.01561,-2.02657 2.86273,-0.79323 0.54398,0.792 0.75624,2.4291 0.47168,3.63799 -0.28456,1.2089 0.0816,3.05322 0.81378,4.0985 1.72804,2.46712 0.96293,6.27092 -1.68259,8.36511 -1.15225,0.91212 -2.40092,2.4625 -2.77484,3.44529 -0.54865,1.44204 -0.35354,1.6498 1.01103,1.07654 3.2961,-1.38469 6.01089,-1.64359 6.01089,-0.57325 0,1.6146 -6.88979,7.78982 -8.69122,7.78982 -1.80726,0 -5.25686,3.42902 -4.08746,4.06309 0.42827,0.23223 0.21604,0.28191 -0.47162,0.11039 -1.5323,-0.38216 -5.37759,2.06301 -9.28864,5.90652 -2.65764,2.61176 -6.98435,4.34698 -5.71407,2.29162 0.28948,-0.4684 -0.0943,-0.85162 -0.85279,-0.85162 -1.77791,0 -3.73129,2.34071 -2.80587,3.36224 0.39141,0.43207 0.24208,0.51834 -0.33188,0.19171 -1.90067,-1.08165 -5.19645,2.15007 -5.19645,5.09545 0,2.20575 -0.64494,3.07401 -3.12,4.20034 -1.716,0.78091 -3.984,1.56159 -5.04,1.73485 -1.2017,0.19717 -2.04421,1.20923 -2.25199,2.70522 -0.18259,1.31461 -0.77083,2.92458 -1.3072,3.57772 -0.53636,0.65315 -0.68592,2.34017 -0.33234,3.74894 0.39348,1.56774 0.20925,2.8294 -0.4749,3.25223 -0.82992,0.51291 -0.74066,1.52525 0.34664,3.93106 0.80542,1.78214 2.10378,5.52096 2.88525,8.30851 1.21605,4.33775 1.22765,5.26148 0.0804,6.40868 -1.39801,1.39801 -0.81795,4.74338 0.66369,3.82768 0.46662,-0.28839 0.62624,0.0546 0.3547,0.76224 -0.27154,0.70762 0.8134,2.53887 2.411,4.06947 3.20386,3.06949 3.65508,4.8103 1.4647,5.65083 -0.792,0.30391 -1.44,0.0621 -1.44,-0.5373 0,-0.59943 -0.25604,-0.83382 -0.56898,-0.52088 -0.31294,0.31294 1.41506,4.20876 3.84,8.65737 4.90792,9.00371 5.78231,13.75671 2.36642,12.86344 -1.91444,-0.50064 -2.00611,-0.2682 -1.46146,3.70544 0.64848,4.73121 0.0569,7.16476 -1.74152,7.16476 -0.81431,0 -1.36608,2.42147 -1.7164,7.5326 -0.5408,7.89004 -2.66365,13.5874 -5.06271,13.5874 -0.77845,0 -1.41535,-0.5184 -1.41535,-1.152 0,-2.26469 -1.72019,0.70673 -3.86249,6.672 -1.18512,3.3 -2.20775,6 -2.27248,6 -0.0647,0 -1.54884,0.41045 -3.29801,0.9121 -2.98746,0.85679 -3.23987,0.74122 -4.16272,-1.90611 -0.80948,-2.32204 -1.28704,-2.65519 -2.71257,-1.89226 -1.23885,0.66301 -2.05689,0.5322 -2.88092,-0.4607 -1.60592,-1.93501 -0.47519,-7.66398 2.93645,-14.87789 3.33431,-7.05039 3.33932,-7.08027 0.9364,-5.57961 -2.66939,1.66706 -3.53055,0.24037 -2.02338,-3.35217 0.71144,-1.69584 1.75449,-5.79483 2.31788,-9.10883 0.77527,-4.56041 1.3562,-5.89815 2.38919,-5.50175 1.96809,0.75523 0.61511,-8.67528 -1.78946,-12.47278 -1.00299,-1.584 -2.72089,-4.51525 -3.81757,-6.5139 -1.25282,-2.28324 -2.42628,-3.38569 -3.15713,-2.96609 -0.63975,0.3673 -0.84294,0.31431 -0.45153,-0.11777 1.42823,-1.57654 -1.28671,-3.2261 -4.4617,-2.71087 -2.61805,0.42485 -3.50124,0.0663 -5.22056,-2.11947 -1.13816,-1.44696 -2.0694,-3.21061 -2.0694,-3.91924 0,-1.28305 -4.51805,-4.81462 -5.23819,-4.09446 -0.75658,0.75657 12.29914,23.8818 13.48286,23.8818 2.23461,0 4.23533,2.98009 4.23533,6.30858 0,3.43516 -1.49388,4.29355 -3.67547,2.11196 -0.93263,-0.93263 -1.0882,-0.6815 -0.74334,1.2 0.23987,1.3087 0.46823,3.39768 0.50747,4.64217 0.0493,1.56608 0.49955,2.09839 1.4622,1.72899 1.55994,-0.59861 2.24028,1.03403 2.53706,6.0883 0.32585,5.5491 -1.10432,10.7545 -3.098,11.27587 -2.20991,0.5779 -2.3103,1.75903 -0.21774,2.56202 1.29275,0.49608 1.47446,1.5501 1.02238,5.9303 -0.60625,5.87405 -3.99636,11.39732 -7.90845,12.8847 -1.85607,0.70567 -39.53921,1.85965 -40.16461,1.22997 z M 375.9414,294.82491 c -1.96674,-2.17322 -2.44742,-9.12259 -1.10126,-15.921 0.77744,-3.92625 0.74391,-3.99049 -4.00866,-7.68 -5.80809,-4.50892 -7.69056,-7.47836 -6.20199,-9.78312 1.62606,-2.51765 7.23006,-1.91675 10.5129,1.12727 l 2.74484,2.54517 2.12543,-17.04497 c 1.16899,-9.37473 3.00087,-21.11909 4.07087,-26.09856 1.06998,-4.97947 1.8237,-9.17531 1.67491,-9.32411 -0.39955,-0.39956 -17.3858,5.64486 -25.14231,8.9467 -4.43061,1.88604 -6.61098,3.3257 -6.4,4.2258 0.17601,0.75086 0.0147,1.05988 -0.35848,0.68672 -0.37317,-0.37317 -2.06995,0.38283 -3.77061,1.68 -6.82831,5.2082 -15.2309,1.14052 -15.2309,-7.37325 0,-4.19126 1.9517,-5.24743 10.98381,-5.94394 4.29475,-0.33119 8.33608,-1.0399 8.98074,-1.57492 0.64466,-0.53502 1.36877,-0.77609 1.60914,-0.53572 0.63042,0.63043 17.53308,-3.75771 24.56767,-6.37805 6.63594,-2.47185 6.37477,-2.08559 10.27507,-15.19564 2.78611,-9.36493 3.87112,-14.69454 5.86312,-28.8 1.15694,-8.1924 1.21298,-11.45687 0.29927,-17.43252 -1.25595,-8.2139 -0.2944,-12.36444 3.40845,-14.71258 2.99364,-1.89842 15.06824,-0.55934 18.54921,2.05711 2.86443,2.15303 3.15215,4.2399 1.7658,12.80798 -0.75585,4.67135 -1.57289,3.15936 16.45274,30.44657 3.3947,5.13891 3.91262,9.14845 1.24498,9.63817 -1.67097,0.30675 -6.6197,-3.96425 -12.51928,-10.80473 -2.27686,-2.64 -4.49547,-4.692 -4.93024,-4.56 -0.43477,0.132 -0.73933,-0.084 -0.6768,-0.48 0.31781,-2.01278 -0.23232,-3.15999 -1.22201,-2.54833 -0.70583,0.43623 -0.84693,0.26202 -0.38851,-0.47972 0.86413,-1.39818 -3.0908,-7.35663 -7.61649,-11.47491 l -3.2252,-2.93487 -0.96861,4.51891 c -2.22975,10.40261 -6.85287,39.03273 -6.85287,42.43864 0,2.35396 0.43536,2.62234 5.90294,3.63915 3.2466,0.60377 6.29864,0.85321 6.78228,0.55429 1.57749,-0.97494 7.47479,0.63866 7.47479,2.04521 0,1.46392 -5.55359,3.34765 -9.8949,3.35627 -3.88447,0.008 -11.0048,1.94318 -12.12811,3.29668 -1.10436,1.33067 -4.43652,27.14332 -5.33771,41.34868 -0.33496,5.28 -0.79461,11.01109 -1.02144,12.73576 -0.35421,2.69327 0.0134,3.39475 2.60547,4.97105 1.65983,1.0094 6.0866,2.53355 9.83728,3.38699 15.2892,3.47897 16.63419,4.13422 14.94911,7.28281 -1.5604,2.91562 -6.72804,4.26958 -15.80971,4.14227 -4.752,-0.0666 -9.88055,-0.61591 -11.39677,-1.22064 -3.50136,-1.39649 -5.40323,-0.0213 -5.40323,3.90698 0,1.54557 -0.65909,4.08467 -1.46465,5.64245 -1.17562,2.27342 -2.09346,2.83233 -4.65121,2.83233 -1.98819,0 -3.85307,-0.73649 -4.95887,-1.95838 z M 200.78046,283.8364 c -1.24497,-3.77228 -0.77199,-6.25311 1.19218,-6.25311 2.28181,0 4.14096,3.20635 3.61136,6.22828 -0.74309,4.24015 -3.40782,4.25392 -4.80354,0.0249 z m 7.31277,-2.54759 c -0.69663,-3.48316 0.41305,-5.22008 2.75968,-4.31959 2.09776,0.80499 1.61069,6.71586 -0.58768,7.13174 -1.07815,0.20395 -1.74021,-0.65324 -2.172,-2.81215 z m 220.58891,-0.18522 c -1.95631,-2.23968 0.19266,-5.26361 4.58022,-6.44506 4.95351,-1.33384 14.52945,-6.02785 18.72973,-9.18108 1.68076,-1.26179 3.40876,-2.30853 3.84,-2.3261 1.73379,-0.0707 5.21477,-3.81225 4.54895,-4.88957 -0.41182,-0.66635 -0.29099,-0.8814 0.2926,-0.52072 2.05984,1.27305 9.05752,-7.07053 11.65099,-13.89186 0.8041,-2.11498 0.35829,-3.67294 -2.81659,-9.84278 -4.25178,-8.26264 -4.3758,-8.88465 -2.2417,-11.2428 1.96488,-2.17117 3.97404,-1.4396 7.66426,2.79071 1.62496,1.86279 3.41428,3.1027 3.97627,2.75537 0.56199,-0.34732 2.6112,-4.60258 4.5538,-9.45612 l 3.53198,-8.82463 -1.06604,-11.10283 c -0.58632,-6.10656 -1.3139,-13.08986 -1.61683,-15.51846 -0.44701,-3.58357 -0.24589,-4.53263 1.06732,-5.03655 9.27821,-3.56039 12.45962,27.94312 4.8324,47.85218 -5.78396,15.0976 -5.64977,14.46029 -3.94284,18.72632 1.93773,4.84287 1.99188,9.95141 0.12195,11.50333 -1.97128,1.63602 -5.71142,0.49909 -7.54027,-2.29211 l -1.52341,-2.325 -9.91282,9.75373 c -10.58215,10.41233 -17.1218,14.86934 -27.16776,18.51582 -6.98216,2.53439 -9.99332,2.79436 -11.56221,0.99821 z M 187.81613,266.15672 c -5.68028,-1.99752 -11.25771,-5.27816 -12.10663,-7.12109 -1.03495,-2.24679 -8.49528,-8.01917 -9.80473,-7.58634 -0.43525,0.14386 -0.52529,-0.16894 -0.2001,-0.6951 0.32519,-0.52617 -0.10246,-2.01541 -0.95034,-3.30943 -0.84787,-1.29401 -1.79026,-4.76221 -2.0942,-7.70711 -0.30394,-2.9449 -1.03218,-5.36182 -1.61831,-5.37095 -0.58614,-0.01 -2.11266,-1.1199 -3.39228,-2.46839 -2.24764,-2.36861 -2.27207,-2.54408 -0.72,-5.17153 2.06908,-3.50267 2.20163,-9.09725 0.19733,-8.32813 -0.77509,0.29743 -1.62548,0.19093 -1.88976,-0.23667 -0.76528,-1.23826 4.57796,-13.07128 8.42396,-18.65549 1.93328,-2.80704 3.50719,-5.93611 3.49758,-6.95346 -0.01,-1.01736 -1.30561,-3.75075 -2.88,-6.0742 -1.57439,-2.32346 -2.86252,-4.60502 -2.86252,-5.07014 0,-1.65891 2.71033,-1.84207 6.12793,-0.41409 1.90964,0.79789 3.47207,1.05596 3.47207,0.57348 0,-1.30268 -3.36814,-2.86479 -6.17689,-2.86479 -3.21992,0 -3.13551,-1.87659 0.22942,-5.1004 3.20879,-3.07422 5.0625,-3.25712 6.68468,-0.6596 0.65948,1.056 2.0339,1.92 3.05427,1.92 1.02036,0 2.12219,0.432 2.44852,0.96 0.32632,0.528 1.10782,0.95338 1.73666,0.9453 0.87938,-0.0113 0.878,-0.18338 -0.006,-0.74535 -1.81151,-1.15157 0.13492,-3.37895 2.34091,-2.6788 1.63056,0.51753 1.84324,0.25061 1.44794,-1.81727 -0.63739,-3.33425 1.89279,-3.21138 4.44998,0.21612 1.79826,2.41027 1.97231,2.46596 2.00007,0.64 0.0473,-3.10938 1.01675,-3.392 4.10132,-1.19559 2.19916,1.56594 3.02015,1.74852 3.60527,0.80179 0.98799,-1.59862 4.67241,-0.34049 12.58708,4.29818 3.24308,1.90072 6.05406,3.29831 6.24662,3.10575 0.19256,-0.19256 -0.94139,-1.58744 -2.51988,-3.09972 -2.76473,-2.64857 -3.77493,-5.27041 -2.03091,-5.27041 0.46161,0 2.51361,0.58216 4.56,1.29369 5.85304,2.03512 9.0007,2.65259 9.0007,1.76566 0,-0.96271 -4.07399,-2.37965 -15.67377,-5.45138 -4.66058,-1.23415 -9.29037,-2.98293 -10.28843,-3.88617 -1.04205,-0.94303 -2.64518,-1.42507 -3.76528,-1.13215 -1.07284,0.28055 -2.19689,0.11161 -2.4979,-0.37544 -0.30101,-0.48704 -0.96014,-0.63038 -1.46474,-0.31852 -0.5046,0.31186 -0.79875,-0.005 -0.65367,-0.70434 0.14604,-0.70385 -0.379,-1.12852 -1.17621,-0.95136 -0.792,0.17601 -1.11449,-0.006 -0.71663,-0.40336 0.39785,-0.39785 0.0336,-1.77604 -0.80938,-3.06263 -1.11359,-1.69955 -1.24431,-2.62768 -0.47803,-3.39397 0.76629,-0.76629 1.7953,-0.1676 3.76288,2.18923 1.712,2.05069 3.24527,3.03783 4.16834,2.68361 1.90529,-0.73113 3.80112,-11.69868 2.30424,-13.33028 -0.74833,-0.8157 -0.7098,-0.9431 0.14038,-0.4642 0.6445,0.36304 2.5885,-0.0596 4.32,-0.93915 5.49071,-2.78916 5.78627,-3.29565 3.13848,-5.3784 -3.01179,-2.36908 -3.0165,-3.31731 -0.0193,-3.89026 1.30401,-0.24927 2.14252,-0.0836 1.86334,0.3681 -0.27918,0.45172 -0.12788,0.82131 0.33625,0.82131 0.46412,0 2.61029,1.512 4.76927,3.36 3.25685,2.78776 4.68007,3.36 8.35656,3.36 3.78112,0 4.55832,0.33449 5.29806,2.28016 0.60427,1.58934 1.9059,2.47507 4.29624,2.9235 3.94724,0.7405 4.80941,3.43635 1.099,3.43635 -1.34225,0 -3.13078,1.0176 -4.21816,2.4 -1.03832,1.32 -2.3483,2.4 -2.91109,2.4 -0.56279,0 -3.74062,-1.7239 -7.06184,-3.83088 -6.76657,-4.29272 -7.94976,-4.58163 -8.88316,-2.16912 -0.462,1.19412 0.27182,2.45964 2.5373,4.37573 4.867,4.11643 14.09016,9.50232 15.15033,8.8471 0.51921,-0.3209 1.42858,-2.20074 2.02082,-4.17744 1.85364,-6.18691 9.80477,-8.98095 14.11916,-4.96149 2.31174,2.15371 4.23169,8.11641 3.62604,11.26125 -0.28659,1.48815 -0.014,1.91695 0.97672,1.53676 1.36722,-0.52465 1.53239,-0.10044 1.74353,4.47809 0.0609,1.32 0.4244,2.51909 0.80782,2.66466 0.38343,0.14555 1.84178,1.32546 3.24078,2.62201 1.399,1.29655 3.02928,2.08018 3.62286,1.74143 0.59356,-0.33877 0.76937,-0.27281 0.39066,0.14654 -0.3787,0.41936 0.1613,1.84288 1.2,3.16338 2.17887,2.76998 2.45479,6.23695 0.61772,7.76159 -1.53111,1.27067 -3.5292,-0.32254 -3.5292,-2.81407 0,-0.88575 -0.54,-2.00694 -1.2,-2.49154 -2.17712,-1.59853 -12.15619,-5.27911 -12.96232,-4.78089 -1.94171,1.20004 -1.04398,-4.46997 0.96572,-6.09934 1.18613,-0.96167 1.9406,-1.96296 1.6766,-2.22508 -0.264,-0.26213 -1.75187,0.53979 -3.30637,1.78203 l -2.82637,2.25861 2.24556,7.16025 c 2.32046,7.39904 2.18862,10.23042 -0.47635,10.23042 -1.05127,0 -0.59175,0.80108 1.44034,2.51096 2.74593,2.31056 10.56875,17.02535 12.53916,23.58628 0.65169,2.16998 0.52196,2.48292 -0.82098,1.98026 -1.37269,-0.51378 -1.41623,-0.37711 -0.31234,0.9807 1.34397,1.65313 0.67365,4.0142 -0.86899,3.0608 -1.57698,-0.97462 -0.95571,1.14318 1.10321,3.76068 1.09828,1.39623 2.40499,2.28639 2.90379,1.97811 0.4988,-0.30828 0.7882,-0.12663 0.64313,0.40366 -0.14509,0.53029 1.1682,2.49887 2.91843,4.37463 3.45278,3.70044 5.8187,9.46635 3.52281,8.58533 -0.8984,-0.34474 -1.13187,0.0923 -0.77609,1.45278 0.41611,1.5912 -0.41677,2.39239 -4.56972,4.39583 -2.7932,1.34749 -5.64571,2.44998 -6.33889,2.44998 -0.69318,0 -1.26033,0.36 -1.26033,0.8 0,0.44 -0.54,0.8267 -1.2,0.85934 -0.66,0.0326 -7.896,2.55406 -16.08,5.60316 -14.49514,5.40046 -16.35114,5.75836 -25.40023,4.89817 -2.09012,-0.19869 -5.97812,0.21875 -8.64,0.92764 -5.26724,1.40275 -6.72518,1.47006 -9.63977,0.44512 z m -69.28001,-7.2512 c 0,-0.76878 0.36705,-1.17092 0.81566,-0.89366 0.44861,0.27725 0.56712,0.90625 0.26334,1.39777 -0.77627,1.25604 -1.079,1.11461 -1.079,-0.50411 z m 178.24001,-3.85903 c 0,-0.25124 0.86239,-1.87124 1.91641,-3.6 1.05403,-1.72876 1.91803,-3.81663 1.92,-4.63972 0.002,-0.82308 0.62251,-2.33508 1.37896,-3.36 1.08325,-1.46767 1.62724,-1.61515 2.56119,-0.6943 1.4205,1.40059 -0.29146,8.31757 -2.74004,11.07082 -1.33071,1.49628 -5.03652,2.39629 -5.03652,1.2232 z m -9.00412,-11.7832 c -0.27143,-0.924 -0.78062,-3.3 -1.13153,-5.28 -0.5571,-3.14335 -0.40151,-3.6 1.22659,-3.6 1.7109,0 3.32623,2.11984 4.38914,5.76 0.57041,1.95348 -1.00061,4.8 -2.64917,4.8 -0.73783,0 -1.56361,-0.756 -1.83503,-1.68 z m 5.75775,-1.97615 c -0.29829,-0.48262 -0.74128,-2.34142 -0.98444,-4.13067 -0.24315,-1.78925 -0.74945,-4.70094 -1.1251,-6.47043 -0.58825,-2.77096 -0.44385,-3.17047 1.04095,-2.88 3.32518,0.6505 5.72972,13.00813 2.72294,13.99399 -0.61162,0.20053 -1.35607,-0.0302 -1.65435,-0.51289 z m 23.11961,-4.60492 c -0.30545,-2.95958 -0.76895,-5.59464 -1.02998,-5.85567 -0.7899,-0.7899 -7.03479,1.6135 -9.75767,3.75531 -2.1118,1.66116 -2.7018,1.77644 -3.40528,0.66535 -0.468,-0.73915 -0.89163,-2.20792 -0.94139,-3.26392 -0.0498,-1.056 -0.30839,-1.38 -0.57471,-0.72 -0.91423,2.26572 -3.90744,1.25754 -5.14633,-1.73341 -1.6578,-4.00229 -9e-5,-5.72881 2.80612,-2.92259 1.1088,1.1088 2.016,1.53364 2.016,0.94408 0,-0.63925 1.01687,-0.87753 2.51929,-0.59031 5.16087,0.98655 12.58065,-3.03388 10.16694,-5.50901 -0.37743,-0.38702 0.94956,0.25617 2.94886,1.42931 4.04742,2.37493 6.44675,6.19453 6.44132,10.25425 -0.004,2.80398 -3.1919,8.92768 -4.64799,8.92768 -0.4619,0 -1.08973,-2.42149 -1.39518,-5.38107 z m -43.87324,3.60986 c 0,-0.44617 0.864,-1.59312 1.92,-2.54879 1.056,-0.95567 1.93365,-2.21062 1.95034,-2.78879 0.0358,-1.24134 4.36239,-6.33121 5.38174,-6.33121 0.3873,0 1.68203,-0.91865 2.8772,-2.04145 1.99793,-1.87696 5.18744,-1.96949 5.12499,-0.14868 -0.0141,0.41257 -2.17415,3.0759 -4.8,5.91852 -2.62585,2.84262 -4.77427,5.47328 -4.77427,5.84591 0,0.85641 -4.43272,2.9057 -6.28517,2.9057 -0.76715,0 -1.39483,-0.36505 -1.39483,-0.81121 z m 182.16001,-23.65309 c -1.452,-1.27798 -2.64,-2.70102 -2.64,-3.16231 0,-0.46129 -0.99984,-1.77801 -2.22188,-2.92606 -1.9507,-1.83259 -3.30578,-2.08733 -11.10311,-2.08733 -9.14952,0 -12.59501,-0.93403 -12.59501,-3.41436 0,-1.74872 2.5106,-2.79967 10.32,-4.31995 3.3,-0.64243 6,-1.34222 6,-1.55511 0,-0.21289 -0.864,-2.08065 -1.92,-4.15058 -2.79388,-5.47646 -2.53789,-6.72 1.38334,-6.72 1.81684,0 3.57469,0.43904 3.90633,0.97565 0.33164,0.53662 1.11314,0.68336 1.73666,0.3261 0.62351,-0.35727 0.81539,-0.29804 0.42639,0.13161 -0.78941,0.8719 2.58835,7.02542 4.87801,8.88664 1.7663,1.43578 24.79773,1.67116 27.00393,0.27597 2.60253,-1.64583 4.20977,4.4383 1.70534,6.45546 -0.66,0.53159 -5.952,1.22349 -11.76,1.53756 -5.808,0.31407 -10.68946,0.58003 -10.84768,0.59102 -0.15821,0.0109 0.006,2.61199 0.36401,5.77999 0.74632,6.59665 -0.19672,7.28327 -4.63633,3.3757 z m -115.92221,-19.6998 c -1.16751,-2.18153 0.22544,-7.89943 3.87367,-15.90091 1.18739,-2.60425 2.90444,-6.46299 3.81568,-8.57499 2.19165,-5.07969 11.95873,-18.12785 17.54128,-23.43399 2.45,-2.3287 4.18662,-4.7047 3.85915,-5.28 -0.32747,-0.57531 -0.25334,-0.73721 0.16474,-0.35979 1.12398,1.01469 4.51101,-1.08531 3.74624,-2.32272 -0.37163,-0.60131 -0.21965,-0.79097 0.35113,-0.43821 0.55349,0.34208 2.61467,-0.05 4.58039,-0.87137 4.68347,-1.95689 6.74852,-1.26366 5.15897,1.73183 -0.63456,1.19583 -1.95642,2.7438 -2.93746,3.43993 -0.98104,0.69612 -1.49373,1.73487 -1.13932,2.30833 0.35442,0.57345 0.21012,0.77425 -0.32066,0.44621 -1.19021,-0.73559 -7.59241,3.90357 -7.22782,5.23742 0.14508,0.53079 -0.14432,0.71284 -0.64313,0.40456 -1.70964,-1.05661 -4.86242,4.20896 -4.27594,7.14138 0.47569,2.37845 -0.23278,3.50079 -5.55978,8.8076 -5.94802,5.92548 -8.26379,10.06436 -15.07828,26.94882 -1.2695,3.14548 -4.40526,3.5254 -5.90886,0.7159 z M 155.19661,174.88592 c -0.9444,-1.04355 -2.1581,-1.6248 -2.69712,-1.29167 -0.53901,0.33313 -0.69957,0.1519 -0.35679,-0.40272 0.34279,-0.55463 -0.0198,-2.24138 -0.80576,-3.74833 -1.67801,-3.21739 -1.81211,-5.53235 -0.46617,-8.04727 1.39996,-2.61586 3.82536,-1.29464 3.82536,2.08384 0,2.54261 0.18922,2.7098 1.98136,1.75067 1.50099,-0.8033 2.35138,-0.75331 3.50755,0.20623 0.8394,0.69663 1.76305,1.05062 2.05255,0.78662 0.28951,-0.264 0.59749,1.34036 0.68441,3.56524 0.14515,3.71544 0.008,3.96458 -1.69074,3.05582 -1.39939,-0.74894 -1.80732,-0.68215 -1.67822,0.27475 0.55238,4.09405 -1.49783,4.92554 -4.35643,1.76682 z m 20.00776,-5.29983 c -0.33175,-0.86453 -0.15971,-2.01534 0.38232,-2.55736 1.56489,-1.5649 4.54944,-0.51021 4.54944,1.60771 0,2.44192 -4.05919,3.22355 -4.93176,0.94965 z m 72.99827,-3.14072 c -0.5794,-0.38615 -1.3304,-3.41756 -1.66887,-6.73648 -0.5165,-5.06468 -0.36347,-6.13107 0.9523,-6.63598 2.27332,-0.87235 4.17006,2.27081 4.17006,6.91038 0,4.28425 -1.76519,7.58724 -3.45349,6.46208 z m 225.40077,-0.41881 c -0.68379,-0.6838 -1.76167,-1.25297 -2.39527,-1.26482 -0.6336,-0.0118 -1.05211,-0.65984 -0.93003,-1.44 0.12208,-0.78015 -3.85306,-5.46869 -8.83363,-10.41895 -6.84526,-6.80361 -9.46985,-8.84156 -10.75271,-8.34927 -0.93341,0.35819 -1.37985,0.33399 -0.99209,-0.0538 0.38776,-0.38776 -3.18941,-2.60379 -7.94927,-4.9245 -6.17342,-3.00995 -8.65427,-4.71931 -8.65427,-5.96303 0,-0.95895 0.71355,-2.01735 1.58567,-2.35201 2.30674,-0.88518 11.82484,2.10795 15.45997,4.86164 1.75494,1.32941 3.64942,2.06645 4.32,1.68067 0.6569,-0.37788 0.87092,-0.33037 0.47561,0.10558 -0.3953,0.43597 1.3327,1.98462 3.84,3.44145 2.50731,1.45684 5.75193,3.7837 7.21027,5.1708 1.45833,1.38709 3.14508,2.21696 3.74833,1.84413 0.61563,-0.38048 0.83613,-0.25608 0.50261,0.28357 -0.63652,1.02991 4.41713,6.41563 5.2441,5.58867 0.27139,-0.2714 0.49344,0.0747 0.49344,0.76901 0,0.69436 0.90926,2.53036 2.02058,4.08 1.11132,1.54965 2.15532,3.89755 2.31999,5.21755 0.25517,2.04527 -0.12695,2.44186 -2.5853,2.68327 -1.5866,0.1558 -3.4442,-0.2762 -4.128,-0.96 z M 172.9289,163.81457 c -0.90632,-1.09204 -0.96433,-1.80373 -0.20862,-2.55944 1.45636,-1.45636 4.26429,-0.18077 3.8868,1.7657 -0.4311,2.22287 -2.17906,2.60007 -3.67818,0.79374 z m -17.239,-2.32817 c -0.54658,-1.02129 -0.99377,-2.43085 -0.99377,-3.13236 0,-0.70151 -0.95935,-1.70191 -2.13189,-2.22311 -2.28658,-1.01641 -3.90295,-6.14964 -2.60018,-8.25757 0.58105,-0.94016 1.30005,-0.97238 3.1267,-0.1401 1.30465,0.59444 3.27434,0.84487 4.37708,0.5565 1.29205,-0.33788 2.20881,0.007 2.5783,0.9698 0.4455,1.16096 1.10418,1.29227 2.95416,0.58891 3.51118,-1.33495 7.05583,-1.11815 7.05583,0.43156 0,0.7352 -2.1694,2.99115 -4.8209,5.01319 -2.65149,2.02206 -4.62925,4.17589 -4.39502,4.78629 0.50868,1.32558 -1.23861,3.26378 -2.94231,3.26378 -0.66783,0 -1.66143,-0.83561 -2.208,-1.85689 z m -20.79023,-2.17155 c -0.29645,-0.47967 0.79648,-1.3762 2.42873,-1.99231 1.63225,-0.61611 2.96859,-1.34948 2.96964,-1.62973 9.6e-4,-0.28024 1.48891,-0.61536 3.30632,-0.74472 3.70121,-0.26346 5.27506,1.22127 3.28535,3.09932 -1.57492,1.48654 -11.22423,2.50655 -11.99004,1.26744 z m 42.43566,-4.48514 c -1.54045,-0.33354 -2.98045,-1.14642 -3.20001,-1.80642 -0.21955,-0.66 -0.2552,-1.22196 -0.0792,-1.24879 7.95941,-1.21341 11.1709,-0.46483 10.09001,2.3519 -0.61068,1.59142 -2.03137,1.73813 -6.81081,0.70331 z m -42.6822,-1.95379 c -2.07705,-1.31559 -0.52696,-2.65827 3.94172,-3.41435 3.62458,-0.61325 3.85022,-0.79168 1.94127,-1.53516 -4.38256,-1.70688 -1.8696,-3.78313 4.57886,-3.78313 3.01259,0 3.67686,0.33132 3.56777,1.77947 -0.0879,1.16683 -0.69107,1.63381 -1.75199,1.35637 -0.88987,-0.23271 -1.9082,0.0466 -2.26295,0.62053 -0.35911,0.58105 0.0183,1.04363 0.85166,1.04363 2.11084,0 1.86323,2.61626 -0.36023,3.80623 -2.2521,1.20528 -8.68065,1.28263 -10.50611,0.12641 z m 37.07427,-2.58136 c -0.3348,-0.3348 0.0808,-2.33202 0.92356,-4.43826 1.45858,-3.64538 1.43217,-4.03558 -0.54923,-8.11391 -2.34345,-4.82354 -2.04725,-6.07911 1.43417,-6.07911 3.56914,0 5.87008,-1.56189 8.54628,-5.80128 2.67184,-4.23246 3.87429,-4.71328 4.76543,-1.90553 0.48343,1.52314 -2.36601,8.10756 -4.96233,11.46682 -0.17003,0.21999 -1.60515,0.39999 -3.18915,0.39999 -3.18795,0 -3.61336,0.75628 -1.44,2.56 1.95561,1.62302 1.7545,3.62738 -0.81241,8.09692 -2.18264,3.80044 -3.59111,4.93956 -4.71632,3.81436 z m 26.69567,-6.07531 c -0.29324,-0.47449 -0.3151,-1.44168 -0.0486,-2.14933 0.28227,-0.74942 -0.7813,-2.00548 -2.54724,-3.00828 -2.12398,-1.20611 -2.72899,-2.02451 -2.02044,-2.73305 1.35834,-1.35835 10.79153,2.90396 10.14659,4.58465 -0.68024,1.77267 -4.91386,4.3035 -5.53035,3.30601 z m -31.42018,-3.18615 c -0.18237,-1.27831 -1.08531,-2.26665 -2.22676,-2.43739 -6.91344,-1.03407 -7.63534,-1.96342 -4.29071,-5.5236 l 1.94928,-2.07492 -3.94486,-2.61059 c -2.31136,-1.52958 -4.53704,-4.02786 -5.37496,-6.03328 -2.27684,-5.44926 -0.17136,-5.90043 3.96704,-0.85007 1.97415,2.4092 3.97296,4.14329 4.44179,3.85354 0.46883,-0.28975 0.85242,-0.09 0.85242,0.44403 0,0.53396 2.7,1.09946 6,1.25665 4.5663,0.21752 6,0.6299 6,1.72581 0,0.97103 -1.17242,1.53704 -3.6,1.73796 -1.98,0.16387 -3.6,0.40702 -3.6,0.54033 0,0.13331 1.08,2.48112 2.4,5.21734 2.97773,6.17256 2.98481,6.90437 0.0667,6.90437 -1.68519,0 -2.41844,-0.5972 -2.64,-2.15018 z m -18.55015,0.22471 c -0.66798,-1.08081 1.50617,-4.21599 4.48118,-6.46198 1.32969,-1.00385 1.41751,-1.68391 0.52336,-4.05276 -1.41866,-3.75846 -0.50085,-4.44891 3.09238,-2.32634 3.54609,2.09473 3.60504,2.6819 0.65713,6.54679 -1.25912,1.65081 -2.45082,3.85158 -2.6482,4.89062 -0.40335,2.12322 -5.00705,3.18156 -6.10585,1.40367 z m -8.15662,-6.59698 c 0,-2.13769 -0.61304,-4.23124 -1.44,-4.91755 -2.87373,-2.38498 -1.12815,-4.8 3.46945,-4.8 1.75313,0 3.97575,-3.51541 3.13326,-4.95573 -0.20452,-0.34964 0.38621,-0.51442 1.31273,-0.36616 2.22066,0.35533 1.85471,6.24198 -0.49754,8.00329 -0.92792,0.69481 -1.5324,2.20027 -1.37289,3.41915 0.40489,3.09385 -1.4122,7.33945 -3.14125,7.33945 -1.06001,0 -1.46376,-1.02674 -1.46376,-3.72245 z m 54.26755,-0.64926 c -1.04084,-0.78686 -2.37284,-1.24631 -2.96,-1.021 -0.58714,0.22531 -1.13955,-0.19715 -1.22754,-0.93881 -0.088,-0.74166 -0.232,-1.99648 -0.32001,-2.78848 -0.088,-0.792 -0.41199,-1.44 -0.72,-1.44 -0.30799,0 -0.55999,-1.90139 -0.55999,-4.22533 0,-3.5467 0.24269,-4.09545 1.51108,-3.41663 0.83109,0.44479 2.00945,2.47213 2.61857,4.5052 0.60912,2.03307 2.41314,4.94738 4.00892,6.47624 1.59579,1.52886 2.90143,3.13091 2.90143,3.56013 0,1.26808 -3.20899,0.8335 -5.25246,-0.71132 z"
     id="path20"
     inkscape:connector-curvature="0" />
</svg>
