<?xml version="1.0" encoding="UTF-8" standalone="no"?>
<!-- Created with Inkscape (http://www.inkscape.org/) -->

<svg
   xmlns:dc="http://purl.org/dc/elements/1.1/"
   xmlns:cc="http://creativecommons.org/ns#"
   xmlns:rdf="http://www.w3.org/1999/02/22-rdf-syntax-ns#"
   xmlns:svg="http://www.w3.org/2000/svg"
   xmlns="http://www.w3.org/2000/svg"
   xmlns:sodipodi="http://sodipodi.sourceforge.net/DTD/sodipodi-0.dtd"
   xmlns:inkscape="http://www.inkscape.org/namespaces/inkscape"
   version="1.1"
   id="svg30"
   width="518.40002"
   height="518.40002"
   viewBox="0 0 518.40002 518.40002"
   sodipodi:docname="angel.svg"
   inkscape:version="0.92.4 (5da689c313, 2019-01-14)">
  <metadata
     id="metadata36">
    <rdf:RDF>
      <cc:Work
         rdf:about="">
        <dc:format>image/svg+xml</dc:format>
        <dc:type
           rdf:resource="http://purl.org/dc/dcmitype/StillImage" />
        <dc:title></dc:title>
      </cc:Work>
    </rdf:RDF>
  </metadata>
  <defs
     id="defs34" />
  <sodipodi:namedview
     pagecolor="#ffffff"
     bordercolor="#666666"
     borderopacity="1"
     objecttolerance="10"
     gridtolerance="10"
     guidetolerance="10"
     inkscape:pageopacity="0"
     inkscape:pageshadow="2"
     inkscape:window-width="1366"
     inkscape:window-height="705"
     id="namedview32"
     showgrid="false"
     inkscape:zoom="1.0339506"
     inkscape:cx="259.20001"
     inkscape:cy="259.20001"
     inkscape:window-x="-8"
     inkscape:window-y="-8"
     inkscape:window-maximized="1"
     inkscape:current-layer="svg30" />
  <path
     style="fill:#000000;stroke-width:0.96000004"
     d="m 92.558237,382.4453 c -1.65262,-0.71919 -3.30247,-1.78933 -3.66634,-2.37808 -0.36387,-0.58876 -1.13047,-0.78066 -1.70357,-0.42647 -0.63551,0.39276 -0.76464,0.19521 -0.33102,-0.5064 0.39104,-0.63271 0.20862,-1.75568 -0.40537,-2.49548 -0.61398,-0.73982 -0.97517,-2.34089 -0.80264,-3.55796 0.23655,-1.66863 0.94704,-2.22359 2.88903,-2.25653 1.41643,-0.024 2.40198,0.23679 2.1901,0.57962 -0.67844,1.09775 4.50058,2.90427 6.62487,2.31087 1.49923,-0.4188 1.68992,-0.32392 0.71006,0.35327 -1.81247,1.25263 7.228013,3.12959 18.782823,3.89963 9.21525,0.61414 11.05322,1.269 9.08314,3.23631 -0.82236,0.82119 -5.1418,1.184 -14.0965,1.184 -7.10094,0 -12.910593,0.324 -12.910323,0.72 7.5e-4,1.10478 -3.02724,0.78944 -6.36426,-0.66278 z m 57.964763,0.27401 c -1.452,-0.53418 -2.64,-1.36724 -2.64,-1.85123 0,-0.484 1.188,-0.88662 2.64,-0.8947 1.452,-0.008 3.288,-0.43347 4.08,-0.9453 1.03469,-0.66867 0.0731,-0.93474 -3.41652,-0.94531 -2.67689,-0.008 -5.69286,-0.6302 -6.72,-1.38613 -2.13431,-1.57075 -1.60492,-1.89175 4.85652,-2.94478 2.112,-0.3442 4.83136,-1.2645 6.04303,-2.04513 1.21167,-0.78062 4.45167,-1.66409 7.2,-1.96328 2.74833,-0.29918 6.01515,-1.18075 7.25959,-1.95904 2.93245,-1.834 4.37727,-0.44248 3.53278,3.40245 -0.73866,3.36312 -1.87459,4.44768 -5.58805,5.33533 -1.51601,0.36238 -3.14066,1.66604 -3.75409,3.01237 -0.5948,1.30543 -1.46961,2.37352 -1.94401,2.37352 -0.47442,0 -0.66461,0.324 -0.42265,0.72 0.67907,1.11144 -8.15657,1.1839 -11.1266,0.0912 z m -22.93231,-9.45123 c -1.65262,-3.696 -3.37892,-6.72 -3.83623,-6.72 -0.45731,0 -0.83147,-0.44059 -0.83147,-0.97908 0,-1.8639 -4.97159,-8.84555 -6.60258,-9.27206 -2.749,-0.71888 -2.27812,-4.06363 0.66249,-4.70579 1.41905,-0.30989 3.03472,-0.69704 3.59037,-0.86032 2.60681,-0.76605 7.21557,2.5807 10.75686,7.81133 4.60429,6.80073 6.95287,11.26113 6.95287,13.20483 0,1.62631 -5.47673,8.24109 -6.82323,8.24109 -0.47539,0 -2.21647,-3.024 -3.86908,-6.72 z m 175.39092,5.66517 c 0.22801,-0.36893 -0.44127,-2.55051 -1.4873,-4.84797 l -1.90186,-4.1772 2.26428,-1.92 c 2.47827,-2.10145 4.24341,-6.67244 4.84269,-12.54053 0.48878,-4.78612 1.83485,-8.30257 3.80357,-9.93647 1.08245,-0.89835 1.54001,-2.89754 1.54001,-6.72855 0,-2.99775 0.47549,-5.92594 1.05664,-6.50709 0.76885,-0.76885 0.52867,-1.22421 -0.88183,-1.67189 -1.64633,-0.52253 -2.03055,-1.73046 -2.54945,-8.01536 -1.02578,-12.42408 -2.53534,-21.55157 -4.44492,-26.87613 -2.23083,-6.22033 -2.23511,-5.96399 0.0996,-5.96399 1.056,0 1.92,0.36266 1.92,0.8059 0,0.44325 1.08,1.29799 2.4,1.89943 3.57725,1.6299 2.90386,-0.20443 -1.44,-3.92261 -4.32397,-3.70116 -5.24902,-7.06425 -1.68,-6.1078 1.188,0.31838 3.52521,0.58477 5.19379,0.59198 3.94419,0.017 11.65195,6.03684 14.24621,11.12637 1.056,2.0717 2.89281,5.10457 4.08179,6.73969 1.74502,2.39981 2.05824,3.78789 1.62468,7.2 -0.45073,3.54731 -0.15522,4.69016 1.83765,7.10704 2.32026,2.81391 2.4372,2.84429 5.09532,1.32381 1.49631,-0.8559 4.44856,-2.10021 6.56056,-2.76511 2.112,-0.66491 4.272,-1.49208 4.8,-1.83818 0.528,-0.34609 3.7576,-0.6138 7.17689,-0.59489 4.97449,0.0275 6.2794,0.34869 6.52974,1.60718 0.21956,1.10371 -0.91885,2.01301 -3.81688,3.04875 -2.27136,0.81176 -7.10916,2.588 -10.75067,3.94719 -3.64152,1.35919 -7.6084,2.47125 -8.81531,2.47125 -1.31667,0 -2.42712,0.7333 -2.77625,1.83331 -0.32003,1.00832 -1.22877,2.37018 -2.0194,3.02636 -1.18508,0.98352 -1.93722,0.71431 -4.28283,-1.53292 l -2.84529,-2.72596 v 8.81918 c 0,7.42968 -1.48682,19.98396 -3.40371,28.74003 -0.65737,3.00275 -2.55897,2.69595 -5.1687,-0.8339 -1.75388,-2.37224 -2.40817,-2.72107 -3.1511,-1.68 -0.73251,1.02649 -0.82528,0.96177 -0.42411,-0.29591 0.28243,-0.88539 -0.13249,-2.14593 -0.92202,-2.80117 -1.24115,-1.03008 -1.40747,-0.61717 -1.22842,3.0498 0.11391,2.33266 -0.10753,5.21318 -0.49211,6.40118 -0.57262,1.76895 -0.3399,2.16001 1.28548,2.16001 1.13053,0 1.98469,0.62424 1.98469,1.45046 0,2.52578 -4.00698,10.09135 -5.87389,11.0905 -1.96697,1.05267 -8.65377,0.92226 -7.9875,-0.15579 z M 68.394987,374.99608 c -0.6336,-0.6336 -1.152,-1.7136 -1.152,-2.4 0,-0.6864 -1.0545,-1.248 -2.34334,-1.248 -1.28884,0 -2.62681,-0.45865 -2.97326,-1.01922 -0.34645,-0.56057 -1.66794,-1.41388 -2.93665,-1.89624 -2.24037,-0.85179 -2.30622,-1.17466 -2.28842,-11.22079 0.0301,-16.97264 1.78813,-42.61372 3.30844,-48.25332 1.65541,-6.14072 6.46608,-15.76709 9.60021,-19.21044 4.49856,-4.94239 5.15064,-6.9518 5.73975,-17.68707 0.31652,-5.76789 1.01897,-11.02142 1.561,-11.67453 0.67551,-0.81395 0.66887,-1.38316 -0.0211,-1.80959 -0.55364,-0.34216 -1.00662,-1.44397 -1.00662,-2.44846 0,-2.58195 6.02686,-4.12204 10.88334,-2.7811 4.05918,1.12079 5.3289,3.13565 3.66003,5.80792 -0.77901,1.2474 -0.8016,1.79283 -0.0743,1.79283 0.73533,0 0.84491,3.78321 0.36946,12.75486 -0.64777,12.22339 -0.57106,13.04558 1.84088,19.73204 1.38424,3.83745 2.79476,9.96787 3.13449,13.62316 0.55417,5.96274 0.431,6.71338 -1.19814,7.30166 -2.70086,0.97527 -5.36972,4.05788 -4.59646,5.30904 0.39888,0.6454 0.2533,0.83385 -0.35415,0.45842 -0.5673,-0.35061 -1.88422,0.44664 -2.92649,1.77167 -1.04227,1.32503 -2.26486,2.40293 -2.71687,2.39532 -0.45201,-0.008 -2.00971,-2.1676 -3.46156,-4.8 -2.8214,-5.11557 -3.63999,-5.61178 -5.52028,-3.34617 -0.78834,0.94989 -0.8386,1.44 -0.14768,1.44 0.58252,0 0.77533,0.70905 0.43441,1.59748 -0.34891,0.90925 -0.21776,1.35321 0.30441,1.03048 0.50459,-0.31184 0.99239,0.15729 1.08401,1.04253 0.0916,0.88523 0.45345,3.04228 0.80406,4.79346 0.53047,2.64946 0.19712,3.64357 -1.98574,5.92199 -1.59089,1.66054 -2.33467,3.2049 -1.89001,3.92438 0.47147,0.76286 0.33756,0.94183 -0.37513,0.50135 -1.46886,-0.90779 -1.35903,0.45796 0.20206,2.51281 1.14135,1.50235 1.57041,1.31566 4.9643,-2.16 2.04323,-2.09246 4.2794,-3.80448 4.96926,-3.80448 0.68986,0 2.43819,1.71784 3.88517,3.81742 1.77092,2.56961 3.25847,3.74635 4.55088,3.6 1.61623,-0.18302 1.96692,0.43246 2.21655,3.89017 0.17162,2.37719 -0.33567,5.3749 -1.20417,7.11584 -1.81177,3.6318 -1.56783,4.00273 1.79225,2.72523 1.58726,-0.60347 2.32513,-1.41509 1.90481,-2.09519 -0.40989,-0.66322 -0.26662,-0.85087 0.35588,-0.46615 0.57309,0.35419 2.25984,-0.48816 3.748333,-1.87189 4.75214,-4.41768 11.20061,-7.03383 19.67434,-7.98186 4.37758,-0.48977 8.29061,-0.68567 8.69563,-0.43536 1.36462,0.84337 0.75052,3.10762 -1.50206,5.5382 -1.85248,1.99885 -2.82932,2.31943 -5.66526,1.85922 -3.87183,-0.62831 -9.00762,1.79044 -9.92255,4.67311 -0.73917,2.32891 -3.01287,3.40053 -8.86114,4.17632 -3.673493,0.48731 -5.089123,1.12667 -5.523263,2.49454 -0.33547,1.05696 -1.80787,2.08411 -3.46166,2.41487 -1.82502,0.365 -3.19292,1.40421 -3.73902,2.84055 -1.094,2.87744 -4.16476,2.9432 -6.13423,0.13138 l -1.49444,-2.1336 -0.0789,2.8536 c -0.137,4.9524 -0.96675,8.55255 -2.14363,9.30092 -1.82221,1.15874 -10.72396,0.86215 -11.98543,-0.39931 z m 40.128003,0.14605 c -1.848,-0.46669 -3.92243,-0.65221 -4.60986,-0.41228 -0.68742,0.23993 -1.01013,0.0484 -0.71713,-0.42574 0.293,-0.47409 -1.3776,-1.78675 -3.712453,-2.91704 -2.33486,-1.13028 -4.74934,-2.66252 -5.36552,-3.40498 -1.79783,-2.16625 -0.1102,-3.62392 3.51458,-3.0357 3.081413,0.50005 3.250453,0.38422 2.997963,-2.0542 -0.23585,-2.27774 0.10043,-2.61964 2.83643,-2.88375 3.29507,-0.31807 5.09379,1.02924 9.91022,7.42315 1.94709,2.58479 3.33572,3.37567 6.72,3.82726 3.43604,0.45851 4.26577,0.94268 4.26577,2.48923 0,1.70653 -0.69376,1.93793 -6.24,2.08128 -3.432,0.0887 -7.752,-0.22054 -9.6,-0.68723 z m 37.76815,-9.07234 c -1.50048,-2.37506 -3.07764,-4.31906 -3.5048,-4.32 -0.42717,-9.5e-4 -0.50967,-0.43372 -0.18334,-0.96172 0.32632,-0.528 0.20384,-0.96 -0.27217,-0.96 -0.47602,0 -1.68952,-1.55687 -2.69666,-3.45971 -1.00715,-1.90285 -2.80317,-3.83615 -3.99117,-4.29624 -1.83771,-0.71171 -2.16001,-1.54783 -2.16001,-5.60363 0,-5.26328 0.54549,-5.92975 4.95589,-6.05515 3.37894,-0.0961 5.60412,2.15853 5.60412,5.67822 0,1.21908 0.38919,2.21651 0.86488,2.21651 1.71758,0 12.36076,8.67661 12.82614,10.45622 0.42266,1.61626 0.14759,1.72876 -2.42381,0.99129 -1.59531,-0.45753 -3.23416,-0.6257 -3.6419,-0.37371 -0.40773,0.252 -0.93508,-0.0845 -1.1719,-0.74781 -0.2368,-0.6633 -0.72508,-0.9346 -1.08507,-0.6029 -0.35997,0.33169 0.66089,1.91845 2.26858,3.52614 3.42399,3.424 3.63055,4.91832 0.9921,7.17742 -2.77667,2.37747 -3.34528,2.14 -6.38088,-2.66493 z M 168.523,359.6702 c -1.056,-0.59691 -2.01573,-1.15329 -2.13271,-1.23641 -0.83651,-0.59433 4.72834,-13.54651 5.92767,-13.79667 2.2225,-0.46355 2.67265,1.81683 1.79517,9.09397 -0.83701,6.94152 -1.8718,8.04092 -5.59013,5.93911 z m 121.2,-8.55902 c -2.11273,-1.23056 -2.14928,-3.57338 -0.0912,-5.84752 1.48971,-1.6461 1.46703,-1.75559 -0.36353,-1.75559 -2.40654,0 -4.46506,-4.47218 -3.61588,-7.85558 0.51306,-2.0442 0.27853,-2.37872 -1.61783,-2.30759 -1.90758,0.0715 -2.40341,-0.65556 -3.54391,-5.19683 -1.0712,-4.26533 -1.10498,-6.29466 -0.17576,-10.56 1.07829,-4.94961 2.47272,-33.28585 1.53535,-31.2 -0.23727,0.528 -1.09439,6.52681 -1.90469,13.33068 -1.12783,9.47014 -2.01284,13.29667 -3.77451,16.32 l -2.30126,3.94932 1.82862,3.36 c 1.48625,2.73093 1.77956,4.97761 1.56661,12 l -0.262,8.64 h -2.88 -2.88 l 0.33365,-9.72813 c 0.21702,-6.32756 -0.068,-10.47856 -0.81527,-11.87491 -0.92567,-1.72962 -0.8269,-3.17056 0.5083,-7.41551 1.21544,-3.86424 1.49441,-6.85785 1.04648,-11.22993 -0.4596,-4.48594 -0.0146,-8.88809 1.79805,-17.78837 1.55159,-7.61836 2.40878,-15.00548 2.40878,-20.75851 0,-4.91223 0.33116,-9.13599 0.73591,-9.38615 1.42136,-0.87845 6.84446,4.73925 12.06827,12.50135 2.90188,4.31191 5.4355,7.68048 5.63027,7.48572 0.19476,-0.19478 0.40795,0.3813 0.47375,1.28016 0.0658,0.89885 1.84202,6.38628 3.94716,12.19428 5.77229,15.92547 8.91288,37.96437 6.49809,45.6 -1.85,5.84974 -10.77324,17.32375 -13.41583,17.25081 -0.58169,-0.016 -1.81362,-0.46952 -2.73762,-1.0077 z m -114.19918,-6.21082 c -3.51072,-1.90562 -6.27267,-8.53058 -7.44104,-17.84851 -0.52858,-4.21544 -1.20152,-8.05353 -1.49543,-8.52909 -0.29392,-0.47556 0.30937,-1.70841 1.34063,-2.73967 1.03126,-1.03126 1.58701,-2.19628 1.23502,-2.58893 -0.352,-0.39265 -0.0813,-0.39162 0.60149,0.002 1.41969,0.81903 7.3064,-3.30562 8.85948,-6.20758 0.55373,-1.03464 1.23043,-4.14908 1.50381,-6.92098 0.37159,-3.76777 1.10347,-5.58501 2.89966,-7.19982 3.34301,-3.00543 4.2035,-2.71683 4.29353,1.44 0.0777,3.58467 0.0829,3.58913 1.21253,1.04695 0.624,-1.40419 1.93731,-3.4401 2.91845,-4.52425 1.00899,-1.11492 1.52642,-2.64217 1.19117,-3.51584 -0.34677,-0.90366 0.38597,-2.8278 1.76573,-4.63676 1.5072,-1.97604 2.16773,-3.82153 1.83001,-5.11296 -0.57288,-2.19071 1.05991,-6.05714 2.55791,-6.05714 2.30158,0 4.61359,3.74571 4.14545,6.71608 -0.4677,2.96763 -0.44399,2.98868 1.34768,1.19701 1.00307,-1.00306 3.30186,-4.31084 5.10843,-7.3506 1.80657,-3.03976 3.71667,-6.24946 4.24467,-7.13267 4.78997,-8.01233 8.06395,-9.72336 20.39672,-10.65954 5.6778,-0.43101 12.69928,-1.53449 15.60328,-2.45218 5.77307,-1.82435 10.13499,-2.02593 11.91275,-0.55053 1.65369,1.37246 3.26914,8.53132 4.89053,21.67243 2.0843,16.89279 1.94365,19.20192 -1.496,24.56216 -3.50344,5.45963 -4.61808,6.45949 -8.41502,7.54844 l -2.89381,0.82993 1.60078,-4.35858 c 0.88042,-2.39721 2.57277,-4.99852 3.76077,-5.78068 2.06306,-1.35826 3.20226,-3.87874 1.19141,-2.63596 -0.53273,0.32924 -1.8093,0.33178 -2.83685,0.006 -1.51558,-0.48103 -1.70594,-1.01992 -1.00837,-2.85466 0.47294,-1.24392 1.1213,-4.78498 1.44082,-7.869 l 0.58093,-5.60732 -2.45769,2.70948 c -1.35173,1.49022 -2.2034,3.12092 -1.89261,3.62379 0.31079,0.50286 0.0179,0.7956 -0.65107,0.65052 -0.7808,-0.16936 -1.46991,1.40175 -1.92503,4.38891 -0.3899,2.55899 -1.88643,6.35188 -3.32564,8.42866 -2.76404,3.98851 -9.96623,9.74238 -13.5959,10.86184 -2.61777,0.80737 -2.76015,-0.40079 -0.72652,-6.16472 0.78841,-2.23461 1.15116,-4.55691 0.80608,-5.1607 -0.34506,-0.60378 -0.27684,-0.78049 0.15161,-0.39269 1.06219,0.96141 3.30072,-2.15744 3.3383,-4.65112 0.0168,-1.11432 1.11459,-3.62349 2.43954,-5.57593 3.7331,-5.50101 6.36395,-11.08624 5.71594,-12.13474 -0.32321,-0.52298 -0.0625,-0.83216 0.57948,-0.68709 1.2531,0.28321 5.30994,-5.72184 4.4479,-6.58389 -0.69028,-0.69027 -5.84502,4.35068 -7.32437,7.1627 -0.6467,1.22926 -0.90371,2.94409 -0.57114,3.81074 0.33256,0.86665 0.31984,1.2909 -0.0282,0.94279 -1.70793,-1.70793 -8.94258,10.56528 -7.55313,12.81349 0.41069,0.6645 0.29056,0.8808 -0.28993,0.52204 -0.54515,-0.33692 -2.13003,1.10833 -3.52196,3.21167 -1.39192,2.10334 -2.20063,3.83087 -1.79715,3.83895 0.4035,0.008 0.27883,0.33208 -0.27705,0.72 -1.40156,0.97809 -5.74963,8.22462 -5.46336,9.1053 0.12871,0.396 -0.12095,0.72 -0.55483,0.72 -0.43389,0 -1.77076,2.17259 -2.97085,4.82797 -1.20009,2.65538 -3.59314,6.32424 -5.3179,8.15302 -2.56479,2.71948 -2.89793,3.52258 -1.82916,4.40959 2.2364,1.85604 1.45396,3.61531 -2.50654,5.63581 -2.09731,1.06997 -5.22931,3.17539 -6.96,4.67873 -1.73067,1.50333 -4.17704,3.2751 -5.43638,3.93729 -1.83385,0.96427 -2.02497,1.38707 -0.96,2.12367 0.972,0.67229 0.79023,0.76946 -0.67569,0.3612 -1.10296,-0.30718 -3.57308,0.0965 -5.48916,0.89711 -4.61893,1.9299 -5.36994,1.84719 -6.39554,-0.70438 -0.47752,-1.188 -0.8956,-1.62 -0.92906,-0.96 -0.0335,0.66 -0.65596,1.2 -1.38331,1.2 -0.72735,0 -1.86024,0.648 -2.51755,1.44 -1.4463,1.74268 -1.70528,1.74022 -4.99918,-0.0477 z m 184.09272,-8.98566 c -0.99791,-1.61465 0.42364,-3.42535 5.66882,-7.2207 2.86868,-2.07574 4.99059,-4.13845 4.71536,-4.58379 -0.27523,-0.44534 -0.14432,-0.69436 0.29093,-0.55338 1.69286,0.54834 5.05796,-2.79358 4.69753,-4.66516 -0.5248,-2.72505 -6.84161,-13.88816 -7.49123,-13.23855 -0.29862,0.29862 -0.47815,-0.18206 -0.39895,-1.06819 0.0792,-0.88613 -0.56577,-2.07156 -1.43327,-2.6343 -2.11126,-1.36952 -14.26273,1.8203 -14.26273,3.74405 0,1.89934 -1.85664,1.672 -9.50862,-1.16433 -8.82261,-3.27022 -10.54896,-5.16388 -4.76892,-5.23106 7.72719,-0.0898 12.80091,-1.06252 17.63754,-3.3814 l 4.8,-2.30132 -5.76,0.52804 c -3.168,0.29043 -6.9585,0.65777 -8.42334,0.81631 -3.84339,0.41597 -4.04414,-0.88832 -0.48369,-3.14263 l 3.09065,-1.95686 -4.70022,-2.01476 c -2.58514,-1.10811 -5.29489,-1.78657 -6.02168,-1.50767 -0.72679,0.2789 -1.06533,0.0927 -0.75232,-0.41378 0.31302,-0.50647 -0.51082,-1.19191 -1.83075,-1.5232 -3.66711,-0.92038 -5.05777,-3.04625 -3.20487,-4.89915 1.26615,-1.26616 2.25659,-1.34167 6.15754,-0.46948 2.55678,0.57166 6.31323,1.23084 8.34766,1.46485 l 3.69898,0.42547 -3.04086,-3.13736 c -2.81593,-2.90531 -2.92463,-3.25361 -1.46954,-4.70869 0.90676,-0.90677 2.45547,-1.37123 3.66188,-1.09822 7.77611,1.75974 10.95314,2.3646 12.52811,2.38516 3.07207,0.0401 -0.17043,-2.87276 -6.11755,-5.49563 -5.89975,-2.60197 -8.64,-4.70463 -8.64,-6.62969 0,-2.17801 5.25107,-1.48934 15.7745,2.06879 11.24717,3.80284 11.6341,3.85236 15.94385,2.04024 3.12164,-1.31255 3.09211,-1.326 -5.40979,-2.46443 -4.7017,-0.62958 -10.79245,-2.02008 -13.535,-3.09001 -2.74254,-1.06992 -5.43759,-1.66649 -5.989,-1.3257 -0.6247,0.38609 -0.76431,-9.6e-4 -0.37042,-1.02772 0.47802,-1.2457 0.2998,-1.44698 -0.73099,-0.82559 -1.13167,0.68223 -1.15536,0.56518 -0.13954,-0.68932 1.26986,-1.5682 4.13117,-1.61732 15.78174,-0.27092 3.01693,0.34867 7.30148,0.32709 9.52121,-0.0479 6.57396,-1.11066 2.35346,-2.24573 -9.0802,-2.44203 -5.65752,-0.0971 -11.89739,-0.72901 -13.86638,-1.40417 -3.64642,-1.25035 -5.44116,-4.19387 -2.69036,-4.41242 2.75163,-0.21862 3.26438,-0.35399 3.95444,-1.04406 0.37623,-0.37623 -0.428,-1.19074 -1.78719,-1.81003 -2.61297,-1.19055 -3.91933,-3.31041 -2.97833,-4.83299 0.31062,-0.50259 2.25602,-1.59051 4.32311,-2.4176 3.49833,-1.39975 4.44442,-2.97482 3.84825,-6.40668 -0.0756,-0.43524 0.30524,-0.51775 0.84631,-0.18334 0.54109,0.33441 1.52379,0.26768 2.18379,-0.14829 0.78864,-0.49704 0.21275,-0.92939 -1.68,-1.26121 -2.27255,-0.39842 -2.94407,-1.06078 -3.18376,-3.14036 -0.2124,-1.84271 0.13152,-2.63544 1.14334,-2.63544 3.08962,0 2.29724,-1.9473 -3.15135,-7.74465 -3.11398,-3.31329 -5.44151,-6.59818 -5.1723,-7.29976 0.61748,-1.60913 -0.82199,-1.65054 -2.62792,-0.0755 -0.75681,0.66 -1.11604,0.86084 -0.79832,0.44631 0.31773,-0.41454 -0.66147,-2.08022 -2.17599,-3.70153 -2.66348,-2.85126 -3.75448,-5.39661 -1.7937,-4.18478 0.528,0.32632 0.96,-0.24097 0.96,-1.26065 0,-1.41504 -0.89299,-1.99676 -3.77188,-2.45711 -4.02695,-0.64394 -7.17575,-3.00743 -6.46707,-4.85419 0.84702,-2.20731 -14.4827,-1.05255 -21.92105,1.65128 l -6.72,2.44271 6.72,-0.53299 c 3.696,-0.29316 7.44761,-0.90562 8.33689,-1.36104 2.44764,-1.25345 5.20931,-0.99515 6.54311,0.61199 0.6573,0.792 2.23892,1.44 3.51473,1.44 1.37838,0 3.96009,1.5378 6.36244,3.78981 3.6176,3.3912 3.91576,3.99704 2.8347,5.76 -1.12952,1.842 -0.98916,1.97019 2.15724,1.97019 2.51836,0 4.33253,0.87377 7.20813,3.4717 4.30385,3.88828 4.91012,6.10973 1.68276,6.16587 -1.81194,0.0315 -1.65724,0.25609 0.96,1.39366 1.716,0.74585 3.12,1.61843 3.12,1.93908 0,0.32065 -0.41468,0.32671 -0.92152,0.0134 -0.53597,-0.33125 -0.48607,0.67961 0.11927,2.41608 1.53811,4.41222 0.23115,5.05253 -6.9118,3.3862 -3.36792,-0.78569 -6.26296,-1.28905 -6.43342,-1.11859 -0.17047,0.17047 2.0716,1.34102 4.98238,2.60123 3.48989,1.51094 5.29791,2.86029 5.30871,3.96197 0.0162,1.65602 -8.10389,8.33978 -10.18761,8.38553 -0.59619,0.0131 -3.53563,-1.0986 -6.53209,-2.47043 l -5.4481,-2.49422 -11.19007,2.11575 c -9.26149,1.75111 -13.51296,2.04128 -24.66792,1.68364 -9.41429,-0.30182 -14.50147,-0.88939 -16.87301,-1.94883 -2.78257,-1.24305 -4.25493,-1.32904 -8.16,-0.47654 l -4.76482,1.04018 4.8,1.29254 c 2.64,0.71089 5.556,1.11454 6.48,0.897 0.924,-0.21755 1.68,-0.10944 1.68,0.24024 0,1.35184 6.02695,3.20739 10.81814,3.33062 2.76202,0.071 9.77386,-0.46831 15.58186,-1.19859 5.808,-0.73026 11.38028,-1.36822 12.38284,-1.41766 2.90078,-0.14307 2.82855,1.94668 -0.10666,3.08564 -4.55445,1.76729 -16.82381,4.80903 -22.11618,5.48289 -2.772,0.35295 -5.04,1.07095 -5.04,1.59553 0,1.42176 -13.61663,-0.0908 -15.44497,-1.71568 -1.12487,-0.99972 -26.68717,-8.05832 -29.18258,-8.05832 -0.1974,0 -0.49696,0.95716 -0.66568,2.12701 -0.16872,1.16986 -1.69348,3.05915 -3.38834,4.19843 -1.69486,1.13928 -2.91886,2.23412 -2.72,2.43299 0.32125,0.32124 -3.52516,0.32221 -6.26313,0.002 -0.61074,-0.0715 -0.75377,-0.97358 -0.35407,-2.23292 0.6592,-2.07698 0.62766,-2.08478 -1.85386,-0.45882 -1.38847,0.90976 -5.93196,2.24896 -10.09666,2.97603 -4.16471,0.72706 -9.18013,2.08495 -11.14539,3.01753 l -3.57322,1.6956 2.58606,1.35496 c 2.44875,1.28303 2.50024,1.4498 0.9699,3.14081 -0.90273,0.9975 -1.29727,2.30178 -0.89377,2.95465 0.45443,0.73529 0.32134,0.92096 -0.35885,0.50059 -1.34264,-0.8298 -6.12091,2.17481 -5.37584,3.38036 0.2987,0.48333 0.17145,0.76007 -0.2828,0.615 -0.45425,-0.14509 -3.01208,1.95406 -5.68406,4.66477 -2.67199,2.7107 -5.78845,5.22381 -6.92545,5.58469 -1.55547,0.49368 -2.06729,1.42546 -2.06729,3.76349 0,1.81402 -1.21735,5.02692 -2.9248,7.71928 -1.60863,2.53656 -3.14909,5.96913 -3.42324,7.62796 -0.27414,1.65881 -0.6736,3.90589 -0.88768,4.99352 -0.39264,1.99465 -8.77189,8.7349 -9.7023,7.80449 -0.66622,-0.66623 2.15629,-14.76357 4.68135,-23.38147 1.6623,-5.67331 2.6916,-7.44062 5.87073,-10.08 7.56156,-6.27776 12.00752,-10.91532 12.67313,-13.21927 0.62408,-2.16022 0.36009,-2.06862 -3.45857,1.2 -2.27382,1.94632 -4.51396,3.53875 -4.97808,3.53875 -0.46412,0 -0.57992,0.42705 -0.25734,0.949 0.33633,0.54419 -0.0491,0.70512 -0.90334,0.37729 -1.67051,-0.64104 -1.87253,-1.46678 -0.68853,-2.81429 0.44072,-0.5016 1.58179,-3.03036 2.5357,-5.61945 0.95392,-2.5891 3.29332,-6.43301 5.19868,-8.54201 1.90535,-2.109 3.46429,-4.09465 3.46429,-4.41255 0,-0.31789 0.27256,-0.48714 0.60569,-0.3761 0.33313,0.11105 1.37209,-0.64495 2.30879,-1.68 0.9367,-1.03539 2.30964,-1.88224 3.05096,-1.88224 0.74133,0 1.09704,-0.40586 0.79046,-0.9019 -0.30656,-0.49604 0.20794,-0.86742 1.14335,-0.82526 1.91981,0.0865 16.21672,-6.50716 17.05686,-7.86655 0.29996,-0.48534 1.17954,-0.63908 1.95464,-0.34166 0.77508,0.29744 1.40925,0.1195 1.40925,-0.39539 0,-0.5149 2.7,-2.52192 6,-4.46007 3.3,-1.93813 7.08,-4.39815 8.4,-5.4667 2.13299,-1.72667 2.1768,-1.88095 0.39379,-1.38676 -1.46197,0.40521 -2.29073,-0.0342 -3.05503,-1.61983 l -1.04882,-2.17588 -0.065,2.19012 c -0.0836,2.81921 -2.83782,3.92809 -4.41137,1.77612 -1.04307,-1.42648 -1.28117,-1.18088 -1.94276,2.00402 -0.4147,1.99636 -0.7173,3.84574 -0.67242,4.10974 0.0448,0.264 -1.17842,0.48 -2.71842,0.48 -2.43915,0 -2.81854,-0.37117 -2.94384,-2.88 l -0.14383,-2.88 -0.42112,2.88 c -0.57253,3.91563 -1.49751,4.83122 -7.7866,7.70757 -2.98353,1.36454 -6.50461,3.47187 -7.82461,4.68295 -2.39396,2.19644 -10.43472,5.81477 -11.20655,5.04294 -0.22379,-0.2238 -0.12105,-1.5458 0.22831,-2.93778 0.60823,-2.42336 8.49511,-7.99349 13.62237,-9.62082 2.4573,-0.77991 6.21661,-6.52159 7.77769,-11.87903 0.79524,-2.72917 1.98582,-4.48143 3.51985,-5.18038 1.27496,-0.58092 2.04892,-1.49178 1.71989,-2.02416 -0.34251,-0.55421 -0.11809,-0.67121 0.52506,-0.27373 0.65919,0.40741 4.11532,-1.71274 8.36528,-5.13167 6.63414,-5.3369 7.63396,-5.82589 11.91182,-5.82589 6.8309,0 14.3762,1.97132 15.48658,4.04611 0.52032,0.97221 1.34367,1.52191 1.82968,1.22154 0.486,-0.30036 2.21537,0.14255 3.84305,0.98425 2.11865,1.0956 4.16902,1.34899 7.21713,0.8919 3.26329,-0.48936 4.38225,-0.31395 4.79093,0.75104 0.42765,1.11444 1.90276,0.70807 7.45106,-2.05266 3.80482,-1.8932 7.11114,-3.56347 7.34738,-3.71172 0.57718,-0.36218 -2.89563,-6.2704 -4.19723,-7.14068 -1.64946,-1.10287 -1.15426,-16.87925 0.58441,-18.61792 2.00497,-2.00497 12.48761,-1.98404 15.36402,0.0306 1.19156,0.8346 1.61287,1.51746 0.93622,1.51746 -0.67664,0 -1.00183,0.36959 -0.72266,0.82132 0.27919,0.45173 -0.55932,0.61736 -1.86334,0.36809 -1.304,-0.24923 -2.37093,-0.0171 -2.37093,0.51601 0,1.57103 2.70906,2.1521 5.35083,1.1477 1.34979,-0.51319 4.35484,-0.93307 6.67789,-0.93307 3.24121,0 4.46276,0.44663 5.25128,1.92 1.32788,2.48118 2.88,2.46493 2.88,-0.0302 0,-2.14578 -1.68066,-3.08534 -5.78306,-3.23298 -1.48089,-0.0533 -2.66094,-0.31289 -2.62232,-0.57689 0.0386,-0.264 -0.26061,-1.236 -0.66492,-2.16 -1.23028,-2.81161 -0.009,-4.37465 2.99463,-3.83251 1.49362,0.26958 3.26611,0.92575 3.93888,1.45814 0.67275,0.53238 1.47201,0.71916 1.77612,0.41504 1.08227,-1.08227 -0.73619,-2.5646 -4.54661,-3.70624 -3.01106,-0.90213 -3.76553,-1.54527 -3.40957,-2.90645 0.33033,-1.26321 -0.0789,-1.74798 -1.47573,-1.74798 -1.32367,0 -1.75869,-0.45384 -1.38025,-1.44 0.71361,-1.85967 -0.72379,-1.85967 -2.26717,0 -0.6573,0.792 -1.9807,1.44 -2.94089,1.44 -0.96018,0 -2.01661,0.43817 -2.34759,0.97372 -0.80216,1.29794 -7.90866,4.89742 -11.51152,5.83066 -1.584,0.4103 -3.76202,1.01802 -4.84003,1.35048 -1.61011,0.49657 -2.35039,-0.17712 -4.14657,-3.77361 -3.06267,-6.13241 -4.00759,-9.92633 -3.07996,-12.36619 0.53888,-1.41736 0.36792,-2.4957 -0.52841,-3.333 -0.82773,-0.77321 -1.32474,-3.29529 -1.32427,-6.71992 0.002,-12.98891 11.36466,-26.14459 25.89292,-29.97822 6.43199,-1.69725 19.09953,-1.46445 25.22945,0.46364 3.37568,1.06178 6.77351,3.08389 9.48303,5.64354 2.32234,2.1939 5.81085,5.35761 7.75224,7.03047 4.92355,4.24258 8.76183,12.08277 8.85056,18.07843 0.0636,4.29501 -0.39815,5.40598 -4.38873,10.56 -5.88721,7.6036 -10.03242,11.48414 -10.85157,10.15872 -0.35308,-0.5713 -1.99888,-1.03872 -3.65732,-1.03872 -3.90679,0 -2.31021,1.50088 2.3448,2.20425 2.85341,0.43115 4.19118,0.0382 6.92882,-2.03497 1.86598,-1.41311 3.19567,-3.13172 2.95486,-3.81914 -0.2408,-0.68742 -0.0769,-1.02678 0.36428,-0.75414 0.44115,0.27265 2.02902,-0.78491 3.52861,-2.35014 1.49958,-1.56522 2.32168,-2.87324 1.8269,-2.90672 -0.49478,-0.0335 0.13444,-0.4745 1.39827,-0.98006 1.66457,-0.66588 2.88071,-0.53733 4.41261,0.46641 2.02795,1.32876 2.19942,1.1917 4.17813,-3.33993 1.13487,-2.59906 2.67327,-4.72556 3.41867,-4.72556 0.82569,0 1.84516,-1.91141 2.60894,-4.89154 1.55165,-6.05417 4.6885,-8.87841 8.94079,-8.04974 6.68202,1.30216 17.12846,4.86331 17.56503,5.98784 0.49219,1.26781 -4.41186,13.67258 -5.40606,13.67461 -0.3168,6.4e-4 -1.83118,1.08064 -3.3653,2.4 -3.11813,2.68162 -1.39507,3.34943 2.18041,0.84507 2.32297,-1.62708 9.0889,-11.54608 9.0889,-13.32453 0,-0.56665 0.684,-1.09517 1.52001,-1.17448 0.83599,-0.0793 3.82896,-0.63088 6.65102,-1.22574 3.70683,-0.78135 6.46035,-0.79646 9.92023,-0.0544 2.63407,0.56491 5.25184,0.74117 5.8173,0.3917 0.60835,-0.37598 0.74844,-0.1829 0.34312,0.47293 -0.60132,0.97295 -0.0638,1.26713 1.90961,1.04521 0.76298,-0.0858 9.02793,10.57952 10.25474,13.23301 0.5416,1.17145 1.42031,1.8607 1.95269,1.53167 0.54308,-0.33563 0.67286,-0.12077 0.29567,0.48954 -0.87966,1.42332 3.24773,6.99181 4.60829,6.21729 0.57602,-0.32792 0.73779,-0.25343 0.35949,0.16553 -0.95569,1.05838 5.06449,9.22438 6.25706,8.48733 0.53209,-0.32885 0.69254,-0.15312 0.35657,0.39049 -0.87071,1.40884 4.93726,9.13093 6.25504,8.31649 0.65572,-0.40525 0.8078,-0.23122 0.38946,0.44568 -0.87091,1.40914 5.13888,9.89082 6.43893,9.08734 0.55448,-0.34269 0.67042,-0.11734 0.27163,0.52793 -0.68772,1.11274 2.17373,6.56826 4.84747,9.242 0.75914,0.75914 1.47282,1.71967 1.58596,2.13454 0.11314,0.41485 0.51418,0.65146 0.89117,0.5258 0.377,-0.12567 0.43916,0.41335 0.13813,1.19781 -0.32592,0.84933 1.8268,4.60877 5.32158,9.29345 3.79083,5.08153 5.53925,8.19681 4.93788,8.79817 -1.41997,1.41998 -15.14894,-1.92423 -20.19571,-4.91942 -2.38003,-1.41253 -4.68344,-2.46151 -5.11869,-2.33109 -0.43524,0.13042 -0.56005,-0.13712 -0.27735,-0.59454 0.62343,-1.00874 -5.5051,-7.13573 -6.43441,-6.43278 -0.36129,0.27329 -0.44463,0.21262 -0.18522,-0.13479 0.63577,-0.85143 -1.39631,-3.21201 -2.74921,-3.19363 -0.59535,0.008 -0.43445,0.43347 0.35755,0.9453 0.792,0.51183 1.08429,0.93722 0.64954,0.9453 -0.43475,0.008 0.55269,2.36228 2.19432,5.23155 2.07377,3.62456 2.91442,6.26168 2.75425,8.64 -0.27629,4.10244 -1.33234,4.27386 -8.89576,1.44403 -4.11129,-1.53822 -6.51068,-3.35278 -10.77067,-8.14534 -3.01456,-3.39142 -5.63671,-6.01052 -5.82701,-5.82021 -0.1903,0.1903 0.8231,2.88371 2.25201,5.98534 1.42891,3.10163 2.63521,6.50333 2.68067,7.55933 0.12467,2.8964 -4.11002,2.92908 -10.02137,0.0774 -2.77006,-1.33632 -5.47661,-2.15766 -6.01456,-1.82519 -0.53794,0.33246 -0.71069,0.17184 -0.38389,-0.35694 0.32681,-0.52878 -0.67682,-2.17914 -2.23029,-3.66745 l -2.8245,-2.70604 0.93863,3.27279 c 1.28285,4.47305 1.22499,4.72547 -1.08321,4.72547 -1.11201,0 -2.88927,-1.10275 -3.94944,-2.45055 -2.74328,-3.48751 -2.91747,-2.52537 -0.62785,3.46776 2.20787,5.77919 2.44597,11.93401 1.97815,51.13329 -0.21722,18.20023 -0.55255,22.233 -2.55445,30.72 -1.26742,5.37323 -2.80728,13.02183 -3.4219,16.99689 -1.22127,7.89853 -3.08193,11.63736 -4.89107,9.82822 -0.8016,-0.8016 -0.68488,-2.65019 0.45134,-7.14841 0.97006,-3.84038 1.90128,-14.34728 2.5372,-28.6272 0.55257,-12.408 1.24207,-25.79098 1.53223,-29.73996 0.29016,-3.94898 0.22165,-6.87407 -0.15222,-6.5002 -0.37387,0.37388 -1.00827,5.98086 -1.40976,12.45997 -0.67616,10.91171 -1.60635,17.32176 -5.26183,36.26019 -1.83477,9.50562 -7.07614,20.09944 -11.04298,22.32 -3.20939,1.79655 -13.82255,2.3753 -14.79205,0.80663 z M 90.269087,332.92856 c -2.16775,-3.04434 -2.19083,-3.26186 -0.63375,-5.97492 0.88875,-1.54855 1.3313,-3.27605 0.98345,-3.83889 -0.35873,-0.58044 -0.18149,-0.74462 0.40954,-0.37935 0.5731,0.35419 1.31334,0.20494 1.64498,-0.33167 0.33165,-0.53661 1.0095,-0.97566 1.50634,-0.97566 1.39586,0 1.07545,10.91767 -0.37878,12.90644 -1.20273,1.64483 -1.42142,1.55777 -3.53178,-1.40595 z m 171.599633,1.54808 c -0.79043,-0.79042 -1.59658,-1.2779 -1.79143,-1.08327 -0.19486,0.19462 -0.33922,-4.46994 -0.3208,-10.36572 0.0243,-7.76858 0.46427,-11.68907 1.5983,-14.24128 0.86065,-1.93693 1.27758,-3.83145 0.9265,-4.21003 -0.35106,-0.37859 0.32121,-0.18931 1.49393,0.4206 1.7125,0.89066 2.02127,1.6637 1.56857,3.92718 -0.38495,1.92475 -0.0661,3.31576 1.00566,4.38755 1.27963,1.27963 1.45444,2.74948 0.94703,7.96285 -1.36376,14.01191 -2.31186,16.31802 -5.42776,13.20212 z M 154.843,331.87404 c -1.716,-0.49547 -3.12,-1.25289 -3.12,-1.68314 0,-1.01818 9.18232,-8.76283 10.38952,-8.76283 2.38308,0 2.7263,5.81717 0.54007,9.15378 -1.65179,2.52094 -2.86106,2.72103 -7.80959,1.29219 z m 114.68138,-54.30852 c -0.25461,-0.4276 -1.02505,-3.31604 -1.71207,-6.41877 -1.11964,-5.0565 -1.08323,-5.76264 0.35125,-6.81156 0.88021,-0.64363 2.44304,-3.05234 3.47293,-5.35269 l 1.87254,-4.18245 0.68274,2.72022 c 0.3755,1.49611 0.18963,4.85638 -0.41303,7.46724 -0.60265,2.61087 -1.10948,5.90208 -1.12627,7.3138 -0.0322,2.70691 -2.33911,6.58919 -3.12809,5.26421 z m -122.07827,-11.6816 c -0.44854,-1.41322 -1.90896,-1.91569 -7.02469,-2.41685 -3.55213,-0.34799 -7.32243,-0.80807 -8.37843,-1.0224 -1.056,-0.21434 -2.15086,-0.42275 -2.43301,-0.46315 -0.98951,-0.14167 -3.7499,-5.57053 -3.14169,-6.17874 0.99015,-0.99016 4.299,-0.71689 10.32499,0.85267 3.09851,0.80706 7.45134,1.5465 9.67297,1.64318 3.38903,0.14751 4.44233,-0.2819 6.54285,-2.66738 1.37695,-1.56375 2.75117,-3.57142 3.05383,-4.46147 0.30265,-0.89006 1.28598,-1.81195 2.18518,-2.04864 1.39329,-0.36675 1.36619,-0.4468 -0.18337,-0.54171 -1.00005,-0.0612 -3.16005,1.36237 -4.8,3.16361 -6.2456,6.85981 -12.03275,4.28246 -9.25857,-4.12338 0.67696,-2.05123 1.02147,-4.31948 0.76555,-5.04056 -1.56535,-4.41058 6.73636,-10.95836 27.79198,-21.92027 3.52049,-1.83282 3.9779,-2.43371 3.55278,-4.66721 -0.44715,-2.34926 0.19995,-2.98486 7.74114,-7.60355 4.526,-2.772 8.62655,-5.04 9.11235,-5.04 1.74671,0 7.69855,-4.04676 7.18173,-4.88298 -0.29063,-0.47027 0.10825,-0.61071 0.88642,-0.3121 1.31568,0.50487 5.27126,-1.01101 6.36488,-2.4392 0.264,-0.34476 2.856,-1.62242 5.76,-2.83924 2.904,-1.2168 8.52,-4.35783 12.48,-6.98003 11.18817,-7.40851 19.71931,-9.02785 29.48275,-5.59628 2.98913,1.05059 7.94216,2.36965 11.00673,2.93122 3.06457,0.56158 6.73385,1.23655 8.15396,1.49993 3.80528,0.70574 4.15656,1.11903 4.15656,4.89019 0,1.891 0.96172,5.36385 2.13715,7.71743 1.99771,4 2.03,4.3576 0.49493,5.48007 -0.90323,0.66045 -1.32495,1.53706 -0.93716,1.948 0.38779,0.41094 -0.69892,0.0331 -2.41492,-0.83957 -1.716,-0.87271 -3.12,-2.03315 -3.12,-2.57875 0,-0.5456 -0.43544,-0.72288 -0.96764,-0.39397 -0.53221,0.32893 -0.77059,1.68473 -0.52975,3.01292 0.36745,2.02633 0.21297,2.2282 -0.9601,1.25465 -0.87212,-0.7238 -3.07559,-0.97116 -5.85763,-0.65758 -5.31968,0.5996 -9.63369,-0.70491 -10.40896,-3.14757 -0.45188,-1.42375 -1.21332,-1.66677 -3.8711,-1.23547 -2.03325,0.32995 -3.88389,0.0594 -4.80111,-0.70179 -0.88264,-0.73253 -3.90951,-1.21593 -7.40737,-1.18299 -4.90733,0.0463 -6.20793,0.41769 -7.63558,2.18077 -0.94642,1.16877 -1.72076,1.82983 -1.72076,1.46901 0,-0.36082 -1.13826,0.23933 -2.52947,1.33365 -1.3912,1.09433 -2.97195,1.98968 -3.51276,1.98968 -0.54082,0 -3.33874,1.77837 -6.2176,3.95193 -2.87886,2.17356 -8.46111,5.44281 -12.405,7.265 -5.22612,2.41462 -7.02243,3.69947 -6.62393,4.73793 0.30817,0.80307 0.13264,1.16891 -0.40223,0.83834 -0.52196,-0.32258 -0.94901,-0.12902 -0.94901,0.43014 0,0.55916 1.75968,1.01666 3.91038,1.01666 3.20617,0 3.85273,0.30255 3.5902,1.68 -0.1828,0.95914 -1.34579,1.80214 -2.71039,1.96465 -3.40378,0.40535 -7.59425,2.12185 -11.69478,4.7904 -4.29588,2.79567 -5.98915,2.17615 -4.07596,-1.49131 2.06568,-3.95976 1.67866,-4.34417 -1.51174,-1.50151 -1.59076,1.41737 -3.39215,4.3367 -4.0031,6.4874 -0.61094,2.15071 -1.87132,4.77437 -2.80084,5.83037 -0.92952,1.056 -2.49196,4.08 -3.47207,6.72 -1.27515,3.43466 -2.31817,4.82784 -3.66688,4.89786 -3.6376,0.18887 -4.1617,0.4025 -7.14405,2.91198 -1.74118,1.4651 -2.7869,3.10223 -2.48465,3.88986 0.28704,0.74802 0.14209,1.1253 -0.32211,0.8384 -0.4642,-0.28689 -1.57286,0.59076 -2.46368,1.95033 -1.57516,2.404 -6.6948,5.19157 -9.5348,5.19157 -0.77339,0 -1.66097,-0.80287 -1.97242,-1.78415 z m 118.55066,-6.79274 c -0.54657,-1.02129 -0.99377,-2.74929 -0.99377,-3.84 0,-1.56801 0.60913,-1.98311 2.91012,-1.98311 3.59647,0 4.5588,2.07402 2.4533,5.28741 -1.88397,2.8753 -3.04157,3.01721 -4.36965,0.5357 z M 291.403,107.29665 c -4.752,-1.00998 -8.8979,-1.84359 -9.21311,-1.85246 -0.92763,-0.0261 -4.20491,-3.18748 -5.96052,-5.74973 -2.01672,-2.94331 -2.06719,-5.20843 -0.15859,-7.11703 1.75739,-1.75739 3.92614,-1.13292 4.56623,1.31479 0.25478,0.97424 1.73116,2.42702 3.28087,3.2284 7.59789,3.92902 42.42925,6.01399 49.70227,2.97512 1.9644,-0.82078 5.14917,-1.36078 7.07725,-1.2 2.96007,0.24683 3.55036,0.67712 3.79323,2.76505 0.23928,2.05714 -0.32543,2.74035 -3.36,4.06511 -9.0513,3.95139 -34.7128,4.76196 -49.72763,1.57075 z m 40.45303,-10.29334 c -0.77231,-1.24962 -10.34351,-1.69375 -29.49689,-1.36875 -14.79561,0.25105 -17.04775,0.089 -18.20881,-1.30996 -1.15732,-1.3945 -1.00002,-1.87593 1.24355,-3.80577 4.5755,-3.93567 22.94647,-4.31188 42.66275,-0.87365 11.77396,2.05321 19.6745,6.46821 12.44096,6.9523 -1.65802,0.11095 -4.16146,0.44052 -5.5632,0.73236 -1.40173,0.29185 -2.78699,0.14491 -3.07836,-0.32653 z"
     id="path40"
     inkscape:connector-curvature="0" />
</svg>
