<?xml version="1.0" encoding="UTF-8" standalone="no"?>
<!-- Created with Inkscape (http://www.inkscape.org/) -->

<svg
   xmlns:dc="http://purl.org/dc/elements/1.1/"
   xmlns:cc="http://creativecommons.org/ns#"
   xmlns:rdf="http://www.w3.org/1999/02/22-rdf-syntax-ns#"
   xmlns:svg="http://www.w3.org/2000/svg"
   xmlns="http://www.w3.org/2000/svg"
   xmlns:sodipodi="http://sodipodi.sourceforge.net/DTD/sodipodi-0.dtd"
   xmlns:inkscape="http://www.inkscape.org/namespaces/inkscape"
   version="1.1"
   id="svg50"
   width="981.33331"
   height="2133.3333"
   viewBox="0 0 981.33331 2133.3333"
   sodipodi:docname="balloons.svg"
   inkscape:version="0.92.4 (5da689c313, 2019-01-14)">
  <metadata
     id="metadata56">
    <rdf:RDF>
      <cc:Work
         rdf:about="">
        <dc:format>image/svg+xml</dc:format>
        <dc:type
           rdf:resource="http://purl.org/dc/dcmitype/StillImage" />
        <dc:title></dc:title>
      </cc:Work>
    </rdf:RDF>
  </metadata>
  <defs
     id="defs54" />
  <sodipodi:namedview
     pagecolor="#ffffff"
     bordercolor="#666666"
     borderopacity="1"
     objecttolerance="10"
     gridtolerance="10"
     guidetolerance="10"
     inkscape:pageopacity="0"
     inkscape:pageshadow="2"
     inkscape:window-width="640"
     inkscape:window-height="480"
     id="namedview52"
     showgrid="false"
     inkscape:zoom="0.25125001"
     inkscape:cx="490.66666"
     inkscape:cy="1066.6666"
     inkscape:window-x="0"
     inkscape:window-y="0"
     inkscape:window-maximized="1"
     inkscape:current-layer="svg50" />
  <path
     style="fill:#000000;stroke-width:1.33333325"
     d="m 469.91632,2023.7605 c -5.60294,-2.4397 -11.52206,-9.9716 -14.47123,-18.4141 -2.82024,-8.0736 -9.67847,-21.9319 -12.55088,-25.3614 -1.07485,-1.2833 -1.56527,-2.3333 -1.08979,-2.3333 0.47547,0 -0.27122,-1.35 -1.65933,-3 -11.51616,-13.6889 -14.22292,-16.5543 -17.11693,-18.1196 -2.2899,-1.2387 -3.72822,-1.3604 -4.69142,-0.3972 -0.9632,0.9632 0.90366,3.8655 6.08915,9.4664 7.57712,8.1841 9.60393,13.0196 8.70288,20.7628 -0.58049,4.9884 -5.90732,6.4181 -21.10888,5.6655 -9.11001,-0.4511 -12.87951,-1.3255 -19.21492,-4.4578 -8.60124,-4.2524 -22.17617,-16.8766 -24.99476,-23.2444 -0.97604,-2.2049 -2.14601,-4.009 -2.59995,-4.009 -0.45393,0 -1.84977,-3.257 -3.10188,-7.2378 -1.2521,-3.9808 -3.35252,-8.4784 -4.66761,-9.9946 -2.9122,-3.3578 -12.19736,-7.5243 -19.42088,-8.7146 -10.40772,-1.715 -14.03232,-7.1745 -14.99366,-22.5837 -0.60682,-9.7263 -0.30895,-12.0241 2.24153,-17.2928 1.6822,-3.4749 4.8434,-7.2515 7.38456,-8.822 6.873,-4.2477 13.80963,-12.6692 14.50362,-17.6083 0.34104,-2.4272 1.30203,-8.9129 2.13552,-14.4129 4.42544,-29.2024 5.03548,-81.0983 1.29304,-110 -3.1008,-23.9467 1.14732,-72.1272 8.26484,-93.7365 1.87496,-5.6926 5.95096,-12.6602 12.63583,-21.6002 5.42743,-7.2582 9.86805,-13.5114 9.86805,-13.8958 0,-0.3844 -1.65,-1.5084 -3.66666,-2.4978 -3.76383,-1.8465 -7.81103,-1.6132 -10.55183,0.6084 -0.85349,0.6918 -5.68367,1.6042 -10.73371,2.0276 -9.95814,0.8348 -13.71446,-0.9182 -13.71446,-6.4005 0,-4.0416 -3.55143,-10.0116 -7.64655,-12.8539 -2.02773,-1.4074 -9.08078,-4.219 -15.67346,-6.248 -7.49274,-2.306 -13.63368,-5.135 -16.37972,-7.5461 -2.41619,-2.1215 -5.20096,-3.8572 -6.18842,-3.8572 -1.84366,0 -8.77852,-8.1929 -8.77852,-10.3711 0,-2.3362 -5.43524,-6.1038 -12.28618,-8.5165 -13.01166,-4.5823 -21.4816,-16.0723 -20.78079,-28.1905 l 0.40031,-6.9219 12.71146,-0.088 12.71147,-0.088 8.62187,-5.8101 c 4.74202,-3.1958 9.92582,-7.0563 11.51957,-8.5791 4.47337,-4.2743 10.71395,-8.7687 12.17539,-8.7687 2.96972,0 21.96284,-16.0989 37.59357,-31.8649 13.77349,-13.8928 30.66666,-34.8517 30.66666,-38.0475 0,-1.5872 12.31302,-29.5845 14.9915,-34.0876 1.52668,-2.5666 8.3878,-10.4424 15.24692,-17.5017 12.58085,-12.948 14.04566,-16.0487 8.42436,-17.8328 -1.33332,-0.4232 -3.46196,-2.3532 -4.73031,-4.2889 -2.02408,-3.0892 -2.19619,-5.7402 -1.40736,-21.677 1.04224,-21.0568 -0.0735,-25.3848 -7.89205,-30.6146 -6.00836,-4.0184 -17.96639,-19.6548 -17.96639,-23.4924 0,-1.5576 -1.22489,-7.5782 -2.72199,-13.3787 -1.81142,-7.0186 -2.98202,-17.0141 -3.49933,-29.88 -0.58699,-14.5985 -1.27713,-19.9048 -2.818,-21.6667 -3.02681,-3.4609 -3.82592,-2.935 -5.47167,3.6008 -1.0974,4.3582 -2.8157,6.9255 -6.46998,9.6667 -2.73667,2.0529 -6.61527,5.3825 -8.61912,7.3992 -3.11483,3.1348 -3.28672,3.6667 -1.1849,3.6667 3.86602,0 5.15716,2.7603 4.96403,10.6125 -0.19348,7.8662 -1.78372,9.5569 -10.73251,11.4104 l -3.8868,0.8051 4.18435,2.5446 c 4.73268,2.8781 5.95079,6.2368 5.34364,14.7343 -0.32908,4.6057 -1.07639,6.1805 -3.42105,7.2092 -2.36431,1.0373 -3.021,2.45 -3.09908,6.6667 -0.15807,8.5356 -1.0732,11.8648 -3.9118,14.2309 -3.53867,2.9496 -3.37187,3.9851 1.37957,8.564 5.01871,4.8365 7.96464,11.3973 7.96464,17.7377 0,3.8592 -1.42709,6.6322 -6.94965,13.5039 -8.99219,11.1888 -9.97092,11.8877 -16.71701,11.9383 l -5.66667,0.042 v -6.733 c 0,-12.433 -6.55009,-19.3078 -12.40841,-13.0234 -1.60871,1.7257 -5.83279,5.2201 -9.38684,7.7654 -6.24131,4.4698 -6.87858,4.6282 -18.66667,4.6427 l -12.20475,0.015 -0.39824,-6.134 c -0.39638,-6.1054 -0.36072,-6.1614 7.64222,-12 7.59482,-5.541 7.8386,-5.8863 4.39824,-6.2316 -6.48654,-0.6511 -9.41455,-1.5972 -11.54898,-3.7316 -2.29441,-2.2944 -2.88492,-11.9228 -0.80986,-13.2052 0.70585,-0.4363 6.40585,-0.8563 12.66666,-0.9335 6.26082,-0.077 11.36019,-0.5056 11.33194,-0.9521 -0.0283,-0.4467 -1.97826,-2.0206 -4.33334,-3.4976 -3.70132,-2.3214 -4.33708,-3.5418 -4.68836,-9 l -0.40638,-6.3144 8.40638,0.093 c 7.13298,0.08 16.504,2.016 12.40639,2.5637 -0.73333,0.097 -0.0537,0.6948 1.51028,1.3263 1.564,0.6313 3.66047,2.9933 4.65881,5.2488 2.68788,6.0723 6.49758,5.4991 6.49758,-0.9777 0,-2.7931 0.88092,-6.2431 1.9576,-7.6667 1.07666,-1.4235 1.97666,-3.7017 2,-5.0629 0.0233,-1.3611 1.5424,-3.6547 3.37573,-5.0968 3.72751,-2.932 4.43364,-8.3468 1.31601,-10.0915 -1.23056,-0.6887 -2.20178,-3.5932 -2.49034,-7.4475 -0.37544,-5.015 0.0431,-6.68 2.02868,-8.0708 2.34248,-1.6407 2.37369,-2.1151 0.49034,-7.4531 -1.10625,-3.1348 -2.01136,-8.9335 -2.01136,-12.8854 0,-6.4163 0.39719,-7.4329 3.71111,-9.4991 3.66904,-2.2874 3.82989,-3.0601 2.21433,-10.636 -0.41974,-1.9684 -3.01997,-4.1923 -7.61474,-6.5127 -7.83564,-3.9572 -16.1563,-9.5022 -20.64403,-13.7575 -1.65,-1.5646 -3,-2.3721 -3,-1.7944 0,1.577 -14.42071,-14.1085 -18.73264,-20.3756 -16.25936,-23.6322 -21.02111,-61.6586 -10.17275,-81.2375 0.81266,-1.4667 1.49883,-3.081 1.5248,-3.5875 0.026,-0.5064 3.47907,-5.6064 7.67352,-11.3333 8.27324,-11.2959 17.53883,-19.2854 29.0404,-25.0411 4.03334,-2.0183 9.28334,-5.1331 11.66667,-6.9218 2.38333,-1.7886 4.33333,-2.8561 4.33333,-2.3723 0,1.6139 10.70096,-12.0226 12.3548,-15.744 0.89623,-2.0167 1.93883,-3.6667 2.31691,-3.6667 0.37807,0 0.6816,-1.95 0.67452,-4.3333 -0.012,-4.1636 0.21439,-4.3496 5.79005,-4.75 6.40979,-0.4602 10.42148,2.0068 11.12256,6.8399 0.27677,1.9079 1.69327,3.0742 4.40783,3.6292 7.95798,1.6271 15.39373,7.0136 18.84784,13.6534 1.06029,2.0382 1.56788,4.2882 1.12796,5 -0.43992,0.7118 -0.16444,1.2942 0.61217,1.2942 0.77661,0 1.41203,1.1037 1.41203,2.4527 0,1.4186 3.3731,5.0722 8.00037,8.6656 4.4002,3.417 7.8502,6.6633 7.66667,7.2139 -0.18355,0.5506 0.26629,1.1874 0.99962,1.4152 2.5826,0.802 7.13732,5.8937 8.74579,9.7769 l 1.62688,3.9277 10.48033,-0.8846 10.48034,-0.8846 v 3.5205 c 0,2.4613 1.00288,3.9775 3.33333,5.0393 1.83333,0.8353 3.33333,2.3224 3.33333,3.3047 0,0.9823 0.4845,1.786 1.07667,1.786 1.40764,0 9.59,11.6206 9.59,13.6197 0,0.848 1.21585,2.836 2.70191,4.4178 1.77613,1.8906 2.86726,5.1878 3.18452,9.623 0.40608,5.6771 -0.1272,7.6662 -3.36287,12.5433 -4.53217,6.8313 -4.74436,8.5608 -1.27788,10.416 5.16113,2.7621 7.57509,1.6821 9.32964,-4.174 1.13871,-3.8007 4.11951,-7.9126 9.44131,-13.0239 4.66008,-4.4757 8.13036,-9.0632 8.65832,-11.4457 1.5008,-6.7726 1.92718,-7.5423 4.55974,-8.2307 1.95463,-0.5112 3.08713,-3.0647 4.82236,-10.8734 2.61911,-11.7863 13.34895,-51.4989 14.35349,-53.1244 0.37232,-0.6024 1.05682,-10.3921 1.52111,-21.7548 1.47976,-36.21469 3.9442,-65.82719 7.37849,-88.65954 0.66183,-4.4 1.59276,-14.9 2.06874,-23.33333 0.47598,-8.43334 1.0603,-17.65447 1.29848,-20.4914 0.3858,-4.59524 -0.20736,-5.78048 -5.43611,-10.86224 -3.22804,-3.13729 -6.47048,-7.28572 -7.2054,-9.21873 -1.63636,-4.30395 -1.53713,-20.49979 0.13187,-21.53131 0.66498,-0.41099 0.90894,-1.23287 0.54212,-1.82639 -0.77944,-1.26117 9.14761,-11.93514 13.84861,-14.8906 5.00876,-3.14893 3.98577,-9.2278 -4.01936,-23.8841 -12.39783,-22.69875 -18.40841,-33.54003 -22.52515,-40.62856 -1.27766,-2.2 -4.52406,-8.06836 -7.21421,-13.04082 -2.69014,-4.97244 -6.14686,-11.27244 -7.6816,-14 -8.40446,-14.93658 -36.09062,-65.04119 -40.68321,-73.62585 -4.25475,-7.95312 -10.22961,-18.5834 -11.82427,-21.0373 -0.1324,-0.20386 -1.85492,0.24302 -3.82765,0.99306 -3.86644,1.47002 -10.04519,2.77751 -15.56373,3.29347 -1.89604,0.17727 -4.27846,0.83596 -5.29424,1.46375 -3.08348,1.9057 -39.63452,0.95002 -51.92507,-1.35766 -6.23333,-1.17036 -12.53333,-2.32089 -14,-2.55672 -6.82005,-1.09664 -25.72229,-9.68044 -34.75532,-15.78293 -29.53182,-19.95105 -46.48536,-52.50075 -46.36385,-89.01567 0.0516,-15.5101 3.19248,-34.9133 5.79179,-35.77974 0.73922,-0.24642 1.01593,-0.9789 0.61492,-1.62776 -1.08554,-1.75643 4.81926,-14.6839 6.29146,-13.77403 0.69634,0.43036 1.10604,-0.0277 0.91047,-1.018 -0.50988,-2.58164 5.01529,-12.65844 7.45377,-13.59417 1.13124,-0.4341 2.0568,-1.63214 2.0568,-2.66229 0,-3.74174 25.45131,-23.00788 35.25719,-26.68903 1.66984,-0.62685 -2.02127,-7.58107 -12.48465,-23.52164 -6.73443,-10.25963 -10.09888,-13.1236 -12.16888,-10.35869 -0.40134,0.53605 -5.50134,2.2223 -11.33334,3.74722 -16.76942,4.38478 -48.59214,5.05832 -69.55038,1.47207 -50.9002,-8.70973 -76.62708,-41.44019 -79.80276,-101.52727 -0.72366,-13.69244 -0.44783,-16.73216 2.57754,-28.40474 1.86335,-7.18928 5.52355,-17.51159 8.13377,-22.93846 5.19757,-10.80618 16.99176,-26.37127 26.17373,-34.54211 7.43808,-6.61902 29.30848,-19.69084 31.52289,-18.8411 0.92119,0.3535 1.6749,0.17196 1.6749,-0.40341 0,-1.32201 12.09717,-6.16291 19.99999,-8.00335 16.80776,-3.91426 38.13768,-2.9775 58.59122,2.57319 10.32576,2.8022 27.48268,10.96537 36.83234,17.52464 6.08643,4.26993 9.14983,3.94584 9.43651,-0.99835 0.33753,-5.8212 9.89217,-22.93977 17.48957,-31.33516 10.81432,-11.95021 26.44173,-21.91396 42.74041,-27.2505 5.64568,-1.84852 6.90355,-2.76886 6.17452,-4.51771 -0.50354,-1.20795 -0.94406,-2.94627 -0.97894,-3.86293 -0.0349,-0.91667 -0.49062,-1.66667 -1.01276,-1.66667 -1.11154,0 -4.72184,-8.19901 -4.25656,-9.66667 0.17436,-0.55 -0.22623,-1 -0.89022,-1 -1.97126,0 -9.32489,-21.97344 -11.4697,-34.27277 -3.23054,-18.5252 -2.05187,-39.60746 2.85238,-51.01966 2.28456,-5.31615 8.22244,-17.44648 11.0095,-22.490976 2.60629,-4.717334 22.69596,-24.2165873 24.94982,-24.2165873 1.02588,0 1.86524,-0.564282 1.86524,-1.253958 0,-1.678854 19.08759,-12.331265 29.71207,-16.5817247 12.14544,-4.858942 25.22761,-6.627676 49.62126,-6.708889 21.25071,-0.07075 43.33935,2.903152 44.44722,5.984144 0.24597,0.68404 0.98857,0.909129 1.65024,0.500199 1.36305,-0.842415 18.90513,7.2501907 23.7537,10.95818574 6.83639,5.22820296 21.48218,19.83447026 21.48218,21.42421326 0,0.922807 0.62585,1.677829 1.39078,1.677829 0.76494,0 4.05072,5.55 7.30175,12.333333 4.39905,9.178701 6.77164,16.639201 9.27588,29.167521 1.85071,9.25881 3.36492,18.65973 3.36492,20.89094 0,6.59599 1.16276,8.45999 4.24748,6.8091 1.45616,-0.77932 2.97226,-1.09227 3.36906,-0.69543 0.3969,0.39683 2.3378,-0.11427 4.3133,-1.13584 4.4873,-2.32049 21.8391,-6.77423 33.7495,-8.66259 4.957,-0.7859 17.857,-1.45426 28.6667,-1.48522 21.5729,-0.0617 35.5621,2.01494 51.4534,7.6384 11.0377,3.90589 28.8581,13.60616 28.4673,15.4957 -0.1467,0.70942 0.7957,1.46828 2.0942,1.68636 2.8187,0.47342 12.4484,8.69514 11.9724,10.22191 -0.1833,0.58803 0.4585,1.06915 1.4262,1.06915 0.9678,0 2.9178,1.36733 4.3333,3.03852 7.9746,9.41453 12.5738,15.5788 12.5738,16.85254 0,0.79324 0.469,1.44227 1.0423,1.44227 0.5732,0 1.7839,2.55 2.6905,5.66667 10.1349,34.84392 6.3575,67.9779 -10.5515,92.5543 -13.1875,19.16736 -34.7989,37.70679 -54.5146,46.76553 -7.4952,3.44382 -10.3309,4.45867 -18,6.44199 -7.0085,1.81248 -28.5096,4.56188 -35.7085,4.56615 -9.6681,0.005 -9.6564,-0.003 -10.8696,8.00536 -0.3888,2.56666 -1.0093,6.16666 -1.3789,8 -2.8995,14.38242 -3.769,18.16036 -4.4342,19.266 -0.4189,0.6963 -0.8368,2.4963 -0.9287,4 -0.092,1.5037 -1.3122,8.28976 -2.7118,15.08013 l -2.5448,12.34613 4.6589,3.8403 c 6.8551,5.65054 19.852,21.69974 22.6701,27.99409 1.3477,3.01033 2.1846,5.47335 1.8598,5.47335 -0.3249,0 0.2871,2.25 1.3599,5 9.3198,23.8893 4.4279,65.21917 -10.6913,90.32706 -2.5378,4.21448 -4.6142,7.947 -4.6142,8.29451 0,0.34749 2.55,-0.85448 5.6666,-2.67108 9.3666,-5.45944 25.0119,-11.64318 36.3334,-14.3606 14.0378,-3.3694 52.4106,-2.95156 66,0.71869 23.1039,6.23993 46.9252,20.09231 63.2085,36.75643 4.9811,5.09757 8.6969,9.26832 8.2573,9.26832 -0.4395,0 0.3185,1.11769 1.6846,2.48376 3.6752,3.67516 10.6356,19.14592 12.8621,28.58797 2.4582,10.42525 2.4864,35.02032 0.052,45.59493 -3.7171,16.14794 -9.3207,31.33334 -11.5623,31.33334 -0.6431,0 -1.0229,0.45 -0.844,1 0.1788,0.55 -1.6968,4.57474 -4.1679,8.94386 -4.4834,7.92688 -23.301,27.38091 -26.4906,27.38654 -0.9167,10e-4 -1.6667,0.46444 -1.6667,1.0285 0,0.56406 -3.6,3.00467 -8,5.42359 -4.4,2.4189 -8,3.96441 -8,3.43444 0,-0.52996 -1.05,-0.0832 -2.3333,0.99292 -14.848,12.44988 -69.9026,14.4907 -101.7241,3.7708 -9.9128,-3.33939 -19.6906,-7.82756 -20.7353,-9.51787 -0.4172,-0.67516 -2.9596,1.11536 -5.6496,3.97892 -6.9675,7.41688 -29.9663,32.19893 -31.5766,34.02495 -0.7437,0.84333 -10.9168,12.03334 -22.6068,24.86668 -11.69001,12.83333 -23.6815,26.00881 -26.64776,29.27885 -2.96626,3.27004 -9.33496,10.17004 -14.15265,15.33333 -4.81771,5.1633 -12.16771,13.04207 -16.33333,17.50836 -5.89812,6.32384 -7.57388,9.05266 -7.57388,12.33334 0,3.86273 4.21444,10.22057 5.75424,8.68077 0.35372,-0.35372 2.27785,1.50011 4.27585,4.11961 7.49067,9.82078 5.67205,24.15608 -5.13336,40.46402 l -6.81253,10.28172 -0.0421,80.66671 -0.0421,80.66659 -4.92893,19.3333 c -2.71101,10.6338 -7.35217,26.5338 -10.3138,35.3338 -2.96162,8.8 -5.3936,17.9218 -5.4044,20.2706 -0.0259,5.6315 2.43282,10.815 5.6079,11.8228 3.62457,1.1504 20.85405,18.5795 22.40858,22.6683 0.71347,1.8765 1.29722,5.5266 1.29722,8.1114 0,5.8359 -3.40643,8.9314 -12.955,11.7725 -7.17764,2.1356 -15.02715,8.8106 -15.03883,12.7886 -0.004,1.1555 1.54571,3.5555 3.44244,5.3334 5.71883,5.3603 17.38333,20.1756 20.91597,26.5657 2.78976,5.0463 3.35043,7.9421 3.5275,18.2191 0.11573,6.7204 0.78396,15.7204 1.48482,20 0.70088,4.2795 1.27779,7.8881 1.28204,8.019 0.004,0.1309 0.77291,1.031 1.70814,2 2.6199,2.7147 11.95045,16.9056 16.6453,25.3162 7.45835,13.3612 9.65428,22.0462 9.65428,38.1834 0,19.8092 -4.29337,32.9199 -14.79354,45.1747 -5.64463,6.5879 -6.037,9.4081 -1.9085,13.7173 1.9564,2.042 3.70694,4.7338 3.89007,5.9815 0.18313,1.2479 0.9046,2.6708 1.60327,3.1621 4.91258,3.455 10.58334,20.4548 11.90053,35.6756 0.6474,7.481 0.22595,15.0127 -1.44839,25.8844 -2.7006,17.5355 -3.44226,74.052 -1.38588,105.6083 l 1.19091,18.2749 -3.85757,1.6434 c -7.5164,3.2017 -11.1909,7.7813 -11.1909,13.9472 0,3.1028 -0.36418,6.5905 -0.80932,7.7505 -1.11358,2.902 -10.32236,2.768 -15.42405,-0.2243 -4.43287,-2.6 -3.16893,-3.3854 -11.43329,7.1044 -1.65,2.0943 -3,4.503 -3,5.3524 0,0.8496 -1.5,4.9366 -3.33334,9.082 -1.83333,4.1455 -3.33333,9.3202 -3.33333,11.4992 0,2.1791 -0.54383,3.962 -1.20851,3.962 -0.66468,0 -0.91109,1.1374 -0.54758,2.5274 1.13324,4.3336 -4.81019,23.067 -10.19658,32.1393 -6.0057,10.1153 -7.98044,16.6435 -12.70477,42 -4.19069,22.4923 -3.84825,20.9556 -5.12541,23 -0.57266,0.9167 -0.78455,1.6667 -0.47088,1.6667 0.68312,0 -1.24262,8.1018 -7.44768,31.3333 -2.54632,9.5333 -4.93671,18.8333 -5.31198,20.6667 -16.50613,80.6414 -18.15063,90.8569 -15.85819,98.5085 0.84604,2.8237 1.53825,8.6945 1.53825,13.0461 0,4.3516 0.65177,8.5638 1.44839,9.3604 0.8563,0.8563 1.93782,12.2752 2.64566,27.9334 1.34492,29.751 2.78846,36.7302 9.70337,46.9142 8.26223,12.1684 9.81051,26.0912 3.47219,31.2238 -3.54923,2.874 -17.2079,3.1402 -23.37318,0.4557 z m -48.34386,-113.4421 c 5.8831,-6.7247 8.2154,-10.3611 10.68948,-16.6667 2.55558,-6.5133 2.90734,-10.2407 3.14572,-33.3333 0.14763,-14.3 0.0312,-26.4163 -0.25865,-26.925 -0.28989,-0.5088 -0.70999,-6.8088 -0.93355,-14 -0.34174,-10.9926 -1.21774,-15.4581 -5.5001,-28.0373 -5.64903,-16.5937 -8.25003,-20.3711 -14.02722,-20.3711 -3.4597,0 -4.06054,0.6327 -5.38133,5.6667 -3.22084,12.2756 -9.64835,32.5751 -11.71555,37 -1.19906,2.5667 -4.09641,7.516 -6.43856,10.9987 -2.34214,3.4825 -4.98104,8.5825 -5.8642,11.3333 -0.88316,2.7507 -2.49918,6.0252 -3.59116,7.2765 -1.521,1.743 -2.01346,6.2652 -2.1053,19.3334 -0.13376,19.0341 -0.1713,18.8124 4.58642,27.099 1.88175,3.2775 3.8225,6.8591 4.31275,7.9591 0.49025,1.1 1.93477,3.5211 3.21003,5.3801 1.27526,1.8591 3.51865,5.3976 4.98532,7.8636 1.46666,2.466 4.37026,6.4852 6.45244,8.9316 l 3.78577,4.448 6.74061,-6.3116 c 3.70734,-3.4714 7.26552,-6.9117 7.90708,-7.645 z M 571.2531,775.30053 c 0.41043,-1.29317 3.45087,-5.29711 6.75651,-8.89764 3.30565,-3.60053 6.01028,-6.94331 6.01028,-7.4284 0,-0.48508 1.65,-2.38759 3.66666,-4.2278 2.01667,-1.84021 7.55855,-7.78939 12.31528,-13.2204 4.75675,-5.431 10.82143,-12.10985 13.47713,-14.84188 2.6557,-2.73203 4.5992,-5.19659 4.319,-5.47681 -0.2802,-0.28022 1.202,-2.24492 3.2939,-4.36602 6.6154,-6.70786 40.928,-47.48245 40.928,-48.63579 0,-0.6072 -3.3206,-4.58026 -7.3791,-8.82903 -4.0585,-4.24876 -8.3947,-9.18883 -9.636,-10.97792 -1.2413,-1.78908 -2.4825,-2.98908 -2.7582,-2.66667 -0.5804,0.67856 -8.8451,15.19684 -15.414,27.07704 -2.4864,4.49672 -4.8864,8.47586 -5.3333,8.84252 -0.447,0.36667 -2.1549,3.51667 -3.7954,7 -1.6404,3.48333 -3.6904,6.33333 -4.5555,6.33333 -0.8651,0 -1.1843,0.3886 -0.7094,0.86355 0.7687,0.76865 -3.3791,9.62931 -6.1458,13.12889 -1.77166,2.24096 -12.85745,22.08868 -17.87761,32.00756 -2.59808,5.13334 -5.24996,9.53334 -5.89305,9.77778 -0.64311,0.24445 -1.16928,1.20684 -1.16928,2.13864 0,0.9318 -1.35,3.17661 -3,4.98845 -1.65,1.81185 -3.18051,4.31777 -3.40112,5.56872 -0.22063,1.25095 -1.87063,4.43987 -3.66667,7.08649 -1.79605,2.64663 -3.26554,5.32832 -3.26554,5.95932 0,2.10331 2.47617,1.18127 3.23321,-1.20393 z m 4.35493,-48.39176 c 1.50932,-2.60863 5.66944,-9.80844 9.24471,-15.99959 3.57527,-6.19114 7.40048,-12.32626 8.50048,-13.6336 1.1,-1.30733 2.02515,-2.80752 2.05589,-3.33374 0.12947,-2.21723 4.79102,-9.62344 6.05704,-9.62344 0.75778,0 1.05092,-0.52887 0.65143,-1.17527 -0.39949,-0.6464 0.76509,-3.37304 2.58797,-6.05921 1.82291,-2.68617 3.31431,-5.16251 3.31431,-5.50297 0,-0.34047 3.4004,-6.46383 7.5565,-13.60746 15.8167,-27.18652 14.5314,-23.85346 11.8931,-30.84186 -2.8786,-7.6251 -3.6976,-10.56499 -4.1264,-14.81323 -0.1851,-1.83333 -0.7821,-4.40773 -1.3266,-5.72089 -0.5446,-1.31316 -0.7121,-11.21316 -0.3723,-22 0.5314,-16.86931 1.1271,-21.10164 4.2594,-30.25974 2.0029,-5.856 4.3484,-11.09681 5.2123,-11.64624 0.8639,-0.54944 1.1563,-1.00816 0.6498,-1.01938 -0.5065,-0.0107 -0.064,-1.67042 0.9834,-3.68708 2.5207,-4.85319 0.8209,-5.15827 -6.957,-1.24862 -3.5413,1.78012 -7.9388,3.66787 -9.7722,4.19498 -7.8554,2.25853 -10.72289,4.18873 -11.95572,8.04786 -0.70381,2.20318 -4.04127,17.80578 -7.41655,34.67244 -3.37529,16.86667 -8.49817,41.76667 -11.38418,55.33334 -2.88602,13.56666 -7.60559,36.66666 -10.48794,51.33333 -2.88236,14.66666 -6.6902,33.10797 -8.46189,40.98066 -1.77168,7.87271 -2.90519,14.63007 -2.51889,15.01636 0.38629,0.38628 2.58488,-2.75501 4.88574,-6.98068 2.30087,-4.22565 5.4183,-9.81734 6.9276,-12.42597 z m -21.55444,-6.92371 c 1.44812,-7.51666 2.63296,-14.26666 2.63296,-15 0,-0.73333 0.4234,-1.6523 0.9409,-2.04216 0.51749,-0.38985 1.20533,-3.98985 1.52853,-8 0.3232,-4.01014 0.70931,-7.29117 0.85803,-7.29117 0.14872,0 0.45694,-1.5 0.68496,-3.33333 0.53113,-4.27061 7.70676,-38.56633 11.15957,-53.33687 1.45757,-6.23528 2.98559,-14.33528 3.39557,-18 0.40999,-3.66472 2.27191,-13.86313 4.13759,-22.66313 1.86568,-8.8 4.32147,-20.5 5.45731,-26 1.13584,-5.5 2.61665,-11.74729 3.29069,-13.88288 1.40097,-4.43869 1.13947,-4.982 -2.30244,-4.78368 -1.36623,0.0787 -4.73404,0.26089 -7.48404,0.40484 -2.75,0.14395 -5,0.71172 -5,1.26172 0,0.55 -1.43631,1 -3.19179,1 -3.06004,0 -3.23098,0.49531 -4.14154,12 -0.52238,6.6 -1.33607,12 -1.80822,12 -0.47214,0 -0.87518,2.85 -0.89564,6.33333 -0.0504,8.5863 -1.53381,24.74203 -4.68469,51.02134 -2.81835,23.50593 -2.7954,23.27717 -2.74029,27.312 0.0565,4.14098 -2.2939,36.69942 -3.08018,42.66666 -0.9429,7.15603 -3.45765,30.87615 -3.45765,32.61412 0,0.76223 0.46516,1.38588 1.03371,1.38588 0.56853,0 2.21853,-6.15 3.66666,-13.66667 z m -57.76704,8.06667 c -0.88,-0.88 -1.6,-2.39192 -1.6,-3.35983 0,-0.9679 -1.5433,-4.2046 -3.42958,-7.19264 -1.88627,-2.98805 -3.1102,-5.7522 -2.71984,-6.14254 0.39036,-0.39036 -0.18174,-2.43368 -1.27132,-4.5407 -1.08959,-2.10702 -1.55099,-3.83096 -1.02532,-3.83096 0.52565,0 -0.1506,-0.80897 -1.5028,-1.79773 -1.35219,-0.98875 -2.03145,-2.48875 -1.50948,-3.33333 0.52199,-0.84458 0.31289,-1.5356 -0.46464,-1.5356 -1.49151,0 -9.85479,-16.63313 -9.85479,-19.59945 0,-0.95364 -0.42721,-1.73388 -0.94936,-1.73388 -0.52213,0 -1.72708,-1.95 -2.67762,-4.33334 -0.95056,-2.38333 -5.56678,-12.30664 -10.25826,-22.0518 -4.69146,-9.74514 -8.68749,-19.1961 -8.88004,-21.00213 -0.53644,-5.03141 -1.58882,-5.267 -8.09948,-1.81311 -6.60062,3.50163 -6.94601,4.08803 -4.08996,6.94407 1.0638,1.0638 2.341,3.55511 2.83824,5.53625 0.49723,1.98115 1.72342,3.91651 2.72483,4.30079 1.00143,0.38428 1.48881,1.23583 1.08308,1.89231 -0.40573,0.65649 -0.21277,1.19362 0.4288,1.19362 1.63119,0 7.13199,10.08112 6.07665,11.13646 -0.47496,0.47494 -0.20398,0.86354 0.60216,0.86354 1.4359,0 3.76434,5.0261 3.24291,7 -0.14529,0.55 0.2788,1 0.94244,1 1.27884,0 14.41157,21.63527 13.66831,22.5176 -0.2398,0.28467 0.13412,0.88467 0.83096,1.33333 2.14737,1.38258 9.74481,15.75699 9.34138,17.67395 -0.20933,0.99465 0.2893,1.68516 1.10807,1.53445 0.81876,-0.15069 2.61876,1.93764 4,4.64076 1.38123,2.70311 4.16133,7.26643 6.178,10.14071 2.01666,2.87428 3.66666,6.15595 3.66666,7.29259 0,1.60736 0.35556,1.71105 1.6,0.46661 1.24444,-1.24444 1.24444,-1.95556 0,-3.2 z m 11.99618,-2.02392 c -0.7862,-2.04017 -1.8162,-5.80941 -2.28891,-8.37608 -0.92195,-5.00588 -1.23273,-6.08392 -7.26456,-25.19863 -2.17501,-6.89257 -3.67067,-12.99131 -3.32367,-13.55278 0.347,-0.56145 0.1754,-1.22207 -0.38134,-1.46804 -1.49906,-0.66228 -7.19512,-21.05987 -6.28999,-22.5244 0.42699,-0.69088 0.0709,-1.25615 -0.79119,-1.25615 -0.91109,0 -1.2755,-1.11673 -0.87018,-2.66666 0.38354,-1.46667 0.1272,-2.66667 -0.56961,-2.66667 -0.69683,0 -1.11808,-0.75 -0.93612,-1.66667 0.18196,-0.91666 -1.63099,-7.96666 -4.02879,-15.66666 -7.7288,-24.8194 -8.4858,-27.31142 -8.70809,-28.66667 -0.41858,-2.55183 -2.31312,-4.66667 -4.18056,-4.66667 -1.12286,0 -1.57051,0.80515 -1.112,2 0.43464,1.13264 0.0311,2 -0.93074,2 -0.93401,0 -1.31926,0.37895 -0.8561,0.8421 0.46314,0.46316 -0.91579,2.48421 -3.06432,4.49124 -2.14854,2.00702 -3.52747,4.02808 -3.06432,4.49124 0.46316,0.46314 -0.16299,0.84209 -1.39143,0.84209 -1.71412,0 -1.94304,0.54261 -0.98441,2.33333 1.74261,3.2552 7.41581,16.40332 8.77349,20.33334 0.81915,2.37112 3.05244,7.41209 7.67919,17.33333 2.9069,6.23333 5.41222,13.13333 5.56737,15.33333 0.15893,2.25348 0.96719,3.85446 1.85111,3.66667 0.86294,-0.18333 1.569,0.56667 1.569,1.66667 0,1.1 0.009,2.29494 0.0201,2.65542 0.0107,0.36048 1.53036,3.36048 3.37619,6.66667 1.84581,3.30618 2.88675,6.02042 2.31318,6.03165 -0.57356,0.0107 -0.36561,0.46123 0.46211,1 1.98068,1.28924 9.83973,19.85713 8.83148,20.86537 -0.42948,0.42948 -0.15367,0.78088 0.61292,0.78088 1.12385,0 4.71334,6.54816 5.11624,9.33334 0.0531,0.36666 1.11785,3.00878 2.36625,5.87138 2.53245,5.80692 4.74256,5.6636 2.49767,-0.16197 z m 33.88526,-15.77737 c 0.22384,-5.8293 1.96442,-28.89871 3.86795,-51.26537 1.90353,-22.36667 3.73675,-45.76667 4.0738,-52 0.91531,-16.92722 3.24157,-47.97568 4.02091,-53.66667 l 0.6847,-5 h -5.23106 c -2.8771,0 -7.18811,-0.39141 -9.58004,-0.8698 l -4.34896,-0.86979 0.96606,26.0421 c 0.53135,14.32316 0.95922,43.64602 0.95084,65.16194 -0.008,21.51591 0.29427,39.62064 0.67256,40.23274 0.3783,0.61208 0.60611,10.73939 0.50626,22.50514 -0.13648,16.08037 0.21469,21.26017 1.41422,20.86033 1.01196,-0.33732 1.74468,-4.40948 2.00276,-11.13062 z m -25.27556,-2.93204 c -0.39332,-7.15 -1.949,-28.3 -3.45706,-47 -1.50807,-18.7 -3.34192,-44.5 -4.07523,-57.33333 -0.73332,-12.83334 -1.78487,-28.73334 -2.33677,-35.33334 -0.55192,-6.6 -1.00348,-16.05034 -1.00348,-21.00076 0,-7.56389 -0.35994,-9.00064 -2.25464,-9 -1.24006,4.2e-4 -2.63152,-0.60902 -3.09214,-1.35432 -0.46061,-0.74529 -1.35457,-1.0355 -1.98656,-0.64492 -0.63198,0.39059 -1.52594,0.1004 -1.98656,-0.64492 -1.44116,-2.33184 -4.6801,-1.4786 -4.6801,1.2329 0,1.42338 -0.60979,2.96485 -1.35508,3.42546 -0.7453,0.46062 -1.02891,1.36526 -0.63026,2.0103 0.39867,0.64505 0.1128,3.75358 -0.63516,6.90786 -0.74801,3.1543 -1.57214,7.23507 -1.83142,9.0684 -0.49291,3.48528 -1.44484,6.41828 -3.89475,12 -0.80466,1.83334 -1.54461,3.63334 -1.64429,4 -0.0997,0.36667 -0.97079,3.16096 -1.93577,6.20955 -1.50755,4.76264 -1.43979,6.82717 0.48137,14.66667 1.22975,5.01808 2.24673,9.56269 2.25996,10.09912 0.0133,0.53644 0.63551,2.93644 1.38281,5.33333 4.229,13.56387 6.09659,22.358 4.74813,22.358 -0.80037,0 -0.48288,0.75 0.70555,1.66667 1.66347,1.28308 11.09549,30.3587 12.21892,37.66666 0.11267,0.73334 0.67351,2.08334 1.24617,3 0.57266,0.91667 0.63502,2.32388 0.13858,3.12714 -0.49644,0.80326 -0.25891,2.75326 0.52786,4.33333 2.32734,4.67401 5.56378,17.10637 4.78235,18.37074 -0.39729,0.64283 -0.16063,1.16879 0.52593,1.16879 0.68656,0 2.33763,4.2 3.66904,9.33333 1.33143,5.13334 2.96234,9.33334 3.62424,9.33334 0.68236,0 0.89383,-5.62914 0.48836,-13 z m 7.58112,-41.87244 c -0.1172,-6.85349 -0.26714,-36.78588 -0.33333,-66.51643 l -0.12033,-54.05554 -4.66667,-2.1152 -4.66667,-2.11522 v 3.72462 c 0,2.04853 1.22479,20.12537 2.72174,40.17074 1.49696,20.04538 3.02138,48.99295 3.38761,64.32794 0.36621,15.33498 0.98289,28.39477 1.37039,29.02174 1.78798,2.89302 2.50345,-0.96538 2.30726,-12.44265 z M 443.1128,441.99919 c 0.45229,-6.40889 1.3777,-11.83765 2.0565,-12.06392 0.67879,-0.22627 0.93747,-1.54597 0.57484,-2.93268 -0.6481,-2.47833 2.59363,-14.11773 5.38948,-19.35085 0.78358,-1.46667 1.54158,-3.35615 1.68443,-4.19884 0.66989,-3.95164 8.11453,-16.75103 14.96241,-25.72455 7.13995,-9.35621 26.92136,-26.74328 30.42607,-26.74328 0.87513,0 1.79113,-0.47625 2.03558,-1.05833 0.52172,-1.24235 13.59347,-6.95663 17.65031,-7.71579 1.53677,-0.28757 6.89271,-1.70259 11.90208,-3.14447 16.08505,-4.62986 33.97033,-6.11077 50.07643,-4.14636 7.78192,0.94914 15.64896,2.35176 17.48229,3.11694 1.83333,0.76517 3.63333,1.46444 4,1.5539 6.78894,1.6567 9.78734,2.60023 15.66664,4.92999 3.85,1.52561 7,3.40415 7,4.17453 0,0.77039 0.3799,1.0208 0.8443,0.55648 0.4643,-0.46433 3.4633,1.03667 6.6644,3.33555 5.882,4.22409 7.4359,4.23136 7.9265,0.0371 0.5669,-4.84664 2.088,-13.08282 2.8883,-15.63951 0.4592,-1.46667 0.9462,-4.16667 1.0823,-6 0.1361,-1.83333 0.3713,-3.33333 0.5228,-3.33333 0.3253,0 0.9089,-3.12342 2.1178,-11.33334 0.4859,-3.3 1.5342,-7.2 2.3295,-8.66666 0.7953,-1.46667 1.2902,-4.91667 1.0998,-7.66667 -0.1905,-2.75 0.2434,-5 0.9642,-5 0.7208,0 0.9999,-1.18775 0.6202,-2.63945 -0.4206,-1.60854 -1.804,-2.62656 -3.5418,-2.60644 -5.3414,0.0619 -17.4973,-2.6912 -17.9558,-4.06655 -0.2513,-0.75396 -0.98,-1.04752 -1.6194,-0.65236 -1.3578,0.83917 -22.8105,-9.65913 -24.25599,-11.87016 -0.53878,-0.82411 -0.98878,-0.97716 -1,-0.34012 -0.0267,1.50991 -8.97624,-5.31337 -13.73087,-10.46855 -2.04075,-2.21268 -5.10155,-5.52304 -6.80177,-7.35637 -5.15046,-5.55366 -9.03868,-11.9026 -8.16007,-13.32424 0.45632,-0.73833 0.25025,-1.34242 -0.45793,-1.34242 -2.92356,0 -14.37094,-32.66487 -13.12162,-37.44228 0.36748,-1.4053 0.13758,-2.88299 -0.51093,-3.28379 -0.64849,-0.40079 -1.01997,-6.70139 -0.82551,-14.00132 0.2695,-10.11586 -0.0545,-13.27264 -1.3624,-13.27264 -0.94378,0 -1.71598,0.5747 -1.71598,1.27713 0,0.70241 -2.64266,2.82583 -5.87258,4.71868 -5.6266,3.2974 -7.10276,3.7934 -16.12742,5.41876 -7.06903,1.27316 -7.83468,3.36961 -3.25831,8.92156 2.23229,2.70815 3.87861,5.9904 3.65851,7.29388 -0.2821,1.67055 0.3279,2.24529 2.06693,1.94748 1.35693,-0.23239 2.12768,0.1268 1.71277,0.79807 -0.41489,0.67133 0.3515,2.40758 1.70308,3.85834 2.45882,2.63923 4.87847,8.21696 4.38119,10.09943 -0.14529,0.55 0.2954,1 0.97931,1 1.16648,0 3.51324,5.38892 2.83828,6.5176 -0.17024,0.28467 0.32657,0.91072 1.10402,1.39121 0.77744,0.48048 1.59606,2.04756 1.81912,3.4824 0.22307,1.43483 0.78375,3.21336 1.24596,3.95228 2.45338,3.92214 3.4851,22.39463 2.05343,36.76603 -0.75881,7.6171 -7.78963,25.22381 -10.07252,25.22381 -0.69785,0 -1.18548,0.84193 -1.08363,1.87097 0.25396,2.56582 -14.88417,20.64823 -19.81481,23.6687 -2.2,1.3477 -3.40801,2.45261 -2.68447,2.45534 0.72355,0.003 -1.80278,2.10499 -5.61406,4.67166 -3.81128,2.56666 -7.52346,4.66666 -8.24928,4.66666 -0.72583,0 -1.7995,0.82391 -2.38594,1.83092 -2.12041,3.64106 -28.64005,15.00188 -31.2515,13.38792 -0.63144,-0.39025 -1.14808,-0.1632 -1.14808,0.50458 0,1.17877 -9.72796,4.10205 -23.33155,7.0112 -3.66569,0.7839 -15.92236,1.41982 -27.23705,1.41316 -11.31471,-0.007 -21.02091,0.2652 -21.56936,0.60416 -0.54844,0.33896 0.14048,4.59445 1.53095,9.45665 1.39046,4.86221 2.21045,9.35436 1.82221,9.98256 -0.38825,0.6282 -0.007,1.14219 0.84876,1.14219 0.85507,0 1.23737,0.82689 0.84955,1.83752 -0.38782,1.01064 -0.18083,2.36182 0.45998,3.00264 0.6408,0.6408 1.31655,3.4139 1.50166,6.16246 0.1851,2.74856 0.88389,4.99738 1.55288,4.99738 0.66897,0 0.90252,1.2 0.51897,2.66666 -0.38355,1.46667 -0.22475,2.66667 0.35287,2.66667 1.19156,0 3.93281,10.04777 4.89061,17.92603 0.35167,2.89265 1.01511,5.86728 1.47431,6.61026 0.45918,0.743 0.96753,2.59499 1.12965,4.11554 0.16212,1.52054 1.29227,6.19592 2.51144,10.38973 1.99664,6.86823 3.15761,8.28876 6.36079,7.783 0.55,-0.0868 1,0.54211 1,1.39767 0,0.85554 0.33104,1.22452 0.73564,0.81992 0.4046,-0.4046 3.5546,0.6638 7,2.37422 3.4454,1.71043 6.62524,3.14147 7.06632,3.18008 0.44108,0.0387 1.172,-5.17342 1.62428,-11.58233 z m -76.90223,-4.31865 c 9.48977,-0.0224 12.35772,-0.4641 12.94463,-1.99354 0.41466,-1.08061 -0.0487,-2.43061 -1.0297,-3 -1.83258,-1.06368 -14.69872,-25.70193 -13.42158,-25.70193 0.39093,0 -0.20516,-1.39789 -1.32463,-3.10644 -1.11948,-1.70853 -1.63332,-3.50853 -1.14185,-4 0.49145,-0.49145 0.0936,-0.89356 -0.88422,-0.89356 -0.97777,0 -1.40634,-0.37143 -0.95238,-0.8254 0.45397,-0.45396 -0.0516,-1.70233 -1.12336,-2.77416 -1.07182,-1.07181 -1.60784,-2.50039 -1.19115,-3.1746 0.41668,-0.67421 0.0868,-1.22584 -0.73311,-1.22584 -0.81989,0 -1.11989,-0.6 -0.66666,-1.33333 0.45322,-0.73334 0.32444,-1.33334 -0.2862,-1.33334 -1.20127,0 -8.13747,-13.17037 -11.76188,-22.33333 -2.22121,-5.61547 -4.61859,-7.51872 -4.61859,-3.66667 0,1.1 -0.50369,2 -1.1193,2 -0.61563,0 -1.80276,1.5 -2.6381,3.33334 -0.83532,1.83333 -2.0814,3.33333 -2.76906,3.33333 -0.68767,0 -5.04886,3.90728 -9.69154,8.68284 -4.64266,4.77556 -9.04605,8.45073 -9.78529,8.16707 -0.73924,-0.28368 -2.11457,0.30904 -3.05629,1.31716 -1.39431,1.4926 -1.393,1.84046 0.007,1.87348 1.84159,0.0435 -2.81048,3.1996 -4.8021,3.25797 -0.65342,0.0192 -1.85342,1.16196 -2.66667,2.53957 -1.13861,1.92874 -1.06068,2.65576 0.33888,3.1614 1.53449,0.55439 1.53449,0.83598 0,1.80816 -1.44819,0.91751 -1.37236,1.15567 0.37315,1.17194 1.98624,0.0185 3.26341,1.58349 3.59194,4.40136 0.0672,0.5762 0.94575,1.87124 1.9524,2.87788 1.00664,1.00665 3.86723,5.03521 6.35686,8.95238 2.48962,3.91716 4.98744,7.32212 5.55069,7.56656 0.56325,0.24446 1.02409,1.29446 1.02409,2.33334 0,1.03889 0.6,1.88889 1.33334,1.88889 0.73333,0 1.33333,0.62429 1.33333,1.38732 0,0.76303 1.23668,3.06004 2.74819,5.10445 l 2.7482,3.71714 11.58513,-1.74232 c 6.37182,-0.95828 17.07096,-1.75528 23.77582,-1.77112 z m 41.80932,1.44498 c 0,-1.38942 -1.1404,-6.33942 -2.53423,-11 -1.39382,-4.66058 -2.99732,-10.87378 -3.5633,-13.80712 -1.1401,-5.90882 -1.44323,-7.17541 -1.83488,-7.66666 -0.14616,-0.18334 -0.49895,-1.56244 -0.78396,-3.06467 -0.88635,-4.67156 -5.57859,-23.54797 -7.9384,-31.93533 -1.23795,-4.4 -2.40324,-8.6 -2.58952,-9.33334 -2.3135,-9.10753 -4.75287,-13.5584 -6.48279,-11.82848 -0.39116,0.39116 -2.11259,-0.0661 -3.82539,-1.01624 -1.71281,-0.9501 -3.4142,-1.77821 -3.78086,-1.84024 -2.72338,-0.46076 -6.66667,-2.34328 -6.66667,-3.18266 0,-0.5617 -0.75,-1.02156 -1.66667,-1.02194 -0.91666,-3.6e-4 -3.93812,-1.0789 -6.71434,-2.39676 -2.77622,-1.31786 -5.24706,-2.16756 -5.49074,-1.88822 -0.24368,0.27933 -1.34406,2.26297 -2.44529,4.40809 -1.92261,3.74515 -1.74661,4.4476 4.42609,17.66667 3.53559,7.57154 6.13814,13.76645 5.78346,13.76645 -0.35467,0 0.82848,2.639 2.62922,5.86445 3.68116,6.59359 13.60348,29.26258 13.0654,29.84983 -0.19197,0.20953 0.57791,1.30791 1.71084,2.44083 1.13292,1.13293 1.75062,2.56026 1.37264,3.17184 -0.37797,0.61157 -0.23349,1.3132 0.32108,1.55917 1.03163,0.45756 7.00831,14.30265 7.00831,16.23488 0,2.22416 3.53863,4.42312 9.33333,5.79988 9.10688,2.16371 10.66667,2.04959 10.66667,-0.78043 z m 388.48027,40.64343 c -28.0722,-5.34751 -50.969,-17.28407 -68.7086,-35.81903 -5.851,-6.1133 -8.6253,-9.99685 -8.1068,-11.34808 0.5015,-1.30684 0.2446,-1.71817 -0.7062,-1.13058 -1.5195,0.93913 -8.1326,-8.38611 -13.7357,-19.36922 -9.9541,-19.51153 -12.7139,-38.1841 -8.6531,-58.54468 2.5595,-12.83309 11.586,-32.72214 18.1109,-39.90562 2.3313,-2.56667 5.2319,-5.8951 6.4457,-7.3965 8.7202,-10.78654 30.0039,-22.95546 51.9619,-29.70905 10.8163,-3.32676 13.1578,-3.55304 35.5783,-3.43828 22.0601,0.11293 24.9615,0.41417 35.8948,3.72693 6.5421,1.98226 16.0613,5.69511 21.1536,8.2508 12.8271,6.43747 30.3703,20.23924 29.2849,23.03942 -0.1833,0.473 0.1167,0.8692 0.6667,0.88042 5.6841,0.116 24.4913,33.19044 28.3672,49.88655 2.3043,9.92644 0.9109,37.93193 -2.4607,49.45547 -5.0678,17.3209 -11.956,29.0229 -24.4353,41.51189 -9.5923,9.59981 -13.6294,12.56399 -24.0016,17.62304 -6.8583,3.34513 -13.6696,6.25168 -15.1363,6.45901 -1.4666,0.20733 -2.9666,0.74293 -3.3333,1.19024 -0.3667,0.44731 -4.5667,1.84367 -9.3333,3.10303 -11.6072,3.06662 -36.6758,3.85392 -48.8531,1.53424 z"
     id="path60"
     inkscape:connector-curvature="0" />
</svg>
