<?xml version="1.0" encoding="UTF-8" standalone="no"?>
<!-- Created with Inkscape (http://www.inkscape.org/) -->

<svg
   xmlns:dc="http://purl.org/dc/elements/1.1/"
   xmlns:cc="http://creativecommons.org/ns#"
   xmlns:rdf="http://www.w3.org/1999/02/22-rdf-syntax-ns#"
   xmlns:svg="http://www.w3.org/2000/svg"
   xmlns="http://www.w3.org/2000/svg"
   xmlns:sodipodi="http://sodipodi.sourceforge.net/DTD/sodipodi-0.dtd"
   xmlns:inkscape="http://www.inkscape.org/namespaces/inkscape"
   version="1.1"
   id="svg70"
   width="829.33331"
   height="1414.6667"
   viewBox="0 0 829.33331 1414.6667"
   sodipodi:docname="bomb_hugger.svg"
   inkscape:version="0.92.4 (5da689c313, 2019-01-14)">
  <metadata
     id="metadata76">
    <rdf:RDF>
      <cc:Work
         rdf:about="">
        <dc:format>image/svg+xml</dc:format>
        <dc:type
           rdf:resource="http://purl.org/dc/dcmitype/StillImage" />
        <dc:title></dc:title>
      </cc:Work>
    </rdf:RDF>
  </metadata>
  <defs
     id="defs74" />
  <sodipodi:namedview
     pagecolor="#ffffff"
     bordercolor="#666666"
     borderopacity="1"
     objecttolerance="10"
     gridtolerance="10"
     guidetolerance="10"
     inkscape:pageopacity="0"
     inkscape:pageshadow="2"
     inkscape:window-width="640"
     inkscape:window-height="480"
     id="namedview72"
     showgrid="false"
     inkscape:zoom="0.21983976"
     inkscape:cx="414.66666"
     inkscape:cy="707.33337"
     inkscape:window-x="0"
     inkscape:window-y="0"
     inkscape:window-maximized="1"
     inkscape:current-layer="svg70" />
  <path
     style="fill:#000000;stroke-width:1.33333337"
     d="m 369.32256,1351.3687 c -1.51324,-1.8234 -2.46174,-24.4789 -1.08258,-25.8581 1.13504,-1.135 1.11092,-29.0486 -0.0261,-30.1856 -0.486,-0.486 -1.08547,-2.836 -1.33216,-5.2222 -0.24669,-2.3862 -1.70456,-5.3797 -3.23972,-6.6522 -2.64975,-2.1964 -19.80855,-8.0173 -22.12171,-7.5046 -0.5992,0.1328 -1.98945,-0.1081 -3.08945,-0.5355 -6.42821,-2.4976 -12.1486,-3.7119 -13.51328,-2.8684 -0.97919,0.6051 -1.20913,0.391 -0.61404,-0.5719 0.53417,-0.8642 0.18568,-1.5393 -0.79453,-1.5393 -2.56662,0 -13.0781,-10.0094 -13.0781,-12.4535 0,-2.5773 -6.01903,-11.6649 -7.16827,-10.8227 -0.45744,0.3352 -0.53692,0.2147 -0.17663,-0.2678 0.36031,-0.4826 -0.004,-1.6712 -0.80904,-2.6415 -1.82385,-2.1976 -3.74685,-17.6254 -2.25875,-18.1214 0.60015,-0.2001 1.23852,-2.8517 1.4186,-5.8926 0.1801,-3.0408 0.87939,-5.1915 1.55402,-4.7793 0.67462,0.4123 0.84345,-0.2489 0.37517,-1.4692 -0.46827,-1.2203 -0.31995,-2.2187 0.3296,-2.2187 1.01724,0 3.24444,-7.7068 4.81657,-16.6667 1.09411,-6.2355 4.87825,-20.7129 7.84152,-30 1.75489,-5.5 3.64367,-12.4 4.19727,-15.3333 1.09217,-5.7871 1.07826,-5.733 2.2261,-8.6667 2.72959,-6.9764 6.62819,-22.3289 6.7925,-26.7485 0.10706,-2.88 0.60165,-5.2398 1.09905,-5.2439 0.49741,0 1.51577,-3.1576 2.26301,-7.0076 0.74724,-3.85 2.37246,-12.1 3.61158,-18.3333 1.23912,-6.2333 2.32076,-13.226 2.40365,-15.5394 0.0829,-2.3133 0.53543,-3.9682 1.00563,-3.6776 1.3336,0.8242 5.73781,-16.7964 5.7768,-23.1121 0.0192,-3.1143 0.40746,-5.6643 0.86273,-5.6667 0.45528,0 1.24328,-3.7542 1.75109,-8.3375 0.50783,-4.5834 2.41063,-11.4997 4.22847,-15.3697 1.81783,-3.8699 2.94443,-7.6199 2.50355,-8.3333 -0.44087,-0.7134 -0.20662,-1.297 0.52058,-1.297 1.52782,0 2.6896,-3.17192 3.48976,-9.52778 0.30967,-2.45972 0.93422,-6.6773 1.3879,-9.37241 0.48414,-2.87604 0.15806,-6.18064 -0.7894,-8 -0.88784,-1.70489 -1.13566,-2.65247 -0.55068,-2.10572 1.63093,1.52437 5.96429,-9.32143 5.96429,-14.92779 0,-2.7367 0.89351,-7.92118 1.98557,-11.52106 1.09206,-3.59988 1.99206,-9.35983 2,-12.79988 0.008,-3.44006 0.62422,-6.63153 1.36951,-7.09214 0.74529,-0.46061 1.00989,-1.39603 0.58797,-2.07869 -0.4219,-0.68266 -0.13173,-1.2412 0.64492,-1.2412 0.77662,0 1.41203,-0.86459 1.41203,-1.92131 0,-2.71385 2.28484,-3.79695 6.028,-2.85748 3.22721,0.80999 4.91435,4.74111 6.40683,14.92831 0.99417,6.78587 10.68064,22.55453 12.98144,21.13256 0.68772,-0.42504 1.2504,-0.1068 1.2504,0.70727 0,0.81402 2.14117,2.37469 4.75814,3.46813 3.17204,1.32537 5.37316,3.45999 6.60308,6.40363 1.97051,4.71606 7.84654,9.45257 10.0428,8.0952 0.73079,-0.45166 1.16384,-0.0939 0.96235,0.79497 -0.45351,2.00053 10.75326,10.88827 12.80713,10.15692 0.82124,-0.29244 1.34548,-2.38244 1.16499,-4.64445 -0.44263,-5.54727 1.44609,-6.3261 7.58354,-3.12707 2.83646,1.47844 6.22167,2.87749 7.52271,3.10903 1.30104,0.23153 4.23833,2.44046 6.52733,4.90874 2.97052,3.20318 5.61976,4.64846 9.25512,5.04907 2.80132,0.30869 7.27119,1.48787 9.93306,2.62036 11.42873,4.86241 18.52702,4.94048 48.17308,0.52979 6.23333,-0.92738 12.23333,-1.61719 13.33333,-1.53292 3.79185,0.29052 22.01176,0.0576 27.03329,-0.34568 2.96809,-0.23834 7.34471,-2.0623 10.66667,-4.44536 3.09836,-2.22266 9.56968,-5.82443 14.3807,-8.00394 4.81104,-2.1795 9.99739,-5.55192 11.52523,-7.49425 1.52784,-1.94233 3.156,-3.53152 3.61815,-3.53152 1.18757,0 14.06992,-8.91749 18.37004,-12.71621 l 3.59408,-3.175 0.91417,2.8803 c 0.5028,1.58419 1.04137,5.00971 1.19683,7.61228 0.38845,6.50336 11.26585,33.61883 13.0451,32.51919 0.77954,-0.48177 1.00972,-0.23267 0.51887,0.56155 -0.48521,0.78509 -0.18572,3.1278 0.66553,5.20596 0.85127,2.0782 1.72288,4.6677 1.93694,5.7544 0.21405,1.0867 1.0256,2.1879 1.80342,2.4472 0.77784,0.2593 1.12142,0.9452 0.76348,1.5244 -0.95353,1.5428 3.327,13.3859 4.83819,13.3859 0.70768,0 0.97945,0.4971 0.60396,1.1047 -0.37551,0.6075 0.70955,4.6575 2.41123,9 1.70166,4.3424 3.56573,9.0953 4.14237,10.562 0.57662,1.4666 1.2844,4.0742 1.57282,5.7946 0.77634,4.6305 12.58404,29.5387 14.00282,29.5387 0.67108,0 0.87922,0.5516 0.46254,1.2258 -0.41669,0.6742 0.19076,2.1742 1.34988,3.3334 1.15912,1.1591 1.7722,2.1075 1.3624,2.1075 -0.4098,0 0.78876,3.45 2.66346,7.6666 1.8747,4.2167 5.41074,12.7667 7.85788,19 2.44712,6.2334 6.31065,15.3811 8.58564,20.3284 2.27498,4.9472 4.11609,9.1472 4.09137,9.3333 -0.10093,0.7595 6.49381,19.2694 8.07753,22.6717 0.93872,2.0166 2.31047,3.6666 3.04831,3.6666 0.73785,0 0.93943,0.4021 0.44797,0.8936 -0.49146,0.4915 0.0224,2.2915 1.14186,4 1.11946,1.7085 1.6643,3.1064 1.21072,3.1064 -0.45358,0 1.0326,3.2909 3.3026,7.3132 2.27,4.0222 4.12728,8.7401 4.12728,10.4842 0,3.6874 -7.49806,11.1081 -22.98556,22.7484 -5.6754,4.2656 -9.9327,8.3805 -9.46066,9.1443 0.50167,0.8117 0.21202,0.9892 -0.69721,0.4273 -1.53559,-0.9491 -15.37273,6.1484 -16.94425,8.6912 -0.44588,0.7214 -7.16468,4.3613 -14.93065,8.0885 -7.76599,3.7273 -17.91139,9.3726 -22.54535,12.5451 -4.63396,3.1726 -10.52784,6.1627 -13.09752,6.6448 -2.56967,0.482 -4.67213,1.4451 -4.67213,2.1401 0,0.695 -0.53623,0.9322 -1.19163,0.5272 -0.6554,-0.4051 -4.4054,0.7146 -8.33333,2.4881 -3.92794,1.7736 -10.74171,3.6331 -15.14171,4.1323 -4.4,0.4992 -9.29424,1.7215 -10.87608,2.7161 -3.1272,1.9662 -7.82253,14.1655 -6.63911,17.2494 0.40263,1.0493 0.23728,2.2136 -0.36745,2.5873 -1.98801,1.2287 -3.09093,16.7628 -1.33996,18.8726 1.28875,1.5529 1.21048,1.7783 -0.4026,1.1593 -1.6486,-0.6327 -2.29956,1.8116 -3.68433,13.834 -0.92507,8.0313 -1.21616,15.3561 -0.64687,16.2772 0.67119,1.086 0.49391,1.3404 -0.50425,0.7234 -0.90007,-0.5562 -1.53935,-0.128 -1.53935,1.0322 0,1.0908 -0.95024,2.9336 -2.11165,4.095 -1.88864,1.8887 -12.29386,2.1063 -98.53141,2.0615 -75.29511,-0.039 -96.72185,-0.4141 -97.79857,-1.7115 z M 534.27297,941.4309 c -0.0868,-0.55 -0.0623,-1.52362 0.0545,-2.16358 0.1168,-0.63997 -0.71211,-0.8088 -1.84211,-0.37518 -1.13,0.43362 -2.05453,0.30326 -2.05453,-0.28968 0,-0.59294 -2.51353,-1.90762 -5.58564,-2.9215 -3.07211,-1.01389 -9.09236,-4.10992 -13.37832,-6.88008 -4.28597,-2.77016 -8.07764,-5.03665 -8.42591,-5.03665 -0.34826,0 -2.5022,-1.65 -4.7865,-3.66667 -2.28431,-2.01667 -4.67911,-3.51667 -5.32179,-3.33333 -0.64268,0.18333 -1.03516,-0.11667 -0.8722,-0.66667 0.16297,-0.55 -1.38472,-3.83411 -3.43933,-7.29803 -6.49023,-10.94204 -15.52364,-39.9401 -15.52364,-49.83229 0,-1.84821 -0.45,-3.08469 -1,-2.74772 -0.55,0.33697 -1.05788,-2.47761 -1.12862,-6.25464 -0.0708,-3.77703 -0.83396,-14.06732 -1.69604,-22.86732 -0.86209,-8.8 -2.19704,-25.9 -2.96656,-38 -0.76953,-12.1 -1.81052,-22.1514 -2.31332,-22.33646 -0.5028,-0.18505 -0.70878,-2.91909 -0.45773,-6.07565 0.68967,-8.67144 -2.99236,-10.65513 -20.10116,-10.82952 -4.94821,-0.0504 -8.99821,-0.54171 -9,-1.09171 -0.001,-0.55 -1.50324,-1 -3.33657,-1 -1.83334,0 -3.33382,0.45 -3.3344,1 -6e-4,0.55 -2.80851,1.18128 -6.2398,1.40284 -7.32796,0.47319 -8.86372,1.19944 -7.89188,3.73203 0.39365,1.02583 0.1996,1.86513 -0.43123,1.86513 -0.63081,0 -1.50948,1.44448 -1.95258,3.20996 -0.59826,2.38362 -1.47915,3.03384 -3.42184,2.52582 -1.51398,-0.39591 -4.11991,0.49868 -6.18538,2.12337 -4.51046,3.54793 -7.25157,3.5404 -11.79365,-0.0324 -2.8836,-2.26823 -4.19473,-2.56097 -6.51315,-1.45424 -4.6338,2.21204 -7.56708,2.95279 -7.59908,1.919 -0.0163,-0.52699 -1.08024,-2.32323 -2.3643,-3.99163 -2.02166,-2.62677 -4.11454,-3.48352 -11.75196,-4.81081 -0.81358,-0.14139 -2.44686,-1.22468 -3.6295,-2.40732 -2.80866,-2.80868 -1.04469,-4.22817 7.84002,-6.30897 5.05125,-1.18302 9.03833,-1.20791 15.97504,-0.0997 6.5004,1.03844 9.38392,1.05631 9.71596,0.0603 0.25969,-0.77908 1.02092,-1.07735 1.69161,-0.66283 0.67069,0.41451 1.21945,-0.14132 1.21945,-1.23518 0,-3.19264 -4.99434,-4.16854 -21.33333,-4.16854 -14.32161,0 -15.35764,-0.17594 -15.70181,-2.66666 -0.27984,-2.02523 1.39905,-3.61494 6.97966,-6.60891 l 7.34815,-3.94223 6.19556,3.01004 c 6.12789,2.97716 6.22641,2.98196 9.02033,0.43979 1.55363,-1.41363 5.00223,-3.26672 7.66355,-4.11799 2.66133,-0.85126 5.82561,-2.6382 7.03175,-3.97096 2.07386,-2.2916 1.88106,-2.54233 -3.55002,-4.61648 -6.60241,-2.52148 -9.80926,-2.76582 -11.00061,-0.83818 -1.33241,2.15589 -3.31989,0.1208 -3.31989,-3.39954 0,-2.27153 1.27677,-3.89958 4.33333,-5.52553 5.07677,-2.70061 6.05292,-2.58447 15.41845,1.83452 7.32679,3.45703 9.91051,3.34499 6.88659,-0.29863 -0.95791,-1.1542 -1.84351,-3.81085 -1.968,-5.90368 -0.2646,-4.44778 1.31685,-4.44226 13.31405,0.0464 5.75715,2.15403 7.82033,2.39951 10.066,1.19767 1.55353,-0.83143 3.75377,-1.15513 4.88943,-0.71935 1.13564,0.43579 2.92261,0.0804 3.97104,-0.78969 1.507,-1.25069 1.82066,-1.18569 1.49766,0.31033 -0.26865,1.24432 0.50463,1.73639 2.25811,1.4369 1.46667,-0.25052 2.82179,-0.86588 3.01139,-1.3675 0.18958,-0.5016 2.60814,-0.69614 5.37457,-0.43233 2.76643,0.26383 8.69791,-0.47081 13.18108,-1.63252 9.33349,-2.41855 17.75543,-2.69395 24.37001,-0.79691 3.59918,1.03223 5.2825,0.859 7.82203,-0.80497 1.77976,-1.16613 2.90609,-1.58657 2.50296,-0.93431 -1.27539,2.06363 12.73475,1.88339 21.36863,-0.2749 4.56352,-1.14079 12.36352,-3.91587 17.33333,-6.16683 4.9698,-2.25096 11.736,-5.28823 15.036,-6.74947 3.3,-1.46124 7.15313,-3.6456 8.56252,-4.85413 1.4094,-1.20853 2.13428,-1.46399 1.61085,-0.56767 -0.73123,1.25215 1.91836,1.49252 11.43747,1.03762 15.97274,-0.76336 25.05582,-1.97207 25.05582,-3.33428 0,-0.59587 1.21664,-0.76523 2.70363,-0.37638 1.487,0.38887 6.437,-0.68072 11,-2.37684 6.22851,-2.31521 11.36399,-3.12985 20.60376,-3.26837 9.87368,-0.14803 12.83983,-0.66637 15,-2.62131 1.48093,-1.34022 2.69261,-3.16322 2.69261,-4.05109 0,-1.17235 1.54831,-1.3312 5.65512,-0.58021 3.11032,0.56876 6.06887,0.77841 6.57455,0.46589 0.50566,-0.31253 1.30232,0.0513 1.77033,0.8086 1.53573,2.48488 3.41899,-0.0153 2.0036,-2.65993 -2.05809,-3.84558 -1.59917,-6.2938 1.323,-7.05798 4.11904,-1.07714 4.73097,-4.67264 1.39892,-8.21945 -3.75912,-4.0014 -3.248,-9.22718 0.96092,-9.82463 1.66088,-0.23577 2.72904,-0.89909 2.37368,-1.47407 -0.35535,-0.57496 0.68576,-0.83912 2.31356,-0.587 1.62781,0.25211 5.05965,-0.58641 7.62632,-1.86337 3.94839,-1.96441 4.73129,-3.10641 5.08656,-7.4196 0.45283,-5.49761 -2.61199,-11.75416 -5.42255,-11.06964 -0.9152,0.22291 -1.22292,0.15659 -0.68381,-0.14737 0.53911,-0.30396 0.13293,-2.1911 -0.90264,-4.19366 -2.76791,-5.35254 -0.91727,-7.30553 5.84075,-6.16377 4.28321,0.72364 6.14609,0.43216 8.0082,-1.25301 1.61602,-1.4625 3.56446,-1.91044 5.83313,-1.34104 3.15011,0.79062 3.36617,1.32245 2.87023,7.06476 -0.68615,7.9446 -1.2176,10.57528 -2.36906,11.72672 -0.51012,0.51012 -0.92748,3.54748 -0.92748,6.7497 0,4.87088 -0.75889,6.58112 -4.64444,10.46667 -2.55445,2.55444 -4.96945,4.58944 -5.36666,4.52223 -2.77678,-0.46992 -11.03464,11.21084 -12.89311,18.23732 -2.29688,8.68396 -2.771,14.80512 -1.22095,15.76309 0.80218,0.49578 1.4585,3.9014 1.4585,7.56807 0,3.66667 0.54404,6.33044 1.20898,5.91948 0.66495,-0.41096 0.89496,0.45363 0.51116,1.92131 -0.40576,1.55162 -0.0417,2.6685 0.86971,2.6685 0.86213,0 1.2076,0.58238 0.76768,1.29418 -0.43992,0.7118 0.2022,3.2319 1.42691,5.60025 3.35236,6.48275 1.77,20.13657 -4.1457,35.77224 -2.6358,6.96667 -5.28296,14.20172 -5.88256,16.07789 -0.5996,1.87618 -2.0411,5.25011 -3.20334,7.49763 -1.16223,2.24751 -1.98708,4.31245 -1.833,4.58877 0.15409,0.27631 0.0559,0.3781 -0.21823,0.2262 -1.03308,-0.57244 -6.83495,9.1637 -6.83495,11.46976 0,7.28066 -7.61951,20.13975 -11.93359,20.13975 -1.95338,0 -2.56154,-1.21806 -2.93215,-5.87273 -0.25717,-3.23 -0.0176,-5.5946 0.53241,-5.25464 0.55,0.33995 1,-1.14751 1,-3.30546 0,-3.72953 -2.24036,-6.3068 -13.3006,-15.30076 -1.38056,-1.12264 -10.32778,-1.63254 -30,-1.70973 -24.19914,-0.0949 -29.33453,-0.488 -37.55202,-2.87421 -5.23562,-1.52032 -10.74215,-3.41868 -12.23675,-4.21858 -7.83573,-4.19354 -10.78828,6.0169 -4.51477,15.61292 2.31713,3.54432 9.51388,7.48894 16.27081,8.91822 2.56667,0.54293 5.86667,1.64362 7.33333,2.44598 1.46667,0.80238 3.07036,1.34683 3.56376,1.2099 0.85264,-0.23663 -0.27377,4.53703 -2.16113,9.15864 -1.20445,2.94939 -8.16544,4.89568 -25.40263,7.10257 -12.94613,1.65752 -32.39911,7.23482 -30.81426,8.83467 0.31957,0.3226 -1.10097,0.64712 -3.15676,0.72116 -8.38564,0.30199 -17.16961,9.45241 -11.25325,11.72273 2.8421,1.09063 18.55518,1.03398 19.66004,-0.0709 0.4841,-0.48411 5.12261,-0.7426 10.3078,-0.57443 5.8496,0.18972 10.16574,-0.30685 11.37254,-1.3084 1.57645,-1.30834 1.79771,-1.23046 1.1678,0.41106 -0.56812,1.48048 0.40988,2.24949 3.63613,2.85913 2.42732,0.45867 6.3633,2.02336 8.74663,3.47712 5.93325,3.61908 5.71727,7.87792 -0.76303,15.04551 -6.16936,6.8237 -12.34528,15.00185 -11.89726,15.75437 0.17982,0.30204 0.0757,0.39791 -0.23142,0.21303 -0.85834,-0.51675 -6.93634,10.50541 -8.25622,14.97224 -2.71653,9.19345 3.02861,11.7349 8.95706,3.9623 2.76099,-3.61984 4.4255,-4.64036 7.06786,-4.33333 1.98708,0.23088 3.46906,1.25179 3.48626,2.4016 0.0187,1.25224 1.01576,1.828 2.66667,1.53997 3.60817,-0.62952 6.1202,-2.88505 5.08272,-4.56373 -0.47189,-0.76355 -0.27192,-1.02605 0.44439,-0.58335 0.7163,0.44271 4.43609,-2.75517 8.2662,-7.10638 7.41145,-8.41986 17.62472,-15.37282 20.79453,-14.15644 1.31867,0.50602 2.0428,3.32846 2.31688,9.03052 0.27007,5.61838 0.99629,8.49192 2.25096,8.90656 1.12336,0.37125 1.48591,0.0193 0.92131,-0.89418 -0.51203,-0.82841 -0.3607,-1.50625 0.33629,-1.50625 1.77139,0 5.80215,-10.52433 4.70849,-12.29391 -0.49337,-0.79829 -0.3268,-1.09901 0.37018,-0.66825 0.69698,0.43075 3.15344,-3.22655 5.45881,-8.12733 2.30536,-4.90078 7.97781,-13.18907 12.60545,-18.4184 4.62763,-5.22935 10.81387,-13.17636 13.7472,-17.66004 5.59372,-8.55014 9.48324,-10.45262 10.56036,-5.1654 1.81995,8.93346 2.19152,12.23842 2.8838,25.65076 0.41658,8.07066 1.45976,15.52141 2.3227,16.58928 1.20281,1.48848 1.19941,1.71833 -0.0147,0.99009 -1.77555,-1.06504 -3.93128,9.64283 -2.62608,13.04412 0.41656,1.08552 0.14268,2.35359 -0.60863,2.81792 -0.75129,0.46432 -1.05129,1.66432 -0.66666,2.66667 0.38464,1.00233 0.20304,2.12916 -0.40355,2.50405 -0.60659,0.37488 -1.46727,2.50353 -1.91263,4.73033 -0.80286,4.01431 -7.2513,18.72574 -8.76954,20.00678 -0.43456,0.36666 -2.44778,3.22386 -4.4738,6.34934 -2.02604,3.12547 -5.50615,7.30648 -7.73358,9.29112 -2.54513,2.26772 -3.81886,4.49176 -3.42816,5.98583 0.34194,1.30756 0.0812,2.04333 -0.57944,1.63504 -1.62738,-1.00577 -10.71914,6.05325 -9.77141,7.58671 0.41404,0.66992 0.25819,1.07585 -0.34632,0.90208 -0.60451,-0.17376 -4.99911,1.52865 -9.76577,3.78316 -14.4506,6.83473 -12.80191,6.34232 -30.66667,9.15915 -13.49419,2.1277 -28.58985,2.06888 -35.87516,-0.13978 -2.2756,-0.68989 -2.93116,-0.52397 -2.25464,0.57066 0.52462,0.84884 0.61844,1.54336 0.2085,1.54336 -0.40995,0 -0.81642,-0.45 -0.90326,-1 z m -183.5912,-60.81046 c -2.09827,-2.73047 -2.82936,-6.08669 -1.50425,-6.90564 0.71326,-0.44083 0.87188,-1.51004 0.35248,-2.37604 -0.66074,-1.10165 -0.3301,-1.07745 1.10093,0.0805 1.12491,0.91031 2.53628,1.21031 3.13637,0.66667 0.60011,-0.54363 0.69835,-0.30129 0.21832,0.53853 -0.48002,0.83982 -0.0556,1.84054 0.94319,2.2238 0.99879,0.38327 2.08348,2.09624 2.41044,3.80662 0.47535,2.48661 -0.0148,3.14769 -2.44636,3.29908 -1.67245,0.10413 -3.56747,-0.49599 -4.21112,-1.33358 z m -5.42955,-20.29572 c -1.55174,-1.97273 -2.8254,-4.25587 -2.83034,-5.07364 -0.005,-0.81777 -2.55494,-5.48309 -5.66667,-10.36737 -6.63063,-10.4077 -9.4564,-14.52923 -8.16803,-11.91347 0.60627,1.23089 0.38736,1.54203 -0.63872,0.90787 -0.8586,-0.53064 -1.1946,-1.55783 -0.74664,-2.28263 0.44795,-0.72479 -2.73626,-5.33333 -7.07604,-10.2412 -4.33976,-4.90787 -9.61764,-12.22339 -11.7286,-16.25672 -2.11097,-4.03333 -6.61405,-11.23333 -10.00683,-16 -5.8593,-8.23195 -10.62615,-18.429 -10.62615,-22.73099 0,-1.08635 -1.2,-4.21411 -2.66667,-6.95059 -3.34946,-6.24938 -3.34046,-8.1817 0.0596,-12.78046 5.33436,-7.21511 18.51792,-2.98399 20.4258,6.55542 0.48097,2.40491 1.61777,3.90662 2.95731,3.90662 1.23389,0 1.88897,-0.74794 1.51306,-1.72755 -0.43306,-1.12853 0.63616,-1.82653 3.08366,-2.01303 2.73321,-0.20825 4.49289,0.70982 6.50576,3.39422 1.51754,2.02382 3.2157,4.27969 3.77369,5.01302 1.0332,1.3579 1.28713,2.58662 2.48003,12 1.19466,9.42747 5.97165,23.72181 11.47377,34.33334 2.94683,5.68333 5.891,10.33333 6.54261,10.33333 0.65163,0 1.06154,0.45 0.91091,1 -0.15061,0.55 0.94929,3.7 2.44424,7 1.49496,3.3 2.88657,6.6 3.09249,7.33334 0.20591,0.73333 2.106,3.51968 4.22242,6.19186 3.84446,4.85404 4.9467,10.15094 2.60977,12.54147 -0.68105,0.69667 -1.43105,3.36667 -1.66667,5.93333 -0.3595,3.91623 -0.99316,4.73211 -3.94037,5.07364 -2.52199,0.29224 -4.30728,-0.6041 -6.33333,-3.17981 z M 266.31585,722.61241 c -13.52516,-15.08068 -19.88022,-25.14176 -19.8932,-31.49405 -0.004,-2.21144 -0.9983,-5.8208 -2.20841,-8.0208 -2.4086,-4.37887 -4.14331,-13.55971 -5.29777,-28.03802 -0.71707,-8.99292 -0.6119,-9.44379 2.6046,-11.1652 4.10244,-2.19556 4.76397,-4.48224 4.04965,-13.99804 -0.42364,-5.64356 0.0956,-8.68653 2.17908,-12.77053 1.5044,-2.94886 2.3496,-5.36155 1.87824,-5.36155 -0.47136,0 -0.18876,-0.8052 0.628,-1.78935 0.81676,-0.98413 1.09023,-2.18413 0.60771,-2.66666 -0.48254,-0.48252 -0.30062,-0.87732 0.40425,-0.87732 0.70487,0 3.57389,-3.0059 6.37563,-6.67978 8.13913,-10.67273 14.38518,-10.42789 16.04325,0.6289 1.02835,6.85752 4.89563,12.36354 9.10389,12.96162 2.60336,0.36999 3.09082,1.48702 3.91663,8.97515 0.51876,4.70392 0.63335,9.05392 0.25464,9.66667 -1.16736,1.88884 -10.4378,1.23086 -13.57017,-0.96314 -7.08179,-4.96028 -7.86696,4.03728 -0.85658,9.81583 3.79624,3.12919 4.68164,4.71551 4.33334,7.76375 -0.3988,3.49004 -0.91227,3.83868 -5.76932,3.91728 -4.47298,0.0724 -5.52375,0.63271 -6.52488,3.47941 -1.69758,4.82703 -0.0464,9.90635 4.5525,14.00395 5.12103,4.56287 5.11108,8.77001 -0.0295,12.43036 -2.84316,2.02451 -4,3.94769 -4,6.64977 0,5.66931 3.84574,19.60303 6.78585,24.58614 2.89285,4.90301 3.98768,14.19748 1.7658,14.9905 -0.7966,0.28431 -4.0966,-2.43589 -7.33333,-6.04489 z m 46.43779,-0.28955 c -1.28915,-0.75329 -2.95402,-0.99256 -3.69971,-0.53169 -0.74569,0.46087 -1.21795,0.34333 -1.04945,-0.26117 0.98737,-3.54247 -3.59173,-11.38276 -8.62071,-14.76026 -6.15321,-4.13254 -9.79598,-11.46492 -8.41984,-16.9479 1.07167,-4.26987 3.62631,-4.28482 9.84719,-0.0576 2.69799,1.83333 5.39514,3.33333 5.99368,3.33333 0.59853,0 5.25925,4.10537 10.35714,9.12304 9.36896,9.22152 11.08676,13.04176 7.2836,16.19811 -1.09192,0.90622 -1.73597,2.05112 -1.43122,2.54421 0.30476,0.49311 -0.45186,0.93839 -1.68135,0.98952 -1.22949,0.0512 -3.13544,0.46357 -4.23544,0.91652 -1.1,0.45295 -3.05475,0.2072 -4.34389,-0.54609 z m 44.66786,-14.768 c -2.30784,-2.30784 -2.07042,-6.38246 0.42772,-7.34109 3.61624,-1.38769 8.81622,1.87347 8.33935,5.23001 -0.4902,3.45046 -6.08137,4.79678 -8.76707,2.11108 z m 5.3427,-27.34034 c -2.48635,-1.00327 -2.01231,-6.84624 0.66666,-8.21728 2.48514,-1.27182 10.07339,1.18901 11.67939,3.78757 2.28953,3.70453 -6.40879,6.82544 -12.34605,4.42971 z m 172.33214,-70.13089 c -2.85545,-1.59798 -12.37363,-2.10441 -17.56143,-0.93437 -2.63568,0.59445 -4.7844,0.46551 -5.26744,-0.31608 -0.44872,-0.72604 -2.22737,-1.05025 -3.95254,-0.72047 -1.8803,0.35944 -2.80646,0.0652 -2.31222,-0.73442 0.50555,-0.81799 -0.54161,-1.0729 -2.70702,-0.65895 -1.94232,0.37129 -3.5315,0.19505 -3.5315,-0.39165 0,-2.44599 -12.11308,-2.88258 -17.9655,-0.64751 -4.93036,1.88292 -6.76168,1.98457 -11.61074,0.64445 -3.1664,-0.87509 -7.7875,-1.83216 -10.2691,-2.12684 -2.48162,-0.29466 -7.73162,-1.66736 -11.66667,-3.05041 -3.93507,-1.38307 -7.15465,-2.24788 -7.15465,-1.92181 0,0.32606 -2.4364,-0.65011 -5.41422,-2.16928 -5.48668,-2.7991 -18.20195,-6.96334 -26.41926,-8.65228 -3.44683,-0.70846 -4.25683,-0.53127 -3.46065,0.75698 0.68065,1.10131 0.50058,1.34886 -0.5216,0.71711 -0.8586,-0.53064 -1.25476,-1.46048 -0.88035,-2.06629 0.90165,-1.45891 -3.15111,-2.96608 -4.96359,-1.84591 -0.81306,0.50251 -1.03054,0.24844 -0.50929,-0.59497 1.22396,-1.98042 -6.38151,-3.32108 -15.52105,-2.736 -6.38659,0.40884 -7.67739,0.0365 -11.10175,-3.20255 -2.1312,-2.01584 -5.37491,-3.66789 -7.20824,-3.67124 -1.83333,-0.003 -7.79652,-1.82477 -13.25152,-4.04763 -5.455,-2.22285 -10.73616,-3.72768 -11.73592,-3.34404 -0.99975,0.38366 -1.45116,0.1044 -1.00312,-0.62052 0.49923,-0.80777 -1.92592,-1.29568 -6.26408,-1.26024 -7.26036,0.0593 -17.56481,4.50532 -17.91203,7.7284 -0.0916,0.85091 -0.24166,2.22379 -0.33333,3.05086 -0.10947,0.98766 -1.93235,1.2214 -5.31159,0.68104 -5.61685,-0.89818 -22.73758,2.95128 -26.3091,5.91537 -1.71728,1.42523 -2.295,1.39263 -3.29384,-0.18589 -1.75033,-2.76612 -1.56229,-4.04175 1.41453,-9.59584 3.14964,-5.87656 3.33487,-7.65176 0.79838,-7.65176 -1.69403,0 -8.19943,8.9626 -7.80063,10.74705 0.0919,0.41088 -2.27221,1.39809 -5.25341,2.19383 l -5.42036,1.44677 0.68406,-8.52212 c 0.54076,-6.73676 1.31512,-9.03311 3.6963,-10.96125 3.39761,-2.75123 6.3144,-17.45063 3.77422,-19.02054 -0.75514,-0.4667 -1.39813,-1.38148 -1.42886,-2.03281 -0.0308,-0.65135 -0.35475,-1.96311 -0.72003,-2.91501 -0.92915,-2.42131 -21.53583,-15.70114 -26.04593,-16.78511 -2.04395,-0.49125 -6.603,-2.96709 -10.13123,-5.50188 -3.52824,-2.53477 -6.90211,-4.16775 -7.49751,-3.62881 -0.5954,0.53893 -0.65664,0.23912 -0.1361,-0.66626 0.9841,-1.71165 -6.81571,-7.40649 -8.61831,-6.29242 -0.52497,0.32445 -1.29853,-0.30665 -1.71903,-1.40243 -0.42049,-1.09579 -1.28932,-1.99235 -1.93073,-1.99235 -1.19716,0 -9.84364,-7.09316 -13.00252,-10.66667 -7.3342,-8.29682 -12.58164,-15.6549 -12.58164,-17.64222 0,-1.29678 -0.5168,-2.35778 -1.14844,-2.35778 -0.63164,0 -0.86997,-1.45669 -0.52962,-3.2371 0.34034,-1.7804 -0.64286,-6.88279 -2.1849,-11.33864 -1.54204,-4.45584 -2.8157,-10.94915 -2.83036,-14.42956 -0.0307,-7.27504 -3.06089,-27.10628 -4.49692,-29.42983 -0.53192,-0.86068 -2.89245,-1.56487 -5.2456,-1.56487 -2.36669,0 -6.4704,-1.48945 -9.1839,-3.33333 -2.698,-1.83333 -5.8492,-3.33333 -7.00268,-3.33333 -3.13104,0 -12.93141,6.56453 -12.01472,8.04776 0.43698,0.70706 0.25024,1.28557 -0.415,1.28557 -1.48586,0 -6.45238,10.75504 -5.83675,12.63953 0.24445,0.74826 0.0148,0.93082 -0.51034,0.40568 -2.10567,-2.10566 -12.60077,16.8979 -12.60077,22.81632 0,5.74391 9.44913,19.715 12.18876,18.0218 0.61272,-0.37866 0.75671,0.24267 0.31999,1.38075 -0.45067,1.17443 -0.0895,2.06925 0.83528,2.06925 1.13273,0 0.95918,1.02278 -0.56939,3.35568 -1.83281,2.79722 -1.95312,4.26776 -0.72295,8.83627 1.73537,6.44467 0.35293,8.832 -3.82089,6.59824 -1.49718,-0.80127 -5.14777,-1.45685 -8.1124,-1.45685 -4.42604,0 -5.80742,-0.6559 -7.72232,-3.66667 -1.28263,-2.01667 -3.10908,-4.15355 -4.05878,-4.74861 -0.94969,-0.59507 -1.39377,-1.62067 -0.98684,-2.2791 0.98146,-1.58802 -2.23426,-6.63896 -4.22674,-6.63896 -0.86249,0 -1.82051,0.75 -2.12893,1.66667 -0.7713,2.29239 0.41759,6.44185 1.63086,5.69201 0.54402,-0.33621 0.72061,0.79338 0.39241,2.51022 -0.42106,2.20264 0.61689,4.36304 3.52595,7.33896 3.18249,3.25564 4.12266,5.4034 4.12266,9.41798 0,5.99136 2.1417,12.52266 3.77528,11.51305 0.61249,-0.37854 1.11361,0.15897 1.11361,1.19445 0,1.03548 -0.5,1.57368 -1.11111,1.19599 -0.61111,-0.37768 -1.11111,0.2487 -1.11111,1.39198 0,1.14328 0.47231,2.0787 1.04959,2.0787 0.57728,0 1.14673,1.28945 1.26544,2.86544 0.11872,1.576 0.78198,3.43157 1.47392,4.12352 0.78855,0.78853 0.59327,2.53948 -0.52322,4.69153 -1.50037,2.89196 -1.4778,4.15984 0.14315,8.03931 3.57858,8.56476 1.47687,10.79165 -5.2162,5.52689 -1.92515,-1.51433 -4.19877,-2.32163 -5.05249,-1.794 -0.90297,0.55807 -1.19512,0.38152 -0.69846,-0.42208 0.82675,-1.33771 -8.01624,-10.98421 -20.860932,-22.75645 -4.68756,-4.29618 -6.24747,-6.69095 -6.24747,-9.59107 0,-4.72411 -4.1897,-8.01643 -10.20144,-8.01643 -4.52703,0 -8.46523,-2.87224 -8.46523,-6.17393 0,-1.0909 -0.59313,-1.61687 -1.31806,-1.16884 -0.73275,0.45286 -0.99197,-0.0352 -0.58374,-1.099 0.40388,-1.05248 -0.29432,-4.23364 -1.55155,-7.06926 -2.73806,-6.17553 -4.51396,-18.02318 -4.44521,-29.65565 0.0396,-6.70788 -0.51142,-9.09785 -2.6137,-11.33563 -4.8816,-5.19624 -3.85833,-20.14876 1.96548,-28.72042 1.70253,-2.50584 2.72934,-5.14855 2.2818,-5.87268 -0.44754,-0.72414 -0.20874,-0.94272 0.53067,-0.48575 1.46743,0.90693 4.83528,-5.30411 3.79169,-6.99267 -0.66482,-1.07569 7.90907,-11.9386 10.91242,-13.82577 1.90427,-1.19656 6.20791,-8.93373 4.9692,-8.93373 -0.43788,0 0.14672,-0.94286 1.2991,-2.09524 1.15238,-1.15238 2.09524,-2.61698 2.09524,-3.25464 0,-3.2742 -3.06742,-1.87623 -10.35637,4.71989 -4.43468,4.01316 -9.23812,7.29665 -10.67431,7.29665 -2.32322,0 -2.50291,-0.59252 -1.629,-5.37157 0.94905,-5.18996 4.49011,-10.62843 6.92032,-10.62843 1.33579,0 9.52772,-5.54268 10.13662,-6.85845 0.21849,-0.47215 1.51166,-0.56704 2.87371,-0.21086 1.36205,0.35619 4.70743,-0.41106 7.43419,-1.705 4.10756,-1.94916 5.66348,-2.08621 9.07318,-0.79918 3.80192,1.43506 4.44959,1.22952 8.501882,-2.69811 2.41254,-2.33833 4.39563,-5.48381 4.40686,-6.98996 0.0112,-1.50615 0.46123,-3.41783 1,-4.24819 1.38199,-2.12994 12.39213,-5.65289 20.72904,-6.63273 6.12093,-0.7194 8.17381,-0.28515 15.64788,3.31004 8.56781,4.12131 18.60266,11.91377 18.60266,14.44571 0,0.73186 -1.5566,3.01028 -3.45912,5.06312 -2.79262,3.01329 -3.28685,4.52799 -2.56508,7.86136 0.49174,2.27091 1.20246,5.92892 1.57939,8.12892 0.37695,2.2 1.19752,4.18876 1.82351,4.41948 0.626,0.23071 0.85418,1.15951 0.5071,2.064 -0.9264,2.41416 5.27591,7.75451 7.85618,6.76437 2.6931,-1.03344 3.41429,-3.38194 3.7828,-12.31842 0.16036,-3.8888 0.73613,-7.34532 1.2795,-7.68115 1.67904,-1.03771 6.83378,-17.93903 6.20479,-20.34426 -0.3616,-1.38278 1.43547,-4.35212 4.59231,-7.5879 2.8525,-2.92387 7.33543,-8.75158 9.96206,-12.95047 3.71296,-5.93547 6.88908,-8.94241 14.27279,-13.51251 12.6408,-7.82393 23.77921,-13.45488 25.83044,-13.0584 0.91666,0.17719 1.66666,-0.33956 1.66666,-1.14832 0,-0.80876 0.65722,-1.06429 1.46047,-0.56785 1.57733,0.97484 8.10243,-1.96113 7.28864,-3.27952 -0.89573,-1.45117 6.34597,-1.46777 25.25089,-0.0579 24.66632,1.83956 24.96286,1.91532 27.33334,6.9831 1.66673,3.56325 2.85016,4.34572 7.10191,4.69564 3.03566,0.24984 6.39166,-0.42516 8.28643,-1.66667 3.63267,-2.38021 8.05751,-2.72855 9.29176,-0.73148 0.46061,0.74529 1.41089,1.00071 2.11172,0.56756 0.70084,-0.43313 1.1096,-0.29292 0.90839,0.31159 -0.37146,1.11589 11.24141,12.43244 12.75797,12.43244 0.45465,0 3.08755,2.19693 5.85089,4.88206 2.76334,2.68515 7.85588,6.62531 11.31676,8.75592 3.46088,2.13062 9.24148,7.40308 12.84578,11.7166 3.60429,4.31352 7.01885,7.42336 7.58792,6.91076 0.56906,-0.51261 0.58625,-0.15481 0.0381,0.7951 -0.596,1.033 1.21712,5.45314 4.51147,10.99834 3.02936,5.09919 6.40492,11.82199 7.50122,14.93957 1.09632,3.11757 3.43527,7.85302 5.19767,10.52321 1.7624,2.67019 2.82169,5.23755 2.354,5.70525 -1.07819,1.07819 -1.67145,4.11414 -2.03863,10.43231 -0.15956,2.74585 -0.76144,4.99585 -1.3375,5 -0.57606,0.004 -2.20474,2.70755 -3.61928,6.00755 -2.38442,5.5626 -2.93062,6 -7.4924,6 -3.9928,0 -5.86176,-0.98947 -9.91295,-5.24816 -4.17213,-4.38582 -5.06932,-6.35419 -5.46023,-11.97936 -0.37834,-5.44456 0.23103,-7.94571 3.18803,-13.08516 5.38591,-9.36106 5.04901,-16.90478 -1.02493,-22.94986 -2.53979,-2.52773 -4.96394,-5.68645 -5.38699,-7.01937 -0.42305,-1.33291 -1.41869,-2.02207 -2.21253,-1.53144 -0.8078,0.49924 -1.06299,0.27658 -0.57954,-0.50567 2.46407,-3.98692 -9.021,-18.77116 -13.30516,-17.12717 -0.99732,0.3827 -1.8133,0.14184 -1.8133,-0.53524 0,-1.74628 -9.4458,-3.30435 -11.36396,-1.87447 -7.03006,5.24049 -9.99904,6.58525 -15.89092,7.19755 -4.35956,0.45305 -6.62723,1.28289 -6.41179,2.34632 0.18333,0.90494 -0.11667,1.5501 -0.66667,1.43368 -0.55,-0.1164 -1.9,0.13346 -3,0.5553 -1.1,0.42184 -3.64086,1.12623 -5.64635,1.56532 -4.32979,0.94796 -5.56275,4.46792 -5.63634,16.09106 -0.0319,5.02364 -0.71166,8.51935 -1.82737,9.39593 -2.97805,2.33978 -3.66208,10.76759 -3.13321,38.60407 0.0975,5.13333 0.14258,10.83333 0.10013,12.66667 -0.0424,1.83333 0.31532,4.84202 0.79505,6.68598 0.62022,2.38396 0.0741,4.2728 -1.88984,6.53735 -2.33716,2.69476 -2.76208,4.96521 -2.76208,14.75845 0,6.36558 0.45,12.02378 1,12.57378 0.55,0.55 1.0018,1.4 1.00402,1.88888 0.0107,2.28932 16.33747,20.9878 21.50919,24.63316 3.20107,2.25632 5.82012,4.67268 5.82012,5.36966 0,0.77755 5.15258,0.9124 13.33334,0.34896 15.2853,-1.05276 16.32033,-0.21445 8.77033,7.10331 -2.59659,2.5167 -4.25125,5.23508 -3.83957,6.30788 1.09777,2.86078 11.72173,9.72308 16.54694,10.68814 3.43455,0.6869 4.06086,0.48713 3.20019,-1.02075 -0.58853,-1.03115 0.24155,-0.5248 1.84463,1.1252 2.16832,2.23177 4.5232,3.02612 9.19609,3.10201 3.45476,0.0561 7.48139,0.32567 8.94805,0.59903 4.23972,0.7902 10.00308,1.03452 19.48718,0.82612 8.21176,-0.18045 9.2825,-0.56965 15.51476,-5.63936 8.17048,-6.64639 11.65206,-13.62964 10.62242,-21.30615 -1.10461,-8.23551 -9.43794,-15.70644 -9.94918,-8.91956 -0.29247,3.88267 -2.62876,5.96989 -7.75974,6.93247 -2.56092,0.48042 -4.39714,1.2932 -4.0805,1.80614 0.31664,0.51295 -2.09895,1.10883 -5.36795,1.32419 -4.71861,0.31086 -6.74316,-0.28118 -9.82272,-2.87247 -2.13349,-1.79521 -4.60919,-3.5074 -5.50155,-3.80485 -3.04757,-1.01585 0.0637,-4.97771 6.82044,-8.685 5.26662,-2.88969 7.05647,-4.74369 8.20522,-8.49928 1.7197,-5.62221 -0.35342,-11.25591 -3.67322,-9.98197 -1.19281,0.45772 -1.61809,0.19026 -1.08052,-0.67955 0.58336,-0.94389 -0.64669,-1.28145 -3.59741,-0.98721 -4.06665,0.4055 -4.45979,0.13717 -4.22485,-2.88372 0.59969,-7.71108 1.08178,-9.33084 2.77712,-9.33084 0.98333,0 1.51093,-0.45 1.17244,-1 -0.3385,-0.55 1.0504,-1.11991 3.08645,-1.26647 6.29888,-0.45339 12.18224,-4.73879 15.68337,-11.42367 4.31184,-8.23278 7.34331,-8.31465 10.89118,-0.29412 2.85372,6.45132 6.29377,8.87515 8.29585,5.84522 1.28034,-1.93768 0.70732,-14.24798 -1.66929,-35.86096 -0.76607,-6.96667 -0.9904,-16.44411 -0.49852,-21.06098 0.6223,-5.84096 0.39713,-8.9934 -0.74024,-10.36385 -1.32748,-1.59951 -1.26615,-1.82817 0.32638,-1.21705 1.40207,0.53801 2.42715,-0.80346 3.59658,-4.70664 1.74406,-5.82122 4.04962,-7.56543 7.81963,-5.91579 1.28334,0.56155 2.7218,0.94625 3.19659,0.85491 0.47479,-0.0913 0.58815,0.88589 0.25192,2.17166 -0.33624,1.28578 0.60897,3.88915 2.10048,5.78528 5.01443,6.37482 9.73795,7.54632 31.1374,7.72252 10.82752,0.0892 20.54879,0.49303 21.60283,0.8975 1.05402,0.40448 2.69516,0.24809 3.64693,-0.34751 1.82153,-1.13987 2.51415,-1.28967 7.47588,-1.61697 1.86724,-0.1232 2.72208,-0.78008 2.17243,-1.66944 -0.63695,-1.0306 -0.066,-1.01666 1.9213,0.0469 6.55344,3.50728 -0.53304,10.87293 -8.52984,8.86587 -1.87504,-0.4706 -5.93668,-0.13751 -9.02588,0.74022 -3.08918,0.87774 -6.5167,1.85404 -7.6167,2.16958 -1.1,0.31554 -4.25376,0.87785 -7.00836,1.24958 -2.7546,0.37174 -5.29475,1.13928 -5.6448,1.70566 -0.35004,0.56638 1.82049,2.65569 4.8234,4.64292 5.2492,3.47376 5.98132,3.58784 18.97812,2.95696 13.29838,-0.64551 26.11493,-2.55331 28.9582,-4.31054 0.7959,-0.4919 3.94753,-1.07038 7.0036,-1.28552 3.05608,-0.21514 9.1565,-2.00717 13.5565,-3.9823 4.4,-1.97514 9.95,-4.46122 12.33333,-5.52463 2.38334,-1.06341 4.33376,-2.35532 4.33428,-2.87092 5.1e-4,-0.51559 1.4821,-1.02283 3.29242,-1.12717 2.76262,-0.1593 16.7067,-8.96082 16.7067,-10.5453 0,-0.27933 -1.01348,-2.63316 -2.25216,-5.23072 -2.18461,-4.58117 -2.16316,-4.83249 0.71532,-8.37857 1.63212,-2.01064 3.31558,-4.70572 3.74102,-5.98906 2.37849,-7.17482 10.2925,1.69064 11.60481,13.00001 1.77389,15.28726 7.77315,44.66666 9.12089,44.66666 0.54254,0 0.67291,0.81702 0.28972,1.8156 -0.38318,0.99858 0.23564,5.8358 1.37518,10.7494 1.13954,4.9136 2.07189,11.06078 2.07189,13.66039 0,3.83464 0.413,4.56809 2.18859,3.88675 1.84064,-0.70632 1.91733,-0.513 0.48238,1.216 -1.34761,1.62378 -1.3947,4.08209 -0.22402,11.69718 0.81518,5.30275 1.84661,12.56954 2.29202,16.14844 1.16618,9.36995 2.9076,12.32147 9.9277,16.82624 3.43241,2.20258 6.91618,5.48708 7.7417,7.2989 0.82552,1.81181 2.87135,3.58306 4.54628,3.93613 11.90648,2.50976 17.51839,3.40306 18.04852,2.87292 1.62544,-1.62545 6.24959,5.03104 6.38776,9.19523 0.0835,2.51433 -0.19541,4.36195 -0.61962,4.1058 -1.98595,-1.19913 -15.00594,2.03907 -17.48504,4.34871 -2.53664,2.36324 -10.88244,5.44837 -20.24779,7.48486 -3.05605,0.66454 -8.09569,6.09079 -5.65683,6.09079 0.44486,0 -0.18062,0.98944 -1.38994,2.19877 -1.20932,1.20932 -1.90814,3.31015 -1.55292,4.66851 0.35522,1.35835 0.13133,2.15169 -0.49768,1.76299 -0.62896,-0.38872 -0.9428,1.36484 -0.69743,3.89678 0.32981,3.40344 -0.0159,4.42626 -1.32619,3.92346 -2.64272,-1.01411 -13.0509,20.18562 -11.41332,23.24701 0.6774,1.26636 1.52724,4.17961 1.88856,6.47389 0.53998,3.42876 0.25647,4.0667 -1.59241,3.5832 -2.30063,-0.60162 -15.73703,12.48587 -15.06915,14.67783 0.1842,0.60451 -0.29225,0.71151 -1.05876,0.23777 -0.76652,-0.47373 -3.19905,0.6578 -5.40562,2.51451 -4.02398,3.38596 -9.54004,5.00093 -18.47506,5.40908 -11.61717,0.53067 -13.57787,0.80087 -12.96831,1.78715 0.85961,1.39088 -3.9779,1.34502 -6.49127,-0.0616 z m 31.77896,-0.26076 c 0,-1.06774 0.50978,-1.62628 1.13286,-1.2412 0.62307,0.38508 0.78767,1.25868 0.36575,1.94135 -1.07816,1.74451 -1.49861,1.54808 -1.49861,-0.70015 z m 123.28487,-25.63236 c -1.24888,-0.32873 -2.6393,-1.75913 -3.08985,-3.17866 -0.45055,-1.41952 -1.37873,-2.58096 -2.06265,-2.58096 -0.68391,0 -1.24348,-1.49964 -1.24348,-3.33254 0,-2.94126 0.51056,-3.29349 4.34856,-3 4.19062,0.32046 4.36256,0.56255 4.73396,6.66587 0.21197,3.48333 0.20512,6.26373 -0.0152,6.17867 -0.22035,-0.0851 -1.42244,-0.42364 -2.67131,-0.75238 z m -548.30073,-85.1882 c -4.68004,-4.68004 -1.26364,-8.13567 4.94392,-5.00067 2.0382,1.02936 4.35044,1.47316 5.1383,0.98623 0.78786,-0.48692 0.40124,0.68856 -0.85916,2.61219 -2.5924,3.95649 -6.13084,4.49446 -9.22306,1.40225 z m 164.23809,-35.34489 c -3.10037,-1.8058 -2.9592,-7.51703 0.31872,-12.8932 2.90083,-4.75771 4.08205,-5.02623 12.63568,-2.87239 5.30793,1.33655 6.32805,1.1526 11.98139,-2.16047 6.3819,-3.74005 6.98125,-5.41698 2.81342,-7.87189 -1.75965,-1.03645 -2.57965,-1.00765 -2.98736,0.10493 -0.36098,0.98506 -1.8495,1.18404 -4.1619,0.5564 -3.01812,-0.81918 -3.59995,-1.71352 -3.59995,-5.5335 0,-2.50603 -0.45979,-5.26495 -1.02175,-6.13094 -0.56196,-0.866 -0.31925,-2.0087 0.53935,-2.53934 1.03124,-0.63735 1.20191,-0.38364 0.50281,0.7475 -0.58204,0.94179 -0.51732,1.48448 0.14383,1.20602 2.1196,-0.89275 17.08696,-8.0282 19.48433,-9.28886 4.02198,-2.11493 8.83151,-1.39077 10.41508,1.56816 1.72335,3.2201 0.98783,12.34086 -1.20861,14.98742 -0.82421,0.99312 -1.05377,2.29665 -0.51013,2.89674 0.54362,0.60011 0.23842,0.6595 -0.67824,0.132 -2.83947,-1.63404 -4.73412,0.53108 -2.62286,2.9973 4.04546,4.72557 3.53844,6.36797 -4.38688,14.21058 -7.24113,7.16559 -8.12272,7.65112 -12.57896,6.92798 -3.0925,-0.50184 -7.45857,0.13976 -12.31042,1.80904 -8.54524,2.94 -9.5357,3.02894 -12.76755,1.14656 z M 66.875308,385.82287 c 0,-1.06775 0.50979,-1.62628 1.13286,-1.2412 0.62308,0.38508 0.78767,1.25868 0.36576,1.94135 -1.07817,1.7445 -1.49862,1.54808 -1.49862,-0.70015 z M 434.77373,338.43159 c 0.29953,-4.39963 0.94493,-8.39963 1.43421,-8.8889 0.48927,-0.48928 0.88959,-1.91461 0.88959,-3.16742 0,-1.25282 2.7588,-8.20282 6.13066,-15.44444 3.37186,-7.24164 7.64146,-17.36662 9.48799,-22.49995 1.84655,-5.13333 3.96121,-10.08333 4.69927,-11 0.73806,-0.91667 0.81846,-1.67585 0.17866,-1.68708 -0.63978,-0.0107 -0.37572,-0.51984 0.58682,-1.13024 0.96254,-0.6104 1.8071,-3.1156 1.8768,-5.56711 0.1088,-3.82749 -0.98623,-5.44836 -7.75007,-11.47141 -4.33224,-3.85777 -9.35284,-7.79339 -11.15689,-8.74581 -1.80407,-0.95243 -6.5027,-4.73168 -10.4414,-8.39835 -3.93872,-3.66667 -14.14093,-11.46667 -22.67157,-17.33333 l -15.51028,-10.66667 -3.13304,-10 c -1.72318,-5.5 -3.3474,-12.94815 -3.60939,-16.55143 -0.92737,-12.75449 -2.29339,-22.10416 -3.15157,-21.57073 -0.47812,0.29721 -0.64586,-2.85372 -0.37272,-7.00207 0.56594,-8.5958 -2.00448,-37.80153 -4.50698,-51.20911 -0.9239,-4.95 -1.29953,-9.082175 -0.83472,-9.182606 4.4564,-0.962909 9.21395,-0.01665 12.08559,2.403771 15.04624,12.682085 24.98149,20.753685 26.17477,21.264895 0.7784,0.33347 4.73594,3.73553 8.79452,7.56013 6.88437,6.48748 14.71704,12.12737 33.39876,24.04867 9.26167,5.9101 10.25504,8.71206 10.49119,29.5919 0.0911,8.05562 0.50564,15.2006 0.92118,15.87774 0.41555,0.67714 0.89598,2.77714 1.06764,4.66666 1.47171,16.1998 6.8528,37.54517 9.94712,39.45757 1.4117,0.87246 1.80558,-1.0697 0.48479,-2.39047 -0.44707,-0.44708 -1.05615,-5.49708 -1.35351,-11.22223 -0.29734,-5.72514 -0.83944,-12.80936 -1.20462,-15.74269 -0.3652,-2.93334 -1.03703,-8.46875 -1.49294,-12.30092 -0.4559,-3.83218 -1.29208,-6.68135 -1.85816,-6.3315 -0.56606,0.34986 -0.71518,-0.56473 -0.33138,-2.03241 0.38381,-1.46768 0.17785,-2.66851 -0.45768,-2.66851 -0.63554,0 -1.16366,-5.55 -1.17362,-12.33333 -0.009,-6.78333 -0.46877,-20.13333 -1.0196,-29.66667 -0.55082,-9.53333 -1.14268,-26.03333 -1.31522,-36.66666 l -0.31374,-19.333343 3.62843,-0.418205 c 2.9006,-0.33432 5.21755,1.136646 11.55083,7.333333 8.94468,8.751755 10.07436,11.708925 11.49286,30.084875 0.49534,6.41667 1.29674,11.66585 1.78091,11.66485 0.48417,-0.001 0.6736,3.31921 0.42097,7.37823 -0.29934,4.8094 0.1651,8.1502 1.33334,9.5911 1.2758,1.57356 1.31045,1.92132 0.12013,1.20614 -1.27044,-0.76332 -1.49216,0.21684 -0.92231,4.0774 1.60847,10.89684 2.3948,11.59594 7.24094,6.43746 2.34389,-2.49496 3.17398,-5.04294 3.36642,-10.33334 0.29692,-8.16236 3.54002,-15.18937 10.93266,-23.6885 2.87038,-3.3 12.58832,-15.14423 21.59542,-26.32052 9.00711,-11.176282 18.68816,-22.151334 21.51345,-24.389006 2.8253,-2.237672 7.72987,-7.517909 10.89906,-11.733862 4.94232,-6.574737 6.23296,-7.555088 9.07116,-6.890289 2.79385,0.654408 3.57478,2.012125 5.01612,8.721038 2.04626,9.524664 4.2139,49.265279 3.45154,63.279299 -2.62818,48.31247 -2.17918,45.99088 -11.25269,58.18211 -2.80352,3.76681 -4.67927,7.31301 -4.16831,7.88043 0.51096,0.56741 0.2817,0.66352 -0.50948,0.21356 -3.11089,-1.76923 -21.46696,17.7427 -29.84461,31.72391 -1.75768,2.93333 -5.98858,8.93333 -9.402,13.33333 -3.41342,4.4 -6.62246,9.14283 -7.13121,10.53963 -0.6028,1.65506 0.71343,5.94514 3.779,12.31718 2.5872,5.37766 4.70399,10.34834 4.70399,11.04595 0,0.69761 2.28938,3.91356 5.08751,7.14656 5.7975,6.69848 8.91966,13.27151 7.75078,16.31756 -1.064,2.77272 -5.30936,0.56151 -8.47416,-4.41379 -1.2664,-1.99086 -2.6164,-3.91976 -3,-4.28642 -0.38361,-0.36667 -1.38051,-1.86667 -2.21532,-3.33334 -0.83483,-1.46666 -2.43737,-2.59124 -3.56123,-2.49905 -1.2594,0.10333 -1.7616,-0.56668 -1.30894,-1.74627 0.90513,-2.35873 -6.12891,-9.97754 -8.14934,-8.82684 -0.80445,0.45818 -1.03784,0.36203 -0.51862,-0.21364 1.1881,-1.31725 -10.84319,-11.38086 -13.60607,-11.38086 -4.15356,0 -15.47481,13.46748 -19.49776,23.19404 -1.79269,4.33433 -4.16597,6.92218 -9.44373,10.29758 -3.87712,2.4796 -7.0524,4.88338 -7.05619,5.34171 -0.004,0.45833 -1.90399,1.21276 -4.22268,1.67649 -4.76332,0.95267 -15.01415,10.83342 -13.60485,13.1137 0.49464,0.80034 0.29904,1.08416 -0.43467,0.6307 -0.73371,-0.45345 -2.72897,2.15384 -4.43393,5.79399 -1.70495,3.64015 -3.67082,6.61845 -4.36859,6.61845 -0.69777,0 -0.51035,0.91374 0.41651,2.03052 1.38424,1.66792 1.34389,1.89956 -0.22592,1.29716 -1.14171,-0.4381 -3.11247,0.89158 -4.89518,3.30282 -1.64124,2.21989 -4.2115,4.03617 -5.7117,4.03617 -2.50538,0 -2.68326,-0.6518 -2.183,-7.99929 z M 487.59411,97.43087 c -1.65849,-2.114741 -1.61133,-2.161901 0.50342,-0.503406 2.221,1.741825 2.9273,2.83674 1.82992,2.83674 -0.27687,0 -1.32687,-1.05 -2.33334,-2.333334 z"
     id="path80"
     inkscape:connector-curvature="0" />
</svg>
