<?xml version="1.0" encoding="UTF-8" standalone="no"?>
<!-- Created with Inkscape (http://www.inkscape.org/) -->

<svg
   xmlns:dc="http://purl.org/dc/elements/1.1/"
   xmlns:cc="http://creativecommons.org/ns#"
   xmlns:rdf="http://www.w3.org/1999/02/22-rdf-syntax-ns#"
   xmlns:svg="http://www.w3.org/2000/svg"
   xmlns="http://www.w3.org/2000/svg"
   xmlns:sodipodi="http://sodipodi.sourceforge.net/DTD/sodipodi-0.dtd"
   xmlns:inkscape="http://www.inkscape.org/namespaces/inkscape"
   version="1.1"
   id="svg90"
   width="518.40002"
   height="518.40002"
   viewBox="0 0 518.40002 518.40002"
   sodipodi:docname="elephant_bomb.svg"
   inkscape:version="0.92.4 (5da689c313, 2019-01-14)">
  <metadata
     id="metadata96">
    <rdf:RDF>
      <cc:Work
         rdf:about="">
        <dc:format>image/svg+xml</dc:format>
        <dc:type
           rdf:resource="http://purl.org/dc/dcmitype/StillImage" />
        <dc:title></dc:title>
      </cc:Work>
    </rdf:RDF>
  </metadata>
  <defs
     id="defs94" />
  <sodipodi:namedview
     pagecolor="#ffffff"
     bordercolor="#666666"
     borderopacity="1"
     objecttolerance="10"
     gridtolerance="10"
     guidetolerance="10"
     inkscape:pageopacity="0"
     inkscape:pageshadow="2"
     inkscape:window-width="640"
     inkscape:window-height="480"
     id="namedview92"
     showgrid="false"
     inkscape:zoom="0.59992281"
     inkscape:cx="259.20001"
     inkscape:cy="259.20001"
     inkscape:window-x="0"
     inkscape:window-y="0"
     inkscape:window-maximized="1"
     inkscape:current-layer="svg90" />
  <path
     style="fill:#000000;stroke-width:0.96000004"
     d="m 123.98817,402.43234 c 0,-2.55733 7.79428,-4.09122 28.32001,-5.57334 20.09749,-1.45118 25.98305,-2.10195 27.59647,-3.05131 1.52485,-0.89724 -2.3577,-6.07171 -8.12423,-10.82758 -3.31773,-2.73626 -7.26336,-6.02463 -8.76805,-7.30748 -1.50469,-1.28285 -3.13539,-2.0855 -3.62378,-1.78366 -0.48839,0.30185 -0.78472,0.1927 -0.65848,-0.24255 0.12622,-0.43524 -1.42071,-2.41378 -3.43762,-4.39676 l -3.66712,-3.60541 0.34759,-7.65411 c 0.29117,-6.41174 0.70232,-8.00805 2.53301,-9.8346 1.86622,-1.86201 2.31657,-1.97016 3.08338,-0.74048 0.49388,0.792 0.6756,2.952 0.40381,4.8 -0.63682,4.33022 1.86369,8.42018 7.42594,12.14623 2.91727,1.95423 4.25967,3.57028 4.4708,5.38216 0.33906,2.90968 4.63049,6.81049 6.64292,6.03825 0.79963,-0.30684 1.05502,-0.0839 0.65159,0.56891 -0.38792,0.62765 -0.14809,0.90174 0.57741,0.65991 0.6825,-0.2275 2.31526,0.66072 3.62836,1.97382 2.35598,2.35598 2.40782,2.3626 3.93272,0.50198 2.07134,-2.52733 10.68269,-9.03126 11.95763,-9.03126 0.55893,0 2.49499,1.404 4.30235,3.12 2.56281,2.43326 3.04088,2.64456 2.17194,0.96 -0.61281,-1.188 -0.90729,-2.16 -0.6544,-2.16 0.25289,0 -0.36458,-1.86362 -1.37213,-4.14137 -1.26499,-2.85971 -2.02678,-7.53903 -2.46153,-15.12 -0.34628,-6.03825 -0.79384,-11.15885 -0.99459,-11.37912 -0.20074,-0.22027 -3.57231,2.88052 -7.4924,6.89064 -9.67922,9.90154 -11.1134,10.77498 -15.38008,9.36685 -1.85982,-0.61379 -4.25224,-2.22297 -5.3165,-3.57596 -3.24626,-4.12694 -2.50038,-6.89585 3.43752,-12.76104 5.26858,-5.20406 7.74176,-8.79323 8.39895,-12.18889 0.5546,-2.8655 2.45104,-7.00617 3.24476,-7.08456 0.40906,-0.0404 1.50181,-0.21847 2.42833,-0.39573 0.92651,-0.17724 1.4767,0.0141 1.22263,0.42516 -0.25406,0.41108 0.36645,1.4971 1.37892,2.41336 1.75657,1.58967 2.18401,1.52747 9.33736,-1.35907 8.78749,-3.54594 13.73652,-7.79694 13.73652,-11.79907 0,-1.50267 -0.67929,-6.02076 -1.50952,-10.04017 l -1.50952,-7.30804 2.66172,-2.12237 2.6617,-2.12238 -1.15426,-7.42451 c -1.24406,-8.00209 -3.68251,-13.33254 -5.73817,-12.54371 -0.73055,0.28034 -1.00341,0.0539 -0.64124,-0.53208 0.34675,-0.56104 -0.22036,-1.96009 -1.26024,-3.10901 -1.97868,-2.18617 -6.95047,-10.43611 -6.95047,-11.53328 0,-1.26546 3.42912,-0.58634 6.5032,1.28794 3.58801,2.18761 4.46313,2.39052 3.48513,0.80808 -0.42781,-0.6922 -0.26298,-0.84751 0.439,-0.41366 0.61819,0.38206 0.85568,1.12878 0.52775,1.65939 -0.32793,0.53061 0.25904,1.90475 1.30438,3.05367 2.41141,2.65035 4.06054,5.83755 4.06054,7.84765 0,1.42371 4.852,7.83652 10.31248,13.62984 2.0096,2.13208 2.74252,2.26535 11.04,2.00757 l 8.88752,-0.27613 1.66704,-3.40739 c 0.91688,-1.87406 2.05299,-6.19406 2.52469,-9.6 0.7272,-5.25073 0.56335,-6.9841 -1.07732,-11.39647 -1.55629,-4.18545 -1.76858,-6.06274 -1.08469,-9.59254 0.53891,-2.7816 1.40919,-4.49423 2.37658,-4.67693 1.22062,-0.23053 1.56202,0.72099 1.70466,4.75112 0.0981,2.77166 0.70727,5.37056 1.3537,5.77534 1.98611,1.24364 10.70572,2.78308 16.64999,2.93954 6.76948,0.17819 10.30818,-1.7496 12.04909,-6.56401 1.10671,-3.06055 3.67626,-4.58653 3.67626,-2.18322 0,2.49401 -3.04316,20.70478 -3.8292,22.91456 -0.46953,1.32 -1.13345,4.23268 -1.47539,6.47263 l -0.62168,4.07262 2.84671,-0.56933 c 1.56569,-0.31315 3.07644,-0.19763 3.35722,0.25669 0.28079,0.45432 -1.53882,3.87891 -4.04357,7.61021 -4.31698,6.43095 -5.80187,10.51443 -3.51409,9.66385 0.572,-0.21267 0.9213,-0.90478 0.77621,-1.53803 -0.14507,-0.63324 0.18187,-0.87593 0.72656,-0.53929 0.54468,0.33664 2.17539,-0.18682 3.62378,-1.16324 1.4484,-0.97641 3.92945,-2.38497 5.51345,-3.13013 1.584,-0.74516 5.10391,-2.97829 7.82201,-4.96252 4.97477,-3.63161 9.93799,-5.61787 9.93799,-3.97714 0,0.48646 -1.30712,2.13676 -2.9047,3.66734 -1.59759,1.5306 -2.68254,3.36186 -2.411,4.06947 0.27154,0.70763 0.0666,1.02266 -0.45529,0.70007 -0.52195,-0.32258 -0.97619,-0.45302 -1.00941,-0.28986 -0.0332,0.16316 -0.40466,3.90056 -0.82542,8.30532 -0.65856,6.89418 -1.11772,8.3357 -3.2996,10.35885 -2.05523,1.90571 -2.53458,3.21433 -2.53458,6.91934 0,2.51303 -0.482,5.05115 -1.0711,5.64025 -0.78813,0.78813 -0.66132,1.65614 0.48,3.28561 1.74786,2.49543 1.9929,6.26029 0.63919,9.82082 -0.64624,1.69971 -0.5799,2.5092 0.22767,2.7784 0.62678,0.20892 -0.41085,0.43814 -2.30584,0.50938 -3.59321,0.13508 -3.76556,-0.1176 -6.16694,-9.04132 -0.15985,-0.594 -3.24091,-1.37814 -6.8468,-1.74255 -11.24142,-1.13603 -30.34719,-4.22823 -35.13569,-5.68657 -4.05332,-1.23446 -4.74705,-1.22716 -6.03766,0.0635 -6.15238,6.15238 -10.40759,25.88754 -10.20417,47.32568 0.18696,19.70351 -0.33728,23.66654 -3.3958,25.67056 -3.45997,2.26706 -12.4612,3.18145 -16.24704,1.65047 -2.18773,-0.88472 -3.20761,-2.05822 -3.68744,-4.24285 -0.66746,-3.03891 -3.00358,-3.60261 -2.75677,-0.66518 0.0724,0.86148 -0.22994,1.3429 -0.67183,1.06979 -0.4419,-0.27312 -1.26702,0.36963 -1.83361,1.42832 -1.89144,3.53417 -4.73685,4.1639 -19.66574,4.35222 -7.94224,0.10018 -23.62043,0.53708 -34.84043,0.97089 -13.56264,0.52438 -20.40001,0.46507 -20.40001,-0.17694 z m 155.59118,-2.07406 c -3.35878,-0.97522 -3.29815,-2.27487 0.20889,-4.47833 4.33677,-2.72476 4.50879,-5.75662 0.52022,-9.16894 -1.76015,-1.50585 -4.36278,-2.75548 -5.78362,-2.77693 -4.46733,-0.0675 -4.60504,-3.49324 -0.23445,-5.83231 1.48653,-0.79557 2.17941,-1.83339 1.87157,-2.80331 -0.26885,-0.84705 0.83581,-4.98334 2.45479,-9.19175 2.60034,-6.75934 3.73577,-8.37934 9.73641,-13.89165 3.73604,-3.432 8.5663,-7.37404 10.73391,-8.76007 5.51109,-3.52398 7.62326,-6.09142 11.30006,-13.73569 l 3.20133,-6.65576 6.89461,-1.16171 c 3.79202,-0.63893 9.40797,-2.38712 12.47985,-3.88488 5.4857,-2.67462 14.70526,-10.58017 14.70526,-12.60938 0,-0.56788 0.35109,-1.17651 0.78021,-1.35251 1.08526,-0.44511 7.89534,-9.9454 11.06784,-15.44 2.78301,-4.82 3.89832,-5.51953 4.84924,-3.04148 1.10273,2.87364 0.57398,5.16869 -2.77729,12.05478 -1.848,3.79723 -3.36,7.12396 -3.36,7.39272 0,0.26877 1.06669,-0.51344 2.37042,-1.73823 1.30372,-1.22478 2.14529,-2.59113 1.87013,-3.03634 -0.27514,-0.4452 0.10176,-0.57843 0.83758,-0.29608 1.46442,0.56195 7.01738,-5.67459 9.71152,-10.90698 0.89817,-1.74439 1.89189,-5.3572 2.20827,-8.02847 l 0.57522,-4.85686 -2.93518,0.64468 c -4.19663,0.92173 -4.68493,-0.81882 -1.40404,-5.00477 3.83726,-4.89583 4.48479,-6.35177 6.44362,-14.48836 1.28361,-5.33189 1.54552,-8.92892 1.0675,-14.66084 -0.69951,-8.38766 0.12288,-9.78155 4.37995,-7.42374 1.22926,0.68083 2.66701,1.1101 3.19501,0.95392 0.528,-0.15617 0.63672,0.0394 0.24161,0.43444 -0.39512,0.39512 0.2906,2.48312 1.52382,4.64 2.06461,3.611 3.33246,6.71596 10.61735,26.00161 2.89086,7.65318 8.73389,16.25203 10.36037,15.24681 0.64838,-0.40072 0.80526,-0.22942 0.39616,0.43252 -0.41828,0.67679 1.81982,2.76145 5.85167,5.45047 3.59096,2.39498 8.47303,5.77299 10.84903,7.50669 2.376,1.7337 8.424,4.60894 13.44,6.38941 7.07276,2.51053 10.03587,4.14009 13.2,7.25935 2.244,2.21216 4.08,4.71617 4.08,5.56444 0,1.62007 -7.21412,5.43305 -10.26734,5.42672 -3.03827,-0.007 -7.87711,-3.66937 -9.27888,-7.02428 -1.53814,-3.68129 -4.52503,-6.01632 -12.13378,-9.4857 -2.904,-1.32415 -7.74499,-4.45154 -10.75774,-6.94977 -3.01274,-2.49822 -5.93945,-4.25686 -6.50378,-3.90808 -0.56433,0.34877 -0.90735,0.062 -0.76227,-0.63722 0.14604,-0.70386 -0.379,-1.12852 -1.17621,-0.95136 -0.792,0.176 -1.13901,0.019 -0.77112,-0.34889 0.89606,-0.89605 -6.89255,-11.13453 -7.9657,-10.47127 -0.46265,0.28593 -0.64422,-0.0425 -0.40346,-0.72998 0.24075,-0.68742 -0.62605,-2.54586 -1.92623,-4.12986 -2.98785,-3.64009 -2.995,-2.33113 -0.0471,8.64 2.73308,10.17196 4.94137,15.54139 9.05942,22.02795 3.24241,5.1073 3.91808,10.57331 2.05427,16.61839 -0.528,1.71251 -1.38446,4.48853 -1.90324,6.16891 -0.72591,2.35125 -0.68166,2.79366 0.192,1.92 2.31212,-2.31212 4.11971,-1.08274 6.47106,4.40114 1.2979,3.02699 3.5659,6.64893 5.04,8.04877 1.4741,1.39985 2.68018,3.25104 2.68018,4.11378 0,1.25336 0.37319,1.36889 1.85689,0.57484 3.40506,-1.82233 7.56743,-1.19434 9.26599,1.39798 0.86193,1.31547 1.96259,2.14735 2.44592,1.84864 0.48333,-0.2987 0.781,-0.187 0.66149,0.24825 -0.11951,0.43524 1.61181,3.58003 3.84738,6.98841 2.23557,3.40839 4.31273,7.1854 4.61591,8.39337 0.30318,1.20797 0.84459,2.01501 1.20312,1.79342 0.35853,-0.22158 0.72965,0.3214 0.8247,1.20664 0.095,0.88523 0.42767,3.98551 0.73915,6.88951 0.79186,7.3826 -1.35767,10.63975 -8.82798,13.37687 -3.07591,1.12702 -6.24057,2.32096 -7.03257,2.65321 -0.792,0.33226 -1.656,0.66037 -1.92,0.72913 -8.54624,2.22624 -12.7684,2.75566 -21.6,2.70841 -12.0052,-0.0642 -14.93705,-0.35865 -14.27285,-1.43333 0.25633,-0.41486 -2.98989,-0.75429 -7.21389,-0.75429 -7.82377,0 -10.63418,-1.18966 -6.64744,-2.81389 3.09694,-1.26172 16.08805,-2.94611 22.72234,-2.94611 3.05237,0 7.57072,-0.6886 10.04078,-1.53024 4.38841,-1.49528 4.49054,-1.6214 4.46993,-5.52 -0.0354,-6.70278 -2.90581,-10.99331 -15.94582,-23.83498 -6.7942,-6.69087 -13.72023,-13.71087 -15.39118,-15.6 -2.34717,-2.65365 -3.77063,-3.43478 -6.2593,-3.43478 -4.17006,0 -14.84329,-2.95627 -28.33976,-7.84954 -7.58014,-2.74826 -11.51207,-3.71064 -13.31328,-3.25856 -1.40588,0.35285 -2.29191,0.90577 -1.96896,1.22871 0.32294,0.32295 -0.2602,1.1807 -1.29588,1.90611 -1.03568,0.72542 -3.92741,4.00417 -6.42607,7.28611 -2.49866,3.28195 -6.8025,8.4916 -9.56408,11.577 -2.7616,3.0854 -5.64918,6.9734 -6.41686,8.64 -7.14502,15.51135 -12.10864,27.52545 -12.35735,29.91017 l -0.30038,2.88 9.36,0.86363 c 13.40225,1.23659 12.83543,2.10876 -3.12,4.80088 -4.488,0.75725 -9.44535,1.87084 -11.01634,2.47464 -3.80056,1.46075 -9.08218,1.95745 -11.95249,1.12407 z M 56.857847,387.1256 c -3.516976,-4.47111 -1.921764,-9.86197 5.080885,-17.17033 2.4141,-2.5195 4.120061,-5.01649 3.791027,-5.54888 -0.338517,-0.54774 -0.119714,-0.67224 0.503979,-0.28677 2.991605,1.84891 15.241128,-12.33728 18.879611,-21.86451 3.094549,-8.10297 0.853772,-42.39518 -4.022554,-61.56005 -0.403034,-1.584 -0.636847,-6.94075 -0.519586,-11.9039 0.117262,-4.96315 -0.150917,-9.49915 -0.595953,-10.08 -1.922382,-2.50907 -3.258195,-10.55172 -2.80487,-16.88754 0.37064,-5.18019 1.020564,-7.39808 2.883724,-9.8408 3.324055,-4.35807 6.835284,-12.82133 5.953102,-14.34903 -0.399776,-0.6923 -0.373353,-0.93848 0.05871,-0.54706 0.432071,0.39142 1.340206,0.25137 2.018076,-0.31121 0.939919,-0.78006 1.700449,-0.1056 3.203812,2.84124 l 1.971321,3.8641 3.315424,-1.38527 c 3.129178,-1.30746 3.399076,-1.26584 4.804515,0.7407 0.81901,1.16929 1.4891,3.51373 1.4891,5.20988 0,1.69614 0.37685,4.08402 0.83745,5.30639 1.10398,2.92982 -0.14562,6.04493 -3.23755,8.07084 -2.468976,1.61773 -2.553064,1.59176 -6.119049,-1.89033 -3.55997,-3.47622 -3.64185,-3.50169 -5.314791,-1.65311 -2.178658,2.40739 -1.26375,5.47185 1.86834,6.25795 2.845061,0.71407 2.959326,2.03729 0.498314,5.77058 -1.421473,2.15634 -1.622321,3.24751 -0.859959,4.672 1.152504,2.15347 2.053462,1.51622 5.832631,-4.12543 1.61152,-2.40572 2.979541,-3.37253 4.816794,-3.4041 1.41131,-0.0243 2.36893,0.15299 2.12803,0.39388 -0.77238,0.77238 3.35553,3.14471 4.37526,2.51448 0.54015,-0.33384 0.8634,-0.10493 0.71832,0.50867 -0.36619,1.54876 5.84193,4.78707 9.17724,4.78707 1.84322,0 3.81746,1.06648 5.98298,3.232 1.77759,1.7776 3.48523,2.97877 3.79473,2.66926 0.30951,-0.3095 0.2904,0.14696 -0.0424,1.01438 -0.3953,1.03013 0.0897,1.949 1.39834,2.64937 1.75169,0.93748 2.13377,0.73556 3.0397,-1.60638 1.52674,-3.94678 1.86869,-5.68781 2.88303,-14.67863 0.80211,-7.10965 0.65598,-9.24098 -1.13527,-16.55786 -1.30169,-5.31712 -3.42537,-10.66849 -5.78898,-14.58742 -2.05323,-3.40426 -3.73313,-6.42922 -3.73313,-6.72214 0,-1.39832 4.08124,-0.29134 6,1.62742 1.188,1.188 2.592,2.016 3.12,1.84 0.528,-0.17601 0.66054,-0.0205 0.29454,0.34547 -0.36601,0.366 0.31456,2.238 1.51236,4.15999 1.1978,1.922 3.16089,6.08654 4.36243,9.25454 1.20155,3.168 3.46745,8.45574 5.03535,11.75051 1.5679,3.29479 2.60922,6.75146 2.31404,7.6815 -0.31574,0.99478 0.6428,3.46894 2.32819,6.00948 1.57567,2.37518 2.86672,5.32926 2.86899,6.56463 0.002,1.23537 0.94963,3.01176 2.10528,3.94754 1.43175,1.15937 2.28166,3.19641 2.66767,6.39389 0.37742,3.12624 0.98161,4.60441 1.81019,4.42866 0.68402,-0.14507 0.9916,0.1441 0.6835,0.64261 -0.3081,0.49851 0.10457,1.57115 0.91706,2.38363 2.28469,2.2847 3.97108,8.04556 4.72579,16.1438 0.875,9.38904 1.03003,9.52465 11.7027,10.23705 1.36121,0.0908 2.20009,0.93186 2.50133,2.50765 0.24927,1.30402 0.0836,2.14253 -0.3681,1.86334 -0.45172,-0.27918 -0.82131,-0.0707 -0.82131,0.4634 0,1.50545 -13.30917,14.24417 -15.47329,14.8101 -1.0583,0.27675 -2.09799,-0.003 -2.31045,-0.6223 -0.21245,-0.61902 -0.57896,-7.95374 -0.81445,-16.29937 -0.38569,-13.66843 -0.6378,-15.47809 -2.54104,-18.24 -2.76777,-4.01646 -8.65853,-8.53704 -10.30252,-7.90619 -0.71389,0.27395 -1.03216,0.068 -0.70727,-0.45771 0.91715,-1.48397 -2.26257,-2.26049 -3.85264,-0.94085 -0.77946,0.6469 -1.1367,1.66724 -0.79386,2.26741 0.34284,0.60017 0.29689,0.79804 -0.10209,0.4397 -0.399,-0.35834 -3.44101,0.84113 -6.76002,2.66549 -3.31902,1.82435 -9.64983,4.63485 -14.06847,6.24553 -4.41865,1.61069 -8.84761,3.65122 -9.84215,4.53452 -0.99453,0.88328 -3.25059,4.71394 -5.01346,8.51258 -2.89444,6.23692 -3.19923,7.72622 -3.14348,15.36 0.11179,15.30902 -2.528595,24.83463 -9.840568,35.50143 -1.511105,2.20442 -3.424535,4.68511 -4.252066,5.51264 -0.827532,0.82754 -1.228949,1.95062 -0.892039,2.49576 0.33691,0.54513 0.04045,0.87244 -0.658792,0.72736 -0.699247,-0.14508 -1.152654,0.30833 -1.007571,1.00757 0.145082,0.69925 -0.194572,0.98808 -0.754787,0.64185 -0.560214,-0.34624 -2.730918,1.08283 -4.823785,3.1757 -2.092868,2.09286 -3.805215,3.61479 -3.805215,3.38205 0,-0.23274 -2.52516,1.51989 -5.611466,3.89475 -6.031812,4.64138 -8.110436,7.2341 -9.134964,11.39429 -0.813233,3.30222 -1.852702,3.32843 -4.383893,0.11054 z M 264.14818,253.20045 c -2.376,-0.54385 -5.20695,-1.91355 -6.29101,-3.0438 -1.94677,-2.02972 -1.94987,-2.13116 -0.252,-8.2542 1.90099,-6.85555 2.71752,-7.7312 7.22924,-7.75269 3.78817,-0.018 5.06018,2.00632 4.53504,7.21738 l -0.38374,3.80792 1.51415,-4.11876 c 1.69084,-4.59935 4.89494,-7.22842 8.23281,-6.75529 2.08028,0.29488 2.22958,0.78283 2.44613,7.99405 0.2939,9.78714 -0.67394,11.25748 -7.65313,11.62666 -2.78162,0.14714 -7.00149,-0.17743 -9.37749,-0.72127 z m -9.85385,-23.47925 c -0.31562,-0.31562 -0.41604,-1.07162 -0.22314,-1.68 0.19291,-0.60837 0.59993,-3.48214 0.90451,-6.38614 0.30458,-2.904 1.24533,-10.13397 2.09056,-16.06661 1.80228,-12.65014 1.43066,-15.25589 -2.27718,-15.96677 -13.18011,-2.52695 -31.75293,-1.03247 -46.8954,3.77348 -8.92326,2.83209 -10.41501,2.87061 -16.91942,0.437 -2.79727,-1.04659 -6.48717,-2.0563 -8.19979,-2.24378 -1.71262,-0.18749 -3.39449,-0.62152 -3.73747,-0.96451 -0.70589,-0.70589 5.86173,-3.67032 7.63628,-3.4468 6.54564,0.82449 5.09757,-1.35809 -1.92129,-2.89581 -9.60226,-2.10371 -33.98221,-10.56353 -40.34315,-13.99906 -12.24979,-6.61608 -21.43386,-15.07795 -23.25439,-21.4258 -0.71661,-2.49865 -0.60805,-2.83526 0.75873,-2.35267 0.87725,0.30973 2.33637,1.19922 3.24251,1.97663 0.96581,0.82861 3.82041,1.46339 6.89883,1.53409 5.20257,0.11948 5.25676,0.0915 5.83904,-3.01572 0.68977,-3.68082 -0.0163,-5.21725 -2.23043,-4.85357 -1.79606,0.29501 -3.99496,-0.83139 -3.99496,-2.04643 0,-0.44167 2.8214,-2.16376 6.26976,-3.82687 3.44836,-1.66313 6.01488,-3.43626 5.70335,-3.94033 -0.66154,-1.07038 0.22855,-1.07904 2.9069,-0.0282 1.3044,0.51175 1.92,1.64435 1.92,3.53253 0,2.67062 0.20639,2.79802 5.28,3.25926 l 5.28,0.48 0.29775,4.13229 c 0.17671,2.45246 0.84997,4.34421 1.65618,4.65358 0.74713,0.2867 5.36514,0.80316 10.26225,1.1477 l 8.90382,0.6264 v 5.72596 5.72597 l 8.64,1.19659 c 4.752,0.65813 15.12,1.63699 23.04,2.17524 7.92,0.53825 17.64,1.59588 21.6,2.35029 3.96,0.75441 10.548,1.6495 14.64,1.98909 6.73105,0.5586 7.45116,0.45256 7.55714,-1.11286 0.0644,-0.95166 0.064,-6.48228 -8.5e-4,-12.29028 -0.23337,-20.88703 -1.67491,-26.48706 -7.27876,-28.27626 -3.08808,-0.98596 -12.98061,-2.49076 -14.19753,-2.15964 -0.396,0.10774 -0.72,-0.19261 -0.72,-0.66744 0,-1.00316 8.51633,-1.86882 8.87775,-0.90238 0.13324,0.35626 3.69825,0.87478 7.92225,1.15226 18.90702,1.24202 35.51786,2.69131 35.96441,3.13786 0.2678,0.2678 -0.46279,1.21336 -1.62354,2.10125 l -2.11043,1.61434 2.04926,7.2 c 1.54701,5.43535 2.06777,10.02345 2.12479,18.72001 0.0416,6.336 0.38877,12.00136 0.77164,12.5897 0.42353,0.65081 6.25044,1.34037 14.88,1.76088 19.95453,0.97241 28.39774,2.06491 33.54101,4.34002 2.45277,1.08497 4.57168,1.85944 4.7087,1.72104 0.13702,-0.1384 -0.77639,-2.62764 -2.0298,-5.53164 -1.25341,-2.904 -2.29628,-6.21768 -2.31748,-7.36372 -0.0722,-3.90263 2.14903,-3.84129 39.32144,1.08591 6.072,0.80485 15.10312,1.87933 20.06916,2.38773 9.44619,0.96708 11.08888,1.63154 10.14088,4.10199 -0.70884,1.84723 -12.56094,3.77401 -18.35541,2.98401 -5.01831,-0.68417 -5.63989,0.33526 -6.54462,10.73353 -0.61174,7.03103 -0.48792,7.91971 1.44606,10.37836 1.16686,1.48341 2.7037,2.46304 3.428,2.1851 0.72209,-0.2771 1.21009,-0.15433 1.08441,0.27281 -0.12566,0.42714 1.86091,2.75798 4.41458,5.17966 5.36683,5.08938 5.79948,8.08206 1.09914,7.60275 -7.73527,-0.78879 -20.02677,-5.20119 -25.04667,-8.99126 -4.17948,-3.15553 -5.4448,-3.68849 -6.55986,-2.76308 -1.43092,1.18757 -1.02279,3.4953 0.97633,5.52049 0.62669,0.63486 1.47612,0.85086 1.88763,0.48 0.41151,-0.37086 0.47104,-0.18863 0.13227,0.40494 -0.33875,0.59358 0.46826,2.32158 1.79338,3.84 3.96792,4.54678 4.27472,5.01762 4.27472,6.56026 0,2.2059 -2.35971,1.79436 -5.66668,-0.98829 -1.64413,-1.38343 -3.42991,-2.16232 -4.06199,-1.77167 -0.67274,0.41578 -0.87256,0.28385 -0.49509,-0.32691 0.61839,-1.00057 -4.49606,-5.58465 -8.67313,-7.77371 -3.84001,-2.01241 -8.81081,-1.35977 -11.25108,1.47721 l -2.21588,2.57612 -12.82495,-6.96508 c -7.05372,-3.83078 -13.23585,-7.04204 -13.73807,-7.13611 -0.50222,-0.0941 -1.72089,-0.9428 -2.70814,-1.88605 -0.98727,-0.94327 -2.17436,-1.48057 -2.63801,-1.19402 -0.46365,0.28654 -1.00763,0.0271 -1.20885,-0.57658 -0.5743,-1.72291 -15.01085,-2.39093 -15.5491,-0.71949 -0.23469,0.7288 -0.69228,8.0211 -1.01686,16.2051 -0.67197,16.94273 -1.43914,21.69432 -3.45455,21.39627 -3.475,-0.51391 -11.81294,-3.21606 -13.02333,-4.2206 -1.04923,-0.87078 -1.70898,-0.71852 -3.00908,0.6945 -1.17321,1.2751 -2.69359,1.7239 -5.14581,1.519 -2.19576,-0.18348 -4.03092,0.25949 -4.97142,1.2 -1.56755,1.56753 -2.84351,1.87529 -3.80183,0.91697 z M 140.76924,213.93636 c -5.02389,-6.36185 -6.69018,-7.34954 -14.51666,-8.60471 -10.66792,-1.71086 -10.90441,-1.79564 -10.90441,-3.90916 0,-1.9225 -0.0534,-1.9263 -3.12,-0.22171 -4.48746,2.49439 -9.33069,6.72359 -8.57042,7.48386 0.35773,0.35773 0.21842,0.54466 -0.30958,0.41539 -0.528,-0.12926 -2.17612,0.26674 -3.662495,0.88001 -1.486372,0.61325 -4.402372,1.11502 -6.48,1.11502 -3.065829,0 -3.777504,-0.34224 -3.777504,-1.8166 0,-2.01588 10.353367,-12.08374 13.430879,-13.0605 1.07759,-0.34202 1.66839,-1.08813 1.31473,-1.66034 -0.37425,-0.60557 -0.19618,-0.76352 0.42675,-0.37853 0.58796,0.36338 3.24007,-0.0494 5.89358,-0.91735 3.62221,-1.18476 6.68236,-1.43244 12.27931,-0.99385 10.08181,0.79005 10.81475,0.90095 10.81475,1.63642 0,1.07336 5.21055,2.86681 7.22391,2.48645 1.04285,-0.19701 4.2721,-1.50093 7.1761,-2.89758 3.4316,-1.6504 6.89203,-2.54265 9.88481,-2.54874 l 4.60482,-0.01 -1.72482,2.30597 c -0.94864,1.26829 -1.90107,2.13604 -2.11648,1.92834 -0.72214,-0.69628 -2.95406,1.73212 -2.40641,2.61824 0.29744,0.48126 0.0111,0.75631 -0.63625,0.61124 -2.98104,-0.66809 -9.01537,14.43862 -7.04254,17.63072 0.43273,0.70018 0.27675,0.86457 -0.41481,0.43716 -0.65674,-0.40589 -1.10832,-0.0752 -1.10832,0.81167 0,2.80358 -2.43078,1.50564 -6.25894,-3.34204 z m 242.65759,-56.8413 c -0.52605,-0.66 -1.24461,-3.1933 -1.59681,-5.62954 -0.81127,-5.61183 -3.44906,-8.14051 -9.94499,-9.53365 -2.75927,-0.59175 -5.01685,-1.41812 -5.01685,-1.83636 0,-0.97294 -3.37864,-1.6744 -18.54821,-3.85093 -6.76953,-0.97128 -12.56553,-2.02326 -12.88001,-2.33775 -0.31448,-0.31448 2.84823,-0.56043 7.02822,-0.54657 7.37124,0.0245 7.92353,-0.13972 18.34876,-5.45458 5.91182,-3.01388 10.59529,-5.72812 10.4077,-6.03163 -0.64401,-1.04205 25.69713,-0.0504 26.98178,1.01572 1.59091,1.32035 0.68212,3.08561 -3.98544,7.74142 -1.94978,1.94487 -3.26336,3.99192 -2.91907,4.54899 0.37018,0.59897 0.0604,0.79583 -0.7581,0.48175 -0.76126,-0.29212 -2.49645,0.58122 -3.85599,1.94076 -2.37885,2.37885 -2.51541,4.19539 -0.51272,6.81999 1.21153,1.58775 2.10604,8.73447 1.43025,11.42705 -0.65719,2.61842 -2.61827,3.20288 -4.17852,1.24533 z M 167.66818,140.08294 c -3.54056,-0.46828 -3.86418,-0.7607 -4.14993,-3.74996 -0.17047,-1.78313 0.11879,-3.67079 0.64278,-4.19478 1.50139,-1.50139 8.71185,-2.50199 12.0194,-1.66794 1.65426,0.41715 4.21989,1.03068 5.70139,1.36338 2.49435,0.56016 2.67192,0.90445 2.4,4.65317 l -0.29364,4.04824 -6.24,0.0279 c -3.432,0.0154 -7.968,-0.20066 -10.08,-0.48 z m -13.2,-9.32964 c -1.63439,-0.42711 -2.40144,-2.20783 -0.96,-2.22863 0.396,-0.006 2.73767,-0.62273 5.20371,-1.37113 3.83758,-1.16465 4.55802,-1.16715 4.99921,-0.0174 1.18502,3.08808 -3.80092,5.03929 -9.24292,3.61715 z m 63.11881,-6.87142 c -1.05535,-0.18326 -2.35081,-0.75212 -2.87881,-1.26413 -0.62216,-0.60332 1.57382,-0.85801 6.24,-0.72372 7.97174,0.22945 9.86002,0.64364 9.03325,1.98139 -0.50646,0.81948 -7.69063,0.82322 -12.39444,0.007 z"
     id="path100"
     inkscape:connector-curvature="0" />
</svg>
