<?xml version="1.0" encoding="UTF-8" standalone="no"?>
<!-- Created with Inkscape (http://www.inkscape.org/) -->

<svg
   xmlns:dc="http://purl.org/dc/elements/1.1/"
   xmlns:cc="http://creativecommons.org/ns#"
   xmlns:rdf="http://www.w3.org/1999/02/22-rdf-syntax-ns#"
   xmlns:svg="http://www.w3.org/2000/svg"
   xmlns="http://www.w3.org/2000/svg"
   xmlns:sodipodi="http://sodipodi.sourceforge.net/DTD/sodipodi-0.dtd"
   xmlns:inkscape="http://www.inkscape.org/namespaces/inkscape"
   version="1.1"
   id="svg110"
   width="780.79999"
   height="643.20001"
   viewBox="0 0 780.79999 643.20001"
   sodipodi:docname="flower_thrower.svg"
   inkscape:version="0.92.4 (5da689c313, 2019-01-14)">
  <metadata
     id="metadata116">
    <rdf:RDF>
      <cc:Work
         rdf:about="">
        <dc:format>image/svg+xml</dc:format>
        <dc:type
           rdf:resource="http://purl.org/dc/dcmitype/StillImage" />
        <dc:title></dc:title>
      </cc:Work>
    </rdf:RDF>
  </metadata>
  <defs
     id="defs114" />
  <sodipodi:namedview
     pagecolor="#ffffff"
     bordercolor="#666666"
     borderopacity="1"
     objecttolerance="10"
     gridtolerance="10"
     guidetolerance="10"
     inkscape:pageopacity="0"
     inkscape:pageshadow="2"
     inkscape:window-width="640"
     inkscape:window-height="480"
     id="namedview112"
     showgrid="false"
     inkscape:zoom="0.48351989"
     inkscape:cx="390.39999"
     inkscape:cy="321.60001"
     inkscape:window-x="0"
     inkscape:window-y="0"
     inkscape:window-maximized="1"
     inkscape:current-layer="svg110" />
  <path
     style="fill:#000000;stroke-width:0.63999999"
     d="m 362.24,619.05968 c -7.85665,-1.34372 -20.58662,-5.78106 -22.59311,-7.87538 -0.94979,-0.99137 -1.72689,-2.11577 -1.72689,-2.49868 0,-0.45702 3.79257,-0.85307 11.04,-1.15287 9.5778,-0.39621 11.54858,-0.30679 14.88,0.67512 4.37733,1.29019 12.47836,1.40656 21.92531,0.31495 5.63442,-0.65106 6.10505,-0.60889 9.58594,0.85901 l 3.66062,1.54368 3.03278,-1.53683 c 3.94098,-1.99704 6.46402,-1.9925 8.04271,0.0145 1.17429,1.49287 1.62195,1.56866 11.8803,2.01151 l 10.66001,0.46019 1.63874,2.14849 1.63872,2.14848 h -3.35132 c -2.55107,0 -3.70196,0.32941 -4.81975,1.37952 -0.80763,0.75874 -2.84219,1.60557 -4.52125,1.88185 -5.24786,0.86352 -55.54132,0.55541 -60.97281,-0.37353 z m 266.87999,0.29604 c -27.18118,-0.63652 -39.90092,-1.68591 -43.68,-3.60362 -2.3605,-1.19785 -2.22364,-1.73678 0.78567,-3.09379 2.48736,-1.12164 3.8837,-3.18245 2.79791,-4.12935 -0.57025,-0.4973 -24.95817,-1.97751 -32.36883,-1.9646 -3.81313,0.007 -4.41832,0.18007 -5.29451,1.51731 -0.5441,0.8304 -0.81814,1.9558 -0.60897,2.50089 0.72264,1.88316 6.39285,3.65371 14.59674,4.5579 8.35884,0.92126 10.16104,1.41801 8.64032,2.38159 -1.38838,0.87973 -15.18656,0.63273 -19.84815,-0.35529 -3.94003,-0.8351 -8.83078,-3.23402 -9.80415,-4.80898 -0.22636,-0.36626 -1.42151,-0.66593 -2.65587,-0.66593 -4.96985,0 -6.64016,-2.62259 -6.64016,-10.42584 0,-6.7114 1.66224,-13.40452 4.9812,-20.05709 3.35172,-6.71822 3.4888,-7.52925 2.36344,-13.98253 -1.25465,-7.19469 -2.72654,-9.95935 -6.97216,-13.09577 -5.22242,-3.85804 -6.12389,-8.50307 -2.88306,-14.85563 1.1506,-2.25537 1.52393,-2.51724 3.3378,-2.34127 2.66192,0.25824 2.92684,1.72233 1.04043,5.7499 -1.14058,2.43519 -1.3309,3.50644 -0.86444,4.86548 0.84728,2.46853 5.48509,4.71991 9.23679,4.48391 l 2.88,-0.18116 -0.0899,-3.84 c -0.0494,-2.112 -0.30057,-5.33639 -0.55809,-7.16529 -0.62829,-4.46232 -0.2216,-5.70736 3.15737,-9.66592 3.55912,-4.16963 4.05365,-6.45321 2.6265,-12.12845 -1.08297,-4.30661 -1.36602,-5.51377 -4.51557,-19.25862 -1.57401,-6.86906 -1.62786,-7.67222 -1.00421,-14.97743 0.36245,-4.24554 0.5081,-7.96331 0.32368,-8.26173 -0.18443,-0.29841 -1.28169,-0.54256 -2.43837,-0.54256 -1.29024,0 -2.55074,-0.4947 -3.26142,-1.28 -0.63711,-0.704 -1.42928,-1.28 -1.76039,-1.28 -0.33111,0 -1.44896,-0.60308 -2.48411,-1.34017 -1.81457,-1.29209 -1.97751,-1.30199 -4.54189,-0.27593 -1.46289,0.58533 -3.46572,1.6381 -4.45073,2.3395 -0.98501,0.70138 -2.29762,1.24393 -2.9169,1.20565 -0.61929,-0.0383 -2.34998,-0.049 -3.84598,-0.0239 -3.36002,0.0565 -3.45099,-0.74299 -0.40228,-3.53551 2.07826,-1.9036 2.25369,-2.30928 1.69792,-3.92631 -0.3409,-0.99186 -0.49588,-2.16337 -0.34439,-2.60337 0.3863,-1.12206 2.91593,-0.99523 5.59077,0.28031 2.17514,1.03726 2.43749,1.02253 6.58171,-0.36933 2.37395,-0.79731 5.51896,-2.29404 6.98891,-3.32606 1.52197,-1.06856 3.92291,-2.04779 5.57663,-2.27446 1.59955,-0.21924 3.39028,-0.93536 3.98656,-1.59425 0.5954,-0.65791 1.71329,-1.1962 2.48417,-1.1962 3.49345,0 4.82593,-6.26617 2.84873,-13.39657 -0.80386,-2.89898 -0.96297,-4.50151 -0.52769,-5.31485 0.68767,-1.28492 1.83896,-0.95204 1.83896,0.5317 0,0.51961 0.41051,1.58262 0.91223,2.36223 1.10165,1.71185 5.04743,13.25109 6.50292,19.01749 1.05779,4.1908 1.69674,9.51021 2.76748,23.04 0.32036,4.048 1.17478,9.52 1.89872,12.16 0.72394,2.64 2.06561,7.536 2.98149,10.88 1.9878,7.25776 2.78463,17.78134 1.61476,21.32607 -0.46532,1.40993 -1.88605,3.25847 -3.55623,4.62705 -3.75268,3.07505 -4.29158,4.85673 -3.11984,10.31477 0.51623,2.40466 1.0731,5.0143 1.23749,5.7992 0.16439,0.7849 1.12199,2.26912 2.12801,3.29826 1.21548,1.24342 1.97485,2.84296 2.26351,4.76786 0.23891,1.59319 0.95872,3.56497 1.59958,4.38175 0.64086,0.81677 2.20209,3.64504 3.46941,6.28504 1.26731,2.64 3.53637,6.64546 5.04234,8.90102 4.57523,6.85253 5.14136,7.78909 4.87147,8.05897 -0.46666,0.46666 -7.23164,-3.12839 -8.08963,-4.29899 -1.5769,-2.15145 -4.76245,-1.45395 -9.40371,2.059 -4.57483,3.46267 -6.65029,3.93083 -9.9232,2.23834 l -1.85964,-0.96165 -3.51066,4.39997 c -1.93087,2.41999 -4.44777,6.1877 -5.59311,8.3727 -3.05319,5.82461 -2.83444,5.99541 8.47423,6.61701 12.69737,0.69792 30.20695,0.0768 32.59105,-1.15602 2.54984,-1.31857 4.01454,-1.19009 5.58174,0.48965 1.48533,1.59199 3.99959,7.51739 3.99959,9.42592 0,0.67019 0.23847,1.36592 0.52993,1.54605 1.68901,1.04387 16.31492,2.49986 32.75007,3.26023 18.08154,0.83655 27.55111,2.02477 28.51072,3.5775 0.39623,0.64106 -4.48441,0.63169 -34.27072,-0.0658 z m 51.84,0.19267 c 0,-0.13362 0.648,-1.37337 1.44,-2.75499 1.26247,-2.20229 1.87405,-2.60869 4.96,-3.29578 4.10279,-0.91349 19.4199,-0.8373 25.21082,0.1254 2.15008,0.35743 12.8318,0.94217 23.73728,1.29943 10.9054,0.35725 20.08768,0.90916 20.40492,1.22646 0.31732,0.31729 0.38791,1.06946 0.15693,1.67148 -0.36205,0.94347 -1.04979,1.04179 -4.98131,0.71218 -2.77478,-0.23262 -7.21824,-0.002 -11.34496,0.58857 -5.19629,0.74377 -8.95526,0.85297 -16.06368,0.46668 -5.104,-0.27737 -9.712,-0.43077 -10.24,-0.3409 -1.61235,0.27443 -33.28,0.56129 -33.28,0.30147 z m -243.2,-1.27862 c 0,-0.14849 0.73867,-1.53043 1.64148,-3.07096 1.76078,-3.00455 1.15758,-2.77438 10.03852,-3.83038 1.496,-0.17789 7.616,-0.0115 13.6,0.36972 5.984,0.38123 17.072,0.93986 24.64,1.24139 22.12025,0.88133 31.36,1.4353 31.36,1.88017 0,1.52389 -2.04886,1.95214 -9.33954,1.95214 -4.74031,0 -9.77743,0.41032 -12.832,1.04529 -4.08,0.84814 -6.59776,0.94627 -13.34846,0.52027 -4.576,-0.28876 -9.76,-0.49582 -11.52,-0.46013 -22.1575,0.44936 -34.24,0.57374 -34.24,0.35249 z m -274.58557,-1.20774 c -6.14198,-1.28398 -13.01343,-3.75577 -17.6518,-6.34969 L 141.44,608.42921 v -3.45091 c 0,-4.36914 0.99855,-5.06801 3.15664,-2.20929 2.49305,3.30243 4.52514,5.0481 8.04336,6.90966 3.11195,1.64659 3.50815,1.69277 14.4,1.67835 12.65307,-0.0168 19.16797,-0.61816 20.8983,-1.92915 1.02374,-0.77564 -0.76795,-0.89803 -13.4038,-0.91567 -13.54513,-0.0189 -14.77396,-0.1165 -17.22778,-1.36834 -3.61568,-1.84459 -8.7024,-7.21998 -10.51432,-11.11102 -1.69534,-3.6407 -1.84841,-4.86898 -0.7444,-5.97299 1.09186,-1.09187 1.48965,-0.98684 3.84973,1.01645 1.15625,0.98145 4.68341,2.88695 7.83813,4.23446 5.34117,2.28142 6.02245,2.42065 9.90055,2.02333 4.27465,-0.43795 8.33664,-1.90446 11.48543,-4.14659 1.0356,-0.73741 2.3364,-1.12736 3.0971,-0.92844 0.72135,0.18864 2.20918,-0.12121 3.3063,-0.68855 2.66368,-1.37744 2.77258,-4.1653 0.2349,-6.01387 l -1.75986,-1.28197 1.54109,-1.64041 c 0.84759,-0.90223 2.09616,-1.81659 2.77458,-2.03191 1.18601,-0.37642 1.17751,-0.4511 -0.22075,-1.93947 -0.89772,-0.95559 -1.22482,-1.77254 -0.85473,-2.13478 0.36673,-0.35894 3.41173,1.28459 7.84198,4.2327 3.98334,2.65072 7.40892,4.65301 7.6124,4.44954 0.79501,-0.79502 -1.94847,-6.25628 -3.88478,-7.73318 -1.1196,-0.85396 -2.70271,-2.45491 -3.518,-3.55766 -1.38536,-1.8738 -1.41321,-2.08141 -0.42553,-3.17278 0.6956,-0.76863 0.82383,-1.31181 0.37515,-1.5891 -0.37493,-0.23172 -0.68169,-1.12017 -0.68169,-1.97433 0,-1.2563 -0.73458,-1.92383 -3.84478,-3.49385 -3.66558,-1.85038 -3.91913,-1.89213 -5.44,-0.89561 -1.19536,0.78323 -1.59522,0.83733 -1.59522,0.2158 0,-1.26254 6.79182,-9.85657 9.30377,-11.77253 1.21966,-0.93028 2.66308,-2.55293 3.20758,-3.60589 0.54451,-1.05296 2.60694,-3.82049 4.58319,-6.15007 3.04123,-3.58498 3.63867,-4.70902 3.88931,-7.31755 0.19937,-2.07482 -0.0505,-3.81238 -0.76458,-5.31723 -1.02812,-2.16661 -1.01059,-2.3342 0.57079,-5.4549 0.89732,-1.77079 1.86665,-3.21961 2.15405,-3.21961 1.16491,0 1.25936,0.90534 0.33536,3.21463 -0.87446,2.18548 -0.87102,2.62528 0.0342,4.37574 0.55349,1.07034 1.00635,2.5011 1.00635,3.17948 0,2.4773 1.91574,3.09929 5.28,1.71428 1.59489,-0.65658 1.50485,2.49679 -0.16,5.60302 -1.58398,2.95538 -1.63956,5.35538 -0.14257,6.15655 0.90317,0.48336 1.96566,-0.0764 5.15878,-2.71784 2.21173,-1.82961 4.59125,-4.22669 5.28781,-5.32683 1.46921,-2.32046 5.2423,-4.03903 8.8676,-4.03903 2.29563,0 2.81774,-0.36008 6.22705,-4.2945 2.04673,-2.36198 4.57549,-5.02598 5.61946,-5.92 1.04397,-0.89403 3.05997,-2.90607 4.48,-4.4712 1.42003,-1.56513 4.66987,-5.01986 7.22187,-7.67718 2.552,-2.65731 4.64,-5.04792 4.64,-5.31246 0,-0.26453 0.96876,-1.5618 2.15279,-2.88282 2.68439,-2.99495 3.56973,-4.79944 5.82152,-11.8653 1.82421,-5.72416 1.75882,-7.61405 -0.17808,-5.14613 -1.19104,1.51757 -6.99834,5.32959 -8.1192,5.32959 -0.39181,0 -1.24335,-0.38826 -1.89233,-0.8628 -1.1263,-0.82358 -1.09232,-0.99086 0.74768,-3.68 1.0602,-1.54946 2.40816,-3.75443 2.99547,-4.89994 0.58732,-1.14549 2.16153,-2.80648 3.49824,-3.69107 1.33671,-0.8846 4.08204,-3.51926 6.10073,-5.85479 2.01869,-2.33553 4.76967,-5.04276 6.1133,-6.01608 1.34361,-0.97331 5.60156,-4.9686 9.46211,-8.87841 6.64864,-6.73348 7.45273,-7.3277 15.23217,-11.25653 4.51715,-2.28129 8.66584,-4.54578 9.2193,-5.03222 0.55347,-0.48644 2.75926,-1.76117 4.90176,-2.83273 2.1425,-1.07157 4.80154,-3.04791 5.90899,-4.39187 2.46534,-2.99184 2.56862,-3.09478 8.11556,-8.08931 2.464,-2.21862 5.488,-4.72305 6.72,-5.56542 4.03013,-2.75553 7.71308,-6.0212 9.79515,-8.68535 1.12467,-1.43908 3.77285,-4.05594 5.88485,-5.81525 2.112,-1.75931 5.96715,-5.27438 8.56702,-7.81126 2.59986,-2.53688 5.62386,-4.99768 6.72,-5.46843 1.09613,-0.47075 2.9526,-1.86434 4.12547,-3.09686 1.90545,-2.00235 2.04343,-2.38354 1.29602,-3.58034 -1.38628,-2.21979 0.0873,-2.96172 6.0434,-3.04268 4.25097,-0.0578 5.91687,-0.39099 8.76809,-1.75375 1.93599,-0.92532 4.14743,-1.68522 4.91428,-1.68866 0.76686,-0.003 1.85357,-0.46554 2.41492,-1.02689 1.30745,-1.30745 3.10198,-4.76152 2.68857,-5.17492 -0.17413,-0.17413 -2.50404,0.4384 -5.17758,1.36119 -4.69987,1.62217 -4.97055,1.64524 -8.16675,0.69607 -1.81817,-0.53994 -4.16074,-0.9817 -5.20571,-0.9817 -2.66958,0 -14.50773,-4.49467 -14.50773,-5.50824 0,-1.45416 4.52881,-2.16344 14.08,-2.20513 14.05941,-0.0614 22.97648,-0.86262 25.43595,-2.28557 1.14177,-0.66058 2.07777,-1.37084 2.08,-1.57833 0.0106,-0.98881 -3.71054,-1.86273 -7.93142,-1.86273 -5.35335,0 -8.52815,-1.55619 -9.64319,-4.72679 -0.5447,-1.54884 -0.4214,-1.9806 0.86245,-3.0202 1.28471,-1.0403 2.59317,-1.21301 9.18953,-1.21301 6.62091,0 8.38412,0.23452 12.66734,1.68488 5.05718,1.71243 6.90554,1.71609 9.22681,0.0183 1.1804,-0.86336 1.07659,-0.999 -1.93072,-2.52292 -1.74801,-0.88578 -4.32537,-1.91984 -5.72748,-2.2979 -2.82497,-0.76176 -6.70928,-3.938 -6.70928,-5.48629 0,-1.31447 1.7633,-1.26217 7.68,0.22778 10.50315,2.64493 12.50461,3.31861 14.8951,5.01359 5.20563,3.69106 7.20339,4.43614 13.08504,4.88014 4.37692,0.33042 6.34963,0.20106 8.49908,-0.55731 7.70214,-2.71747 15.24418,-3.60308 16.61527,-1.95102 1.65767,1.99737 0.50031,3.10794 -4.77566,4.58262 -2.81535,0.78692 -6.01956,1.45266 -7.12046,1.47944 -2.20328,0.0536 -4.008,1.54109 -2.78603,2.29631 0.39297,0.24287 3.93495,0.62851 7.87108,0.85698 l 7.15658,0.4154 0.20249,1.75968 c 0.27314,2.37386 -1.31073,2.90999 -10.19017,3.44929 -8.0335,0.48792 -7.74309,0.25917 -8.47125,6.67237 -0.43936,3.86966 -0.15602,4.61444 4.85266,12.75522 1.31655,2.13983 2.58769,4.66343 2.82476,5.608 0.75398,3.00409 2.89367,6.22484 11.94257,17.97645 0.99058,1.28644 2.55358,3.12798 3.47334,4.09231 3.13015,3.28183 0.85123,2.60305 -3.19895,-0.95281 -5.39919,-4.74023 -19.41699,-18.92802 -20.82325,-21.07577 -0.61769,-0.94339 -3.36992,-4.18347 -6.11605,-7.20018 -4.32335,-4.74931 -5.34655,-5.54146 -7.62923,-5.90648 -1.81514,-0.29025 -3.49156,-1.20995 -5.38231,-2.95278 -2.50001,-2.30443 -2.96194,-2.49172 -5.15534,-2.09022 -1.32509,0.24256 -5.00127,1.66394 -8.16927,3.15862 -4.5264,2.13558 -6.92506,3.81965 -11.2,7.86341 -2.992,2.8302 -7.22202,6.55366 -9.40006,8.27435 -2.17804,1.7207 -8.34158,6.58454 -13.69676,10.80854 -5.35519,4.224 -11.91347,9.408 -14.57398,11.52 -3.00207,2.38315 -8.36784,8.00212 -14.14324,14.81062 -9.50131,11.20094 -12.46572,14.49435 -22.68793,25.20594 -7.1159,7.45658 -12.14677,13.25231 -15.54072,17.90344 -1.41271,1.936 -5.22034,6.112 -8.46139,9.28 -3.24105,3.168 -6.76551,7.00167 -7.83214,8.51927 -1.06662,1.5176 -4.65939,5.5496 -7.98395,8.96 -3.32455,3.4104 -6.94232,7.78473 -8.03948,9.72073 -2.6676,4.70708 -3.83555,5.92666 -9.51995,9.94085 -2.66178,1.87969 -7.73982,6.42872 -11.28452,10.10896 -5.3522,5.55684 -6.39359,6.95985 -6.14218,8.27499 0.44535,2.3297 -2.81698,11.58717 -4.7104,13.36662 -1.44697,1.35989 -2.34453,1.54012 -9.10671,1.82858 -8.75798,0.3736 -10.35873,1.08449 -11.68599,5.18978 -0.47883,1.48103 -1.30259,2.88848 -1.83059,3.12767 -4.06609,1.84197 -6.03881,3.01974 -6.43611,3.84255 -0.25495,0.528 -1.35912,2.49113 -2.45372,4.36253 -1.6054,2.74469 -1.99017,4.11828 -1.99017,7.10468 0,2.72579 -0.42452,4.50056 -1.60971,6.72958 -3.28481,6.1779 -3.55371,17.11783 -0.49052,19.95669 1.64623,1.52568 2.05466,3.41099 1.24937,5.76719 -0.58944,1.72464 1.12013,2.26728 5.65086,1.79365 1.80251,-0.18844 3.61924,-0.0377 4.16,0.34519 0.81292,0.57558 0.64945,0.96376 -1.067,2.53372 -2.78789,2.54996 -7.81835,3.51829 -15.573,2.99769 -6.01921,-0.40409 -12.6615,0.0227 -28.16,1.80912 -12.89927,1.48687 -14.18909,1.52921 -18.58558,0.61014 z M 309.92,609.94887 c -3.39728,-0.42159 -2.45783,-1.94688 2.08,-3.37702 1.408,-0.44375 2.91493,-1.08834 3.34874,-1.43243 0.55757,-0.44225 1.72991,0.16238 4,2.063 1.76619,1.47874 3.21126,2.8058 3.21126,2.94903 0,0.31509 -9.72448,0.15924 -12.64,-0.20258 z m 330.50668,0.0363 c -0.23469,-0.23464 -0.42669,-0.91001 -0.42669,-1.50079 0,-0.59077 -0.504,-1.51584 -1.12,-2.05571 -1.93458,-1.69548 -20.07549,-10.48525 -22.56,-10.93094 -0.88,-0.15786 -2.66247,-0.7513 -3.96105,-1.31876 -2.35968,-1.03114 -2.36273,-1.03045 -5.28553,1.20058 -3.10154,2.36745 -4.16186,2.63675 -6.16363,1.56544 -0.98057,-0.52479 -1.10869,-0.92354 -0.60136,-1.87151 0.55285,-1.03301 0.32635,-1.30968 -1.58997,-1.94213 -1.22907,-0.40563 -3.37548,-1.65145 -4.7698,-2.7685 -1.39433,-1.11705 -3.19519,-2.52217 -4.0019,-3.12249 l -1.46676,-1.09149 1.82372,-0.0285 c 1.00304,-0.0157 4.17104,1.00849 7.04,2.27592 4.36934,1.93026 6.25542,2.37833 11.61628,2.75963 3.52,0.25035 7.12,0.85916 8,1.35289 0.88,0.49374 1.78218,0.90791 2.00485,0.92037 0.39945,0.0224 2.93898,1.16946 15.68815,7.08619 6.97868,3.23873 8.18233,4.51971 7.49171,7.97302 -0.3792,1.89603 -0.88135,2.3335 -1.71802,1.49681 z M 303.04,609.35209 c -7.15432,-0.84948 -16.15648,-3.22504 -15.27958,-4.03209 0.30777,-0.28324 4.34145,-0.71051 8.96375,-0.94949 l 8.40417,-0.43449 0.71583,2.05342 c 0.93153,2.67218 0.90566,3.80516 -0.0842,3.68652 -0.44,-0.0527 -1.664,-0.19848 -2.72,-0.32387 z M 154.88,583.19601 c 0,-1.85239 1.93641,-2.86416 5.48166,-2.86416 1.53689,0 2.19834,0.29168 2.19834,0.96941 0,1.29783 -3.7249,3.50521 -5.92,3.5082 -1.4559,0.002 -1.76,-0.2768 -1.76,-1.61345 z m 15.36,-7.28334 c 0,-0.33571 1.78103,-2.43073 3.95786,-4.6556 3.64549,-3.72596 3.978,-3.92644 4.21304,-2.54013 0.3542,2.08914 -0.3566,4.57491 -1.30819,4.57491 -0.43609,0 -2.1586,0.72702 -3.82781,1.6156 -1.66919,0.88859 -3.0349,1.34094 -3.0349,1.00522 z m 343.53242,-77.02082 c -0.56773,-0.44 -1.7944,-2.63794 -2.72593,-4.88432 -1.59401,-3.84391 -1.65149,-4.33461 -0.97645,-8.33667 1.0147,-6.01583 1.46805,-6.56017 3.65096,-4.3837 1.73083,1.72571 1.74196,1.78672 0.65976,3.61874 -1.50337,2.54499 -1.38382,4.92154 0.49923,9.92436 0.88,2.33795 1.6,4.38823 1.6,4.5562 0,0.60044 -1.69392,0.291 -2.70757,-0.49461 z m -3.2598,-23.43688 c -0.20206,-1.01028 -2.77606,-5.54628 -5.71999,-10.08 -2.94395,-4.53372 -6.85952,-10.86745 -8.7013,-14.07496 -1.84177,-3.20751 -4.67709,-7.38351 -6.30072,-9.28 -3.11583,-3.63947 -5.64301,-8.47257 -4.98606,-9.53554 0.59652,-0.96519 2.40613,-0.7303 3.86444,0.50161 2.01914,1.70567 5.7587,6.61521 7.70089,10.11023 3.54686,6.38272 4.71553,7.92863 5.70637,7.54841 0.53006,-0.2034 0.96374,-0.627 0.96374,-0.94135 0,-0.31433 0.40852,-0.57152 0.90781,-0.57152 1.27451,0 3.36126,3.61164 4.26295,7.37811 1.33807,5.58929 1.91043,6.70189 3.44769,6.70189 0.78274,0 1.9318,0.56203 2.55346,1.24896 1.0147,1.12122 1.05346,1.69398 0.37904,5.6 -1.099,6.36498 -3.30153,9.27814 -4.07832,5.39416 z M 238.72,472.30579 c 0,-0.67189 1.60124,-3.87773 3.55833,-7.12409 3.05315,-5.06449 3.68346,-6.67545 4.43968,-11.34697 0.95907,-5.92459 2.22762,-8.54288 4.13897,-8.54288 2.00313,0 2.10476,1.09608 0.37525,4.04726 -2.04213,3.48463 -2.03663,4.31475 0.0522,7.87901 1.41364,2.4122 1.57015,3.12493 0.97372,4.43396 -0.74952,1.64502 -2.27344,2.05996 -3.03572,0.82657 -0.2854,-0.46179 -0.83243,-0.01 -1.47777,1.2211 -0.94757,1.80734 -6.92291,8.52871 -8.38586,9.43286 -0.35131,0.21713 -0.63876,-0.15495 -0.63876,-0.82682 z m 314.61688,-44.34305 c -0.91129,-1.083 -1.65689,-2.44851 -1.65689,-3.03446 0,-0.58594 -0.9598,-2.50784 -2.13289,-4.27089 -8.21264,-12.34282 -11.60715,-19.87973 -18.30611,-40.64554 -4.22587,-13.09959 -12.83208,-25.18434 -21.14913,-29.69739 -3.05094,-1.65553 -4.30809,-1.9111 -11.56721,-2.35157 -6.32781,-0.38397 -9.05202,-0.84964 -12.21445,-2.08791 -2.23861,-0.87654 -5.01977,-1.7882 -6.18036,-2.0259 -1.2296,-0.25184 -3.93955,-2.0106 -6.49411,-4.21471 -2.41117,-2.08039 -4.5576,-3.78252 -4.76984,-3.78252 -0.21224,0 -0.3859,0.5184 -0.3859,1.152 0,1.57002 -1.24078,2.688 -2.98327,2.688 -0.796,0 -3.8344,-1.6273 -6.752,-3.61622 -6.91102,-4.71122 -8.99591,-5.55052 -13.52583,-5.44502 -4.64845,0.10828 -11.94805,-1.3652 -17.93762,-3.62081 -3.81462,-1.43655 -5.66131,-1.72935 -11.28128,-1.78866 -7.62156,-0.0804 -13.25921,-0.88435 -16.87815,-2.40677 -1.36299,-0.57339 -3.66699,-1.02742 -5.12,-1.00896 -2.58806,0.0329 -2.61253,0.054 -1.20185,1.03806 1.94308,1.35543 1.814,2.64683 -0.32,3.20122 -3.01329,0.78282 -13.16126,0.57139 -14.71999,-0.30669 -1.79933,-1.0136 -1.87597,-3.37323 -0.16,-4.92615 1.81019,-1.63821 1.61184,-2.06057 -1.12,-2.38487 -2.80211,-0.33264 -6.34005,0.51329 -13.34637,3.19112 -2.7795,1.06234 -7.21363,2.30002 -9.85363,2.7504 -4.09014,0.69778 -5.20015,1.18155 -7.50571,3.27111 -2.21262,2.00536 -3.20398,2.4612 -5.44,2.50142 -4.78999,0.0862 -7.69801,1.3089 -8.27412,3.47901 -0.28137,1.05989 -2.29724,3.66557 -4.52385,5.84747 -3.72112,3.6464 -5.90251,6.02754 -11.63659,12.70217 -1.20857,1.40681 -2.38559,2.36964 -2.61559,2.13964 -0.56217,-0.56216 6.82434,-13.52313 9.3393,-16.38751 1.98808,-2.2643 1.99833,-2.31308 1.70077,-8.094 -0.28205,-5.47945 -0.51177,-6.26034 -3.97013,-13.49597 -2.01892,-4.224 -4.53318,-9.984 -5.58726,-12.8 l -1.9165,-5.12 0.40064,-11.8659 0.40063,-11.86591 -3.25053,-6.34612 c -4.393,-8.57657 -5.59504,-10.01937 -9.52474,-11.43247 -3.88549,-1.3972 -4.58628,-2.27647 -7.18795,-9.01853 -3.83251,-9.93174 -8.71235,-18.27107 -10.6915,-18.27107 -1.30391,0 -4.17732,2.94043 -6.55975,6.71274 -1.44988,2.29572 -3.6824,4.78099 -5.24139,5.83479 -1.49365,1.00963 -4.67422,3.3753 -7.06794,5.25704 -2.39371,1.88174 -6.11414,4.41725 -8.26762,5.63447 -2.15348,1.21721 -5.40117,3.75943 -7.21711,5.64938 -3.88381,4.04211 -6.95074,5.19156 -16.32306,6.11773 -9.42842,0.93172 -13.17851,0.79327 -15.88283,-0.58636 -2.86726,-1.46277 -25.60269,-7.09979 -28.63513,-7.09979 -2.84296,0 -9.52529,-5.41623 -10.07531,-8.16634 -0.32507,-1.62534 -0.94417,-2.08063 -4.73037,-3.47872 -2.97948,-1.1002 -4.48106,-1.38522 -4.75089,-0.90178 -0.21699,0.38876 -0.57734,2.77703 -0.80079,5.30725 -0.55981,6.33912 -2.03839,9.80761 -3.73412,8.75959 -0.28081,-0.17354 -0.52535,-3.39454 -0.54343,-7.15777 -0.018,-3.76322 -0.26833,-8.71423 -0.55612,-11.00223 -0.79559,-6.32511 -3.79165,-22.523 -5.59617,-30.25512 -1.57163,-6.73423 -1.68998,-6.97465 -5.07201,-10.30311 -1.90456,-1.87439 -3.46283,-3.84832 -3.46283,-4.38651 0,-1.05752 1.25012,-2.28501 3.42825,-3.36618 0.99486,-0.49382 1.56999,-1.68046 2.09329,-4.31897 1.40922,-7.10538 2.50573,-7.31848 3.20556,-0.62298 0.28,2.67899 0.90602,4.63657 1.92398,6.01632 1.67223,2.26659 1.88459,4.95196 0.62286,7.87655 -0.75238,1.74395 -0.68144,2.11419 0.7736,4.03773 0.88106,1.16475 2.45837,2.56061 3.50512,3.10191 1.04676,0.5413 2.55249,1.68477 3.34606,2.54105 1.32274,1.42726 1.67506,1.50333 4.23207,0.91373 8.98175,-2.07099 14.57207,0.81244 22.71342,11.71534 6.79415,9.09872 6.86378,9.22748 7.15296,13.22526 0.18685,2.58317 0.57413,3.86122 1.24845,4.11998 1.47343,0.56541 1.62926,0.0183 0.57533,-2.01978 -1.13776,-2.20018 -0.53703,-9.57239 0.84986,-10.42954 1.64118,-1.0143 4.87516,1.08858 11.84919,7.70488 5.01752,4.76017 8.89906,6.57659 16.55997,7.74945 6.69155,1.02445 9.12295,0.19509 12.58549,-4.29301 1.59915,-2.0728 2.49329,-3.77272 2.15422,-4.09555 -0.31883,-0.30355 -4.24599,-2.05489 -8.72703,-3.89187 -4.48104,-1.83698 -8.65704,-3.71827 -9.28,-4.18065 -1.00703,-0.74745 -1.02618,-0.94771 -0.17265,-1.80557 0.528,-0.53068 2.3131,-1.32403 3.96688,-1.763 2.87689,-0.76362 3.17823,-0.70975 6.9699,1.24576 2.17966,1.12413 4.57847,2.04388 5.33071,2.04388 0.75223,0 1.93578,0.39437 2.6301,0.87637 1.61742,1.12283 11.9123,1.09515 12.28812,-0.033 0.13864,-0.41617 -0.32682,-1.06648 -1.03434,-1.44513 -0.98127,-0.52515 -1.82356,-0.43232 -3.55085,0.39137 -1.24545,0.59391 -2.43725,0.90704 -2.64845,0.69584 -0.6118,-0.6118 -1.48171,-5.0441 -1.15637,-5.89191 0.16277,-0.42416 2.26598,-1.72424 4.67381,-2.88907 4.16174,-2.01334 8.37049,-5.22511 8.37049,-6.38768 0,-0.77687 -3.73365,-5.55649 -6.74437,-8.6338 -3.19623,-3.26691 -8.65431,-5.48297 -13.50436,-5.48297 -4.13716,0 -7.27127,1.39892 -7.27127,3.24553 0,1.99737 2.80658,4.35644 5.74112,4.82569 2.84098,0.45429 3.14491,1.5862 0.60658,2.25903 -6.78274,1.79789 -18.16203,4.30875 -18.40884,4.06195 -0.46523,-0.46523 1.78168,-2.73422 5.17249,-5.2233 1.67985,-1.23312 2.87987,-2.52421 2.66672,-2.8691 -0.21315,-0.34488 -0.78119,-0.476 -1.26232,-0.29138 -2.07417,0.79594 -1.34442,-0.97589 1.29154,-3.13586 1.57425,-1.28998 3.05168,-2.96803 3.28319,-3.72899 0.64947,-2.13482 2.16797,-3.55414 5.27108,-4.92679 3.6997,-1.63655 5.09791,-1.58582 9.45983,0.34322 1.98983,0.88 4.37404,1.61264 5.29824,1.62809 0.9242,0.0154 2.76037,0.41352 4.08037,0.88459 3.00764,1.07334 3.07219,0.30517 0.16095,-1.91534 -1.23147,-0.93929 -3.39428,-3.47395 -4.80623,-5.63257 -2.31394,-3.53761 -2.46304,-4.00132 -1.51142,-4.70079 0.8576,-0.63036 1.35547,-0.54027 2.65254,0.48 0.87822,0.69081 2.13847,1.25602 2.80055,1.25602 2.84955,0 6.28501,1.61001 6.9714,3.26711 0.38384,0.92667 1.66381,2.62105 2.84437,3.7653 l 2.14649,2.08045 0.45097,-3.00733 c 0.24804,-1.65403 0.81769,-3.14805 1.26589,-3.32004 1.1046,-0.42387 7.38846,2.77113 8.80873,4.47876 0.62934,0.75666 1.59661,2.45575 2.14949,3.77575 0.55289,1.32 1.35731,2.4 1.78761,2.4 0.4303,0 1.16769,0.72 1.63866,1.6 0.59519,1.11213 1.39379,1.6 2.61904,1.6 2.2501,0 5.42148,2.65625 6.39904,5.35963 0.88674,2.45226 3.53228,4.42289 8.33647,6.20977 3.01264,1.12052 4.65136,1.25231 13.04545,1.04911 8.22042,-0.19901 9.62871,-0.38128 9.7998,-1.26844 0.34967,-1.81319 -3.31512,-3.17274 -7.23294,-2.68323 -4.45638,0.55679 -7.72749,-0.51015 -8.97799,-2.92836 -1.68775,-3.26373 -1.31818,-4.04113 1.69226,-3.55974 1.45262,0.23228 3.2447,0.8451 3.98241,1.3618 2.24571,1.57296 5.39178,1.18259 7.50568,-0.93131 1.02893,-1.02892 1.87078,-2.35573 1.87078,-2.94847 0,-0.7777 0.31177,-0.94764 1.12,-0.61048 0.616,0.25697 2.28867,0.70075 3.71705,0.98617 1.42837,0.28542 3.36845,0.87043 4.31128,1.30001 1.5064,0.68637 2.24527,0.5363 6.094,-1.2377 2.40887,-1.11032 4.92289,-2.01876 5.58673,-2.01876 0.66383,0 2.57312,1.34562 4.24287,2.99026 l 3.03591,2.99026 0.66608,-1.75193 c 0.36634,-0.96355 0.66608,-4.00635 0.66608,-6.76178 0,-5.68243 -0.0925,-5.78681 -5.12663,-5.78681 -4.47106,0 -5.20221,-0.96714 -4.752,-6.28591 0.34119,-4.03084 0.23943,-4.47332 -1.78813,-7.77477 -2.7637,-4.50009 -4.84824,-5.67688 -10.97303,-6.19461 -2.70764,-0.22888 -5.07436,-0.66107 -5.25937,-0.96043 -0.18501,-0.29935 -1.34114,-0.54428 -2.56918,-0.54428 -1.55145,0 -2.6792,-0.48169 -3.6957,-1.57852 -1.11445,-1.2025 -1.64075,-1.40069 -2.20944,-0.832 -0.95982,0.95982 -0.95487,2.58618 0.0108,3.55185 0.41654,0.41654 0.58731,0.92738 0.37948,1.1352 -0.6035,0.6035 -4.23306,-1.52681 -4.98035,-2.92315 -0.37483,-0.70036 -0.96649,-1.27338 -1.31482,-1.27338 -0.97565,0 -2.06836,3.20457 -2.18232,6.4 -0.10082,2.82723 -0.14298,2.88063 -2.30101,2.91416 -2.7653,0.0429 -8.23407,2.06372 -9.74325,3.6002 -0.62971,0.64111 -1.49524,1.16564 -1.92339,1.16564 -0.83441,0 -2.13204,-3.20389 -2.98093,-7.36 -0.70676,-3.46025 -3.083,-10.32139 -4.61399,-13.32237 -1.48319,-2.90729 -1.79544,-9.481 -0.52317,-11.01399 1.43943,-1.73441 3.37118,-0.87484 4.35171,1.93636 1.91212,5.4821 2.2494,6.14986 3.42356,6.77826 0.81725,0.43737 1.88542,0.4389 3.27223,0.004 1.13241,-0.35456 3.85575,-0.98446 6.0519,-1.39976 2.19613,-0.4153 4.3276,-1.15829 4.73659,-1.6511 1.09963,-1.32497 -0.33783,-10.66433 -2.00086,-12.99983 -0.70879,-0.99522 -1.28871,-1.98118 -1.28871,-2.19084 0,-0.90429 2.35186,-0.256 4.51858,1.24553 2.14956,1.48965 2.7075,1.58984 6.62042,1.18896 l 4.27305,-0.43779 -1.22937,-1.34895 c -0.67616,-0.74193 -1.81278,-2.69232 -2.52583,-4.33423 -0.71305,-1.64189 -1.95789,-3.33925 -2.76631,-3.7719 -0.80843,-0.43266 -2.36421,-1.68129 -3.45732,-2.77474 -1.0931,-1.09344 -2.97875,-2.85216 -4.19034,-3.90825 -1.21159,-1.05609 -2.84224,-2.78409 -3.62369,-3.84 l -1.42081,-1.91984 -1.35497,1.7633 c -1.59438,2.07485 -2.52341,1.77348 -2.52341,-0.81855 0,-1.17955 -0.44989,-2.10049 -1.2301,-2.51804 -1.59833,-0.8554 -3.2499,-2.51842 -3.2499,-3.27242 0,-0.94857 1.58229,-0.69716 4.90693,0.77966 1.70119,0.75568 4.38907,1.58243 5.97307,1.83723 1.584,0.2548 4.7147,0.95806 6.95711,1.56281 4.5994,1.24039 6.73245,1.01951 11.73443,-1.21508 l 3.38846,-1.51377 -1.92,-0.78132 c -1.056,-0.42972 -4.944,-1.00237 -8.64,-1.27255 -5.21863,-0.38148 -7.79241,-0.92514 -11.52,-2.43335 -6.9791,-2.82381 -8.10704,-5.13127 -1.93624,-3.961 5.72507,1.08574 11.13009,0.82677 12.97124,-0.62148 0.8842,-0.69551 1.75366,-1.82295 1.93213,-2.50544 0.30451,-1.16444 0.18124,-1.19062 -2.00132,-0.42495 -2.95828,1.0378 -9.45143,1.85535 -10.34574,1.30263 -1.11254,-0.68758 0.53301,-2.14416 3.24837,-2.87534 4.18768,-1.12762 17.26633,-10.830283 19.60432,-14.543843 0.61237,-0.97268 1.98952,-2.5488 3.06032,-3.50249 l 1.94692,-1.73399 -3.04,-0.026 c -2.51881,-0.0216 -3.04,-0.22846 -3.04,-1.20682 0,-0.64945 0.576,-1.70208 1.28,-2.33919 0.704,-0.63712 1.28,-1.38859 1.28,-1.66996 0,-0.28136 -1.944,-0.59672 -4.32,-0.7008 -6.75073,-0.29573 -5.73647,-1.53079 3.68,-4.48113 4.4,-1.37859 10.592,-3.34013 13.76,-4.35897 8.47918,-2.72696 20.76101,-5.749169 23.3637,-5.749169 1.24932,0 2.94076,0.468774 3.75875,1.041722 1.35234,0.947207 1.4717,1.455277 1.31564,5.599997 -0.29538,7.84505 -0.0831,9.2915 1.61282,10.98737 1.34962,1.34963 2.16423,1.57091 5.78303,1.57091 4.9794,0 20.6585,-2.59233 28.80605,-4.76269 3.168,-0.8439 7.488,-1.86393 9.6,-2.26672 2.112,-0.4028 6,-1.41389 8.64,-2.24688 2.64,-0.83298 5.808,-1.71432 7.04,-1.95853 1.232,-0.24421 3.83127,-1.24375 5.77615,-2.2212 1.94488,-0.97745 4.82006,-2.12289 6.38928,-2.54544 1.56923,-0.42255 4.25457,-1.47843 5.96744,-2.346405 1.71287,-0.867974 5.21377,-1.979833 7.77979,-2.470793 2.56601,-0.49096 6.2094,-1.499828 8.09641,-2.24193 7.99854,-3.145567 10.77584,-3.96403 16.23093,-4.78321 11.39412,-1.711031 16.68103,-2.762425 19.07367,-3.793134 1.33853,-0.57661 4.93853,-1.584601 8,-2.239979 3.06149,-0.655379 7.8444,-1.797183 10.62871,-2.537343 4.07974,-1.084527 6.93699,-1.345762 14.72,-1.345832 8.4853,-7.6e-5 10.27913,-0.193132 14.77762,-1.590396 2.8824,-0.895293 6.71008,-1.594507 8.75834,-1.599913 2.00109,-0.0053 4.44909,-0.325532 5.44,-0.711666 0.99092,-0.386134 4.80246,-1.250134 8.47009,-1.92 13.56133,-2.476876 15.82498,-1.301307 11.26796,5.851718 -2.18891,3.435852 -2.22388,3.600527 -2.24,10.54794 -0.0184,7.91507 0.59563,9.548119 3.82441,10.171733 1.05556,0.20387 2.73168,0.52624 3.72471,0.71638 0.99304,0.19014 2.67454,1.12614 3.73669,2.08 5.63972,5.06477 9.22524,7.32579 12.8578,8.10806 2.1621,0.46562 2.69544,1.25312 1.22961,1.81561 -1.12411,0.43136 -6.57451,-0.58011 -9.38961,-1.7425 -3.69581,-1.52605 -12.34561,-2.45857 -15.33598,-1.65335 -1.92987,0.51967 -3.57168,0.49265 -6.47243,-0.10649 -3.46058,-0.71477 -4.21468,-0.67338 -6.87911,0.37758 -13.52098,5.33317 -16.81197,6.11921 -28.39404,6.78183 -11.37163,0.65058 -16.61535,1.59746 -20.8717,3.7689 -12.30129,6.27565 -39.30598,35.599673 -46.9205,50.950313 -1.72148,3.47045 -3.07576,7.6039 -4.19378,12.8 -1.53831,7.14945 -1.65636,8.9 -1.72604,25.59434 -0.0808,19.36679 0.31263,23.66622 3.46746,37.88812 1.89801,8.5562 4.6001,16.32736 7.29904,20.99188 0.81468,1.408 2.12287,3.712 2.90708,5.12 8.74938,15.70882 14.04958,23.65376 19.94369,29.89531 5.94482,6.29525 8.01021,9.33086 7.41101,10.89234 -0.23838,0.62122 -1.69191,1.10473 -4.16074,1.38405 -3.26094,0.36893 -4.3932,0.88912 -8.05415,3.70024 -2.3429,1.79903 -4.25981,3.47511 -4.25981,3.72462 0,0.54038 4.74644,7.91426 8.14414,12.65242 1.32872,1.85294 2.84786,4.15717 3.37586,5.12051 0.528,0.96335 1.73812,3.07491 2.68916,4.69236 0.95104,1.61745 3.32054,7.00952 5.26556,11.98237 1.94501,4.97285 4.72533,11.56925 6.17849,14.65867 1.45315,3.08941 3.35215,7.48912 4.22,9.77712 0.86785,2.288 2.26293,5.744 3.10019,7.68 0.83725,1.936 3.72269,9.136 6.41209,16 2.68941,6.864 6.48796,16.512 8.44123,21.44 1.95328,4.928 4.64009,11.84 5.97069,15.36 1.33061,3.52 3.73853,9.82805 5.35094,14.01788 1.61241,4.18985 2.93165,7.71785 2.93165,7.84 0,0.79999 -1.41867,-0.0779 -2.82311,-1.74699 z M 266.24,427.58788 c 0,-0.67176 3.91934,-6.77344 5.48301,-8.53603 0.78069,-0.88 2.14792,-3.0581 3.03829,-4.8402 2.85813,-5.72069 5.13022,-6.36346 3.74416,-1.05923 -0.94201,3.60497 -5.87917,11.11659 -8.74157,13.29985 -1.97929,1.50968 -3.52389,2.00744 -3.52389,1.13561 z m 16.64,-27.38563 c 0,-1.48706 4.65748,-9.92191 9.98722,-18.08718 14.90115,-22.82891 15.18549,-23.22384 16.07803,-22.3313 0.72393,0.72393 -3.12725,9.30347 -7.16508,15.96214 -3.71639,6.1286 -11.27313,17.07852 -15.863,22.98594 -1.95305,2.51367 -3.03717,3.03853 -3.03717,1.4704 z M 142.72,345.08581 c 0,-0.20132 0.75122,-1.6479 1.66939,-3.21462 1.51923,-2.59239 1.68387,-3.55243 1.83049,-10.67397 0.17898,-8.69284 1.22724,-18.99403 2.5941,-25.49182 1.06184,-5.04782 0.39048,-10.80928 -1.76297,-15.12943 -1.24071,-2.48903 -1.29088,-3.05723 -0.60078,-6.80257 1.29197,-7.01178 1.61018,-13.56522 0.84892,-17.48371 -0.39724,-2.04482 -1.13518,-6.89141 -1.63987,-10.7702 -0.58729,-4.51375 -1.68463,-9.12132 -3.04844,-12.8 -1.86375,-5.02721 -2.65502,-6.2725 -6.31276,-9.93494 -2.30006,-2.303 -4.8489,-5.12397 -5.6641,-6.26882 -0.85422,-1.19963 -2.24971,-2.23503 -3.29376,-2.44384 -3.84863,-0.76973 -5.81657,-4.34571 -4.59033,-8.34118 0.66195,-2.15683 0.57646,-2.34062 -2.79352,-6.00633 -2.74789,-2.989 -3.47211,-4.21845 -3.45602,-5.86698 0.0255,-2.60846 0.74035,-3.5023 4.92444,-6.15716 l 3.34479,-2.12231 -0.97621,-2.34305 c -0.53692,-1.28867 -2.78049,-3.97359 -4.9857,-5.9665 -4.3197,-3.90379 -7.7986,-8.07894 -7.21664,-8.6609 0.45812,-0.45812 6.232,3.22574 7.83639,4.99978 0.66692,0.73743 2.22058,1.8609 3.45258,2.4966 2.96477,1.52979 6.05506,4.90863 6.95417,7.60348 0.3992,1.19654 0.72583,4.43654 0.72583,7.2 v 5.0245 h 1.94909 c 4.20579,0 6.84919,5.89005 3.81091,8.4915 -1.83025,1.56711 -1.60922,2.08726 1.25115,2.94425 3.32508,0.99622 6.42885,3.64905 6.42885,5.49483 0,0.80124 -0.5841,2.19936 -1.29799,3.10693 l -1.29799,1.65012 1.75944,5.21231 c 1.89928,5.6266 5.91325,11.18792 13.61256,18.86006 3.63649,3.62367 3.83156,3.97262 3.4625,6.19407 -0.29346,1.76641 -0.0753,2.8049 0.87394,4.16 0.69577,0.99327 1.42736,2.23793 1.62576,2.76593 0.23945,0.63725 0.37771,0.47586 0.41125,-0.48 0.0622,-1.77239 1.68,-1.89871 2.58801,-0.20207 0.36439,0.68086 0.66252,4.41081 0.66252,8.28878 0,4.20266 0.38779,8.53967 0.96,10.73653 1.10512,4.24284 1.1858,5.33676 0.3936,5.33676 -1.16508,0 -2.78746,-3.49934 -4.25568,-9.17919 l -1.51499,-5.86081 10e-4,4.48 c 6.4e-4,2.464 0.21785,6.42685 0.4824,8.80631 0.601,5.40553 0.007,6.56529 -2.12755,4.15369 -0.85678,-0.968 -1.7156,-1.76 -1.90848,-1.76 -0.19289,0 -0.3507,4.608 -0.3507,10.24 0,8.48916 -0.15769,10.24 -0.92223,10.24 -1.5981,0 -1.91011,-1.40989 -1.8407,-8.3177 l 0.0676,-6.7223 -0.91493,6.4 c -0.50322,3.52 -1.47157,9.568 -2.1519,13.44 -2.64197,15.03708 -3.19767,19.02152 -3.19767,22.92873 0,3.3828 -0.23668,4.26372 -1.44,5.35974 -2.14205,1.95102 -4.96,3.30631 -4.96,2.3855 z M 226.56111,238.05337 C 224.86043,235.99234 220.8,226.92643 220.8,225.19026 c 0,-0.34258 0.3114,-0.81533 0.692,-1.05056 0.82295,-0.50861 3.63431,2.06695 6.85132,6.27665 1.77138,2.318 3.15873,3.35586 5.81382,4.34925 1.91799,0.71762 3.85919,1.16203 4.31378,0.98759 0.45459,-0.17445 1.45296,0.19008 2.21859,0.81006 1.24507,1.00818 1.29906,1.27804 0.51128,2.55538 -0.62011,1.00547 -1.25963,1.31323 -2.16079,1.03986 -2.87442,-0.87196 -6.74556,-1.06295 -8.58042,-0.42332 -1.81679,0.63334 -2.08279,0.51859 -3.89847,-1.6818 z m -9.11435,-3.58758 c -4.32086,-2.56034 -5.6064,-4.17475 -5.61033,-7.0455 -0.006,-4.02472 -1.10096,-7.07752 -3.62128,-10.09178 -1.8103,-2.16511 -2.08453,-2.80033 -1.2779,-2.96015 3.29959,-0.65376 7.2858,4.59866 7.94787,10.47251 0.17674,1.56804 0.52005,2.85097 0.76291,2.85097 0.24287,0 1.66108,1.04386 3.15159,2.31968 2.07878,1.77936 2.66464,2.69957 2.5152,3.95065 -0.25423,2.12834 -0.9691,2.22142 -3.86806,0.50362 z m 0.76707,-14.83227 c -1.05762,-2.35724 -1.8019,-4.40694 -1.65394,-4.5549 0.41575,-0.41575 11.28011,3.1 11.28011,3.65029 0,0.63094 -0.92773,1.31833 -4.65161,3.44651 l -3.05161,1.74399 z m -29.3027,-6.32838 c -4.69087,-2.57254 -8.29087,-4.81699 -8,-4.98765 0.29088,-0.17067 3.44,-0.16472 6.99805,0.0132 l 6.46917,0.32353 2.33083,4.31536 c 1.28195,2.37344 2.33082,4.49691 2.33082,4.7188 0,0.93371 -2.05648,0.0438 -10.12887,-4.38325 z m -51.00562,-43.51976 c -2.40035,-1.57656 -5.39505,-3.20246 -6.65489,-3.61311 -2.62585,-0.85592 -8.3027,-5.0009 -8.34336,-6.09195 -0.0532,-1.42898 5.23719,-2.18807 6.05274,-0.86848 0.21755,0.352 0.85536,0.64 1.41736,0.64 0.562,0 1.94945,0.70755 3.08324,1.57232 1.13378,0.86478 2.24097,1.39278 2.46041,1.17334 0.72943,-0.72943 0.41221,-3.72198 -0.53841,-5.07918 -1.13244,-1.61678 -0.71685,-2.14648 1.68407,-2.14648 0.99733,0 1.81333,-0.29113 1.81333,-0.64695 0,-0.82295 6.86468,-4.22169 7.41511,-3.67126 0.226,0.22599 -0.16321,1.36203 -0.86489,2.52455 -0.92058,1.52518 -1.38991,3.80643 -1.68568,8.19366 l -0.40991,6.08 2.37001,1.5228 c 2.23566,1.43647 2.30201,1.57252 1.17037,2.4 -2.06331,1.50872 -4.44944,0.97953 -8.9695,-1.98926 z m 122.56155,1.56229 c -0.86411,-1.6146 -0.23881,-3.81583 1.08396,-3.81583 1.34595,0 6.06251,3.81088 5.61425,4.53619 -0.19845,0.3211 -1.62968,0.58381 -3.18052,0.58381 -2.18213,0 -2.97754,-0.2949 -3.51769,-1.30417 z M 156.54878,168.4403 c -0.41064,-1.0701 0.37919,-6.65579 1.60458,-11.34757 0.56078,-2.14711 0.84353,-2.41527 2.36184,-2.24 1.61117,0.18599 1.71128,0.37948 1.51961,2.93692 -0.11284,1.5058 -0.68884,4.6738 -1.28,7.04 -0.86929,3.47956 -1.33458,4.33926 -2.43335,4.49603 -0.81509,0.1163 -1.52421,-0.23788 -1.77268,-0.88538 z m 109.0972,-7.01246 c -0.72929,-1.94921 -1.32598,-3.80655 -1.32598,-4.12743 0,-0.32089 1.08,-1.38139 2.4,-2.35667 1.32,-0.97528 4.272,-3.38499 6.56,-5.35491 6.27219,-5.40023 8.61752,-7.01699 10.17904,-7.01699 1.24741,0 1.3943,0.28896 1.21959,2.39927 -0.18274,2.20731 -0.69413,2.77527 -6.39155,7.09866 -5.68725,4.31567 -6.33524,5.03427 -7.93601,8.80073 -0.9587,2.25574 -2.1112,4.10134 -2.5611,4.10134 -0.4499,0 -1.4147,-1.5948 -2.14399,-3.544 z m -148.41479,-3.336 c -0.31561,-0.616 -0.74846,-2.46044 -0.96188,-4.09876 -0.49363,-3.78937 0.48773,-4.85609 3.5011,-3.80562 2.63193,0.9175 2.83562,0.63137 0.86707,-1.21799 -1.64923,-1.54937 -2.04311,-2.55763 -0.99915,-2.55763 0.32909,0 1.40909,-0.34114 2.4,-0.75808 l 1.80167,-0.75809 -2.56,-0.36191 c -2.21566,-0.31324 -2.58743,-0.60061 -2.76392,-2.1365 -0.20062,-1.74589 -0.16063,-1.76767 2.4725,-1.34661 2.54841,0.4075 2.64298,0.36551 1.97743,-0.8781 -0.38445,-0.71834 -1.59082,-1.61697 -2.68085,-1.99695 -1.65899,-0.57833 -1.91212,-0.92815 -1.55379,-2.14732 0.23543,-0.80104 0.87177,-1.74444 1.41408,-2.09644 2.09521,-1.35994 4.65455,-3.65867 4.65455,-4.18059 0,-0.30075 -2.04835,0.29786 -4.55189,1.33024 -2.50353,1.03237 -4.80753,1.71904 -5.12,1.52592 -0.31246,-0.19311 -0.56811,-1.31856 -0.56811,-2.501 0,-2.912 -0.64167,-4.56741 -1.33536,-3.445 -0.40012,0.64742 -0.87181,0.50378 -2.08341,-0.63447 -1.59702,-1.50032 -2.73394,-1.10827 -1.6688,0.57546 0.71743,1.13409 0.79938,4.44944 0.10997,4.44944 -1.58145,0 -3.20316,-2.11727 -3.53565,-4.6161 -0.20081,-1.50915 -0.55068,-3.35218 -0.77749,-4.09564 -0.52767,-1.72961 1.03183,-2.40458 3.23569,-1.40044 1.20505,0.54906 1.79322,0.55001 2.33943,0.004 0.54621,-0.54622 0.42117,-0.83985 -0.49736,-1.16793 -0.67486,-0.24104 -1.7356,-0.87526 -2.3572,-1.40938 -1.01752,-0.87432 -1.21515,-0.85492 -1.98258,0.19461 -0.9712,1.32819 -4.62392,1.14061 -7.84415,-0.4028 -2.571027,-1.23226 -2.560083,-2.50985 0.04826,-5.63182 1.247763,-1.49348 2.26866,-2.84981 2.26866,-3.01408 0,-0.16426 -1.327278,-0.0996 -2.949498,0.14365 -2.748519,0.41216 -2.921844,0.35517 -2.543642,-0.83646 0.295053,-0.92962 -0.03546,-1.56792 -1.210496,-2.33784 -1.853325,-1.21434 -2.086451,-2.6229 -0.574176,-3.46921 0.58825,-0.3292 0.769235,-0.75193 0.415514,-0.97054 -0.344666,-0.21301 -1.5896,0.32313 -2.766522,1.19143 -1.176922,0.86831 -2.371904,1.57874 -2.65552,1.57874 -1.101178,0 -0.43751,-1.88857 1.084339,-3.08565 2.081651,-1.63743 2.020301,-1.912723 -0.48,-2.153803 -1.529945,-0.14751 -2.129837,-0.54896 -2.268461,-1.51806 -0.224044,-1.56628 2.115328,-4.76249 3.485767,-4.76249 1.457766,0 0.513504,-3.59271 -1.81849,-6.91894 -1.063853,-1.51741 -1.770093,-2.92312 -1.569427,-3.12378 0.200659,-0.20067 1.354662,0.10486 2.564448,0.67894 1.209786,0.57408 2.375488,1.04378 2.590451,1.04378 0.214963,0 0.199885,-1.19415 -0.03347,-2.65367 l -0.424339,-2.65367 1.85319,0.46512 c 2.926445,0.73449 3.460359,1.53584 3.460359,5.19366 0,2.69488 -0.230887,3.45504 -1.12,3.68739 -1.054995,0.2757 -1.054202,0.297 0.0137,0.36693 0.634208,0.0415 1.454918,-0.63071 1.862726,-1.52576 0.40096,-0.88 0.960653,-1.6 1.243763,-1.6 0.864378,0 1.967694,2.60285 2.029634,4.78815 0.0488,1.72313 0.26659,2.01266 1.30868,1.74014 1.07524,-0.28118 1.19077,-0.0906 0.82603,1.36266 -0.31401,1.2511 -0.0735,2.04012 0.92685,3.04045 l 1.3509,1.35091 1.85885,-1.7809 1.85885,-1.78089 v 3.30499 c 0,2.837183 -0.23122,3.456483 -1.63353,4.375313 -1.55755,1.02055 -1.72425,1.00325 -3.58429,-0.37194 -1.74307,-1.28871 -1.91142,-1.31592 -1.58109,-0.25557 0.44831,1.43907 -0.0951,2.34966 -2.00109,3.3534 -1.83365,0.96563 -1.80956,1.49737 0.10809,2.38623 1.80396,0.83615 2.59157,0.46479 3.20878,-1.51294 0.24901,-0.79792 0.96627,-1.44 1.60861,-1.44 1.76242,0 2.78169,3.24233 2.48483,7.90433 l -0.25961,4.07725 2.19554,-0.91735 c 1.20755,-0.50455 2.90526,-0.73923 3.77269,-0.52153 1.03117,0.25881 1.83054,0.0634 2.3091,-0.5645 0.63474,-0.83279 1.32702,-0.66262 5.21196,1.28113 3.26415,1.63315 5.15888,2.19436 6.98141,2.06786 2.39081,-0.16595 2.54102,-0.0612 3.39735,2.36959 0.85689,2.43238 0.81834,4.18175 -0.181,8.21279 -0.4215,1.70021 -0.35983,1.77939 0.87226,1.12 1.61213,-0.86279 9.72998,-0.9511 9.72998,-0.10585 0,0.33203 -0.59715,1.02197 -1.327,1.53317 -0.72985,0.51121 -1.05634,1.09675 -0.72553,1.3012 0.33081,0.20445 1.11659,-0.19748 1.74619,-0.89318 1.66236,-1.83688 2.67614,-1.56179 3.59349,0.97509 0.87441,2.41814 1.03316,2.52382 2.44741,1.62928 0.80569,-0.50963 0.78261,-0.75902 -0.16739,-1.80876 -0.60606,-0.66969 -1.17062,-2.34327 -1.25455,-3.71907 -0.13886,-2.27589 3.4e-4,-2.51915 1.5437,-2.69781 2.11646,-0.245 6.29916,3.21503 6.31348,5.22266 0.008,1.1005 0.1287,1.18568 0.60763,0.42832 0.40519,-0.64075 0.2889,-1.28673 -0.36089,-2.00474 -0.62569,-0.69139 -0.81265,-1.64126 -0.53824,-2.73462 0.41596,-1.6573 -0.49724,-2.36376 -1.32475,-1.02482 -0.76154,1.2322 -1.7218,-0.16916 -1.35899,-1.98324 0.19994,-0.99966 0.085,-1.98973 -0.25552,-2.20015 -0.34856,-0.21545 -0.61904,0.49612 -0.61904,1.62849 0,2.63339 -1.17185,2.23678 -3.02947,-1.02532 l -1.42948,-2.51025 -0.0106,2.72 c -0.0108,2.79792 -0.46489,3.28963 -1.80252,1.952 -0.59734,-0.59733 -0.768,-0.52622 -0.768,0.32 0,1.34053 -0.48663,1.35418 -3.49303,0.098 -2.30336,-0.9624 -2.35734,-1.06106 -1.93817,-3.54213 0.28424,-1.68239 0.15825,-2.88102 -0.36969,-3.51715 -1.51104,-1.8207 1.03131,-2.88558 4.57634,-1.91684 1.44265,0.39423 1.64832,0.26173 1.6,-1.03076 -0.0472,-1.26394 0.29925,-1.5125 2.34455,-1.68178 2.51515,-0.20816 3.18722,0.75542 1.62,2.32264 -0.61334,0.61333 -0.33876,0.69175 1.28505,0.36699 1.89193,-0.37839 2.12457,-0.24228 2.77495,1.6234 0.69298,1.98789 0.73184,2.00507 1.63123,0.72101 0.50674,-0.72347 1.50043,-1.3154 2.20818,-1.3154 0.9723,0 1.19266,-0.29675 0.90151,-1.21408 -0.28752,-0.90587 0.1675,-1.55574 1.79241,-2.56 2.76053,-1.7061 3.82102,-1.72697 3.3498,-0.0659 -0.19973,0.704 -0.52654,1.856 -0.72626,2.56 -0.3066,1.08073 -0.0575,1.28 1.6,1.28 2.31248,0 2.37825,0.23036 0.68156,2.38736 -1.14541,1.45615 -1.17539,1.70688 -0.28224,2.35996 0.80985,0.59218 0.86742,1.07765 0.30366,2.56046 -0.80934,2.12873 -0.44978,2.80576 0.89665,1.68832 1.25687,-1.04311 2.0936,-0.43765 2.6035,1.8839 0.23016,1.04793 0.68432,2.06962 1.00924,2.27043 0.99037,0.61209 0.67688,6.61831 -0.75002,14.36957 -0.74518,4.048 -1.56985,7.792 -1.83261,8.32 -0.30015,0.60316 -1.6143,1.03378 -3.53541,1.15847 -2.74048,0.17788 -3.00701,0.0783 -2.56926,-0.96 0.83086,-1.97077 2.96502,-13.10409 3.02038,-15.75654 0.0475,-2.27577 -1.10001,-3.58024 -2.19032,-2.48993 -1.40192,1.40192 -1.9421,0.80894 -1.48665,-1.632 l 0.4478,-2.4 -1.50376,1.408 c -0.82707,0.7744 -2.72454,1.60321 -4.21658,1.8418 -2.99745,0.47932 -2.99178,0.47309 -2.0448,2.24254 0.55361,1.03443 0.41661,1.34505 -0.8,1.81382 -1.29803,0.50014 -1.33832,0.61804 -0.34801,1.01821 1.74981,0.70708 1.33266,2.73279 -0.78866,3.82976 -1.04976,0.54286 -2.55026,1.85483 -3.33444,2.91549 -1.30248,1.76171 -1.65641,1.89391 -4.09245,1.5286 -2.31533,-0.3472 -2.80559,-0.20216 -3.72125,1.10094 -0.58003,0.82546 -1.23013,2.59198 -1.44466,3.92559 -0.51831,3.22207 -1.4651,2.73573 -2.90163,-1.49049 l -1.17996,-3.47137 1.45153,-1.11721 c 1.65598,-1.27459 2.53067,-1.41053 3.41107,-0.53013 0.75035,0.75036 4.76045,-2.20692 4.76045,-3.51065 0,-0.69449 -0.57903,-0.61949 -2.72,0.35234 -3.74455,1.69971 -4.76472,1.57684 -5.95076,-0.71671 -1.25865,-2.43397 -1.73546,-2.03657 -2.18281,1.81926 -0.29286,2.52421 -0.59388,3.0449 -1.94643,3.36687 l -1.6,0.38087 1.76,1.15985 c 1.16274,0.76624 1.76,1.71812 1.76,2.80498 0,0.90483 0.5429,2.23971 1.20643,2.96639 1.34585,1.47392 2.36652,4.21368 1.5567,4.17857 -0.2877,-0.0125 -1.2431,-0.43426 -2.1231,-0.93732 -2.45672,-1.40439 -8.1013,-1.22493 -10.06536,0.32 -2.00317,1.5757 -3.15394,1.62286 -3.90345,0.16 z M 110.24,156.66908 c -1.496,-0.67906 -2.72,-1.4044 -2.72,-1.61186 0,-0.98293 2.9156,-4.16305 3.80036,-4.14515 1.88422,0.0381 4.51964,2.99392 4.51964,5.06907 0,1.60045 -0.25856,1.94818 -1.44,1.93665 -0.792,-0.008 -2.664,-0.56965 -4.16,-1.24871 z m -51.254504,-2.08964 c 1.229301,-5.47121 4.418496,-10.80699 8.069185,-13.50038 1.034144,-0.76297 1.849901,-1.6503 1.812787,-1.97183 -0.03766,-0.32639 -6.145359,-0.66347 -13.827469,-0.76314 -13.70931,-0.17786 -13.768923,-0.17268 -16.182417,1.40853 -2.271233,1.488 -3.657582,1.58038 -3.657582,0.24372 0,-0.31897 0.879374,-1.58151 1.954166,-2.80563 1.453925,-1.65593 2.559789,-2.276 4.32,-2.42227 2.023433,-0.16814 2.394269,-0.44227 2.562309,-1.89406 0.293636,-2.53689 2.898116,-3.34943 9.429894,-2.94193 2.977497,0.18576 5.41363,0.12536 5.41363,-0.13423 0,-0.89805 -4.882709,-2.66845 -9.509607,-3.44805 -3.845019,-0.64787 -5.245964,-1.2472 -8.128074,-3.4772 -3.358587,-2.59868 -4.817751,-5.27162 -2.362318,-4.32737 5.031539,1.93491 17.114502,4.44899 29.599999,6.15882 5.456,0.74717 10.496,1.66998 11.2,2.05069 4.154093,2.24647 4.928896,2.50384 5.579437,1.8533 0.468256,-0.46826 0.113254,-1.16175 -1.174125,-2.29366 l -1.845312,-1.62246 3.36,-0.0202 c 3.339072,-0.0201 3.36,-0.0328 3.36,-2.03942 0,-1.95676 -0.03834,-1.9845 -1.239674,-0.89731 -1.423001,1.2878 -2.600326,0.85055 -2.600326,-0.96574 0,-1.15652 -0.324058,-1.21657 -4.48,-0.83032 -4.033722,0.37489 -4.48,0.30221 -4.48,-0.72962 0,-1.93154 4.362381,-6.71782 6.122848,-6.71782 2.106259,0 1.958221,-0.82752 -0.522848,-2.92271 l -2.08,-1.75649 -0.207187,1.8596 c -0.257677,2.31282 -3.869319,6.13896 -7.221831,7.65073 -1.377216,0.62103 -2.634489,0.9987 -2.793932,0.83925 -0.15945,-0.15945 0.118221,-1.86051 0.617037,-3.78014 0.673471,-2.59176 1.51623,-4.02362 3.273779,-5.56222 l 2.366841,-2.07198 -2.3168,-0.96802 c -1.274233,-0.53243 -2.642649,-0.96804 -3.040921,-0.96804 -0.398266,0 -2.78352,2.16066 -5.300557,4.80147 -4.650257,4.87893 -6.816429,5.97023 -6.816429,3.43407 0,-2.26975 2.456713,-5.51713 5.825011,-7.6997 3.112167,-2.01662 3.151866,-2.08177 1.731757,-2.84179 -1.318355,-0.70556 -1.659091,-0.53759 -3.666256,1.80733 -2.859958,3.34121 -5.643302,4.55343 -8.315867,3.62177 -1.086055,-0.3786 -1.974645,-0.89403 -1.974645,-1.1454 0,-0.59173 2.790684,-2.61914 6.276488,-4.55982 l 2.756488,-1.53465 -2.402092,-0.831623 c -2.369615,-0.82038 -2.437167,-0.79741 -4.996488,1.698843 -1.994928,1.94577 -3.185916,2.57657 -5.154396,2.72998 -2.207215,0.17203 -2.587024,0.01 -2.7561,-1.17629 -0.168177,-1.17989 0.416991,-1.57982 4.109405,-2.80859 3.972,-1.321793 4.210517,-1.502233 3.079218,-2.329453 -0.944238,-0.69045 -1.036034,-1.01427 -0.399111,-1.40792 0.657696,-0.40648 0.624275,-0.67962 -0.163118,-1.33309 -0.544662,-0.45203 -0.990294,-1.07461 -0.990294,-1.3835 0,-1.1511 1.944772,-0.50079 4.06222,1.35836 2.574527,2.26046 2.9733,2.3611 2.522328,0.63659 -0.322827,-1.23449 0.739459,-3.19659 1.730642,-3.19659 0.263153,0 0.841318,1.296 1.28481,2.88 0.935914,3.34276 2.56,3.92202 2.56,0.91307 0,-1.52987 0.248869,-1.91836 1.12,-1.74834 0.834285,0.16282 1.129671,0.86867 1.157914,2.76693 0.03437,2.31075 0.206912,2.568033 1.850553,2.759593 1.007911,0.11746 2.071284,-0.16667 2.395213,-0.640003 0.465056,-0.67953 0.737274,-0.61133 1.349446,0.33808 0.42178,0.654143 1.342874,1.946573 2.046874,2.872073 l 1.28,1.68274 0.32,-2.86635 c 0.367622,-3.292893 1.624307,-3.958103 4.239872,-2.244313 1.434522,0.939943 1.568205,1.347883 1.185011,3.615993 -0.346483,2.05082 -0.20407,2.72314 0.719949,3.39879 0.815878,0.59659 1.45607,0.6523 2.194752,0.19099 1.453728,-0.90788 4.631385,1.17384 4.142605,2.71386 -0.269965,0.85059 0.388256,1.41148 2.863635,2.4402 3.031174,1.2597 4.065517,2.725 2.574176,3.64669 -1.032045,0.63785 -0.760013,1.41878 1.319097,3.78675 1.613504,1.83768 1.839303,2.45513 1.28,3.5002 -0.373504,0.6979 -0.679097,1.58132 -0.679097,1.96317 0,1.08029 3.392966,0.0602 4.398061,-1.32236 1.94643,-2.67727 4.56194,-0.35288 4.56194,4.05416 0,2.00617 0.30069,3.03652 0.96,3.28953 0.97803,0.3753 1.44171,5.52855 0.49745,5.52855 -0.2544,0 -1.53812,-1.224 -2.85271,-2.72 l -2.390168,-2.72 -0.02726,2.4 c -0.03078,2.70972 -1.082663,3.13619 -2.868391,1.16298 -0.840992,-0.92928 -1.004985,-1.76514 -0.659225,-3.36 0.45511,-2.09925 0.445708,-2.10994 -0.841517,-0.95645 -1.207047,1.08164 -1.443399,1.09329 -3.248179,0.16 -1.070532,-0.55359 -2.090686,-1.00653 -2.267012,-1.00653 -0.176327,0 0.745369,1.99106 2.048217,4.42457 1.302848,2.43352 2.21673,4.5776 2.030848,4.76464 -0.185888,0.18704 -1.481888,0.0748 -2.88,-0.2493 -3.295309,-0.76402 -7.519692,-0.78514 -7.056256,-0.0353 0.19872,0.32154 1.632416,1.19995 3.185978,1.95202 6.551001,3.17128 4.961427,5.72693 -2.346368,3.77239 l -2.732986,-0.73096 -6.716204,4.3388 c -3.693908,2.38633 -8.644871,5.59527 -11.002138,7.13096 -5.567005,3.62674 -6.327984,3.63772 -5.528564,0.0798 z m 43.130794,-1.91 c -0.54796,-0.78232 -0.99629,-1.79032 -0.99629,-2.24 0,-0.57993 -1.213902,-0.8176 -4.175841,-0.8176 -3.941863,0 -4.212442,-0.0963 -4.829043,-1.71805 -0.359264,-0.94493 -0.568135,-2.31293 -0.46416,-3.04 0.161484,-1.12922 0.560851,-1.28882 2.739302,-1.09475 1.987962,0.1771 2.995014,0.74154 4.567386,2.56 1.742686,2.01541 2.394956,2.3328 4.794146,2.3328 2.43495,0 2.88806,0.22985 3.67831,1.86593 0.81227,1.68164 0.78592,1.95028 -0.26673,2.72 -1.74743,1.27775 -3.92585,1.03244 -5.04708,-0.56833 z m 5.8123,-4.26445 c -2.82814,-1.07709 -2.96982,-1.8969 -0.4161,-2.40764 1.63287,-0.32658 1.85666,-0.60496 1.53062,-1.904 -0.21003,-0.83683 -0.13465,-1.52043 0.16751,-1.51911 1.32527,0.006 4.73084,2.66267 5.62208,4.38615 l 0.97485,1.88514 -2.77519,0.22316 c -1.52635,0.12274 -3.82305,-0.17593 -5.10377,-0.6637 z m -10.02255,-6.57237 c -2.266003,-3.50596 -3.121632,-5.66078 -2.247756,-5.66078 0.164057,0 1.324262,0.48926 2.57822,1.08723 2.133666,1.01747 2.396186,1.01855 4.091916,0.0169 2.07208,-1.224 2.62222,-0.9333 2.65426,1.40258 0.0125,0.90933 0.43427,2.37333 0.93732,3.25333 1.75494,3.06996 1.30295,3.84 -2.25396,3.84 h -3.21396 l -2.54604,-3.93922 z m 12.99114,-1.16332 c -2.11494,-1.28953 -3.18569,-3.68552 -2.47486,-5.53793 0.3078,-0.80211 0.93127,-0.95717 2.69671,-0.67068 3.41266,0.5538 5.36097,2.06489 5.36097,4.1579 0,3.37447 -2.12909,4.15654 -5.58282,2.05071 z m 182.22447,-8.6618 c 0.98528,-2.59148 2.50016,-5.32416 3.18671,-5.74847 0.67909,-0.41969 4.49164,5.11296 4.49164,6.51811 0,0.60033 -1.16362,0.8347 -4.14416,0.8347 h -4.14416 z m -163.3969,-16.22779 c -3.42783,-2.26014 -4.90913,-6.05243 -2.87135,-7.351 0.86963,-0.55417 1.65433,-0.30253 3.83426,1.22959 3.24888,2.28339 4.54736,4.47329 3.6484,6.15301 -0.79148,1.47889 -2.33649,1.4683 -4.61131,-0.0316 z m 23.39117,-1.53491 c -0.34601,-0.43613 -0.96937,-1.84992 -1.38525,-3.14176 -1.28551,-3.99314 -2.05014,-4.16438 -6.50677,-1.45712 -4.91524,2.98584 -8.27014,3.3326 -8.9586,0.92592 -0.57287,-2.00257 -0.70406,-13.891433 -0.17507,-15.866173 0.41905,-1.56439 1.44083,-1.6088 2.20227,-0.0957 0.25517,0.50704 0.81143,2.86809 1.23614,5.24676 0.67197,3.763433 0.63845,4.529013 -0.25822,5.897493 -1.50222,2.29269 -1.29042,2.43785 1.20166,0.82354 1.22764,-0.79523 2.23564,-1.8858 2.23999,-2.42347 0.004,-0.53769 0.41756,-1.56243 0.91822,-2.27722 0.50066,-0.7148 1.00466,-2.290883 1.12,-3.502413 0.27164,-2.85333 1.63304,-2.86414 3.54422,-0.0282 l 1.46549,2.174653 v -1.992133 c 0,-1.37096 0.42055,-2.21721 1.34871,-2.71394 2.19506,-1.17476 2.82752,0.13973 2.62352,5.452583 -0.0997,2.59512 0.0858,4.8834 0.41209,5.08506 0.3263,0.20166 1.35826,-0.63629 2.29325,-1.86213 0.93499,-1.22584 2.40415,-2.40552 3.26479,-2.62153 1.13722,-0.28543 1.74372,-1.05719 2.21957,-2.824393 0.36013,-1.33741 1.22117,-3.10691 1.91342,-3.93224 1.07472,-1.2813 1.35264,-1.36029 1.90184,-0.54058 0.35376,0.528 0.65725,2.544 0.6744,4.48001 l 0.0312,3.520003 3.33269,1.92 c 3.54313,2.04124 5.09781,4.6633 2.28335,3.85102 -3.89435,-1.12396 -3.70534,-1.17688 -2.94948,0.82565 0.792,2.09823 0.355,3.80996 -1.11686,4.37477 -0.6593,0.253 -2.05978,-0.72653 -4.13843,-2.89452 -1.72804,-1.80231 -3.51812,-3.27585 -3.97797,-3.27453 -0.45985,10e-4 -1.77209,0.57308 -2.91609,1.27059 -1.70073,1.03696 -2.08,1.67147 -2.08,3.47984 0,2.42257 -0.7802,3.36025 -1.76407,2.12013 z M 121.28,111.80843 c -2.29959,-1.47299 -4.70053,-1.60049 -5.20856,-0.27659 -0.57947,1.51007 -1.9433,1.1299 -3.42833,-0.95563 -1.73229,-2.43277 -1.15331,-3.44253 1.67018,-2.91284 1.64641,0.30886 2.16671,0.18542 2.16671,-0.51406 0,-1.05036 -1.34189,-1.69747 -3.52,-1.69747 -2.09339,0 -3.52,-0.63642 -3.52,-1.5703 0,-1.48327 4.56621,-5.596443 5.84238,-5.262723 1.55439,0.40649 1.51344,-0.10831 -0.14943,-1.87836 -2.06427,-2.19731 -0.95235,-3.02819 2.02188,-1.51086 2.51316,1.28212 2.52517,1.28221 2.52517,0.0175 0,-0.6989 -0.864,-2.25477 -1.92,-3.45749 -1.66069,-1.89144 -2.46149,-3.61781 -1.67816,-3.61781 0.13301,0 1.27576,0.432 2.53944,0.96 1.26368,0.528 2.44182,0.96 2.61808,0.96 0.17625,0 0.15469,-0.432 -0.0479,-0.96 -0.54328,-1.41576 2.05605,-1.23251 3.53799,0.24943 1.1859,1.1859 1.22298,1.17967 1.90627,-0.32 0.95201,-2.08944 2.13641,-1.92247 4.9085,0.69195 2.02587,1.91063 2.30205,2.02254 1.97431,0.8 -0.20957,-0.78176 -0.38497,-2.16805 -0.38977,-3.08065 -0.007,-1.24372 -1.01053,-2.50397 -4.00874,-5.03204 -4.02934,-3.3975 -5.73726,-5.53806 -6.53362,-8.18869 -0.3775,-1.25647 -0.20136,-1.44 1.38193,-1.44 0.99801,0 2.87413,0.72 4.16917,1.6 1.29504,0.88 2.51389,1.6 2.70857,1.6 0.74954,0 0.29012,-1.73517 -1.35563,-5.12 -2.11854,-4.35724 -9.14875,-10.3801 -12.69973,-10.879999 -3.09549,-0.435777 -3.07573,-1.418475 0.0503,-2.499256 3.78274,-1.307844 5.73751,-0.522781 10.31004,4.14065 2.22107,2.265236 4.53749,4.118605 5.14759,4.118605 0.61011,0 2.98851,-1.824057 5.28534,-4.053461 2.73203,-2.651821 5.05003,-4.304419 6.70352,-4.779213 1.3901,-0.399163 2.63267,-0.620533 2.76126,-0.491935 0.1286,0.128598 0.0261,1.341148 -0.22782,2.694554 -0.33326,1.776431 -1.31093,3.262933 -3.51564,5.345397 -1.67971,1.586558 -4.22655,4.729308 -5.65964,6.983888 -2.88712,4.54207 -3.23961,6.92901 -1.59512,10.80133 0.73623,1.73359 0.89999,3.39003 0.60333,6.10265 -0.55981,5.11904 -0.86315,5.80368 -2.11473,4.77312 -0.86385,-0.71129 -0.93665,-0.5964 -0.56583,0.89282 0.99547,3.99774 -2.15582,5.08677 -5.3825,1.86008 -1.5998,-1.59978 -1.87078,-1.69575 -1.87078,-0.66252 0,0.66454 0.55354,1.5045 1.23009,1.86658 3.43489,1.8383 3.83802,4.041663 1.55639,8.506713 -1.10939,2.17104 -1.71095,2.18158 -6.23725,0.10937 -1.983,-0.90785 -3.88385,-1.55585 -4.22411,-1.44 -0.34026,0.11585 0.81538,1.88995 2.56811,3.94245 1.75272,2.0525 3.18677,3.9965 3.18677,4.32 0,0.9108 -1.41007,0.61628 -3.52,-0.73523 z m 179.87189,-10.78499 c -0.58462,-0.94592 1.51574,-2.611603 3.29312,-2.611603 1.59629,0 7.56369,-3.54028 11.39499,-6.76031 3.06762,-2.5782 11.73918,-7.45754 12.46085,-7.01153 2.06905,1.27875 -0.85441,4.94699 -5.18312,6.50357 -2.07005,0.74438 -3.8742,1.94546 -4.85617,3.23289 -2.20617,2.89242 -5.48329,4.64864 -11.26211,6.035393 -5.847,1.40312 -5.38804,1.35511 -5.84756,0.61159 z M 30.08,99.102147 c 0,-0.42596 0.298133,-1.33153 0.662517,-2.01239 0.584529,-1.0922 0.443077,-1.23792 -1.201635,-1.23792 -2.016902,0 -2.882719,-0.74864 -3.612087,-3.1232 l -0.467862,-1.5232 7.269533,0.3317 c 7.768262,0.35444 15.269533,2.3331 15.269533,4.02773 0,1.22824 -7.647144,3.49997 -13.279999,3.94508 -3.405693,0.26911 -4.64,0.16063 -4.64,-0.4078 z m 53.784172,-8.39632 c -1.218701,-1.0417 -2.713703,-1.89399 -3.322227,-1.89399 -3.089671,0 -1.340096,-2.42504 2.120947,-2.93979 1.893293,-0.28158 2.380953,-0.0196 4.274476,2.29627 1.73746,2.12499 1.992231,2.789 1.361639,3.54881 -1.101299,1.32698 -1.916775,1.14102 -4.434835,-1.0113 z m 213.118338,0.0681 c -0.98555,-1.84153 -0.84819,-2.34606 1.30704,-4.80074 1.12434,-1.28055 1.77058,-2.56516 1.50589,-2.99343 -0.25502,-0.41263 -0.63732,-2.36521 -0.84956,-4.33907 l -0.38588,-3.58883 -9.44,-0.17711 c -5.192,-0.0974 -9.44,-0.39443 -9.44,-0.66004 0,-0.26561 1.74097,-2.20191 3.86882,-4.30289 2.12785,-2.10098 4.84999,-5.569973 6.0492,-7.708872 l 2.18037,-3.888906 -1.5692,-3.099559 c -2.2758,-4.495281 -2.06009,-7.371188 1.03481,-13.79648 3.12098,-6.479425 7.74367,-13.484438 10.34053,-15.669556 5.54716,-4.667626 10.68932,-6.179692 25.09589,-7.379515 11.6106,-0.966966 18.41196,-0.611588 22.17492,1.158658 5.56583,2.618391 5.5683,4.388403 0.003,2.424986 -2.39071,-0.84349 -2.88843,-0.831401 -4.88046,0.118537 -2.54635,1.214266 -2.64234,1.638308 -1.06931,4.723721 1.04963,2.05879 1.31245,2.208958 3.04,1.736986 1.04007,-0.28415 4.22779,-0.700856 7.08381,-0.926012 4.37061,-0.344561 5.50627,-0.224185 7.17287,0.760302 3.44816,2.036874 4.22036,6.45332 1.39292,7.966517 -1.27936,0.684692 -4.02504,-0.02919 -4.77416,-1.241293 -0.67916,-1.098908 -7.76271,-0.77923 -11.72459,0.529125 -2.17369,0.71783 -6.25863,1.326744 -10.05981,1.499543 -5.02878,0.228606 -7.01705,0.60714 -9.28,1.766769 -1.584,0.811706 -4.73498,2.101858 -7.00218,2.867003 -4.03914,1.36321 -5.83472,2.898083 -3.39016,2.898083 0.67878,0 1.76599,0.587682 2.41602,1.305961 1.06015,1.171458 1.10579,1.682298 0.44308,4.96 -0.40634,2.009721 -0.56833,4.872796 -0.35998,6.362388 0.48966,3.500768 -0.96141,4.302315 -3.5048,1.935997 -1.39349,-1.296475 -2.59806,-1.670614 -6.31742,-1.962177 -3.54826,-0.278152 -4.76946,-0.150801 -5.35836,0.558788 -0.41951,0.505474 -1.41222,0.919043 -2.20601,0.919043 -0.7938,0 -1.81239,0.444765 -2.26355,0.988367 -0.67893,0.818069 -0.58216,1.41202 0.56164,3.44714 0.76005,1.352327 1.38191,2.819496 1.38191,3.260386 0,0.44089 1.58949,2.74446 3.53222,5.11905 3.15754,3.85945 3.46499,4.49427 2.89837,5.98458 -0.63155,1.6611 -0.62289,1.66659 2.38778,1.51381 4.44054,-0.22534 3.887,1.11061 -1.77837,4.29197 -4.0121,2.25298 -5.04752,3.18616 -6.3079,5.68506 -1.61187,3.19577 -2.84182,3.74686 -3.90959,1.75171 z m 345.25748,-16.46513 c -5.69543,-0.66648 -10.16212,-1.86186 -15.04,-4.02503 -11.19947,-4.96658 -12.40395,-5.3709 -15.59378,-5.23452 -4.18416,0.17889 -5.86893,-1.058404 -8.18736,-6.012758 -2.17565,-4.649269 -2.06097,-5.180557 1.88852,-8.748676 2.00036,-1.807211 3.36989,-2.409772 6.91356,-3.041809 2.43049,-0.433492 5.34596,-1.203707 6.47884,-1.71159 3.94029,-1.766476 31.14221,-4.626624 32.82022,-3.450884 1.66048,1.16344 -0.72493,2.285371 -8.17158,3.843399 -3.77762,0.790377 -7.10803,1.578413 -7.4009,1.751192 -0.77666,0.458204 2.50912,3.699058 7.02605,6.929948 4.22643,3.023139 9.18643,8.707132 9.18643,10.527388 0,2.08809 -3.30509,2.04584 -7.43949,-0.0951 -2.06828,-1.071021 -4.12051,-2.243847 -4.56051,-2.606266 -0.56151,-0.462521 -0.8,-0.430374 -0.8,0.107834 0,0.421734 0.76551,1.392998 1.70112,2.158368 4.65568,3.808424 5.97888,5.447814 5.97888,7.407574 0,1.0912 -0.26445,1.984 -0.58765,1.984 -0.3232,0 -0.9712,0.0994 -1.44,0.22081 -0.4688,0.12144 -1.71635,0.1197 -2.77235,-0.004 z m -338.55667,-6.72956 c 0.33214,-1.77046 0.11604,-2.41275 -1.24057,-3.68721 -2.18455,-2.052288 -2.07105,-2.722916 0.41985,-2.480722 1.7918,0.174217 2.22787,0.600581 3.32125,3.247307 1.32887,3.216775 1.13591,3.842715 -1.42329,4.616955 -1.3874,0.41973 -1.45442,0.31419 -1.07724,-1.69633 z m 51.15002,-9.431622 c 1.85143,-1.939456 1.92283,-3.532851 0.0902,-2.011864 -1.07892,0.895418 -2.07593,0.441361 -3.79828,-1.729797 -0.72006,-0.907696 -1.73721,-1.435024 -2.56,-1.327203 -0.75087,0.0984 -1.43722,-0.0294 -1.52522,-0.283996 -0.48146,-1.392913 0.15674,-1.745039 3.2,-1.76558 1.848,-0.01247 4.07373,-0.417786 4.94607,-0.900695 l 1.58608,-0.878017 -2.38608,-1.137841 C 352.87948,47.394156 352,46.530764 352,45.77017 c 0,-0.954157 0.29937,-1.112242 1.44,-0.760386 2.85722,0.881389 4.7785,2.166019 7.1266,4.765087 2.54983,2.822357 2.67895,3.808515 0.62086,4.741851 -0.70936,0.321689 -1.84273,1.617689 -2.5186,2.88 -0.99727,1.862572 -1.65102,2.334516 -3.46886,2.504197 l -2.24,0.209085 z M 369.44,56.387974 c -1.38069,-0.557117 -0.94121,-4.34036 0.68124,-5.864579 0.81469,-0.765359 1.67869,-1.391561 1.92,-1.391561 0.24132,0 0.43876,1.728 0.43876,3.84 0,3.938341 -0.46127,4.456682 -3.04,3.41614 z M 609.06666,38.465167 c -0.83571,-0.835711 -0.40834,-2.692395 0.69333,-3.012183 5.07436,-1.472947 13.40474,-0.775364 12.78929,1.070972 -0.40743,1.222306 -12.46543,2.958402 -13.48262,1.941211 z"
     id="path120"
     inkscape:connector-curvature="0" />
</svg>
