<?xml version="1.0" encoding="UTF-8" standalone="no"?>
<!-- Created with Inkscape (http://www.inkscape.org/) -->

<svg
   xmlns:dc="http://purl.org/dc/elements/1.1/"
   xmlns:cc="http://creativecommons.org/ns#"
   xmlns:rdf="http://www.w3.org/1999/02/22-rdf-syntax-ns#"
   xmlns:svg="http://www.w3.org/2000/svg"
   xmlns="http://www.w3.org/2000/svg"
   xmlns:sodipodi="http://sodipodi.sourceforge.net/DTD/sodipodi-0.dtd"
   xmlns:inkscape="http://www.inkscape.org/namespaces/inkscape"
   version="1.1"
   id="svg130"
   width="518.40002"
   height="518.40002"
   viewBox="0 0 518.40002 518.40002"
   sodipodi:docname="lenin.svg"
   inkscape:version="0.92.4 (5da689c313, 2019-01-14)">
  <metadata
     id="metadata136">
    <rdf:RDF>
      <cc:Work
         rdf:about="">
        <dc:format>image/svg+xml</dc:format>
        <dc:type
           rdf:resource="http://purl.org/dc/dcmitype/StillImage" />
        <dc:title></dc:title>
      </cc:Work>
    </rdf:RDF>
  </metadata>
  <defs
     id="defs134" />
  <sodipodi:namedview
     pagecolor="#ffffff"
     bordercolor="#666666"
     borderopacity="1"
     objecttolerance="10"
     gridtolerance="10"
     guidetolerance="10"
     inkscape:pageopacity="0"
     inkscape:pageshadow="2"
     inkscape:window-width="640"
     inkscape:window-height="480"
     id="namedview132"
     showgrid="false"
     inkscape:zoom="0.59992281"
     inkscape:cx="259.20001"
     inkscape:cy="259.20001"
     inkscape:window-x="0"
     inkscape:window-y="0"
     inkscape:window-maximized="1"
     inkscape:current-layer="svg130" />
  <path
     style="fill:#000000;stroke-width:0.96000004"
     d="m 81.614704,375.95011 c 0.0081,-24.684 0.332085,-45.33003 0.72,-45.88006 1.197587,-1.69809 13.404424,-6.66429 30.267836,-12.3141 15.27777,-5.11857 16.61074,-5.39911 25.44,-5.35418 14.44506,0.0735 18.49785,-1.00463 35.23747,-9.37393 4.752,-2.37586 9.37326,-4.4611 10.26949,-4.63388 1.7772,-0.34263 7.13478,4.60302 8.02505,7.40802 0.30517,0.96147 0.95773,1.74813 1.45015,1.74813 0.49241,0 0.78731,0.37005 0.65531,0.82234 -0.43171,1.47923 6.10428,9.78653 7.17782,9.12304 0.57849,-0.35752 0.76508,-0.19909 0.42108,0.35751 -0.74014,1.19758 1.64308,3.41514 2.62016,2.43804 0.37533,-0.37532 0.46399,-0.0476 0.19702,0.72833 -0.56099,1.63048 8.35791,9.27474 10.23322,8.77075 0.65488,-0.17601 0.85541,0.0153 0.4456,0.42509 -1.05423,1.05424 10.62167,8.28277 12.05171,7.4612 0.64537,-0.37077 0.83682,-0.30429 0.42546,0.14772 -0.41136,0.45201 3.8178,3.07989 9.39811,5.83971 5.58033,2.75984 12.33182,6.67127 15.00331,8.69208 2.67149,2.0208 5.27844,3.55549 5.79323,3.4104 0.51479,-0.14507 0.70835,0.10456 0.43012,0.55474 -0.69354,1.12217 7.82295,8.11846 8.99826,7.39208 0.53736,-0.33211 0.69701,0.0581 0.3712,0.90711 -0.31445,0.81943 -0.13972,1.48986 0.38828,1.48986 1.26564,0 2.19919,2.53074 1.55388,4.21238 -0.40968,1.06759 -1.94576,0.78 -7.72982,-1.44725 -3.9702,-1.52879 -7.68132,-2.49361 -8.24692,-2.14404 -0.56561,0.34956 -0.77492,0.22547 -0.46515,-0.27576 0.30978,-0.50123 -2.75547,-2.16254 -6.81167,-3.69179 -4.05619,-1.52926 -14.27125,-5.50591 -22.70012,-8.837 -8.42887,-3.3311 -15.75127,-6.05654 -16.272,-6.05654 -1.30026,0 0.19278,1.34356 3.90251,3.5118 19.48535,11.38866 32.62012,17.94066 34.11432,17.0172 0.59698,-0.36896 0.81245,-0.23754 0.48343,0.29483 -0.32648,0.52827 1.64058,1.99902 4.37125,3.26833 2.73068,1.26932 7.42904,3.89385 10.44082,5.83231 3.01177,1.93846 5.79922,3.23446 6.19434,2.88 0.3951,-0.35446 0.40762,-0.10447 0.0278,0.55553 -0.37982,0.66 -0.36306,1.72994 0.0372,2.37764 0.40031,0.6477 0.86838,2.9157 1.04017,5.04 0.1718,2.1243 1.17449,8.48376 2.22822,14.13212 1.18553,6.3549 1.67873,11.75272 1.29379,14.16 l -0.6221,3.89025 H 176.03731 81.600003 Z m 239.025306,43.15201 c 0,-0.9504 -0.40722,-2.1384 -0.90494,-2.64 -1.23314,-1.24276 -2.9224,-9.072 -1.95739,-9.072 0.42546,0 1.0803,-1.836 1.45519,-4.08001 0.87251,-5.22253 3.34104,-11.50275 8.77321,-22.32 3.8933,-7.75282 4.28852,-9.14429 3.84903,-13.55123 -0.26939,-2.70118 -1.39099,-6.88948 -2.49244,-9.30734 -2.6871,-5.89853 -2.58487,-7.38143 0.50886,-7.38143 1.68726,0 4.60157,1.82605 8.88,5.56403 8.64435,7.5524 14.11239,11.71597 15.38663,11.71597 0.58402,0 1.06185,0.36398 1.06185,0.80883 0,0.44486 1.62,1.63286 3.6,2.64 1.98,1.00715 3.89108,2.23539 4.24683,2.72945 0.37904,0.52637 1.37268,0.32764 2.4,-0.48 1.59229,-1.2518 1.63642,-1.22911 0.48095,0.24711 -1.14698,1.46537 0.0158,2.25806 11.81169,8.05182 16.35014,8.0307 18.97263,11.08998 19.60963,22.87575 0.14011,2.59212 0.64987,5.75225 1.13282,7.0225 0.48295,1.27024 0.87809,3.79341 0.87809,5.60704 v 3.29751 h -39.36001 c -37.26222,0 -39.36,-0.0921 -39.36,-1.728 z m -32.68245,-0.72315 c -2.08255,-2.50932 -1.35709,-6.23032 3.33833,-17.12319 5.23312,-12.14022 6.22493,-17.73925 4.06014,-22.92033 -0.82393,-1.97194 -1.97759,-3.58534 -2.56369,-3.58534 -0.5861,0 -0.75489,0.54 -0.37507,1.2 0.37981,0.66 0.3693,0.912 -0.0233,0.56 -0.39265,-0.35199 -0.56991,-0.89582 -0.39391,-1.2085 0.176,-0.31268 -1.13639,-1.45418 -2.91641,-2.53668 -2.94438,-1.79058 -3.18612,-2.27805 -2.67915,-5.40221 0.75948,-4.68009 8.22827,-24.34245 9.87023,-25.98443 1.64102,-1.64101 1.67301,-2.6081 0.12533,-3.78765 -1.60184,-1.2208 -16.08094,-6.44996 -23.28,-8.40761 -3.168,-0.86148 -9.648,-3.04129 -14.4,-4.84402 -15.84718,-6.01182 -27.82304,-10.22135 -29.44952,-10.35151 -0.88523,-0.0709 -1.45616,-0.37696 -1.26872,-0.68025 0.18744,-0.30328 -1.89627,-1.55819 -4.63048,-2.78868 -2.7342,-1.2305 -7.13128,-3.4517 -9.77128,-4.93601 -2.64,-1.4843 -5.232,-2.82478 -5.76,-2.97883 -0.528,-0.15406 -3.11836,-1.70155 -5.75636,-3.43887 -2.63799,-1.73733 -5.36042,-2.94232 -6.04986,-2.67776 -0.68942,0.26456 -0.98958,0.0539 -0.66699,-0.46798 0.32258,-0.52195 0.14343,-0.94901 -0.39814,-0.94901 -0.54156,0 -2.6011,-1.61645 -4.57676,-3.59211 -1.97566,-1.97565 -3.21931,-2.9889 -2.76367,-2.25167 0.58057,0.9394 0.47773,1.12369 -0.34376,0.61598 -0.64471,-0.39845 -0.94271,-0.95395 -0.66223,-1.23444 0.28049,-0.28048 -0.12276,-1.41335 -0.89613,-2.51747 -0.77338,-1.10413 -1.40612,-3.19228 -1.40612,-4.64035 0,-4.28703 -2.77219,-11.31254 -7.69445,-19.49994 -2.53947,-4.224 -5.58676,-10.488 -6.77176,-13.92 -1.185,-3.432 -2.7175,-6.8552 -3.40555,-7.6071 -0.79421,-0.86792 -6.24152,-2.00098 -14.91847,-3.10313 -19.53363,-2.48115 -20.58596,-4.72279 -4.64977,-9.90486 8.47688,-2.75649 14.85026,-5.62348 15.75486,-7.08716 0.28883,-0.46734 0.15747,-4.83417 -0.29189,-9.70409 -0.9593,-10.39618 -1.3803,-10.9588 -11.14297,-14.89146 -9.59736,-3.86606 -22.75064,-10.17049 -24.72001,-11.84841 -3.47206,-2.95822 -1.91437,-3.36398 9.60001,-2.50071 6.204,0.46513 14.88791,0.85497 19.29757,0.86631 l 8.01758,0.0206 3.25008,-3.84 c 3.04336,-3.59576 5.86582,-9.56449 5.36777,-11.35136 -0.12132,-0.43525 0.17318,-0.54801 0.65444,-0.25057 0.48125,0.29744 1.40885,-0.10246 2.06133,-0.88865 0.71548,-0.8621 2.83174,-1.42943 5.33212,-1.42943 2.28018,0 4.41278,-0.432 4.73911,-0.96 0.32632,-0.528 1.48159,-0.96 2.56727,-0.96 1.8286,0 1.92618,0.38236 1.32522,5.19233 l -0.64874,5.19231 6.82005,0.0638 c 4.83727,0.0453 6.62519,-0.25144 6.1498,-1.02065 -0.42575,-0.68887 -0.23747,-0.81703 0.51608,-0.3513 0.7182,0.44387 2.24664,-0.28264 3.8733,-1.84108 2.04552,-1.95973 3.45925,-2.50041 5.92199,-2.26487 2.6914,0.25741 3.23853,0.70043 3.25585,2.63635 0.0258,2.887 2.00531,3.72338 2.81019,1.18739 0.32668,-1.02924 2.06701,-2.88072 3.86744,-4.11438 1.80042,-1.23367 3.48229,-3.04151 3.7375,-4.01744 0.69032,-2.6398 4.70127,-1.7572 5.39118,1.18631 0.30021,1.28085 1.13404,2.5249 1.85298,2.76454 0.78067,0.26023 1.03992,0.003 0.64366,-0.63782 -0.41246,-0.66736 -0.13652,-0.87134 0.72926,-0.5391 0.76602,0.29394 1.67795,0.073 2.02652,-0.491 1.8552,-3.00178 12.53732,0.28164 14.8254,4.55697 1.34869,2.52003 0.69661,2.88955 -4.13766,2.34465 -2.88902,-0.32563 -4.40664,-0.0687 -4.97519,0.84219 -0.94722,1.51761 -0.99906,1.75711 -2.52053,11.64634 -1.10087,7.15543 -1.06299,7.53964 0.94069,9.54334 1.52094,1.52094 3.33956,2.11613 6.6986,2.1923 2.53597,0.0575 5.14146,0.43251 5.78999,0.83333 1.99098,1.23049 1.34754,5.94523 -1.15257,8.44533 -1.28244,1.28245 -2.6263,3.50544 -2.98634,4.93999 -0.9563,3.81017 -2.18423,4.07959 -5.24194,1.15012 -4.28727,-4.10748 -6.46427,-1.19361 -3.21623,4.30487 1.70841,2.89209 1.22931,5.77513 -0.9597,5.77513 -0.7459,0 -2.51562,-1.5201 -3.9327,-3.37798 -1.41709,-1.8579 -2.97541,-3.13146 -3.46295,-2.83015 -0.48754,0.30131 -0.69492,-0.0146 -0.46084,-0.70201 0.23408,-0.68743 -1.59108,-2.85838 -4.0559,-4.82434 -5.38314,-4.29364 -10.6428,-5.50473 -22.79168,-5.24807 l -8.64,0.18255 -0.29833,4.70035 c -0.26076,4.1082 1.16943,10.17964 2.39791,10.17964 1.69211,0 4.14042,-2.32796 4.14042,-3.9369 0,-4.04108 1.70806,-5.49846 7.25674,-6.19173 5.07886,-0.63456 5.59749,-0.49276 10.46864,2.86212 2.81878,1.94137 6.26653,5.1769 7.66166,7.19008 1.39513,2.01318 3.59044,4.65036 4.87848,5.8604 2.2545,2.118 2.48312,2.14459 6.1278,0.71292 2.49743,-0.98101 3.67382,-1.11443 3.45649,-0.39202 -0.1812,0.60232 -0.58218,2.25292 -0.89107,3.668 -1.04433,4.78421 -2.79703,5.58713 -12.1963,5.58713 h -8.62041 l -1.39102,-3.32917 c -0.76505,-1.83104 -1.39101,-5.04018 -1.39101,-7.13142 0,-5.50254 -4.29138,-8.86403 -7.37696,-5.77846 -1.19491,1.19492 -0.51401,4.96274 0.75511,4.17839 0.46192,-0.28548 0.59996,0.10609 0.30676,0.87018 -0.9178,2.39173 1.58778,9.57981 4.49245,12.88804 1.53045,1.74309 2.78264,3.57119 2.78264,4.06244 0,2.19733 6.09847,7.6565 9.20393,8.23908 4.22504,0.79263 4.70685,1.67318 4.42168,8.08092 -0.19178,4.30907 0.17402,5.78436 1.9893,8.0228 2.51212,3.09772 8.70748,4.41977 12.12951,2.58835 2.29047,-1.22582 5.21732,-6.35208 4.58831,-8.03623 -0.23312,-0.62421 -0.8801,0.01 -1.4377,1.40821 -1.246,3.12545 -4.64476,5.61687 -7.66248,5.61687 -1.24314,0 -3.52301,-1.26277 -5.06639,-2.80616 -3.77399,-3.77397 -3.91673,-9.25585 -0.32879,-12.6265 2.367,-2.22365 2.53457,-2.24911 3.76131,-0.57145 0.9992,1.36644 1.69152,1.53775 3.1216,0.7724 3.13784,-1.67932 4.54015,-3.89186 3.27103,-5.16098 -0.61122,-0.61122 -1.11131,-3.62761 -1.11131,-6.70307 0,-6.73727 0.16854,-6.83718 13.44,-7.96744 10.57944,-0.90098 11.52563,-0.90298 21.12,-0.0447 8.25985,0.73888 14.13862,2.26486 14.6588,3.80504 0.19743,0.58458 0.17597,3.12128 -0.0477,5.63713 -0.32562,3.66239 -1.04949,5.18055 -3.6312,7.61569 -1.77348,1.6728 -3.47715,4.19168 -3.78593,5.59753 -0.30877,1.40586 -1.87169,3.52484 -3.47315,4.70884 -1.60146,1.18401 -2.67222,2.39227 -2.37948,2.68502 0.29275,0.29274 1.27363,-0.0693 2.17975,-0.80454 1.41101,-1.14492 1.53058,-1.14285 0.83309,0.0144 -0.62904,1.04367 -0.34292,1.22793 1.25704,0.80953 1.13929,-0.29793 1.84275,-0.17166 1.56323,0.28062 -0.93594,1.51437 3.19673,2.83311 7.51053,2.39661 3.76283,-0.38076 4.71188,-0.0537 7.99282,2.7547 7.14252,6.11372 14.59317,8.93081 16.30304,6.16418 0.47095,-0.76201 0.16445,-0.91988 -0.9532,-0.49099 -1.05361,0.4043 -1.41666,0.25886 -1.00727,-0.40352 0.35204,-0.56962 -0.97553,-2.69018 -2.95015,-4.71237 -3.83185,-3.92418 -4.60161,-7.43074 -2.27021,-10.34179 2.1165,-2.64272 3.72,-5.8278 3.72,-7.38914 0,-1.65879 6.61004,-6.72694 11.39724,-8.73866 1.78048,-0.74822 4.87715,-1.36039 6.88149,-1.36039 4.32546,0 6.87306,-0.83302 6.1459,-2.0096 -0.28839,-0.46662 0.13075,-0.59702 0.93144,-0.28977 0.80068,0.30725 2.72581,-0.3457 4.27806,-1.45099 2.99349,-2.13156 7.75562,-2.61787 10.6206,-1.08457 1.13612,0.60803 2.68156,0.56533 4.50934,-0.12457 2.29802,-0.86741 3.64246,-0.67899 7.74359,1.08527 5.18282,2.22959 5.29773,2.53112 2.87924,7.55613 -1.68525,3.50155 -5.35763,4.83075 -13.26097,4.79975 -8.04764,-0.0316 -11.55154,1.12559 -19.07121,6.2982 -4.03357,2.77462 -5.92811,3.46015 -9.56245,3.46015 -2.49274,0 -4.8075,0.27523 -5.14391,0.61164 -0.98378,0.98378 3.07403,6.00858 6.12733,7.5875 2.15231,1.11301 2.80431,2.11883 2.80431,4.3261 0,3.36302 0.49263,3.63187 13.18158,7.19379 l 8.86158,2.48754 7.22914,-1.98329 c 3.97602,-1.09077 8.87535,-1.98324 10.8874,-1.98324 5.27441,0 11.95613,2.54081 14.97893,5.69594 5.16167,5.38763 4.92616,14.09245 -0.42085,15.55545 -11.8659,3.2466 -16.90483,4.04635 -25.91778,4.1135 -7.4788,0.0557 -11.38059,0.55758 -15.12,1.94475 -2.772,1.0283 -5.04,2.16947 -5.04,2.53594 0,0.36645 -1.09766,0.94177 -2.43926,1.27849 -1.34159,0.33672 -2.17348,1.04226 -1.84864,1.56786 0.32484,0.52561 0.2345,0.87635 -0.20074,0.77945 -1.5681,-0.34913 -4.15136,1.3235 -4.15136,2.68799 0,0.76667 -0.39741,1.14833 -0.88313,0.84814 -1.45566,-0.89964 -4.67721,4.05434 -6.32701,9.72947 -1.56044,5.36768 -5.79433,12.78302 -7.29868,12.78302 -0.91962,0 -0.53886,4.89538 0.51316,6.59756 0.37858,0.61257 1.15723,0.82396 1.73033,0.46977 0.63551,-0.39276 0.76464,-0.19522 0.33102,0.5064 -0.39104,0.63271 -0.31513,1.67146 0.16868,2.30832 1.94821,2.56456 7.08402,18.12107 7.25885,21.98727 l 0.18678,4.13068 -5.43159,-0.31472 c -4.97478,-0.28827 -5.49122,-0.12686 -6.14062,1.91923 -0.38996,1.22867 -0.56749,6.9863 -0.3945,12.79473 0.64405,21.62385 -0.25377,29.18945 -3.78446,31.89024 -0.98411,0.75278 -5.33495,1.18034 -12.21129,1.2 -8.51392,0.0243 -10.93367,-0.27218 -11.91999,-1.46062 z m 89.32245,-146.94258 c -2.376,-0.71343 -6.645,-1.30369 -9.48669,-1.31171 -3.36967,-0.01 -6.20777,-0.65014 -8.16,-1.84195 -1.64631,-1.00505 -4.87071,-2.38184 -7.16532,-3.05952 -2.87442,-0.84892 -4.44412,-1.94783 -5.04687,-3.53318 -1.14735,-3.01775 -0.67129,-3.62728 4.69865,-6.016 3.41843,-1.52063 5.539,-1.8603 8.69984,-1.39357 3.49956,0.51675 4.54597,0.273 6.43116,-1.49804 2.72508,-2.56008 5.18392,-1.8901 5.34923,1.45756 0.0661,1.33657 0.228,2.86213 0.36,3.39013 0.132,0.528 0.294,1.3585 0.36,1.84555 0.066,0.48705 1.642,1.38785 3.50222,2.00178 2.41681,0.79762 3.92389,2.17803 5.28,4.83621 1.04378,2.04599 1.89778,4.12297 1.89778,4.6155 0,1.64014 -2.35495,1.8179 -6.72,0.50724 z m -15.9113,-46.90829 c -1.41364,-1.31011 -3.01464,-2.10736 -3.5578,-1.77168 -0.5709,0.35284 -0.69679,0.13987 -0.29838,-0.50476 1.20766,-1.95403 -2.19803,-2.33465 -5.76109,-0.64387 -3.24986,1.54217 -3.95362,1.53186 -13.19221,-0.19328 l -9.75922,-1.82235 -0.25001,-3.30103 c -0.29438,-3.88679 1.55753,-7.95677 3.8186,-8.39222 0.99496,-0.19161 2.17543,0.80386 3.12054,2.6315 0.8361,1.61684 1.95544,2.9397 2.48744,2.9397 2.08399,0 10.45284,-4.88296 11.89835,-6.94231 1.4964,-2.13186 1.59037,-2.14234 4.46463,-0.49769 3.73579,2.1376 7.39989,2.14098 9.75572,0.009 1.769,-1.60093 1.9433,-1.55842 4.15559,1.01353 2.90817,3.38095 2.89444,4.61457 -0.0908,8.1624 -2.6931,3.20057 -2.88704,4.22123 -1.28849,6.78093 1.32956,2.12897 0.47267,4.91414 -1.51191,4.91414 -0.78138,0 -2.57728,-1.0719 -3.99091,-2.38201 z M 197.90555,211.66037 c -1.9924,-1.26264 -0.90385,-4.38793 1.65499,-4.75154 3.12131,-0.44355 4.4033,1.05818 3.05463,3.57821 -1.15033,2.1494 -2.59965,2.51048 -4.70962,1.17333 z m 138.57446,-11.5148 c -2.71484,-0.58198 -2.88068,-0.88319 -2.89182,-5.25246 -0.009,-3.49934 -0.4794,-4.98362 -1.92,-6.05753 -3.01403,-2.24683 -7.7515,-0.93566 -12.52824,3.4674 -2.31937,2.13792 -4.83936,3.88713 -5.59997,3.88713 -0.76062,0 -2.01478,0.24245 -2.78704,0.53881 -0.94273,0.36175 -1.73687,-0.41576 -2.41681,-2.36623 -1.44314,-4.13982 -4.72612,-4.67321 -13.27775,-2.15728 -8.99914,2.64759 -10.13856,2.63646 -9.75871,-0.0953 0.26998,-1.94165 -0.15289,-2.18926 -4.18318,-2.44948 -5.57378,-0.35987 -7.97929,-2.54596 -3.73544,-3.39473 3.84267,-0.76853 6.54172,-4.79021 4.77882,-7.1206 -1.06601,-1.40916 -1.05886,-1.48993 0.045,-0.5086 1.0418,0.92612 1.54601,0.84699 2.44606,-0.38392 1.03152,-1.41068 1.82358,-1.32802 8.78229,0.91651 8.4724,2.73277 14.68013,2.8046 17.28473,0.2 2.32699,-2.327 0.5218,-4.88363 -3.14674,-4.45661 -1.52418,0.17741 -3.14822,0.68401 -3.60899,1.12576 -1.25387,1.20212 -5.52026,-1.08653 -5.19303,-2.78572 0.44722,-2.32219 6.47424,-5.86261 9.98019,-5.86261 1.752,0 4.7202,0.73186 6.59598,1.62636 2.84734,1.35781 3.93401,1.43706 6.58073,0.48 4.46346,-1.61401 6.17228,-1.43424 7.35389,0.77364 0.56516,1.056 1.84102,1.92 2.83527,1.92 4.61594,0 6.68818,3.99498 3.46136,6.673 -1.19883,0.99494 -1.16681,1.5845 0.24,4.41967 0.89286,1.79938 2.14137,3.08563 2.77448,2.85835 0.68369,-0.24544 0.93435,0.15164 0.61729,0.97787 -0.2936,0.76511 -0.0887,1.39111 0.45524,1.39111 0.54398,0 2.25824,1.06795 3.80947,2.37323 1.55124,1.30528 3.13239,2.06128 3.51366,1.68 0.38128,-0.38128 0.54924,-0.0452 0.37323,0.74677 -0.21418,0.96378 0.56732,1.54183 2.36314,1.74793 2.26895,0.26039 2.58241,0.63086 2.03061,2.4 -0.35889,1.15063 -1.1343,2.40945 -1.72313,2.79737 -1.26637,0.83426 -9.45618,0.76788 -13.55062,-0.10984 z m 11.58858,-14.10404 c -0.82972,-0.82971 -1.50858,-2.13927 -1.50858,-2.91012 0,-0.77086 -0.648,-1.65022 -1.44,-1.95414 -2.60616,-1.00008 -1.50782,-3.9003 2.82014,-7.44674 5.36449,-4.39579 5.93437,-6.21159 3.46723,-11.04758 -2.39803,-4.70053 -2.4071,-4.89284 -0.23085,-4.89284 3.49587,0 5.19766,2.45554 6.7032,9.6722 2.09917,10.06214 1.92454,12.66458 -1.11747,16.65286 -2.86881,3.7612 -6.13509,4.48495 -8.69367,1.92636 z M 182.36511,156.39215 c 0.6381,-0.76886 0.87489,-1.85956 0.52619,-2.42378 -0.3487,-0.56421 -0.26812,-0.90713 0.17908,-0.76205 0.44719,0.14508 2.49884,-1.60018 4.55921,-3.87837 6.50168,-7.189 11.81788,-8.54133 10.4556,-2.65967 -0.25501,1.10101 -0.54049,2.64983 -0.63442,3.44183 -0.33828,2.8526 -3.14883,4.93244 -5.77474,4.27337 -1.76877,-0.44393 -3.2318,-0.0412 -5.05234,1.39087 -3.04901,2.39835 -6.10414,2.84157 -4.25858,0.6178 z m -9.32807,-5.40745 c -1.1734,-2.77736 -2.49358,-4.61991 -3.05953,-4.27013 -0.55624,0.34377 -0.78291,0.0612 -0.5137,-0.64033 0.63564,-1.65646 -5.1609,-8.64576 -6.48937,-7.82472 -0.63939,0.39516 -0.74933,0.18136 -0.28941,-0.56282 0.48955,-0.79211 -2.95439,-4.90575 -10.1307,-12.1007 -9.13282,-9.15656 -11.10934,-10.71626 -12.35335,-9.74826 -1.25701,0.97809 -1.30557,0.92703 -0.32115,-0.3376 0.6379,-0.81947 0.91152,-2.43947 0.60803,-3.59999 -0.85557,-3.2717 -2.65966,-4.05367 26.18038,11.34765 7.28158,3.88854 19.194,8.22026 26.48723,9.63154 l 6.43547,1.24531 -1.63547,2.84431 c -0.8995,1.56438 -4.10762,4.91658 -7.12915,7.44935 -3.02152,2.53277 -6.84627,6.14556 -8.49945,8.02842 -4.35798,4.96347 -6.73305,4.58969 -9.28983,-1.46203 z m 39.31182,-27.63788 c -0.62192,-0.38436 -2.00226,-4.13187 -3.06744,-8.32778 -1.06518,-4.19592 -3.68891,-12.16494 -5.83052,-17.70894 -2.14161,-5.544 -5.09778,-13.182703 -6.56925,-16.974896 -3.01199,-7.762273 -2.66108,-9.991156 1.28961,-8.191104 1.35781,0.618661 2.46875,1.612319 2.46875,2.208128 0,0.59581 0.67043,0.82602 1.48986,0.511578 0.85271,-0.327216 1.23953,-0.166672 0.90451,0.3754 -0.74629,1.207521 6.31298,7.742579 7.54269,6.982578 0.50578,-0.312586 0.63049,-0.100566 0.27715,0.471156 -0.97461,1.576946 5.58567,8.3207 7.19023,7.39132 0.72356,-0.419089 1.02372,-0.436886 0.66703,-0.0396 -0.91514,1.01945 4.06867,6.38153 5.25175,5.65035 0.53539,-0.33089 0.68657,-0.13746 0.33596,0.42984 -0.79746,1.29032 4.04668,5.22141 5.40199,4.38379 0.55627,-0.3438 0.70955,-0.15259 0.3474,0.43337 -0.37001,0.5987 1.21392,2.32971 3.69167,4.03445 2.38687,1.6422 4.33314,3.28907 4.32506,3.65971 -0.0312,1.4288 -1.54526,2.7514 -4.5331,3.9598 -1.70929,0.69129 -2.83054,1.70552 -2.49167,2.25382 0.33887,0.5483 0.20972,0.74574 -0.28698,0.43877 -0.49672,-0.30699 -3.04746,0.67722 -5.66833,2.18712 -10.24177,5.90035 -11.64351,6.54651 -12.73637,5.87109 z m 86.06342,-17.13138 c -9.40173,-4.80542 -9.60351,-5.29355 -5.26851,-12.74534 1.38222,-2.376 2.51832,-4.887914 2.52467,-5.582033 0.0231,-2.519187 4.12034,-10.737967 5.35314,-10.737967 2.1242,0 2.56753,1.735139 3.34768,13.1026 0.58413,8.51134 1.20759,11.72195 2.80056,14.42181 1.89994,3.22016 2.05428,6.26857 0.30032,5.93138 -0.41257,-0.0793 -4.48861,-2.05502 -9.05786,-4.39045 z m -52.65227,-0.83714 c 0,-0.3145 0.81289,-1.7185 1.80641,-3.12 3.46228,-4.88403 4.91359,-11.27803 4.91359,-21.64776 0,-12.145991 0.84174,-18.82044 2.3735,-18.82044 1.26614,0 5.42117,7.913173 7.27191,13.849188 0.64634,2.073053 2.84454,6.352029 4.88488,9.508835 2.04034,3.156806 3.70971,6.098177 3.70971,6.536387 0,0.43821 1.296,2.90302 2.88,5.47734 1.584,2.57433 2.88,4.95682 2.88,5.29443 0,0.3376 -2.98599,0.61382 -6.63555,0.61382 -3.64955,0 -10.02155,0.64793 -14.16,1.43984 -8.25711,1.58003 -9.92445,1.72592 -9.92445,0.86836 z"
     id="path140"
     inkscape:connector-curvature="0" />
</svg>
