<?xml version="1.0" encoding="UTF-8" standalone="no"?>
<!-- Created with Inkscape (http://www.inkscape.org/) -->

<svg
   xmlns:dc="http://purl.org/dc/elements/1.1/"
   xmlns:cc="http://creativecommons.org/ns#"
   xmlns:rdf="http://www.w3.org/1999/02/22-rdf-syntax-ns#"
   xmlns:svg="http://www.w3.org/2000/svg"
   xmlns="http://www.w3.org/2000/svg"
   xmlns:sodipodi="http://sodipodi.sourceforge.net/DTD/sodipodi-0.dtd"
   xmlns:inkscape="http://www.inkscape.org/namespaces/inkscape"
   version="1.1"
   id="svg170"
   width="518.40002"
   height="518.40002"
   viewBox="0 0 518.40002 518.40002"
   sodipodi:docname="monkey_bomb.svg"
   inkscape:version="0.92.4 (5da689c313, 2019-01-14)">
  <metadata
     id="metadata176">
    <rdf:RDF>
      <cc:Work
         rdf:about="">
        <dc:format>image/svg+xml</dc:format>
        <dc:type
           rdf:resource="http://purl.org/dc/dcmitype/StillImage" />
        <dc:title></dc:title>
      </cc:Work>
    </rdf:RDF>
  </metadata>
  <defs
     id="defs174" />
  <sodipodi:namedview
     pagecolor="#ffffff"
     bordercolor="#666666"
     borderopacity="1"
     objecttolerance="10"
     gridtolerance="10"
     guidetolerance="10"
     inkscape:pageopacity="0"
     inkscape:pageshadow="2"
     inkscape:window-width="640"
     inkscape:window-height="480"
     id="namedview172"
     showgrid="false"
     inkscape:zoom="0.59992281"
     inkscape:cx="259.20001"
     inkscape:cy="259.20001"
     inkscape:window-x="0"
     inkscape:window-y="0"
     inkscape:window-maximized="1"
     inkscape:current-layer="svg170" />
  <path
     style="fill:#000000;stroke-width:0.96000004"
     d="m 169.33506,439.80964 c -7.29401,-2.29492 -15.66152,-7.5181 -18.62064,-11.62338 -1.14175,-1.584 -3.62015,-7.80712 -5.50754,-13.82915 -2.87053,-9.15883 -3.36544,-11.9843 -3.0268,-17.28 0.53099,-8.30354 3.5731,-14.54842 10.33262,-21.21086 4.26601,-4.20473 6.71989,-5.7366 12.04965,-7.52213 17.38093,-5.82281 17.73446,-5.99781 19.63222,-9.71772 0.99009,-1.94073 2.47498,-4.08864 3.29975,-4.77314 0.82478,-0.68451 1.2914,-1.58143 1.03694,-1.99316 -0.43063,-0.69677 6.11007,0.40963 6.63416,1.12221 0.13105,0.17817 0.81229,1.76429 1.51387,3.52471 1.63779,4.10955 4.92501,5.44849 8.64885,3.52281 1.52084,-0.78646 3.03406,-1.865 3.36269,-2.39675 0.99375,-1.6079 5.30794,-1.08753 7.90227,0.95317 3.00259,2.36184 10.8895,2.59604 15.96789,0.47415 3.63132,-1.51726 3.79055,-1.84123 5.785,-11.77044 l 1.06907,-5.32223 7.68,-1.91039 c 4.32833,-1.07667 11.24115,-1.95297 15.84,-2.00794 7.51061,-0.0898 8.63601,0.15747 14.14128,3.10719 5.05632,2.70917 6.57741,3.10403 9.83619,2.55347 3.5107,-0.59313 7.70253,-4.02424 7.70253,-6.3047 0,-2.29689 -3.3473,-3.77911 -8.53433,-3.77911 -6.01945,0 -14.39052,-2.13311 -18.23391,-4.64636 -1.34039,-0.8765 -4.39787,-3.65169 -6.79442,-6.16707 -2.39653,-2.51539 -5.27745,-5.53939 -6.40204,-6.72 -1.12458,-1.18062 -3.12548,-3.11474 -4.44645,-4.29805 -3.00897,-2.69541 -3.57371,-5.58974 -2.60879,-13.3703 0.90528,-7.29966 2.05197,-8.95822 6.19352,-8.95822 2.58575,0 3.91651,-0.94051 8.04193,-5.68361 4.83816,-5.56255 5.67805,-6.01805 13.44391,-7.29106 5.06483,-0.83025 10.18544,-3.87317 17.17131,-10.20404 6.68911,-6.06194 10.29468,-10.84395 9.34039,-12.388 -0.30296,-0.49022 0.0116,-0.6931 0.69902,-0.45087 0.68743,0.24223 2.97786,-0.74636 5.08986,-2.19686 3.43998,-2.36256 4.14282,-3.57481 6.74693,-11.63711 5.43474,-16.82591 11.01117,-19.85959 34.96145,-19.01969 14.38523,0.50447 18.87839,1.48413 43.05557,9.38762 20.11982,6.57714 27.58011,6.48572 31.77297,-0.38933 2.00067,-3.28051 3.48449,-13.63627 4.40009,-30.70879 0.37513,-6.9948 1.08814,-11.41423 2.16834,-13.44 0.88517,-1.66005 1.48459,-3.45026 1.33204,-3.97826 -0.15257,-0.528 0.0409,-0.64172 0.42989,-0.25272 0.389,0.389 2.09693,-0.15159 3.79539,-1.20129 4.65223,-2.87524 11.12543,-3.45219 16.34924,-1.45719 4.19058,1.60039 4.36004,1.81513 4.08013,5.17047 -0.27835,3.33671 -0.55956,3.59541 -6.00196,5.52166 -8.39853,2.97253 -8.65081,3.61365 -8.67208,22.03915 -0.01,8.57124 -0.28686,15.42072 -0.61548,15.22105 -0.32862,-0.19965 -0.84296,1.14966 -1.14297,2.99849 -0.77199,4.75715 -6.87923,14.38078 -10.53468,16.60024 -6.81806,4.13969 -18.58526,4.4196 -27.52989,0.65486 -19.66991,-8.27895 -33.08021,-10.42761 -48.27183,-7.73432 -8.18985,1.45196 -14.77574,4.22165 -14.40315,6.05723 0.132,0.65031 -0.28485,1.07437 -0.92634,0.94237 -1.45473,-0.29934 -20.00659,24.33769 -19.24923,25.56313 0.30373,0.49144 0.1059,0.61767 -0.43962,0.28053 -1.25262,-0.77416 -8.11205,7.90908 -7.29377,9.23307 0.36089,0.58395 0.12675,0.68397 -0.57943,0.24753 -0.71448,-0.44157 -1.7151,0.0244 -2.51989,1.17334 -3.23237,4.61487 -12.01824,8.52498 -21.02472,9.35695 -2.1056,0.19451 -9.16039,7.88473 -9.16441,9.98986 -9.6e-4,0.75042 0.73704,2.18169 1.64103,3.18059 1.19669,1.32233 1.5847,3.22433 1.42692,6.99482 -0.17273,4.1279 0.12682,5.34998 1.47638,6.02318 5.66116,2.82393 42.18581,7.77394 53.53308,7.25508 12.09029,-0.55284 14.43576,-1.04823 17.61044,-3.71954 3.64167,-3.06427 14.56073,-8.12681 26.54956,-12.30952 5.28,-1.8421 12.72389,-4.46523 16.54198,-5.82916 7.63945,-2.72902 12.53329,-3.17042 13.28992,-1.19869 0.27039,0.70465 -0.83182,5.99439 -2.44936,11.75498 -1.61755,5.76059 -3.20347,12.70703 -3.52427,15.43651 l -0.58327,4.96271 9.48251,-2.23035 c 5.21537,-1.22669 10.9945,-2.37765 12.8425,-2.55769 l 3.36,-0.32733 0.28269,5.87998 c 0.28051,5.83461 0.25622,5.89561 -3.14644,7.90323 -1.88603,1.11279 -6.65646,3.36678 -10.60096,5.00888 -3.9445,1.6421 -7.39258,3.34284 -7.6624,3.7794 -0.26982,0.43658 1.13341,1.32725 3.11826,1.97928 1.98487,0.65203 6.20085,2.34952 9.36885,3.77221 3.168,1.42268 7.13296,3.12357 8.81101,3.77976 3.40283,1.33062 4.62398,3.29522 2.89192,4.65256 -1.42183,1.11425 -18.50658,6.30643 -28.07933,8.53353 -3.92899,0.91407 -7.14361,2.03152 -7.14361,2.48322 0,0.4517 -0.35807,0.59996 -0.79571,0.32948 -0.43765,-0.27048 -4.43365,0.42291 -8.88,1.54087 -12.83717,3.22768 -16.99408,2.87005 -28.11328,-2.41862 -5.20794,-2.47707 -10.06216,-4.50378 -10.78715,-4.50378 -0.72499,0 -3.45623,4.428 -6.06941,9.84 -2.61319,5.41201 -6.2474,12.07957 -8.07604,14.81681 -1.82864,2.73724 -3.05753,5.24408 -2.73086,5.57073 0.32666,0.32667 -0.21977,0.2817 -1.2143,-0.0999 -1.3552,-0.52004 -1.61135,-0.37534 -1.02241,0.57759 0.50335,0.81442 0.41332,1.04126 -0.25042,0.63104 -0.56993,-0.35223 -3.55268,0.82649 -6.62833,2.6194 -3.07565,1.7929 -10.79688,5.01197 -17.15829,7.15348 -10.39158,3.49822 -16.88013,5.30378 -36.6738,10.20515 -3.3,0.81716 -8.7,2.15608 -12,2.97538 -3.3,0.81929 -7.08,1.65626 -8.4,1.85991 -1.32,0.20367 -9.096,1.91773 -17.28,3.80904 -20.24884,4.67949 -46.32957,9.17522 -52.77485,9.09719 -2.91784,-0.0353 -7.03315,-0.6079 -9.14515,-1.27239 z M 206.627,346.6147 c -3.20703,-2.24629 -8.07987,-10.57576 -11.15687,-19.07115 -8.70407,-24.03134 -9.31799,-26.13071 -9.32649,-31.89381 -0.0107,-7.22942 1.24035,-9.03545 6.7451,-9.73752 6.75817,-0.86194 7.91332,-1.7884 7.34319,-5.88945 -0.26888,-1.93408 -1.19251,-5.89252 -2.05253,-8.79652 -1.91029,-6.45051 -1.57082,-15.30901 0.92294,-24.0845 l 1.79726,-6.32449 -2.09033,-2.2437 c -2.57827,-2.76745 -3.61215,-7.74838 -2.16831,-10.44622 1.1314,-2.11405 3.8941,-2.79398 3.8941,-0.95838 0,0.58449 0.63416,0.81936 1.40925,0.52192 0.77509,-0.29742 1.70584,-0.0609 2.06833,0.52562 0.3991,0.64576 0.22188,0.79621 -0.44925,0.38142 -1.98711,-1.2281 -1.17553,0.4789 2.49167,5.24072 5.99017,7.77819 8.98703,8.36954 24.96,4.92521 3.7925,-0.8178 4.07956,-0.73667 4.07367,1.1513 -0.004,1.1171 -0.86463,3.3271 -1.91367,4.9111 -1.04904,1.584 -1.9102,4.03127 -1.91368,5.43838 -0.004,1.4071 -1.68425,5.7271 -3.73504,9.6 -5.94754,11.23185 -8.90734,19.03236 -9.87726,26.0314 -0.49684,3.58528 -1.52675,8.28561 -2.28868,10.44516 -1.75375,4.97064 -1.78523,13.557 -0.0621,16.93274 0.72779,1.42578 1.78422,4.7717 2.34764,7.4354 1.20573,5.70047 6.33755,16.98848 7.29027,16.03576 0.66478,-0.66478 0.2288,0.94747 -1.53971,5.69381 -1.79499,4.8174 -12.16635,7.39998 -16.76951,4.1758 z m 16.5452,-18.02845 c -0.18843,-0.66 -1.25487,-3.72244 -2.36987,-6.80542 -2.37766,-6.57425 -2.57533,-10.94491 -0.62117,-13.73486 0.77337,-1.10413 1.20537,-2.20825 0.96,-2.45361 -0.24536,-0.24536 0.12201,-0.44611 0.81636,-0.44611 2.11258,0 7.20182,-4.27848 10.00636,-8.41227 1.45815,-2.14925 4.04404,-5.29328 5.74642,-6.98673 2.65827,-2.64431 3.21681,-2.86178 3.95631,-1.54036 0.83422,1.49067 -1.49196,6.12304 -4.97104,9.89936 -4.72465,5.12831 -6.84821,10.04169 -7.47071,17.28534 -0.81826,9.52152 -4.69101,17.96404 -6.05266,13.19466 z m -63.91714,-51.49073 c -2.904,-1.4713 -7.008,-3.57296 -9.12,-4.67037 -5.49467,-2.85507 -18.8935,-7.93582 -20.90399,-7.92667 -0.93719,0.004 -4.12922,-0.84463 -7.09338,-1.88645 -2.96417,-1.04182 -5.86938,-1.62056 -6.45602,-1.28609 -0.58664,0.33448 -0.74606,0.25433 -0.35428,-0.17812 0.80133,-0.88448 -8.17833,-5.66895 -13.80191,-7.35381 -5.071444,-1.51945 -6.945955,-3.95051 -7.531285,-9.76739 -0.397745,-3.9527 -0.838327,-4.93363 -2.168811,-4.82875 -0.918318,0.0724 -1.430937,-0.25467 -1.139154,-0.72679 0.291784,-0.47211 -0.242549,-1.15505 -1.187406,-1.51762 -4.525829,-1.73672 -11.21947,-9.1132 -11.857627,-13.06726 -0.923076,-5.71943 5.42813,-7.34903 11.791005,-3.02534 1.970567,1.33903 3.589465,2.09503 3.597551,1.68 0.0081,-0.41504 0.422515,-0.10954 0.920956,0.67887 0.617451,0.97667 0.85422,-0.44396 0.742967,-4.45784 -0.17033,-6.14538 0.816628,-8.40005 4.046807,-9.24476 3.118837,-0.8156 5.584207,2.55417 6.320137,8.63861 0.76276,6.30627 1.71872,7.94822 4.63198,7.95587 7.83028,0.0205 13.07177,4.70383 13.07886,11.68607 0.002,1.94229 0.63749,4.16532 1.41225,4.94008 1.96251,1.96252 28.90047,8.32849 35.24245,8.32849 4.05613,0 5.93918,-0.53364 8.4689,-2.4 1.78916,-1.32 3.57799,-2.4 3.97519,-2.4 0.39719,0 2.29905,2.37567 4.22636,5.27926 1.92729,2.9036 3.90508,5.0315 4.3951,4.72865 0.49,-0.30285 0.78843,-0.19451 0.66317,0.24073 -0.12525,0.43525 0.28234,1.70935 0.90577,2.83135 1.25226,2.25372 3.14752,15.72147 2.39487,17.01796 -1.09799,1.89135 -7.33834,3.49883 -13.40963,3.45422 -5.15767,-0.0379 -7.60819,-0.6038 -11.79083,-2.7229 z m 7.55471,-40.31019 c -2.30709,-2.09965 -4.57842,-3.81248 -5.04739,-3.80632 -0.46896,0.006 -1.15425,-0.47676 -1.52287,-1.07319 -0.36968,-0.59816 -5.15298,-1.45186 -10.66733,-1.90385 -10.06644,-0.82511 -19.59725,-3.55299 -22.47777,-6.43351 -0.79164,-0.79164 -1.43936,-2.60849 -1.43936,-4.03743 0,-1.45939 -0.89229,-3.36209 -2.03588,-4.34126 -1.88584,-1.6147 -1.92001,-1.85907 -0.46354,-3.31552 1.08748,-1.08748 3.74454,-1.68205 8.61631,-1.92806 l 7.04397,-0.3557 0.6073,3.03656 c 0.56723,2.83612 0.84576,3.01685 4.21959,2.73788 2.38213,-0.19697 3.52243,-0.73163 3.34847,-1.57004 -0.14508,-0.69924 0.12541,-1.03082 0.6011,-0.73683 0.47569,0.29399 2.09159,-1.29389 3.5909,-3.52864 1.4993,-2.23475 3.53918,-4.87549 4.53307,-5.86831 1.4699,-1.46832 1.56559,-1.97264 0.51289,-2.70289 -0.93307,-0.64725 -0.75846,-0.7506 0.62583,-0.3704 1.42515,0.39144 2.49949,-0.32134 4.16847,-2.76564 1.31567,-1.92685 1.94878,-3.81216 1.52608,-4.54446 -0.3973,-0.68831 -0.37716,-0.93952 0.0447,-0.55824 0.42193,0.38128 2.05743,-0.39247 3.63445,-1.71945 3.35732,-2.825 4.05247,-2.46993 3.7569,1.91894 -0.14963,2.22179 0.72774,4.74495 2.8207,8.11181 2.88595,4.64252 2.99974,5.18772 2.27516,10.9012 -0.41949,3.30785 -0.86731,10.98227 -0.99515,17.05427 -0.27315,12.97419 -0.87796,13.62242 -7.27667,7.79908 z m 46.68529,-0.12913 c -1.056,-0.37634 -2.4163,-0.49858 -3.0229,-0.27165 -0.60659,0.22692 -1.42934,-0.11561 -1.82833,-0.76118 -0.5072,-0.82068 -0.31983,-0.92934 0.6229,-0.36117 1.14514,0.69015 1.15131,0.56968 0.0409,-0.79945 -3.02503,-3.72994 2.7421,-6.27612 6.96884,-3.07672 1.00179,0.75829 2.10145,1.20565 2.4437,0.99413 0.34225,-0.21152 0.60261,0.77431 0.57857,2.19075 -0.0465,2.73957 -1.99914,3.44116 -5.8037,2.08529 z m 0.90238,-8.8468 c -2.31952,-1.82452 -3.60278,-5.24418 -2.27571,-6.06435 0.88258,-0.54547 8.57719,3.23288 9.68182,4.75415 2.18835,3.01371 -3.87646,4.08664 -7.40611,1.3102 z m 85.81358,-4.24657 c 1.58005,-0.67764 -15.18673,-8.22554 -16.85231,-7.5864 -0.66034,0.2534 -1.0978,-0.003 -0.97213,-0.56864 0.23893,-1.07647 -9.08337,-4.92864 -14.34348,-5.92704 l -3.05197,-0.57929 2.88787,6.17125 c 1.58833,3.39418 2.62571,6.59543 2.30528,7.1139 -0.52646,0.85183 -15.63044,-5.15772 -16.84922,-6.70396 -1.11913,-1.41981 -4.92441,-2.85283 -5.92817,-2.23247 -0.62665,0.3873 -0.82539,0.24703 -0.4684,-0.3306 0.34104,-0.55182 -0.45621,-1.70853 -1.77168,-2.57045 -1.31546,-0.86193 -2.39175,-1.30983 -2.39175,-0.99533 0,0.31449 -1.13826,-0.32355 -2.52947,-1.41788 -1.3912,-1.09432 -3.1192,-1.98967 -3.84,-1.98967 -0.72079,0 -1.31053,-0.432 -1.31053,-0.96 0,-0.528 -0.81478,-0.96 -1.81062,-0.96 -1.68266,0 -4.90938,4.96314 -4.90938,7.55131 0,1.38451 -3.0466,2.86083 -4.69363,2.27442 -0.92337,-0.32875 -1.08615,-0.0744 -0.52914,0.82688 0.44248,0.71593 -0.7138,-0.20003 -2.56948,-2.03546 l -3.37397,-3.33715 1.44639,-4.56015 c 1.36735,-4.31091 1.34457,-4.63736 -0.41689,-5.97296 -1.0248,-0.77706 -2.42572,-1.21394 -3.11314,-0.97086 -0.68742,0.24309 -1.02557,0.0791 -0.75144,-0.36449 0.63854,-1.03318 -5.91373,-3.01154 -9.97416,-3.01154 -2.84083,0 -3.06007,0.20961 -2.51033,2.4 0.52312,2.08425 0.28422,2.4 -1.81592,2.4 -1.33007,0 -3.28837,-0.87008 -4.3518,-1.93351 l -1.9335,-1.9335 0.63006,3.94018 0.63006,3.94018 -3.25655,-0.27497 c -1.79111,-0.15123 -4.05853,-0.94623 -5.03872,-1.76667 -2.40057,-2.00935 -5.41784,-8.0823 -5.41784,-10.90468 0,-2.49568 -2.67599,-5.46703 -4.92359,-5.46703 -0.77683,0 -1.92102,-0.50861 -2.54266,-1.13025 -0.867,-0.86699 -0.01,-2.3148 3.67969,-6.21604 4.1182,-4.35438 4.77698,-5.57505 4.58081,-8.48789 -0.2451,-3.6393 -2.66021,-6.53122 -6.40435,-7.66877 -1.71277,-0.52038 -2.89482,-0.066 -4.9499,1.90295 -5.60341,5.3684 -9.98381,-0.4124 -5.36398,-7.07882 2.44394,-3.52662 2.58991,-6.84118 0.30126,-6.84118 -0.5595,0 -0.7606,-0.25669 -0.44687,-0.57043 0.31374,-0.31372 -0.91026,-1.87048 -2.72,-3.45944 -3.43785,-3.01848 -4.28269,-6.20962 -1.88731,-7.12881 1.31678,-0.50531 9.51791,1.46746 21.63216,5.20355 2.90139,0.8948 6.67492,2.85582 8.38561,4.35783 2.64843,2.32536 3.64711,2.64096 6.72474,2.12515 3.25541,-0.5456 4.04344,-0.22323 7.93439,3.24594 4.65541,4.15077 5.76,4.64604 5.76,2.58267 0,-0.72794 1.23475,-1.83498 2.74389,-2.46008 1.50914,-0.62511 3.71181,-2.44575 4.89483,-4.04587 1.99833,-2.70289 8.56368,-6.50098 11.32128,-6.54943 0.66,-0.0116 1.2,0.8921 1.2,2.00821 0,1.11611 0.93872,3.69953 2.08605,5.74092 1.89299,3.36811 1.949,3.86888 0.60527,5.41071 -3.06498,3.51682 -2.61984,4.47738 3.34549,7.21908 3.15922,1.452 6.17704,2.64 6.70626,2.64 0.52922,0 2.8573,-1.74684 5.17352,-3.88186 4.07956,-3.76041 6.08341,-4.20228 6.08341,-1.34148 0,0.76083 0.432,1.38334 0.96,1.38334 0.528,0 0.96,-0.39347 0.96,-0.87436 0,-1.20436 8.50206,-5.24868 11.87949,-5.65094 3.39217,-0.404 7.94132,1.37671 8.72336,3.41465 0.35668,0.92949 -0.4984,2.65524 -2.21583,4.47211 -3.87996,4.10458 -4.91163,6.45337 -4.44703,10.12443 0.56073,4.43071 2.74961,7.37388 7.15581,9.62176 6.9346,3.53777 11.81727,1.81354 12.83187,-4.53135 0.81247,-5.08096 -0.22853,-8.08806 -4.40767,-12.73221 -3.98675,-4.43038 -4.4886,-7.33401 -1.83415,-10.61212 1.41211,-1.74388 2.6897,-2.16677 6.37767,-2.11101 5.53865,0.0837 9.39218,2.58713 10.12949,6.58051 0.3536,1.91517 1.04465,2.73378 2.224,2.63453 0.94105,-0.0792 1.46014,0.10684 1.15355,0.41344 -0.30659,0.30659 0.54044,1.70337 1.88228,3.10395 4.96954,5.18709 4.08611,17.31453 -1.51985,20.86398 l -2.83744,1.79654 2.98269,4.50304 c 1.64049,2.47668 3.39948,4.50305 3.90888,4.50305 0.50941,0 0.68945,0.38305 0.40011,0.85122 -0.28935,0.46817 0.0976,1.36884 0.85986,2.00147 0.76227,0.63263 2.50372,3.05757 3.8699,5.38876 1.36617,2.3312 2.92324,4.23855 3.46013,4.23855 0.53691,0 0.72766,0.40215 0.42388,0.89366 -0.30378,0.49152 -0.17174,1.12888 0.2934,1.41636 0.46515,0.28747 0.79562,1.50532 0.73438,2.70632 -0.0986,1.93439 -0.60433,2.18155 -4.43006,2.16516 -2.37529,-0.0102 -5.31734,-0.37174 -6.53787,-0.80347 -2.11565,-0.74835 -2.18912,-0.62482 -1.57507,2.64836 0.68872,3.67118 0.56329,3.79477 -4.84578,4.77533 -1.584,0.28714 -2.30582,0.27583 -1.60404,-0.0251 z m -79.03596,-1.55139 c -3.80445,-1.2625 -6.24,-3.46932 -6.24,-5.65398 0,-2.17745 2.84401,-2.33557 6.64596,-0.3695 1.49083,0.77094 2.8909,1.22142 3.11126,1.00107 0.22035,-0.22036 0.49582,0.84848 0.61215,2.37518 0.2603,3.41611 -0.44666,3.86933 -4.12937,2.64723 z m -101.67981,-19.1932 c -0.18337,-0.65559 -0.70843,-2.91999 -1.1668,-5.03199 -0.6812,-3.13871 -1.50065,-4.16593 -4.48706,-5.6247 -3.03666,-1.48332 -3.60407,-2.21285 -3.36,-4.32 0.29016,-2.50506 0.40817,-2.54252 9.89366,-3.14057 5.28,-0.3329 12.16335,-1.0889 15.29632,-1.68 10.95236,-2.06639 21.66369,-0.81724 21.66369,2.52642 0,0.82134 -2.052,3.75112 -4.56,6.51064 -2.508,2.75952 -5.26602,6.04126 -6.12891,7.29277 -1.34935,1.95699 -2.35699,2.27544 -7.2,2.27544 -4.41831,0 -6.33211,-0.49997 -8.88596,-2.3214 -3.10703,-2.21598 -3.31274,-2.24225 -4.52925,-0.57857 -0.7009,0.95855 -1.04672,2.11118 -0.76848,2.5614 0.27825,0.45021 0.0229,0.81857 -0.56741,0.81857 -0.59032,0 -0.86296,0.34036 -0.60586,0.75634 0.2571,0.41599 -0.59635,0.84439 -1.89655,0.952 -1.30019,0.1076 -2.51402,-0.34075 -2.69739,-0.99635 z m -5.8439,-23.75798 c -0.91793,-1.48525 0.31674,-4.46501 4.72839,-11.41157 2.21539,-3.48834 5.21635,-9.2046 6.66882,-12.70278 3.93417,-9.47535 6.1664,-11.35108 18.74175,-15.7486 8.68868,-3.03837 11.47068,-1.66084 5.97867,2.96039 -4.5076,3.79288 -4.39643,6.58623 0.48066,12.07756 3.99994,4.50372 4.20542,5.02411 4.20542,10.6505 0,5.11161 -0.35054,6.2813 -2.57961,8.60796 -2.02281,2.11135 -3.448,2.69253 -6.60277,2.69253 -2.21273,0 -5.62145,0.66781 -7.57493,1.48403 -2.74221,1.14576 -5.35843,1.33744 -11.47784,0.84091 -5.23211,-0.42453 -8.61302,-0.27547 -9.9472,0.43857 -1.34205,0.71824 -2.22281,0.75537 -2.62136,0.1105 z m 58.32371,-2.5498 c -0.67333,-0.27169 -1.2,-2.13446 -1.2,-4.24421 0,-5.64511 4.49686,-9.28684 8.4042,-6.80605 1.69595,1.07677 1.16137,5.67186 -0.64524,5.54641 -0.79497,-0.0552 -1.61644,0.76364 -1.82548,1.81964 -0.41585,2.1006 -1.97892,4.36398 -2.93103,4.2442 -0.33135,-0.0417 -1.14245,-0.29368 -1.80245,-0.55999 z m 80.32734,-23.01948 c -1.28004,-1.3944 -4.22392,-3.75518 -6.54195,-5.24618 -2.31804,-1.49099 -4.70397,-3.69812 -5.30207,-4.90472 -0.78137,-1.57631 -2.07402,-2.27647 -4.59233,-2.48743 -3.42732,-0.2871 -7.39778,-3.02782 -4.48853,-3.09834 2.60407,-0.0632 -3.22974,-3.80806 -5.93216,-3.80806 -3.52968,0 -4.32888,-1.43504 -2.42091,-4.34698 2.48241,-3.78863 5.83751,-4.03321 9.96427,-0.72638 4.61755,3.70009 7.05342,4.91179 8.82634,4.39055 1.18753,-0.34914 1.20686,-0.26033 0.1103,0.50653 -1.08481,0.75864 -0.97545,1.11948 0.59378,1.95931 1.05791,0.56618 2.23227,0.72062 2.60969,0.34319 0.37743,-0.37742 0.54223,-0.21578 0.36623,0.35922 -0.34359,1.12249 3.92084,5.03334 7.84,7.18997 1.32,0.72637 5.00628,1.33347 8.19174,1.34913 4.42573,0.0218 6.40461,0.51056 8.39028,2.07248 3.16216,2.48735 2.43907,3.29731 -5.06202,5.67022 -2.904,0.91865 -5.6904,2.03984 -6.192,2.49152 -1.65465,1.48997 -3.99948,0.8581 -6.36066,-1.71403 z m -41.68734,-2.00244 c -3.80893,-0.54229 -4.68902,-1.54132 -3.95038,-4.4843 0.80578,-3.21048 3.78332,-4.83184 6.35038,-3.45799 2.02203,1.08216 2.64412,5.19915 0.94434,6.24967 -0.53661,0.33164 -0.72712,1.00514 -0.42334,1.49666 0.30377,0.49151 0.41882,0.82894 0.25566,0.74983 -0.16316,-0.0791 -1.59266,-0.32836 -3.17666,-0.55387 z m 65.51998,-3.2192 c -0.92401,-0.53819 -2.32437,-2.22456 -3.11192,-3.74749 -1.36063,-2.6312 -1.30982,-2.86499 1.0213,-4.69865 2.99949,-2.3594 4.7368,-1.83871 8.86482,2.65683 l 3.17419,3.45679 -2.08055,1.68471 c -2.31867,1.87756 -5.3307,2.12556 -7.86784,0.64781 z m -78.79005,-6.45533 c -2.27223,-2.51077 -2.03901,-8.02334 0.47461,-11.2189 2.78763,-3.5439 8.91568,-6.20195 14.35792,-6.22778 9.49572,-0.045 8.01416,6.10485 -1.66406,6.90745 -6.50958,0.53982 -9.14257,2.79029 -9.3519,7.99326 -0.16878,4.19528 -1.51267,5.09176 -3.81657,2.54597 z m 16.11634,-0.24233 c -2.34663,-3.79694 3.8191,-8.57149 6.98311,-5.40748 1.36918,1.36918 1.35973,1.73148 -0.10337,3.96446 -1.6572,2.52921 -5.68615,3.37428 -6.87974,1.44302 z m 43.04333,-1.53542 c -0.40856,-1.06472 0.39926,-2.49189 2.44528,-4.32001 3.20578,-2.86436 4.5692,-3.24286 6.73618,-1.87001 1.01104,0.64052 0.4618,1.61983 -2.4,4.27933 -4.09919,3.80941 -5.86223,4.30615 -6.78146,1.91069 z m -11.8096,-7.97041 c 0,-2.4456 2.04443,-4.71438 4.79201,-5.31785 2.60627,-0.57244 3.06466,-1.06246 2.80873,-3.00257 -0.0436,-0.33045 1.13555,-1.39772 2.6203,-2.37171 4.13299,-2.7112 4.83434,-0.70974 1.59714,4.55786 -2.01099,3.2723 -3.64212,4.78392 -5.64336,5.22988 -1.54815,0.34499 -3.57082,0.94293 -4.49482,1.32873 -1.04373,0.43581 -1.68,0.27509 -1.68,-0.42434 z m 19.91231,-26.52729 c -0.96945,-0.96945 1.78953,-8.651592 5.47212,-15.236672 1.96038,-3.50551 3.21514,-6.81988 2.83323,-7.48386 -0.37702,-0.65548 -0.34212,-0.88169 0.0776,-0.50268 0.80754,0.72933 4.53446,-5.07008 11.25848,-17.51921 5.86927,-10.86659 6.62474,-11.07774 16.35168,-4.57025 10.49052,7.01834 13.29326,8.37661 20.28846,9.83218 4.89317,1.01817 5.85332,1.53863 5.69142,3.08506 -0.2286,2.18341 -6.27875,12.49261 -8.83602,15.05619 -2.22527,2.23076 -8.99337,2.27689 -16.40922,0.11183 -2.904,-0.84782 -6.01543,-1.60333 -6.91429,-1.67892 -0.89885,-0.0756 -1.42605,-0.34565 -1.17154,-0.60015 0.77296,-0.77297 -6.49566,-3.92699 -7.54929,-3.2758 -0.54697,0.33804 -0.69145,0.13724 -0.32632,-0.45354 0.36036,-0.58309 -0.19248,-1.51384 -1.22856,-2.06833 -2.59276,-1.3876 -2.57962,-1.39453 -4.00854,2.11183 -0.6993,1.716 -2.48397,4.8107 -3.96592,6.8771 -1.48196,2.06641 -3.33625,5.91823 -4.12066,8.55961 -1.92113,6.469172 -5.25496,9.943222 -7.44257,7.755612 z m 99.12769,-2.91898 c -4.44206,-2.1099 -7.33674,-2.640902 -18.24,-3.345972 -7.128,-0.46094 -17.75708,-0.56931 -23.62018,-0.24083 -10.40329,0.58285 -10.69806,0.54319 -12.2311,-1.64554 -1.93726,-2.76581 -1.27014,-3.44999 3.91953,-4.01976 4.2764,-0.46949 7.32372,-2.23509 6.40983,-3.7138 -0.29744,-0.48125 -9.6e-4,-0.7563 0.65861,-0.61122 0.65968,0.14508 2.23616,-1.57222 3.50329,-3.81622 l 2.30388,-4.08 18.40807,0.0572 c 10.12444,0.0315 20.56807,0.46451 23.20807,0.96229 5.24079,0.98817 5.46992,1.05317 9.4225,2.67298 1.48637,0.60913 3.49215,1.10751 4.45729,1.10751 1.45919,0 3.57579,2.64299 2.70281,3.37499 -0.14443,0.12111 -4.5826,0.46098 -9.8626,0.75528 -5.28,0.29429 -10.67189,0.93587 -11.98199,1.42571 -2.34825,0.87802 -2.31488,0.93677 2.35579,4.14732 5.08511,3.49546 9.1462,7.348162 9.1462,8.676872 0,1.6222 -5.38302,0.75213 -10.56,-1.70684 z"
     id="path180"
     inkscape:connector-curvature="0" />
</svg>
