<?xml version="1.0" encoding="UTF-8" standalone="no"?>
<!-- Created with Inkscape (http://www.inkscape.org/) -->

<svg
   xmlns:dc="http://purl.org/dc/elements/1.1/"
   xmlns:cc="http://creativecommons.org/ns#"
   xmlns:rdf="http://www.w3.org/1999/02/22-rdf-syntax-ns#"
   xmlns:svg="http://www.w3.org/2000/svg"
   xmlns="http://www.w3.org/2000/svg"
   xmlns:sodipodi="http://sodipodi.sourceforge.net/DTD/sodipodi-0.dtd"
   xmlns:inkscape="http://www.inkscape.org/namespaces/inkscape"
   version="1.1"
   id="svg190"
   width="576"
   height="576"
   viewBox="0 0 576 576"
   sodipodi:docname="monkey_sign.svg"
   inkscape:version="0.92.4 (5da689c313, 2019-01-14)">
  <metadata
     id="metadata196">
    <rdf:RDF>
      <cc:Work
         rdf:about="">
        <dc:format>image/svg+xml</dc:format>
        <dc:type
           rdf:resource="http://purl.org/dc/dcmitype/StillImage" />
        <dc:title></dc:title>
      </cc:Work>
    </rdf:RDF>
  </metadata>
  <defs
     id="defs194" />
  <sodipodi:namedview
     pagecolor="#ffffff"
     bordercolor="#666666"
     borderopacity="1"
     objecttolerance="10"
     gridtolerance="10"
     guidetolerance="10"
     inkscape:pageopacity="0"
     inkscape:pageshadow="2"
     inkscape:window-width="640"
     inkscape:window-height="480"
     id="namedview192"
     showgrid="false"
     inkscape:zoom="0.53993056"
     inkscape:cx="288"
     inkscape:cy="288"
     inkscape:window-x="0"
     inkscape:window-y="0"
     inkscape:window-maximized="1"
     inkscape:current-layer="svg190" />
  <path
     style="fill:#000000;stroke-width:0.95999998"
     d="m 325.09526,518.19383 c -1.35067,-1.06243 -2.74566,-3.25162 -3.09999,-4.86487 -0.6746,-3.07146 -0.95891,-3.26889 -5.94604,-4.12893 -2.07694,-0.35817 -3.56533,-0.0491 -4.56152,0.94703 -0.81327,0.81326 -2.23398,1.33346 -3.15715,1.15597 -1.99976,-0.38445 -2.94182,-5.40856 -3.04731,-16.25175 -0.0392,-4.02284 -0.73234,-11.10574 -1.54045,-15.73979 -0.87663,-5.02696 -1.38659,-12.91913 -1.26424,-19.56575 0.17776,-9.65809 -0.0738,-11.76313 -1.89071,-15.82225 -1.15267,-2.57511 -2.09576,-5.07299 -2.09576,-5.55083 0,-0.47784 -0.63201,-2.38141 -1.40446,-4.23013 l -1.40445,-3.36135 -5.55555,5.87075 c -3.05555,3.2289 -5.98754,6.59139 -6.51554,7.47217 -1.57642,2.62971 -0.93066,33.12365 0.87567,41.35119 2.01128,9.16101 3.16673,26.97024 1.74981,26.97024 -0.56447,0 -3.00664,-0.84887 -5.42706,-1.88638 l -4.40074,-1.88638 -1.41034,3.37541 c -1.30838,3.13139 -1.56855,3.2879 -3.59884,2.16497 -1.20367,-0.66574 -2.77648,-1.08985 -3.49513,-0.94246 -1.90945,0.39161 -4.40648,-2.79299 -4.7624,-6.07376 -0.47626,-4.38992 -2.02583,-6.48602 -2.06178,-2.78894 -0.0325,3.34722 -2.12067,5.66554 -4.33697,4.81507 -0.79872,-0.3065 -1.45222,-1.46032 -1.45222,-2.56405 0,-1.10374 -0.42706,-1.74286 -0.94901,-1.42028 -0.52195,0.32259 -0.73297,0.0235 -0.46893,-0.66451 0.69769,-1.81814 -8.0266,-16.33809 -9.33197,-15.53132 -0.65158,0.4027 -0.79625,0.22163 -0.37173,-0.46527 0.38225,-0.61851 -1.74166,-6.37104 -4.71982,-12.78341 -6.66034,-14.34058 -11.54656,-32.42367 -10.6294,-39.33758 0.48028,-3.62051 0.10573,-5.78474 -1.82231,-10.52966 -1.33475,-3.28486 -2.42683,-6.94987 -2.42683,-8.14447 0,-4.91373 -1.56747,-6.82612 -6.15939,-7.51471 -6.0785,-0.91152 -7.28061,-2.42959 -7.28061,-9.19418 0,-3.09913 0.324,-5.83093 0.72,-6.07067 1.17707,-0.71261 2.61849,1.55957 2.94516,4.64258 0.16784,1.584 0.73137,3.312 1.25228,3.84 1.30802,1.32582 50.21908,1.02589 64.20256,-0.39369 6.072,-0.61642 20.76,-1.72562 32.64,-2.46488 33.13081,-2.06165 54.58524,-5.40545 57.36,-8.93987 0.66,-0.84069 1.2,-3.55975 1.2,-6.04233 0,-2.96752 0.45704,-4.68919 1.33415,-5.02578 1.67724,-0.64361 2.50585,3.14807 2.50585,11.46655 0,5.48 -0.20078,6.12 -1.92,6.12 -1.056,0 -1.92,0.4575 -1.92,1.01666 0,0.55916 -0.38289,0.78002 -0.85086,0.49079 -0.99534,-0.61516 -1.99733,2.6117 -2.01604,6.4926 -0.0298,6.17783 -9.83127,38.33834 -13.53607,44.41433 -0.99749,1.6359 -2.43068,6.1719 -3.18488,10.08 -0.75419,3.90809 -1.84256,8.32987 -2.41858,9.82618 -0.57601,1.49631 -0.76147,3.18306 -0.41211,3.74832 0.34936,0.56528 0.19794,0.75753 -0.33649,0.42724 -1.19222,-0.73683 -4.00886,4.74232 -8.29902,16.14388 -3.0634,8.14132 -6.65254,21.63045 -6.18882,23.25952 0.11593,0.40726 -0.34313,1.74037 -1.02013,2.96247 -0.96982,1.75069 -1.51321,1.98769 -2.56189,1.11735 -1.46217,-1.21349 -3.69723,-0.38193 -2.81411,1.047 0.8709,1.40916 -0.0575,1.05456 -2.71783,-1.03804 z m -107.0997,-60.7083 c -0.73423,-0.7339 -3.83979,-1.2 -7.99541,-1.2 -6.12783,0 -6.97158,-0.2356 -8.59498,-2.4 -0.99007,-1.32 -2.27696,-4.992 -2.85976,-8.16 -1.29288,-7.02787 -5.33112,-18.26065 -7.25723,-20.18676 -0.77727,-0.77729 -1.11348,-1.41324 -0.74711,-1.41324 0.36636,0 0.2289,-0.54 -0.30546,-1.2 -1.65715,-2.04673 -8.98623,-19.91889 -12.30251,-30 -1.73692,-5.28 -4.27137,-12.30537 -5.63212,-15.61192 -1.36074,-3.30656 -3.13868,-10.21856 -3.95096,-15.36 -0.81229,-5.14145 -2.10262,-12.02886 -2.86741,-15.30538 -1.76019,-7.54104 -1.7357,-22.88678 0.0494,-31.0027 1.72366,-7.83625 1.72366,-7.68 0,-7.68 -2.32315,0 -2.02521,-6.35134 2.5444,-54.24 1.54847,-16.22752 1.45297,-15.62273 3.63698,-23.03695 2.40748,-8.17281 2.40364,-7.82797 0.0939,-8.43198 -1.79553,-0.46955 -1.7227,-0.89508 1.53921,-8.99197 1.88316,-4.67451 6.84838,-15.0871 11.03382,-23.1391 6.72636,-12.94027 7.38088,-14.64 5.63751,-14.64 -1.77701,0 -1.66104,-0.34878 1.17092,-3.52151 1.72881,-1.93683 4.18677,-4.42083 5.46216,-5.52 1.27538,-1.09917 3.78111,-3.25032 5.56828,-4.78033 1.78717,-1.53001 3.06205,-3.27007 2.83307,-3.8668 -0.25018,-0.65194 0.59262,-1.04101 2.11172,-0.97484 1.68182,0.0733 2.63974,0.72494 2.8617,1.94681 0.72197,3.97432 7.00151,23.8828 7.85903,24.91605 0.50086,0.6035 0.70293,1.305 0.44905,1.5589 -0.25389,0.25389 1.47695,6.24144 3.84631,13.30568 4.67643,13.94273 4.58492,17.41032 -0.30488,11.55313 -2.56086,-3.0675 -2.92365,-3.19477 -7.77699,-2.72843 -5.86558,0.56361 -7.0417,1.79979 -6.27781,6.59841 0.3018,1.8959 0.68852,16.1519 0.85938,31.68 0.40347,36.67001 2.12009,75.17711 3.99702,89.66105 2.91079,22.46208 2.00317,35.51476 -2.22549,32.00528 -0.93594,-0.77675 -1.20087,-2.13709 -0.81588,-4.18927 0.65909,-3.51321 -0.77122,-14.77212 -2.55836,-20.13864 -2.01549,-6.0522 -3.35925,-5.17466 -3.79156,2.47609 -0.27536,4.87326 -0.83777,7.19658 -1.93661,8.00006 -1.31225,0.95955 -1.40383,1.92857 -0.60012,6.35046 0.6468,3.55864 0.61983,6.90521 -0.0848,10.52302 -0.70143,3.60128 -0.75111,9.24027 -0.1547,17.5594 1.07016,14.92761 2.56097,18.67782 8.18015,20.57771 3.64579,1.23267 8.29296,4.69939 7.9562,5.9352 -0.34036,1.249 2.30699,4.93901 3.1636,4.4096 0.49546,-0.30621 0.64357,0.11369 0.32913,0.93311 -0.37571,0.97907 -0.0234,1.48986 1.02765,1.48986 0.87965,0 1.33237,0.432 1.00605,0.96 -0.32632,0.528 -0.13582,0.96 0.42334,0.96 1.39648,0 1.28685,6.06581 -0.13534,7.488 -0.6336,0.6336 -2.3616,1.152 -3.84,1.152 -1.4784,0 -2.688,0.49237 -2.688,1.09417 0,0.60179 -0.7027,1.60799 -1.56155,2.23599 -1.27155,0.92978 -1.35442,1.52886 -0.44622,3.22584 1.15148,2.15156 4.32235,2.81553 5.36777,1.124 0.32632,-0.528 1.6131,-0.96 2.8595,-0.96 1.85813,0 2.52972,0.82111 3.72969,4.56 2.04998,6.38744 2.15072,8.05922 0.6507,10.8 -2.44757,4.47213 -6.11611,6.01924 -8.53642,3.6 z m 159.9446,-19.68 c -3.4138,-3.589 -4.22601,-7.31391 -2.25176,-10.327 1.6759,-2.55776 4.27316,-3.09953 6.10022,-1.27247 0.85404,0.85404 1.25361,0.77373 1.6801,-0.33768 0.35443,-0.92363 1.37882,-1.30161 2.79433,-1.03101 1.561,0.29841 2.70423,-0.24305 3.7919,-1.79592 2.10642,-3.00734 1.95871,-3.99839 -0.40722,-2.73218 -1.0804,0.57821 -3.3484,0.91741 -5.04,0.75377 -2.93915,-0.28431 -3.08863,-0.49987 -3.36824,-4.85751 -0.16093,-2.508 -0.70093,-4.56 -1.2,-4.56 -1.35385,0 -1.09539,-7.29194 0.3839,-10.83084 0.7102,-1.69903 2.00144,-3.67811 2.86943,-4.39794 0.86797,-0.71982 1.37154,-1.64305 1.11903,-2.0516 -0.2525,-0.40857 0.29225,-0.68362 1.21057,-0.61124 0.92345,0.0728 1.55178,-0.43658 1.40588,-1.13974 -0.14507,-0.69924 0.13501,-1.02489 0.6224,-0.72366 0.4874,0.30122 2.26481,-0.74014 3.94978,-2.31414 2.90354,-2.71231 3.03974,-3.15099 2.60667,-8.39633 -0.25131,-3.04398 -2.20499,-10.50251 -4.34151,-16.57451 -2.16811,-6.16176 -4.35529,-14.64565 -4.94984,-19.2 -1.01431,-7.76988 -6.10135,-26.51176 -7.63159,-28.11668 -0.65482,-0.68677 -2.9732,24.19258 -2.95832,31.7468 0.006,2.9576 -2.08868,5.15499 -3.53501,3.70867 -0.31812,-0.31812 -0.91391,-5.87949 -1.32397,-12.3586 -1.33248,-21.05351 -3.74738,-45.25166 -5.20068,-52.11265 -0.83618,-3.94756 -1.42766,-11.91817 -1.43747,-19.37088 -0.01,-6.96484 -0.34067,-12.86323 -0.73667,-13.10754 -0.396,-0.2443 -0.41359,-5.9938 -0.0391,-12.77665 0.65491,-11.86171 0.0683,-35.4505 -0.92398,-37.157 -0.26371,-0.45351 -1.28492,1.49049 -2.26938,4.32 -0.98445,2.82949 -2.32733,6.16971 -2.9842,7.42272 l -1.1943,2.27819 -0.53937,-2.27819 c -0.29666,-1.25301 -0.0109,-3.35819 0.6348,-4.67819 0.6458,-1.32 1.89357,-5.856 2.77284,-10.08 0.87927,-4.224 2.61632,-12.216 3.86013,-17.76 7.37419,-32.86896 7.30982,-32.65434 9.77879,-32.60806 2.50532,0.0469 5.11535,2.57075 9.89502,9.56806 5.75476,8.42483 7.85362,12.46603 12.39586,23.86728 4.21751,10.58619 5.79179,17.41272 4.01556,17.41272 -0.59549,0 -1.0827,0.864 -1.0827,1.92 0,1.056 0.33943,1.92 0.75428,1.92 0.41487,0 0.78374,0.756 0.81972,1.68 0.036,0.924 2.25551,10.752 4.93227,21.84 5.50558,22.80582 9.53019,43.87604 10.44271,54.67114 0.34,4.02216 0.96928,7.53002 1.3984,7.79522 0.42912,0.26521 0.2967,1.54341 -0.29425,2.84042 -0.87631,1.92328 -1.33193,2.14455 -2.47035,1.19974 -1.20056,-0.99637 -1.32896,-0.42444 -0.9177,4.08751 0.26299,2.88528 0.97522,13.66997 1.58274,23.96597 0.60751,10.296 1.57431,22.71209 2.14844,27.59132 0.73378,6.2361 0.74369,9.65811 0.0333,11.52 -0.55579,1.45677 -1.27858,8.26468 -1.60621,15.12868 -0.32762,6.864 -1.1798,14.64 -1.89374,17.28 -0.71393,2.64 -1.58334,8.472 -1.93205,12.96 -0.83344,10.72716 -1.92881,14.6178 -6.13744,21.79948 -3.78668,6.46165 -6.81129,8.46741 -11.68905,7.75151 -1.6146,-0.23698 -3.15812,-0.0709 -3.43004,0.36907 -0.27191,0.43997 -2.11607,0.79994 -4.09812,0.79994 -2.68259,0 -4.2456,-0.67481 -6.11488,-2.64 z M 235.25797,340.2772 c -0.58807,-0.70858 -0.85663,-1.50092 -0.5968,-1.76075 0.25984,-0.25984 0.51954,-3.56808 0.57714,-7.35168 0.08,-5.25698 0.42653,-6.87924 1.46938,-6.87924 1.92372,0 2.81488,2.90237 1.20429,3.92219 -0.79248,0.50179 -0.89082,0.85441 -0.24073,0.86311 0.60455,0.008 1.32575,1.6347 1.60269,3.6147 0.27693,1.98 0.80467,4.788 1.17275,6.24 0.59653,2.35323 0.40913,2.64 -1.72514,2.64 -1.3169,0 -2.87552,-0.57974 -3.46358,-1.28833 z m 92.03412,-0.48778 c 0,-1.33504 0.78083,-2.22329 2.28666,-2.60123 2.71793,-0.68215 4.07886,-6.19912 2.25115,-9.12575 -1.55521,-2.49027 0.48928,-4.70711 2.92861,-3.17552 1.1977,0.75201 1.73068,2.59936 1.93322,6.70073 0.33685,6.82114 -0.88183,8.84685 -5.80279,9.64541 -3.20458,0.52003 -3.59685,0.36259 -3.59685,-1.44364 z m -80.28663,0.0949 c -0.78847,-0.52156 -2.49032,-10.39079 -1.87248,-10.85872 0.0435,-0.0329 2.02311,-0.27576 4.39911,-0.53955 5.6653,-0.62901 7.50514,0.83664 8.28438,6.59947 0.56406,4.17155 0.44711,4.56 -1.37307,4.56 -1.54304,0 -2.05719,-0.70035 -2.29048,-3.12 -0.42917,-4.45107 -3.16416,-4.25093 -3.23029,0.23638 -0.0496,3.37034 -1.63365,4.63294 -3.91717,3.12242 z m 21.78132,-2.10411 c -2.33217,-2.33217 -2.61531,-7.35564 -0.54362,-9.64482 1.07958,-1.19293 2.43539,-1.44728 5.52,-1.03559 3.58628,0.47863 4.12627,0.87031 4.39274,3.18622 0.28892,2.51107 0.17493,2.5915 -2.32555,1.64082 -3.32211,-1.26307 -5.17826,-0.57178 -5.17826,1.92855 0,2.15883 1.47777,2.43573 5.28132,0.98963 2.37926,-0.9046 2.50862,-0.80681 2.22249,1.68 -0.26281,2.28414 -0.78229,2.68027 -3.84912,2.93519 -2.57263,0.21384 -4.08708,-0.24709 -5.52,-1.68 z m 13.00677,0.10947 c -0.30666,-0.49618 -0.63081,-3.00409 -0.72035,-5.57315 -0.0896,-2.56905 -0.50454,-5.88612 -0.92223,-7.37126 -0.67929,-2.41537 -0.53677,-2.66858 1.35086,-2.4 1.16064,0.16514 2.54226,1.29307 3.07026,2.50652 0.58151,1.33643 1.5686,2.04828 2.50365,1.80553 2.53838,-0.65897 4.56051,1.10435 5.61321,4.89475 1.51494,5.45483 1.32213,6.13769 -1.63686,5.79721 -2.33876,-0.2691 -2.60527,-0.65116 -2.33556,-3.34828 0.24854,-2.48558 -0.0158,-2.99705 -1.44,-2.78601 -1.29076,0.19126 -1.74444,1.10215 -1.74444,3.50249 0,3.19091 -2.41619,5.11181 -3.73854,2.9722 z m 33.73854,0.0965 c -3.32611,-0.34793 -3.60081,-0.60954 -3.61057,-3.43863 -0.006,-1.68412 -0.27833,-4.68204 -0.60561,-6.66204 -0.52778,-3.19308 -0.37022,-3.6 1.39391,-3.6 1.09392,0 2.21143,0.35997 2.48334,0.79994 0.27192,0.43997 1.77099,0.61257 3.33128,0.38357 2.11168,-0.30993 3.09549,0.0668 3.84849,1.47384 1.24596,2.32805 0.55673,3.10261 -2.76084,3.10261 -3.47757,0 -4.15592,0.93973 -2.22138,3.07738 0.89255,0.98624 1.6853,2.6413 1.76166,3.6779 0.0763,1.0366 0.10305,1.8121 0.0592,1.72334 -0.0438,-0.0888 -1.69957,-0.33083 -3.67957,-0.53795 z m -19.66131,-1.57876 c -0.30544,-0.49421 -0.0566,-0.59032 0.55298,-0.21358 0.60958,0.37674 1.10833,0.25298 1.10833,-0.27502 0,-0.528 -0.42315,-1.22153 -0.94034,-1.54116 -1.28987,-0.79718 0.99335,-4.31499 2.85127,-4.39301 0.80302,-0.0337 0.45022,-0.46118 -0.79133,-0.9588 -2.95151,-1.18297 -2.22183,-3.01706 1.59367,-4.00575 4.45827,-1.15525 6.88673,0.4595 6.88673,4.57918 0,1.82943 0.432,3.32623 0.96,3.32623 0.528,0 0.96,0.864 0.96,1.92 0,1.23826 -0.64,1.92 -1.80246,1.92 -1.95754,0 -4.30412,-2.21343 -3.35392,-3.16362 0.90898,-0.90902 -0.50841,-5.47642 -1.69946,-5.47642 -0.75332,0 -0.76389,0.35588 -0.0366,1.2322 0.62211,0.74959 0.68966,1.77097 0.17247,2.6078 -0.51307,0.83017 -0.45854,1.8475 0.13756,2.56575 0.54325,0.65458 0.70614,1.64577 0.36197,2.20264 -0.74706,1.20877 -6.16918,0.95447 -6.96084,-0.32648 z m 30.34763,-0.36189 c -0.0625,-0.396 -0.0625,-1.044 0,-1.44 0.0625,-0.396 -0.34012,-0.72 -0.89477,-0.72 -0.60316,0 -0.89617,-1.84864 -0.72908,-4.59984 0.26866,-4.42351 0.38093,-4.58494 2.92845,-4.21104 2.93269,0.43043 3.21818,1.20566 1.47303,4.00009 -0.98542,1.57791 -0.88384,2.09683 0.62666,3.20134 2.2657,1.65671 1.11697,3.83897 -1.57162,2.98565 -1.30653,-0.41467 -1.74055,-0.26775 -1.30255,0.44096 0.36128,0.58456 0.41538,1.06284 0.12022,1.06284 -0.29516,0 -0.58782,-0.324 -0.65034,-0.72 z m 14.60836,-1.56592 c -0.64862,-0.78154 -1.21902,-2.81769 -1.26756,-4.52477 -0.15386,-5.41162 6.59875,-8.74629 10.27226,-5.07279 2.39218,2.39217 1.4242,4.63908 -2.14724,4.98431 -3.03095,0.29297 -4.31615,-1.095 -1.91214,-2.06504 0.75778,-0.30577 0.61874,-0.51214 -0.37729,-0.56 -2.01163,-0.0967 -3.10259,2.65385 -1.71554,4.32514 0.68123,0.82084 2.09474,1.07069 3.95381,0.69888 2.4727,-0.49455 2.84326,-0.31409 2.54798,1.24074 -0.45165,2.37829 -7.57331,3.11946 -9.35428,0.97353 z m -101.4245,-16.4854 c -0.2366,-0.76378 -0.64313,-2.06406 -0.9034,-2.88952 -0.26748,-0.84834 -0.95803,-1.20122 -1.58833,-0.81168 -0.69593,0.43011 -0.85591,0.26978 -0.42557,-0.42651 0.37925,-0.61364 0.01,-1.79521 -0.82049,-2.62573 -0.83053,-0.83051 -1.26457,-1.9072 -0.96455,-2.39264 0.77123,-1.24789 4.27216,-1.1003 4.27216,0.18011 0,0.58449 0.59911,0.83281 1.33135,0.55183 0.94227,-0.36159 1.21971,0.0994 0.94935,1.57729 -0.2101,1.14849 -0.1252,1.54817 0.18866,0.88817 0.31385,-0.66 1.14664,-1.2 1.85064,-1.2 0.704,0 1.4979,0.54 1.76421,1.2 0.26631,0.66 0.51831,-0.1785 0.56,-1.86334 0.0951,-3.84689 1.2612,-4.61956 3.40181,-2.25422 1.44291,1.59441 1.50797,2.32083 0.49232,5.49737 -1.54205,4.82293 -2.26542,5.48335 -6.28797,5.74067 -2.26406,0.14485 -3.53289,-0.24436 -3.82019,-1.1718 z m 13.7674,-0.1421 c -1.96491,-2.19685 -2.25807,-3.85354 -1.35617,-7.66404 0.90885,-3.83985 5.13178,-5.1672 8.7976,-2.76526 2.68706,1.76063 3.19369,5.77776 0.84247,6.68001 -4.21991,1.61934 -6.78923,-0.32554 -4.04948,-3.06529 0.85734,-0.85734 0.86598,-1.152 0.0338,-1.152 -1.51301,0 -3.37962,3.66168 -2.72983,5.35501 0.29767,0.77571 1.81466,1.36499 3.51393,1.36499 3.86738,0 3.31121,2.28869 -0.65286,2.68658 -1.82062,0.18274 -3.41467,-0.33901 -4.39943,-1.44 z m 23.48242,0.99763 c -1.36721,-0.55168 -1.65467,-4.16421 -0.33135,-4.16421 1.07043,0 0.11776,-8.03658 -1.00492,-8.47744 -1.48988,-0.58506 1.14007,-4.00256 3.08018,-4.00256 2.34152,0 2.51016,0.50916 3.25903,9.84 0.58623,7.30419 0.55697,7.43862 -1.60291,7.36421 -1.21001,-0.0417 -2.74003,-0.29369 -3.40003,-0.56 z m 13.92,-0.0259 c -1.86084,-0.48628 -2.24052,-3.19372 -0.66836,-4.76588 0.70884,-0.70885 0.6184,-2.71374 -0.30216,-6.69847 l -1.31378,-5.68683 3.18215,0.37149 c 1.75019,0.20433 3.20818,0.64824 3.23999,0.98648 0.76059,8.08736 1.15224,10.3683 1.91057,11.12697 1.41734,1.41797 1.07428,4.10015 -0.60693,4.74529 -1.634,0.62702 -2.8047,0.61002 -5.44148,-0.079 z m 15.6,-2.58081 c 0,-0.79429 0.432,-1.71116 0.96,-2.03748 1.43265,-0.88543 1.10155,-6.45212 -0.51053,-8.58348 -2.22109,-2.93654 -1.72734,-4.37652 1.50065,-4.37652 3.53395,0 3.94593,0.92816 4.13964,9.32625 l 0.15024,6.51373 -3.12,0.30083 c -2.27065,0.21892 -3.12,-0.0924 -3.12,-1.14335 z m 9.15343,0.0256 c -1.89162,-1.38314 -1.2966,-3.50312 0.98323,-3.50312 2.37586,0 1.51016,-2.81159 -1.06469,-3.45783 -2.90016,-0.7279 -2.85388,-3.59786 0.0648,-4.0184 3.19068,-0.45973 5.48178,1.97287 5.61879,5.96577 0.15654,4.56175 -2.71077,7.12783 -5.60213,5.01362 z m 9.25391,-0.92503 c -1.14804,-1.22203 -2.08734,-3.38203 -2.08734,-4.8 0,-6.26013 8.47764,-8.69967 11.49005,-3.30641 2.15162,3.85213 0.46875,6.07155 -4.39798,5.8002 -2.91963,-0.16279 -3.36789,0.004 -2.05919,0.76372 0.92008,0.53449 2.21608,0.90094 2.88,0.81434 3.28966,-0.42912 4.09244,0.12706 2.22364,1.54055 -2.69031,2.03485 -5.65548,1.73557 -8.04918,-0.8124 z m -57.0356,-9.13813 c 0.44764,-3.04997 2.88996,-3.67583 4.70889,-1.20667 1.43655,1.9501 -0.0695,3.92667 -2.99191,3.92667 -1.77759,0 -2.05232,-0.4352 -1.71698,-2.72 z m -51.77163,-6.63994 c -0.0879,-0.396 -0.21764,-2.448 -0.28824,-4.56 -0.0706,-2.112 -0.48605,-5.93435 -0.92322,-8.4941 -0.7234,-4.23556 -0.6349,-4.62329 0.98412,-4.31149 2.54201,0.48954 4.19438,4.36882 4.22778,9.92559 0.0158,2.64 0.34623,4.33649 0.73415,3.76998 0.38791,-0.56652 1.48868,-1.31946 2.44614,-1.67322 1.93358,-0.71441 1.32827,-2.57676 -0.8375,-2.57676 -1.74202,0 -1.79198,-2.91418 -0.0899,-5.24195 1.00992,-1.38114 1.46332,-1.49406 2.06833,-0.51515 0.51216,0.82869 0.39911,1.02153 -0.33346,0.56877 -0.6096,-0.37674 -1.10835,-0.27787 -1.10835,0.21971 0,0.49757 0.86285,1.13033 1.91744,1.40611 2.27273,0.59433 3.69458,3.90386 3.07334,7.15362 -0.55682,2.91283 -4.33946,4.86453 -6.29024,3.24553 -1.06029,-0.87996 -1.47897,-0.80601 -1.9183,0.33886 -0.57148,1.48924 -3.37038,2.05825 -3.66213,0.7445 z m 18.73408,-1.0138 c -3.2407,-0.31467 -4.7667,-2.69979 -5.3285,-8.32839 -0.2139,-2.14297 0.15467,-2.94816 1.4668,-3.20435 2.28563,-0.44625 4.28776,2.35867 3.73765,5.23637 -0.23868,1.2486 0.002,2.27017 0.53523,2.27017 1.45335,0 2.15103,-2.55804 1.53616,-5.63235 -0.39272,-1.96358 -0.11965,-2.89505 0.97146,-3.31375 1.74382,-0.66916 3.46701,1.91904 3.46701,5.2074 0,1.18114 0.69032,2.91032 1.53404,3.84262 1.9145,2.11549 0.87863,4.02183 -1.73468,3.1924 -1.07748,-0.34198 -2.22913,-0.25156 -2.55922,0.20095 -0.33007,0.4525 -1.96176,0.69052 -3.62595,0.52893 z m 12.52811,-2.76779 c -1.563,-4.83244 -2.61537,-7.01841 -3.37877,-7.01841 -0.46394,0 -0.84353,-0.432 -0.84353,-0.96 0,-0.528 0.648,-0.96 1.44,-0.96 0.792,0 1.44,-0.6225 1.44,-1.38334 0,-2.1244 1.6035,-2.63602 3.21403,-1.02548 0.79686,0.79685 2.34369,1.44882 3.4374,1.44882 1.09372,0 2.02162,0.324 2.06202,0.72 0.0404,0.396 0.20657,1.39694 0.36927,2.22433 0.19603,0.99682 -0.38543,1.48262 -1.72348,1.44 -1.12816,-0.0359 -2.15897,0.62225 -2.33574,1.49143 -0.24601,1.20955 0.24657,1.44813 2.21357,1.07212 2.22021,-0.42442 2.49037,-0.20352 2.20646,1.80424 -0.26594,1.88063 -0.96571,2.341 -3.93125,2.58629 -2.79876,0.2315 -3.73378,-0.0914 -4.16998,-1.44 z m 18.13893,-3.1874 c -0.21408,-4.98053 1.36132,-7.39129 4.13466,-6.32705 1.23138,0.47252 1.32111,0.88702 0.42561,1.96603 -0.8408,1.0131 -0.86005,1.88054 -0.0743,3.34865 1.34792,2.51861 2.56083,2.51288 3.91558,-0.0185 0.84224,-1.57374 0.74671,-2.35741 -0.44832,-3.67791 -0.83523,-0.92292 -1.22967,-1.96698 -0.87652,-2.32013 1.29792,-1.29792 3.19876,-0.57964 4.75615,1.79722 1.25162,1.91022 1.37479,2.92988 0.56787,4.70088 -0.82022,1.80019 -2.072,2.40339 -6.13617,2.95686 -2.80816,0.38243 -5.32175,1.03349 -5.58575,1.44682 -0.264,0.41332 -0.56944,-1.32947 -0.67877,-3.87286 z m 80.35877,3.41416 c 0,-0.76716 0.48363,-2.45629 1.07474,-3.75362 0.92167,-2.02284 0.7014,-2.84826 -1.54647,-5.79538 -2.46023,-3.22552 -2.72884,-6.33617 -0.54714,-6.33617 0.52876,0 1.91956,1.296 3.09067,2.88 1.1711,1.584 2.43777,2.88 2.81482,2.88 0.37706,0 1.13734,-1.296 1.68953,-2.88 0.99929,-2.86657 3.48311,-3.9022 4.20011,-1.75123 0.20694,0.62082 -0.86083,3.41281 -2.37283,6.2044 -2.1389,3.94906 -2.53177,5.48169 -1.77003,6.90501 1.26539,2.36442 0.50079,3.04182 -3.4334,3.04182 -2.15839,0 -3.2,-0.45402 -3.2,-1.39483 z m -64.8964,-0.30078 c -0.58102,-0.38742 -1.06792,-2.21639 -1.08199,-4.06439 -0.0141,-1.848 -0.18668,-4.224 -0.3836,-5.28 -0.31853,-1.70832 0.23366,-1.95124 5.00849,-2.20332 6.30736,-0.33301 7.1398,0.36269 8.09266,6.76332 0.65617,4.40773 0.59849,4.56 -1.72745,4.56 -2.55885,0 -3.57171,-1.54223 -3.57171,-5.43852 0,-3.79654 -2.33496,-2.11138 -2.88,2.07852 -0.48777,3.74965 -1.55255,4.85386 -3.4564,3.58439 z m 14.74959,-1.42439 c -1.48931,-1.1502 -2.04146,-3.18631 -1.80373,-6.65143 0.1372,-2.00004 2.86374,-4.83083 4.21809,-4.37938 1.25903,0.41967 1.79554,3.59081 0.60751,3.59081 -0.48129,0 -0.87506,0.8582 -0.87506,1.90712 0,1.27947 1.12854,2.37865 3.42909,3.33988 1.886,0.78802 3.1565,1.87382 2.82334,2.41288 -0.84847,1.37285 -6.52952,1.22412 -8.39924,-0.21988 z m 20.38681,-2.64 c -2.16892,-2.16892 -2.34728,-3.55118 -0.93688,-7.26081 0.89897,-2.36448 1.31768,-2.54091 4.89201,-2.0615 l 3.9089,0.52429 -0.60147,-3.20613 c -0.36674,-1.95486 -0.18267,-3.46496 0.47163,-3.86934 1.91185,-1.18159 3.25331,1.40092 3.89687,7.50209 0.34643,3.28426 0.95547,6.98135 1.35343,8.21574 0.63308,1.9637 0.44266,2.20377 -1.52296,1.92 -1.80115,-0.26004 -2.44625,-1.2057 -3.25402,-4.77009 -0.9228,-4.07196 -1.18912,-4.37725 -3.16751,-3.63093 -2.6772,1.00991 -2.81371,3.41982 -0.24,4.23668 1.056,0.33516 1.92,1.44427 1.92,2.46469 0,2.52137 -4.17413,2.48118 -6.72,-0.0647 z m 14.77395,-0.41018 c -1.19439,-3.11255 0.0498,-5.82338 2.81838,-6.14056 2.17677,-0.24939 2.65539,0.0349 2.42396,1.44 -0.1586,0.96291 0.0802,2.33904 0.53066,3.05807 0.51724,0.8256 0.33153,1.61611 -0.50395,2.1453 -2.02099,1.28006 -4.68235,1.0261 -5.26905,-0.50281 z m 7.80299,-0.78982 c -0.22154,-0.66 -0.53198,-2.28 -0.68986,-3.6 -0.21721,-1.8159 -0.92959,-2.47393 -2.92708,-2.70376 -4.24657,-0.48862 -3.33717,-3.05624 1.08246,-3.05624 3.8767,0 5.63933,1.26463 6.12621,4.39534 0.15778,1.01457 0.62387,2.38466 1.03576,3.04466 0.41188,0.66 0.48189,1.632 0.15557,2.16 -0.8434,1.36464 -4.3027,1.19106 -4.78306,-0.24 z m -38.89694,-1.09147 c 0,-0.79922 0.73559,-1.86478 1.63465,-2.36792 1.41513,-0.79195 1.45471,-1.13162 0.29469,-2.52935 -1.2098,-1.45773 -1.06553,-1.58331 1.48535,-1.29291 2.52766,0.28776 2.82531,0.67563 2.82531,3.68165 0,3.08906 -0.25159,3.38426 -3.12,3.66083 -2.27835,0.21967 -3.12,-0.0912 -3.12,-1.1523 z M 270.35062,276.1359 c -2.32773,-1.30267 -2.01034,-2.39038 1.26147,-4.32308 1.584,-0.93569 2.88047,-1.93211 2.88106,-2.21428 5.7e-4,-0.28215 -2.15915,-0.44671 -4.79939,-0.36569 -2.64024,0.081 -4.63877,-0.13496 -4.44118,-0.48 0.1976,-0.34502 0.0117,-1.49132 -0.41315,-2.54732 -0.57787,-1.43647 -0.78938,-0.89249 -0.83986,2.16 -0.0682,4.11929 -1.40167,5.24181 -3.60712,3.03636 -0.75154,-0.75154 -1.2242,-0.75154 -1.68866,0 -1.91095,3.09197 -6.2917,-0.18741 -6.2917,-4.70991 0,-1.12186 -0.34366,-1.82737 -0.7637,-1.56777 -0.93897,0.58032 -0.9399,-3.7759 -9.6e-4,-4.71432 0.37142,-0.37122 1.77542,-0.39884 3.12,-0.0613 2.04366,0.51292 2.44471,1.17108 2.44471,4.01195 0,2.15931 0.37276,3.16799 1.02236,2.76651 0.5623,-0.34752 0.88908,-1.90249 0.72619,-3.4555 -0.31173,-2.97185 1.42958,-4.85969 3.6844,-3.99443 0.70787,0.27164 1.28705,1.31167 1.28705,2.31118 0,0.9995 0.432,1.81729 0.96,1.81729 0.528,0 0.96,-0.66192 0.96,-1.47093 0,-1.7205 3.49366,-3.23989 5.96419,-2.59384 2.25715,0.59026 2.17553,1.83118 -0.20419,3.10477 -2.20234,1.17866 -2.58943,3.84 -0.55852,3.84 0.74882,0 1.94042,0.22215 2.64801,0.49369 0.98896,0.3795 1.20545,-0.52569 0.93599,-3.91366 -0.34589,-4.34906 -0.31426,-4.4032 2.39199,-4.09369 2.24361,0.2566 2.75048,0.78217 2.78623,2.88899 0.024,1.41645 -0.29996,2.36295 -0.72,2.10335 -0.99652,-0.61588 -0.96321,-0.0484 0.17254,2.93882 0.51493,1.35438 0.62039,2.4625 0.23434,2.4625 -0.38604,0 -1.24625,1.22981 -1.91159,2.7329 -1.45668,3.29089 -4.92882,5.13113 -7.24046,3.83747 z m -41.14391,-2.70368 c -6.53171,-0.62068 -7.22041,-1.15158 -5.21254,-4.01822 1.94283,-2.77377 1.99861,-7.41195 0.0979,-8.14131 -1.86211,-0.71456 -1.86598,-4.08395 -0.006,-4.79788 0.78897,-0.30276 1.13804,-1.0452 0.77572,-1.64987 -0.48831,-0.81493 -0.30058,-0.82315 0.72551,-0.0318 0.76136,0.58719 2.57228,1.35143 4.02428,1.69828 2.8429,0.67914 3.54682,2.92069 1.2,3.82125 -1.47663,0.56663 -1.94313,4.90469 -0.8373,7.7864 0.52819,1.37647 0.90045,1.29717 3.01168,-0.64148 1.64653,-1.51193 2.54325,-1.83619 2.83317,-1.02448 0.31228,0.87431 1.00329,0.75076 2.61952,-0.46836 1.90478,-1.43678 2.00238,-1.79702 0.73747,-2.72195 -2.25559,-1.64951 -0.48015,-3.2773 3.57482,-3.2773 4.04381,0 6.49215,2.04534 5.99079,5.00472 -0.17049,1.00637 0.20643,2.452 0.83761,3.21252 0.89227,1.07514 0.88171,1.70312 -0.0475,2.82276 -1.45081,1.74812 -3.80676,1.89206 -3.92821,0.24 -0.0485,-0.66 -0.15652,-2.48805 -0.24,-4.06235 -0.1067,-2.01206 -0.71306,-2.97177 -2.04123,-3.23072 -1.64045,-0.31984 -1.71984,-0.16403 -0.60245,1.18234 0.99116,1.19429 1.02859,1.86208 0.16282,2.90526 -0.76848,0.92598 -0.80568,1.55137 -0.11755,1.97666 1.81815,1.12367 1.05321,2.42881 -1.4235,2.42881 -1.33658,0 -2.67785,-0.64552 -2.9806,-1.43449 -0.30276,-0.78897 -0.94425,-1.19111 -1.42554,-0.89366 -0.48128,0.29745 -0.65677,0.89402 -0.38997,1.32571 1.01566,1.64337 -2.09772,2.4872 -7.33915,1.98913 z m 52.43332,-4.91093 c -0.3911,-0.63279 -0.75538,-3.35672 -0.80951,-6.05316 -0.0695,-3.46138 -0.46328,-4.82802 -1.33954,-4.6489 -0.94341,0.19285 -0.99974,-0.1973 -0.23484,-1.62653 0.55345,-1.03413 1.45488,-2.15749 2.00316,-2.49635 1.3701,-0.84676 3.79279,1.33033 3.79279,3.40827 0,1.30831 0.71736,1.67114 3.08916,1.56246 2.96187,-0.13571 3.12496,0.0494 3.95748,4.49298 0.58028,3.09723 0.5323,4.97053 -0.14464,5.64747 -1.61693,1.61693 -4.022,0.079 -4.022,-2.57188 0,-3.27268 -1.71425,-3.10776 -2.09624,0.20167 -0.32047,2.77659 -2.9581,4.08665 -4.19582,2.08397 z m 22.30834,0.36948 c -0.70731,-1.14446 -1.12946,-9.73205 -0.50891,-10.35261 0.2914,-0.2914 2.72508,-0.76666 5.40818,-1.05613 l 4.87836,-0.52631 1.01769,3.6649 c 1.76212,6.34572 1.23458,9.33215 -1.46546,8.29606 -0.78887,-0.30272 -1.34614,-1.86502 -1.34614,-3.77386 0,-2.61729 -0.37724,-3.25729 -1.92,-3.25729 -1.056,0 -1.96257,0.54 -2.0146,1.2 -0.052,0.66 -0.16003,2.27206 -0.24,3.58236 -0.14092,2.30894 -2.79772,3.85935 -3.80912,2.22288 z m 40.35368,0.0848 c -0.99023,-0.99023 2.24763,-5.0876 3.60789,-4.56562 1.88805,0.72451 2.45069,3.97928 0.79754,4.61366 -1.84648,0.70856 -3.6687,0.6887 -4.40543,-0.048 z m -26.78463,-3.73 c -1.43011,-3.13874 0.28132,-7.2 3.03409,-7.2 1.06732,0 1.94058,-0.504 1.94058,-1.12 0,-0.616 0.26107,-0.85892 0.58017,-0.53984 0.31908,0.31909 -0.0349,1.8131 -0.78667,3.32003 -1.54393,3.09487 -1.24627,5.05981 0.7665,5.05981 0.748,0 1.36,0.648 1.36,1.44 0,0.96228 -0.96228,1.44 -2.90058,1.44 -2.16235,0 -3.1789,-0.61083 -3.99409,-2.4 z m 8.36221,1.48456 c -0.34731,-0.56195 -0.34841,-1.9136 -0.003,-3.00365 0.41904,-1.32027 0.0744,-2.38746 -1.0323,-3.19672 -1.17509,-0.85924 -1.40665,-1.66992 -0.79116,-2.76974 0.73306,-1.3099 1.24337,-1.36889 3.23833,-0.37429 2.93666,1.46408 4.66931,5.84942 3.22027,8.1505 -1.23351,1.95882 -3.75788,2.60938 -4.6327,1.1939 z m 7.7567,-2.94399 c -1.93618,-4.83897 -1.95956,-7.29578 -0.0763,-8.01843 1.03874,-0.39861 1.62111,0.20285 1.992,2.05729 0.42747,2.13735 1.04188,2.62057 3.33211,2.62057 1.84947,0 2.81302,-0.49156 2.8227,-1.44 0.0266,-2.60309 1.69681,-4.43249 2.92526,-3.20404 1.32341,1.32341 0.39717,7.9719 -1.4655,10.51926 -1.08819,1.48818 -1.48999,1.54698 -2.85126,0.41722 -1.20022,-0.99608 -1.85414,-1.0455 -2.69589,-0.20376 -1.76081,1.76082 -2.33842,1.36229 -3.98307,-2.74811 z m 9.47868,-29.65849 c -2.1026,-0.87649 -5.46338,-2.42329 -7.46837,-3.43733 -3.41612,-1.72772 -3.62749,-2.08783 -3.36,-5.72423 0.19732,-2.68249 0.73003,-3.88052 1.72545,-3.88052 1.04645,0 1.35762,0.85271 1.13859,3.12 -0.23956,2.47975 0.056,3.12327 1.44,3.13594 2.54464,0.0232 14.08813,4.38422 14.44586,5.45741 0.1679,0.5037 -0.68561,1.36728 -1.89666,1.91907 -1.66661,0.75936 -3.13137,0.61584 -6.02487,-0.59034 z m -115.08021,-0.6406 c -0.94643,-2.46636 -0.66627,-6.16148 0.46717,-6.16148 0.57743,0 1.27581,0.864 1.55196,1.92 0.62711,2.39807 1.15083,2.39019 8.61048,-0.12955 6.7881,-2.29291 6.84874,-2.43099 4.59345,-10.46124 -0.81084,-2.88706 -2.97709,-12.37721 -4.81391,-21.08921 -3.44937,-16.36032 -5.72488,-24.53116 -7.4304,-26.68093 -0.54148,-0.68253 -4.23464,-2.7426 -8.20703,-4.57796 -5.04302,-2.33001 -6.91844,-3.6411 -6.21481,-4.34473 0.70362,-0.70362 2.09515,-0.55336 4.61129,0.49796 4.43551,1.85327 12.34822,2.05858 11.78032,0.30566 -0.21382,-0.66 -2.30182,-1.77951 -4.63999,-2.48781 -8.05339,-2.43957 -12.56395,-4.47631 -13.43423,-6.0662 -0.56062,-1.0242 -0.40813,-2.91163 0.4266,-5.28 0.84915,-2.4093 1.0084,-4.47057 0.45978,-5.95118 -0.79343,-2.14127 -0.96402,-2.18349 -3.11863,-0.77173 -1.83029,1.19926 -2.59558,1.26218 -3.88487,0.31943 -1.46844,-1.07375 -1.33459,-1.68842 1.56727,-7.197 2.83648,-5.38447 3.75803,-6.29342 8.69284,-8.57401 3.71724,-1.71789 5.52,-3.11283 5.52,-4.27126 0,-0.94613 -0.4575,-1.72024 -1.01666,-1.72024 -0.55916,0 -0.75272,0.42705 -0.43014,0.94901 0.33169,0.53668 -0.0378,0.70941 -0.85054,0.39755 -1.43596,-0.55103 -8.69054,3.85881 -11.07542,6.73243 -1.50529,1.81376 -3.9102,2.01172 -3.90002,0.32101 0.004,-0.66 1.83997,-2.98849 4.08,-5.17443 3.86569,-3.77235 10.90956,-7.06557 15.11255,-7.06557 2.13454,0 3.49985,-2.13256 3.9825,-6.22052 0.30529,-2.58581 -0.28818,-3.29107 -6.17966,-7.34364 -5.65668,-3.891041 -6.99689,-4.418791 -10.14809,-3.996131 -5.92845,0.795171 -8.79459,-4.1886 -5.02263,-8.73354 2.42215,-2.91852 9.68811,-1.28443 9.68811,2.17882 0,2.20482 2.21924,4.10373 7.68,6.57145 7.75364,3.503871 7.57655,3.521221 11.94543,-1.17023 2.22266,-2.38677 3.79221,-4.62183 3.48789,-4.9668 -0.30432,-0.34498 0.0139,-0.29965 0.70717,0.10072 0.69327,0.40038 1.98927,0.14564 2.88,-0.56609 4.95238,-3.95712 12.73977,-7.53184 16.46249,-7.55694 3.40271,-0.0229 5.55208,-0.47696 15.39702,-3.25237 10.50216,-2.96069 19.4353,-3.65473 26.36257,-2.04819 10.31247,2.39162 23.34301,9.27954 29.15468,15.4111 2.74851,2.8998 5.54124,5.272361 6.20607,5.272361 0.66483,0 2.57591,-1.248671 4.24682,-2.774821 1.67092,-1.52615 4.35992,-3.71608 5.97554,-4.8665 2.23129,-1.58882 2.80866,-2.6051 2.40154,-4.22719 -0.72632,-2.89387 2.52781,-5.84175 5.59801,-5.07117 2.90916,0.73015 4.96089,4.55119 4.15911,7.74572 -0.51285,2.04338 -1.18125,2.47396 -3.84036,2.47396 -2.57936,0 -4.00075,0.84762 -7.14918,4.26326 -4.99588,5.419881 -5.73748,8.179871 -3.15469,11.740671 1.0969,1.51226 2.68816,6.42836 3.59024,11.09186 1.46839,7.59108 1.9163,8.57869 4.78088,10.54154 2.87289,1.96853 5.04333,5.56267 3.35921,5.56267 -0.37939,0 -2.47808,-0.864 -4.66375,-1.92 -2.18567,-1.056 -4.75081,-1.91839 -5.70031,-1.91641 -3.00978,0.007 -8.04283,3.76921 -9.10085,6.80424 l -1.0202,2.92656 -2.58923,-2.48064 c -1.42407,-1.36434 -2.95253,-2.15058 -3.39657,-1.74719 -0.44404,0.40339 -0.49101,0.18439 -0.10436,-0.48668 0.80967,-1.40522 -5.5729,-4.48874 -7.64521,-3.69352 -0.69625,0.26718 -1.40183,0.12764 -1.56793,-0.31009 -0.30505,-0.80385 -12.51767,-2.41095 -15.18203,-1.99784 -0.792,0.12279 -8.352,0.32445 -16.8,0.44812 -19.88615,0.29111 -29.29373,2.52375 -33.80548,8.02284 -5.11768,6.23763 -0.7712,8.52949 11.96896,6.31112 11.43276,-1.99071 18.40392,-3.72898 21.83652,-5.44492 3.86595,-1.93258 14.40861,-0.88455 25.92,2.57665 4.752,1.42882 10.584,2.84528 12.96,3.14769 6.22141,0.79185 8.26483,2.38851 9.00847,7.03893 0.54199,3.38948 0.94223,3.92464 2.74102,3.66509 1.15849,-0.16718 2.75446,-1.46243 3.54658,-2.87834 1.30231,-2.32784 1.2824,-2.74883 -0.20791,-4.39559 -2.34964,-2.59633 -2.0404,-5.68875 0.75184,-7.5183 1.32,-0.86489 2.41374,-2.06286 2.43053,-2.66213 0.0168,-0.59927 0.65826,-1.91922 1.42548,-2.93322 1.36079,-1.79849 1.44488,-1.78673 3.43397,0.48 1.12145,1.278 2.4561,2.20493 2.96587,2.05984 0.50977,-0.14507 0.64528,0.19184 0.30111,0.74871 -0.34416,0.55687 0.51978,2.9672 1.91988,5.3563 3.53403,6.03035 2.90223,9.87942 -2.53022,15.41469 -2.95704,3.01301 -5.20272,4.40064 -7.79178,4.81465 -3.82964,0.61238 -5.25903,1.70092 -3.58893,2.7331 1.25915,0.77819 10.55409,-2.25211 10.55409,-3.44082 0,-0.48556 0.648,-0.88284 1.44,-0.88284 0.8,0 1.44,0.85333 1.44,1.92 0,2.01377 -1.21135,3.41917 -7.02865,8.15462 -1.94224,1.58105 -3.52809,3.30905 -3.5241,3.84 0.004,0.53096 -1.59189,6.20566 -3.54639,12.61047 l -3.55364,11.64509 -2.79522,-0.97442 c -1.53736,-0.53593 -5.54413,-0.71773 -8.90392,-0.40398 -4.86152,0.45397 -6.42199,0.25716 -7.6431,-0.96394 -1.40583,-1.40584 -1.22737,-1.85057 2.13033,-5.30869 l 3.66469,-3.77432 -2.26635,-1.85241 c -1.2465,-1.01883 -3.705,-1.85242 -5.46335,-1.85242 -3.80933,0 -5.14558,-1.46879 -2.10367,-2.31233 1.18436,-0.32843 3.6219,-1.86384 5.41677,-3.41204 l 3.26342,-2.81491 -1.73523,-2.69036 c -1.72532,-2.67499 -9.91171,-11.13097 -13.26935,-13.70631 -0.96678,-0.74152 -3.77478,-1.68192 -6.24,-2.08979 -2.46523,-0.40786 -5.7807,-1.00747 -7.3677,-1.33245 -2.42351,-0.49628 -3.42553,-0.0508 -6.2588,2.78245 -1.85532,1.85533 -5.2066,6.65123 -7.44728,10.65756 -3.94933,7.06142 -4.02875,7.37164 -2.59655,10.14121 1.21771,2.35478 2.07604,2.85697 4.88313,2.85697 2.72549,0 3.34118,0.33521 3.08253,1.67827 -0.17776,0.92306 -0.96543,1.72126 -1.75039,1.77378 -3.38281,0.22637 -3.82718,0.4828 -3.82718,2.2085 0,1.0013 1.40401,3.0533 3.12002,4.56 3.38713,2.97399 3.93806,4.99047 1.67998,6.14901 -0.792,0.40633 -7.272,1.23236 -14.4,1.83561 -15.43569,1.30633 -19.33893,1.91338 -18.72193,2.9117 0.2537,0.4105 -0.29008,0.68713 -1.2084,0.61475 -1.41445,-0.1115 -1.75854,1.04231 -2.25103,7.54838 -1.10292,14.57037 -2.0366,16.10914 -11.08616,18.2709 -7.57163,1.80871 -11.50723,1.7735 -12.22977,-0.10942 z m 2.81921,-9.37211 c -1.36843,-1.00062 -1.60093,-1.91742 -1.03471,-4.08 0.72574,-2.77183 0.73668,-2.77561 1.74034,-0.6023 1.32484,2.86879 3.14369,2.14681 2.90343,-1.15249 -0.30208,-4.1481 2.98545,-2.85535 3.38458,1.33091 0.46659,4.89373 -3.21661,7.2657 -6.99364,4.50388 z m 112.42165,-2.81224 c -2.12312,-1.96764 -2.21892,-2.36946 -0.97156,-4.07532 1.18784,-1.62446 1.51231,-1.68919 2.29119,-0.45713 0.49907,0.78942 0.91402,1.79364 0.9221,2.2316 0.008,0.43795 1.2027,0.54055 2.6547,0.228 2.18358,-0.47002 2.83756,-0.13916 3.78272,1.91373 0.98063,2.12995 0.94659,2.31923 -0.24,1.33445 -0.9808,-0.81398 -1.38272,-0.83434 -1.38272,-0.07 0,1.8831 -4.61124,1.1608 -7.05643,-1.10533 z m -40.94357,-3.96809 c -9.78288,-2.07786 -12.3358,-5.22273 -11.0734,-13.64099 0.54956,-3.66477 0.33578,-4.75445 -1.26889,-6.4677 -1.0614,-1.13321 -2.36563,-3.21086 -2.8983,-4.617 l -0.96848,-2.55662 5.94454,0.30827 c 3.26949,0.16954 8.66581,0.61748 11.99183,0.99541 5.26609,0.59839 6.22751,0.45478 7.44235,-1.11165 1.21788,-1.57034 1.32075,-1.58543 0.80999,-0.1188 -0.61821,1.77519 1.00967,2.35532 2.02036,0.72 0.32632,-0.528 2.09338,-0.96 3.92678,-0.96 4.26306,0 5.1537,2.12337 2.43375,5.8023 -1.4447,1.95405 -2.01151,4.01492 -1.90182,6.91481 0.18332,4.84667 -2.12567,10.26799 -5.17843,12.15852 -1.18816,0.73581 -3.02428,1.86817 -4.08028,2.51637 -1.49533,0.91787 -3.08782,0.9305 -7.2,0.0571 z M 293.24761,187.063 c -0.38928,-0.62987 -0.52236,-1.33062 -0.29575,-1.55724 0.85436,-0.85437 17.15275,-1.04718 17.67075,-0.20905 0.85873,1.38947 0.31943,1.53321 -8.41024,2.24152 -5.98568,0.48568 -8.45168,0.35495 -8.96476,-0.47523 z m 0.73006,-16.05945 c -1.37434,-2.09753 -1.35637,-2.44441 0.21668,-4.18262 2.37003,-2.61885 8.13774,-2.64157 8.13774,-0.0321 0,3.56014 4.16406,3.55217 5.09553,-0.01 0.6132,-2.34489 3.71482,-2.39733 5.79568,-0.098 3.71304,4.10286 0.19617,6.3334 -10.2391,6.49406 -6.91392,0.10643 -7.62645,-0.0654 -9.00653,-2.17163 z"
     id="path200"
     inkscape:connector-curvature="0" />
</svg>
