<?xml version="1.0" encoding="UTF-8" standalone="no"?>
<!-- Created with Inkscape (http://www.inkscape.org/) -->

<svg
   xmlns:dc="http://purl.org/dc/elements/1.1/"
   xmlns:cc="http://creativecommons.org/ns#"
   xmlns:rdf="http://www.w3.org/1999/02/22-rdf-syntax-ns#"
   xmlns:svg="http://www.w3.org/2000/svg"
   xmlns="http://www.w3.org/2000/svg"
   xmlns:sodipodi="http://sodipodi.sourceforge.net/DTD/sodipodi-0.dtd"
   xmlns:inkscape="http://www.inkscape.org/namespaces/inkscape"
   version="1.1"
   id="svg210"
   width="1120"
   height="1206.6667"
   viewBox="0 0 1120 1206.6667"
   sodipodi:docname="panda.svg"
   inkscape:version="0.92.4 (5da689c313, 2019-01-14)">
  <metadata
     id="metadata216">
    <rdf:RDF>
      <cc:Work
         rdf:about="">
        <dc:format>image/svg+xml</dc:format>
        <dc:type
           rdf:resource="http://purl.org/dc/dcmitype/StillImage" />
        <dc:title></dc:title>
      </cc:Work>
    </rdf:RDF>
  </metadata>
  <defs
     id="defs214" />
  <sodipodi:namedview
     pagecolor="#ffffff"
     bordercolor="#666666"
     borderopacity="1"
     objecttolerance="10"
     gridtolerance="10"
     guidetolerance="10"
     inkscape:pageopacity="0"
     inkscape:pageshadow="2"
     inkscape:window-width="640"
     inkscape:window-height="480"
     id="namedview212"
     showgrid="false"
     inkscape:zoom="0.25773479"
     inkscape:cx="560"
     inkscape:cy="603.33337"
     inkscape:window-x="0"
     inkscape:window-y="0"
     inkscape:window-maximized="1"
     inkscape:current-layer="svg210" />
  <path
     style="fill:#000000;stroke-width:1.33333337"
     d="m 313.33333,1155.5442 c -4.03333,-1.4824 -9.43333,-3.0071 -12,-3.3882 -2.56666,-0.381 -5.94225,-1.8607 -7.50129,-3.2882 -1.55904,-1.4274 -5.88847,-3.4009 -9.62093,-4.3855 -3.73247,-0.9846 -8.3878,-3.0499 -10.34519,-4.5896 -1.95739,-1.5397 -5.29723,-2.7994 -7.42189,-2.7994 -2.12466,0 -5.79374,-0.8304 -8.15352,-1.8453 -6.4394,-2.7695 -23.30104,-19.4296 -24.44687,-24.1547 -0.54663,-2.2542 -0.0177,-10.4014 1.21189,-18.6667 2.14716,-14.4334 2.13838,-14.7266 -0.5526,-18.4359 -2.71813,-3.7468 -5.09153,-15.4852 -5.14278,-25.4355 -0.0148,-2.8672 -1.64066,-8.5558 -3.62028,-12.6666 -6.0238,-12.5087 -5.83018,-40.07217 0.44112,-62.79537 3.8045,-13.7851 11.4325,-32.6366 15.1013,-37.3206 5.40738,-6.9036 6.71688,-9.9396 6.72515,-15.5917 0.009,-6.4912 2.31,-14.8151 5.27533,-19.0877 1.27242,-1.8333 3.94003,-7.6395 5.92803,-12.9025 1.988,-5.2631 4.32885,-10.0948 5.20188,-10.7371 3.39959,-2.5011 24.93869,-11.027 27.85765,-11.027 3.64694,0 17.45768,8.7566 25.20552,15.9813 3.63403,3.3887 9.34976,6.5628 16.99948,9.4405 6.33858,2.3844 16.97458,7.2399 23.63558,10.79 6.661,3.5502 13.1638,6.4548 14.45066,6.4548 1.28687,0 7.02623,2.0606 12.75414,4.579 5.7279,2.5184 12.80633,5.223 15.72984,6.0102 3.36132,0.9051 5.56161,2.3726 5.98502,3.9917 0.36826,1.4083 3.95458,4.4144 7.9696,6.6803 15.23395,8.5975 26.82371,22.8907 35.17912,43.3849 4.61027,11.3081 4.80116,12.3897 4.00804,22.708 -0.71605,9.31557 -3.09748,19.00647 -6.76926,27.54667 -0.67798,1.5769 0.0625,2.9044 2.51706,4.5127 4.91743,3.222 16.26896,2.0405 36.06487,-3.7538 16.90396,-4.9478 28.23471,-6.92 31.83003,-5.5404 1.19349,0.458 2.16997,2.2991 2.16997,4.0915 0,2.4966 -1.15201,3.74 -4.92631,5.317 -7.53376,3.1478 -34.74622,8.1423 -57.74036,10.5976 -11.36666,1.2136 -22.21968,2.882 -24.11781,3.7073 -5.07471,2.2067 -26.2826,25.2941 -29.26003,31.8532 -1.40997,3.1061 -2.57677,7.8896 -2.59288,10.6299 -0.0247,4.1928 0.99318,6.0103 6.42228,11.468 7.69892,7.7396 12.58907,17.2212 12.75838,24.7375 0.23614,10.4842 -8.8368,18.6061 -30.98344,27.7354 -19.51242,8.0435 -24.89827,9.0444 -48.2265,8.9624 -17.31077,-0.061 -21.85746,-0.5104 -28,-2.7681 z M 712,1129.7531 c -9.22431,-2.5598 -20.79207,-7.1189 -26,-10.2472 -2.2,-1.3214 -4.97879,-2.4049 -6.17508,-2.4076 -1.19629,0 -3.67163,-1.9671 -5.50073,-4.3652 -2.85118,-3.7381 -5.01383,-4.7762 -15.15826,-7.2762 -6.50793,-1.6039 -16.0326,-3.544 -21.16593,-4.3114 -9.22985,-1.3798 -9.43188,-1.4988 -18.22157,-10.7295 -6.36888,-6.6885 -10.43167,-12.5671 -14.33334,-20.7394 C 602.45029,1063.4038 600,1057.4811 600,1056.515 c 0,-0.9661 1.56264,-5.2812 3.47252,-9.5892 3.03717,-6.8506 3.27687,-8.3765 1.91181,-12.1711 -0.8584,-2.3862 -1.17533,-5.5528 -0.7043,-7.0369 1.4391,-4.5342 -5.97002,-10.2606 -14.68435,-11.3494 -9.175,-1.1464 -11.88484,-3.8542 -7.45051,-7.4449 1.71895,-1.3919 4.3995,-2.7676 5.95676,-3.0571 13.18164,-2.4506 18.90808,-4.3695 32.53611,-10.90237 8.59575,-4.1206 19.60932,-10.1272 24.4746,-13.348 4.86529,-3.2208 10.02227,-5.8561 11.45996,-5.8561 4.25235,0 18.36819,-9.9339 30.82731,-21.6944 6.39318,-6.0348 14.00358,-12.1738 16.91202,-13.6424 4.38255,-2.2129 6.24436,-4.5527 10.87267,-13.6642 3.07155,-6.0468 6.00552,-13.8452 6.51996,-17.3299 0.53692,-3.637 2.30717,-7.9786 4.15591,-10.1925 1.77132,-2.1212 4.66948,-6.716 6.44034,-10.2107 3.71675,-7.3346 16.21567,-22.5047 21.8442,-26.5126 3.53584,-2.5177 4.15215,-2.5785 7.65032,-0.754 2.09256,1.0913 5.51399,1.988 7.60316,1.9925 5.1784,0.011 12.40294,3.6319 17.58302,8.8119 3.47916,3.4792 4.60162,6.0551 5.84689,13.4177 0.84761,5.0116 2.71425,12.7119 4.14809,17.1119 4.17155,12.8013 9.08691,48.0661 10.65474,76.4416 2.45408,44.41517 3.3216,51.34177 7.35945,58.76067 2.33441,4.2891 4.72425,6.8722 6.85223,7.4063 4.2313,1.0619 3.67473,5.5381 -0.6309,5.0738 -3.96818,-0.4279 -3.70672,1.0893 0.9579,5.5583 6.59742,6.3207 13.38346,24.9739 13.41426,36.8725 0.0177,6.8288 -4.3383,21.4127 -7.75526,25.9648 -2.97408,3.962 -11.49243,5.6741 -52.22891,10.4973 -3.3,0.3907 -17.4,1.0275 -31.33333,1.415 -20.28067,0.5641 -26.79595,0.2987 -32.66667,-1.3304 z M 273.04865,821.42663 c -2.95244,-6.9753 -1.88589,-27.7035 2.17823,-42.3334 4.31045,-15.5166 5.31868,-17.7355 9.69841,-21.3442 2.78754,-2.2968 3.62234,-5.0463 5.87,-19.3333 1.44118,-9.1607 4.53554,-22.95579 6.87638,-30.65579 4.09224,-13.46117 4.25744,-14.91268 4.29218,-37.71378 0.0251,-16.47232 -0.43232,-24.00476 -1.49794,-24.66666 -0.84375,-0.5241 -2.56016,-4.5529 -3.81426,-8.9529 -1.25408,-4.4 -3.63645,-9.5 -5.29414,-11.33333 -1.65771,-1.83333 -3.3862,-4.91752 -3.84112,-6.85373 -0.48352,-2.05803 -1.67894,-3.4427 -2.87771,-3.33334 -1.32917,0.1212 -3.19388,-2.62744 -5.30028,-7.81293 -1.78733,-4.4 -5.06965,-9.54369 -7.29404,-11.43044 C 269.81996,593.7761 268,591.21728 268,589.97658 c 0,-2.60247 -7.39921,-7.53374 -11.33333,-7.5532 -1.46667,-0.007 -4.38526,-0.90951 -6.48575,-2.00499 -2.10049,-1.09548 -4.55747,-1.99179 -5.45995,-1.99179 -0.90248,0 -5.18389,-2.26361 -9.51425,-5.03024 -8.54289,-5.45797 -13.81967,-7.91106 -27.30081,-12.69172 -13.47327,-4.77785 -42.00816,-22.87156 -61.03896,-38.70424 -14.28909,-11.8878 -19.4298,-17.07092 -23.78608,-23.98231 -1.93839,-3.07532 -7.62456,-10.90041 -12.63594,-17.38909 -5.01138,-6.48868 -9.1116,-12.51323 -9.1116,-13.38789 0,-0.87466 -2.87965,-6.1506 -6.399226,-11.72432 -3.519577,-5.57372 -8.11274,-14.50148 -10.207029,-19.83948 -3.22436,-8.21835 -5.522782,-11.43205 -15.00055,-20.97405 -10.378917,-10.44925 -12.710048,-14.61769 -8.886565,-15.89061 1.505984,-0.50137 12.909315,8.36237 30.493373,23.70232 15.609007,13.61696 23.832067,16.18519 32.802827,10.24496 7.01139,-4.64279 19.01781,-31.46249 20.79233,-46.44548 1.17023,-9.88079 -0.37329,-14.54747 -7.60594,-22.99581 -3.66074,-4.27604 -6.65588,-8.88318 -6.65588,-10.2381 0,-3.56922 3.32886,-6.36128 9.72666,-8.15814 8.87571,-2.49282 13.30446,-2.00063 20.13382,2.23753 14.59765,9.059 19.035,11.20599 23.22121,11.23552 l 4.41504,0.0312 -0.89208,-5.94883 c -0.70161,-4.67864 -0.26716,-7.23973 2.03472,-11.9948 2.98803,-6.17244 8.27435,-11.3897 11.54044,-11.3897 2.49329,0 2.30531,3.52853 -0.24001,4.50526 -3.3586,1.28883 -6.30347,10.01858 -5.36319,15.8987 1.22408,7.65505 4.17096,12.48832 10.33793,16.95566 4.41724,3.19983 6.83936,3.97371 12.43702,3.97371 5.68633,0 7.57466,0.6232 10.3757,3.42424 l 3.42426,3.42424 2.81081,-2.81081 c 2.80071,-2.80071 6.54357,-4.61056 12.76313,-6.17158 2.40108,-0.60262 3.27454,-0.28142 3.27454,1.20418 0,2.438 -7.40138,8.92973 -10.18099,8.92973 -1.08701,0 -1.60557,0.6 -1.15235,1.33333 1.33379,2.15811 5.38278,1.53596 9.1162,-1.40074 2.64824,-2.08311 4.55948,-2.5308 8.02712,-1.88027 2.78052,0.52163 4.90556,0.28063 5.46183,-0.61944 0.5008,-0.81031 2.92121,-2.3134 5.37871,-3.3402 5.22616,-2.18363 8.01897,-6.46648 6.26292,-9.60436 -1.0035,-1.79313 -1.82776,-1.30047 -5.04878,3.01767 -4.58904,6.15212 -5.78588,7.1134 -8.89006,7.14026 -1.80556,0.0156 -2.17634,-0.70634 -1.58096,-3.07852 0.49369,-1.96702 0.016,-3.7312 -1.30792,-4.82993 -1.14715,-0.95209 -2.08572,-3.37907 -2.08572,-5.39332 0,-3.19616 0.63638,-3.76748 5,-4.48873 11.97614,-1.97954 19.03501,-0.53427 22.71548,4.65088 0.94352,1.32925 4.09305,3.05704 6.99898,3.83952 4.25951,1.14697 5.83783,2.51104 8.14371,7.03825 3.40152,6.67828 18.99152,23.18071 28.79027,30.47525 4.48133,3.33606 7.26169,6.50042 7.76336,8.83556 1.75018,8.14668 5.49825,14.23788 12.86052,20.90035 9.72802,8.80336 23.56836,16.02286 30.20676,15.75666 12.592,-0.50494 29.67464,-2.84903 34.98153,-4.8002 3.23,-1.18756 10.97272,-2.73735 17.20605,-3.444 11.06843,-1.25476 36.7792,-6.27488 38.92304,-7.59986 0.59234,-0.36608 1.07696,-2.0256 1.07696,-3.68781 0,-4.01814 4.72708,-8.19163 11.5598,-10.20602 3.52183,-1.03829 7.87736,-3.99206 11.88238,-8.05821 5.18317,-5.26232 6.76426,-6.18272 8.77353,-5.1074 1.66917,0.89332 2.45096,0.85669 2.45096,-0.1148 0,-2.47557 23.0038,-25.43984 30.79743,-30.74451 8.17502,-5.56425 19.86924,-17.78004 19.86924,-20.75541 0,-1.03264 2.93528,-8.91775 6.52285,-17.52247 12.18327,-29.22132 14.51171,-40.42204 9.37033,-45.07492 -3.33822,-3.02105 -3.14033,-4.41328 3.27731,-23.05652 5.67256,-16.4788 6.41932,-17.56433 11.21813,-16.30729 2.59431,0.67958 4.73788,3.04632 7.61138,8.40381 4.2123,7.85365 13.57606,20.50099 19.54164,26.39427 1.9479,1.92429 5.9979,4.23462 9,5.13408 3.34862,1.00326 5.45836,2.43698 5.45836,3.70934 0,5.35902 10.41529,15.00616 17.00028,15.74649 2.76082,0.31038 3.64024,1.1112 3.56052,3.24234 -0.0868,2.31934 0.66728,2.83015 4.17782,2.83015 3.30375,0 4.47648,0.68628 5.12646,3 l 0.84276,3 3.31274,-3.74101 C 662.50927,315.96136 664,312.89325 664,311.2009 c 0,-6.58193 -2.89752,-17.80476 -6.68832,-25.90549 -5.73367,-12.25256 -3.72599,-14.10791 6.35071,-5.86882 10.51121,8.59438 16.2453,14.90648 19.65626,21.63771 1.81118,3.57416 4.50152,6.88204 5.97856,7.35083 1.47704,0.4688 5.48882,3.81316 8.91506,7.43191 4.48308,4.73498 7.24322,6.57956 9.84537,6.57956 1.98871,0 4.33956,0.87204 5.22412,1.93785 2.62025,3.15721 15.84549,6.38135 22.64693,5.521 3.33922,-0.42239 12.67131,-1.31816 20.73798,-1.99059 16.77845,-1.39864 22.91672,-2.68405 36,-7.53877 C 797.8,318.4513 806.5,315.38628 812,313.54492 c 5.5,-1.84136 13.99855,-5.11963 18.88567,-7.28506 5.37478,-2.38149 12.7898,-4.37495 18.76661,-5.04523 5.43453,-0.60945 12.08599,-2.15445 14.781,-3.43332 5.56937,-2.64284 5.9024,-4.34132 3.31112,-16.88704 -1.89741,-9.18638 -1.39893,-9.96934 12.65332,-19.87488 4.98541,-3.51424 10.38541,-8.3301 12,-10.7019 4.34667,-6.38518 9.36972,-9.55178 15.72003,-9.91008 3.96624,-0.22379 11.6696,-3.34951 25.76982,-10.45639 14.46772,-7.29209 22.54479,-10.54741 28.7791,-11.59892 4.76666,-0.80396 16.02433,-4.41957 25.01702,-8.03469 8.99271,-3.61512 20.09271,-7.8442 24.66671,-9.39796 4.5739,-1.55376 12.938,-5.20243 18.5868,-8.10815 8.871,-4.56328 10.6665,-6.10122 13.1769,-11.28707 4.583,-9.46712 17.6457,-17.37959 25.5203,-15.45841 3.505,0.85512 15.6989,9.69156 15.6989,11.3764 0,0.62388 -2.8104,2.37753 -6.2455,3.897 -6.1135,2.70432 -6.3415,2.71096 -10.7918,0.31436 -4.4479,-2.39538 -4.5764,-2.39187 -5.9393,0.16233 -0.7662,1.43588 -4.4637,5.63147 -8.2168,9.32355 -6.795,6.68461 -20.7623,14.46031 -41.4732,23.08836 -5.1334,2.13852 -17.73337,7.79799 -28.00003,12.5766 -10.87124,5.06001 -22.96039,9.63048 -28.94826,10.94428 -6.27257,1.37627 -13.29116,4.07816 -18,6.92932 -4.24512,2.57039 -10.54946,5.79912 -14.00962,7.17495 -11.11423,4.41924 -26.96648,12.86022 -29.56988,15.74533 -1.47716,1.637 -2.7915,5.54603 -3.16231,9.4052 -0.75816,7.89035 2.95809,24.35411 6.14288,27.21419 1.21763,1.09346 6.11385,2.6843 10.88052,3.53518 9.35071,1.66916 19.13311,5.4759 22.95128,8.9313 3.93213,3.55853 2.77568,7.70464 -4.61795,16.5564 l -7,8.38049 v 25.40278 c 0,18.95268 0.48096,26.54336 1.8942,29.89486 1.83727,4.35714 2.07766,4.47044 8,3.77103 4.15614,-0.49083 6.93224,-0.11573 8.69398,1.17456 1.42349,1.0426 3.78238,1.89564 5.24197,1.89564 3.6956,0 23.93423,-8.29588 25.24479,-10.34792 1.5649,-2.45028 12.94154,-7.95087 18.66537,-9.02467 7.11284,-1.33437 6.55332,0.92426 -4.56533,18.42914 -22.92542,36.09313 -38.5908,49.82388 -78.09159,68.44744 -52.05576,24.54288 -70.13351,32.77171 -77.71797,35.37649 -14.96435,5.13934 -37.13976,22.30806 -62.02616,48.02214 -23.27404,24.04807 -30.92554,33.26359 -35.22955,42.43072 -3.32995,7.09245 -3.45299,8.27497 -3.74569,36 -0.16647,15.76667 -0.31647,29.11667 -0.33334,29.66667 -0.12386,4.03678 -6.96281,-2.49343 -15.01106,-14.33334 -2.99094,-4.4 -9.99796,-12.5 -15.57116,-18 -5.57322,-5.5 -12.3778,-13.07866 -15.12132,-16.84149 -6.24835,-8.56983 -21.62447,-21.82517 -25.31704,-21.82517 -1.52715,0 -5.71211,-1.88368 -9.29991,-4.18598 -6.10715,-3.91894 -7.07612,-4.13434 -15.19003,-3.37665 -9.61032,0.89743 -21.26637,6.27897 -22.58269,10.42633 -0.43111,1.3583 -1.61912,2.46963 -2.64003,2.46963 -2.82896,0 -8.08701,6.20909 -15.28658,18.05155 -3.58386,5.89501 -8.0882,12.41454 -10.00967,14.48784 -3.20515,3.4584 -4.12192,3.72417 -11.10467,3.21908 -5.69682,-0.41207 -10.62322,-2.08655 -19.58714,-6.65767 -13.74916,-7.01132 -24.5323,-10.43413 -32.87135,-10.43413 -4.10107,0 -12.02045,2.54346 -26.83332,8.61805 -11.55831,4.73992 -22.33127,9.53992 -23.93991,10.66667 -1.60865,1.12673 -5.3413,2.06196 -8.29481,2.07826 -3.26643,0.018 -6.67573,1.05102 -8.70332,2.63702 -2.29764,1.79724 -5.44463,2.61658 -10.12848,2.63701 -3.73733,0.0163 -8.57224,0.91617 -10.74423,1.99971 -3.78489,1.88816 -8.18893,2.61768 -36.46062,6.03965 -6.96667,0.84324 -16.22612,2.4308 -20.57656,3.52792 -12.75202,3.21588 -45.15666,16.3206 -48.47219,19.60258 -3.17771,3.14554 -3.72377,5.78297 -6.94151,33.52646 -2.59801,22.40016 -6.10002,32.95716 -15.07817,45.45406 -6.10805,8.502 -6.31421,9.0783 -14.26491,39.8793 -6.84806,26.5293 -8.72684,32.6666 -10,32.6666 -0.40297,0 -1.43106,-1.65 -2.28468,-3.6666 z m 495.23468,-37.9167 c -2.41313,-2.4131 -2.13302,-14.4167 0.33643,-14.4167 2.86621,0 4.92647,4.7547 4.45736,10.2868 -0.44135,5.2048 -2.20203,6.7217 -4.79379,4.1299 z m -6.14221,-23.5264 c -5.27929,-8.363 -7.20212,-18.8903 -3.45032,-18.8903 3.75881,0 13.36027,19.348 11.27545,22.7213 -1.62364,2.6271 -4.69862,1.1217 -7.82513,-3.831 z m -11.47445,-28.2236 c 0,-3.278 0.51026,-4.0973 2.33333,-3.7462 1.47195,0.2835 2.33333,1.6665 2.33333,3.7462 0,2.0798 -0.86138,3.4627 -2.33333,3.7462 -1.82307,0.3511 -2.33333,-0.4682 -2.33333,-3.7462 z m -7.2361,-8.7599 c -4.04906,-4.04905 -4.57396,-13.24009 -0.75613,-13.24009 1.85816,0 5.17104,5.64111 7.24308,12.33333 0.74907,2.41934 0.41373,2.99996 -1.73243,2.99996 -1.4637,0 -3.60324,-0.94192 -4.75452,-2.0932 z M 364.04791,426.74746 C 360.04811,426.03996 344,410.00174 344,406.71193 c 0,-1.29725 -0.9612,-3.73096 -2.136,-5.40821 -1.1748,-1.67727 -1.76713,-3.41843 -1.31631,-3.86927 3.93256,-3.93255 46.20766,-11.46073 51.96092,-9.253 2.55051,0.97872 6.60572,13.61333 5.62435,17.52344 -0.80704,3.21547 -14.39895,15.45129 -20.66469,18.60295 -4.5426,2.2849 -9.35223,3.15922 -13.42036,2.43962 z M 67.978728,385.7343 c -3.026395,-3.64658 -4.890263,-41.70658 -2.83636,-57.91818 l 1.611901,-12.72286 -5.572641,-10.9524 -5.572643,-10.95239 3.528842,-12.43485 c 1.940861,-6.83917 3.526597,-13.9106 3.523856,-15.71428 -0.0073,-4.86907 -3.56334,-9.85556 -17.455558,-24.47792 -17.359769,-18.27217 -21.822224,-24.80149 -16.95053,-24.80149 2.233436,0 33.180281,31.46929 37.707689,38.34428 3.216044,4.88364 3.632565,6.57544 2.978512,12.09788 -0.418212,3.53116 -1.795887,8.59174 -3.0615,11.24576 -2.182767,4.57732 -2.180727,5.14072 0.03968,10.95476 3.605297,9.44033 16.915333,28.80888 29.140424,42.40467 18.90119,21.02042 20.48909,23.91052 16.23053,29.54082 -1.19636,1.58172 -1.9576,5.58175 -1.9576,10.28643 0,8.6968 -0.76976,9.50287 -10.637549,11.13916 -3.283986,0.54455 -7.334136,1.88333 -9.000332,2.97507 -1.666194,1.09173 -6.7965,2.28734 -11.40068,2.65693 -6.898528,0.55375 -8.713373,0.25971 -10.316041,-1.67139 z M 961.4878,376.38897 c -1.87183,-3.17252 -4.84521,-5.59136 -9.13169,-7.42864 -10.06744,-4.31511 -11.02484,-5.68405 -11.00835,-15.74039 0.0149,-9.08729 2.56292,-19.75684 5.95415,-24.9325 2.8516,-4.3521 4.93017,-19.64665 3.9034,-28.72207 -1.06714,-9.43219 -4.26587,-14.04996 -10.54891,-15.22867 -5.45371,-1.02312 -7.84007,-3.51403 -6.72684,-7.02151 1.47659,-4.6523 18.96417,-17.35345 27.16843,-19.73229 4.16277,-1.20701 9.96868,-3.29276 12.90201,-4.63501 2.93333,-1.34224 9.53333,-4.04144 14.66667,-5.99822 17.86753,-6.81089 49.88683,-23.16544 54.61943,-27.89801 l 4.625,-4.62507 h 13.562 13.562 l 5.786,-5.33333 c 3.1823,-2.93333 6.3654,-5.33333 7.0735,-5.33333 2.3565,0 5.4387,5.86769 5.4387,10.3538 0,7.8344 -17.5132,23.74332 -36.7464,33.38018 -4.4439,2.22663 -8.8674,4.99738 -9.8299,6.15722 -0.9626,1.15984 -2.7934,2.1088 -4.0685,2.1088 -1.275,0 -5.1016,2.59193 -8.5034,5.75985 -5.4786,5.10191 -6.1851,6.40521 -6.1851,11.40957 0,3.10735 0.6529,8.24282 1.451,11.41216 2.5119,9.97556 -2.6124,16.22659 -24.8269,30.28615 -22.84597,14.45915 -22.20994,13.49202 -18.72022,28.4656 1.02545,4.4 2.27713,11.38126 2.78151,15.51391 0.89612,7.34248 0.80218,7.64103 -4.11731,13.08631 -5.89528,6.52537 -10.90121,9.39978 -16.37016,9.39978 -3.08924,0 -4.53081,-1.01065 -6.71012,-4.70429 z m -524.87233,-27.0128 c -11.77916,-9.44965 -18.06356,-17.05117 -24.0649,-29.10852 -6.53484,-13.12924 -6.69398,-14.27208 -3.96982,-28.50772 3.57757,-18.69523 5.6934,-21.33334 17.10982,-21.33334 6.77108,0 7.9915,-0.37888 8.58976,-2.66666 0.38355,-1.46667 1.07738,-2.6663 1.54184,-2.66583 0.46447,4.5e-4 4.21816,2.64932 8.34155,5.88636 4.12337,3.23705 9.88145,7.10197 12.79573,8.58872 5.48526,2.79837 19.04055,16.54464 19.04055,19.3088 0,0.86341 1.51039,4.40708 3.35641,7.87483 4.60087,8.64272 5.39391,16.02116 2.71288,25.24059 -4.62025,15.88792 -11.73454,21.37485 -28.78716,22.20225 -10.00817,0.4856 -10.07954,0.46496 -16.66666,-4.81948 z m -110.7349,-3.51635 c -4.9933,-3.49744 -10.15069,-12.57786 -13.11972,-23.09945 -1.61853,-5.73571 -4.50565,-12.72855 -6.41584,-15.53963 -4.0086,-5.89919 -3.78588,-7.28119 1.67587,-10.3988 C 310.43436,295.4443 312,293.4593 312,291.77697 c 0,-1.75654 1.71129,-3.78334 4.66667,-5.52704 2.56666,-1.51438 4.66666,-3.6403 4.66666,-4.72427 0,-3.34416 7.34202,-9.52145 12.45728,-10.48109 7.75492,-1.45483 10.97251,0.0139 13.41754,6.12462 5.7409,14.34794 3.4839,35.76115 -5.37503,50.99551 -2.47488,4.25595 -4.50203,8.45595 -4.50477,9.33334 -0.008,2.68857 -5.18334,10.26189 -7.01208,10.26189 -0.9476,0 -2.94367,-0.85505 -4.4357,-1.90011 z m -55.00066,-19.84296 c -2.07766,-2.50341 -5.54658,-16.59847 -5.54658,-22.53707 0,-5.87049 2.17706,-6.59381 6.17979,-2.0532 3.84891,4.36611 5.82021,9.72335 5.82021,15.81706 0,8.44883 -3.15876,12.74305 -6.45342,8.77321 z M 94.076035,317.17728 c -2.423886,-2.67836 -1.852898,-5.41735 1.129337,-5.41735 2.451785,0 6.554248,4.89824 5.513218,6.58265 -1.341155,2.17004 -4.054965,1.69395 -6.642555,-1.1653 z m 105.333335,-2.66667 c -2.42389,-2.67836 -1.8529,-5.41735 1.12934,-5.41735 2.45178,0 6.55424,4.89824 5.51321,6.58266 -1.34115,2.17004 -4.05496,1.69394 -6.64255,-1.16531 z M 76.153143,299.75993 c -5.05589,-10.55584 -5.128986,-12.37219 -0.639998,-15.90323 4.48556,-3.52835 11.279478,-3.54993 15.339143,-0.0488 3.067564,2.64556 3.081808,2.75591 0.559423,4.33333 -5.405699,3.38059 -8.748263,7.62546 -8.838758,11.22472 -0.05155,2.05 -0.583102,4.92727 -1.181242,6.39394 -0.919939,2.25573 -1.727214,1.33112 -5.238568,-6 z m 114.450267,0.23993 c -4.03722,-3.58272 -5.4846,-5.75773 -4.87998,-7.33333 0.901,-2.34795 3.34785,-2.87951 5.61365,-1.21952 1.68955,1.23781 8.66292,11.47533 8.66292,12.71792 0,2.33012 -4.15057,0.49036 -9.39659,-4.16507 z m -53.38458,-9.35928 C 125.51227,283.2165 99.29888,262.60226 97.318113,259.26261 92.419973,251.00415 74.896416,233.71607 64.450069,226.83622 51.518124,218.31939 40,208.31894 40,205.60778 c 0,-1.04776 -1.5,-2.58847 -3.333333,-3.42379 -4.616322,-2.10334 -4.165558,-4.73701 1.25301,-7.32094 4.554643,-2.17196 4.619479,-2.15799 9.37973,2.02156 2.63636,2.31476 5.483892,4.20865 6.327845,4.20865 0.843955,0 4.364117,2.386 7.822583,5.30223 3.458465,2.91621 7.78116,5.98249 9.605989,6.81393 1.824828,0.83145 4.110031,2.99189 5.078227,4.80099 0.968196,1.80908 13.784114,14.57376 28.479819,28.36592 32.19457,30.21516 44.71946,43.07646 44.71946,45.92062 0,3.32399 -5.43252,2.58123 -12.1145,-1.65637 z m 132.59038,-0.89703 c -0.91853,-2.39366 0.10294,-10.085 3.6279,-27.31696 3.83376,-18.74157 7.44632,-28.42882 13.84104,-37.11544 3.14941,-4.27816 6.42133,-9.07734 7.27093,-10.66485 0.84961,-1.58751 2.80264,-2.88637 4.34005,-2.88637 2.506,0 2.71891,0.56969 2.05706,5.50417 -0.42652,3.17995 -2.74178,8.41319 -5.48292,12.39321 -2.60956,3.78896 -5.40582,8.96208 -6.21388,11.49582 -0.80807,2.53374 -1.97404,5.8068 -2.59106,7.27346 -0.61701,1.46667 -1.41108,7.16667 -1.7646,12.66667 -0.69969,10.88607 -3.50145,19.57012 -8.496,26.33333 -3.50492,4.74608 -5.40056,5.41272 -6.58852,2.31696 z m -95.47588,-4.2 c 0.91667,-0.36988 2.41667,-0.36988 3.33334,0 0.91666,0.36988 0.16666,0.67252 -1.66667,0.67252 -1.83333,0 -2.58333,-0.30264 -1.66667,-0.67252 z m -31.66666,-24.53956 c -20.07711,-15.78644 -24,-19.22837 -24,-21.05744 0,-2.31902 2.482,-1.82666 7.1275,1.41388 7.56436,5.27666 35.53916,29.31555 35.53916,30.539 0,2.90424 -4.33236,0.37551 -18.66666,-10.89544 z m 495.60668,-20.94202 c -4.43415,-4.89968 -15.70059,-35.02736 -15.48959,-41.42083 0.0883,-2.67396 1.55213,-0.592 5.94295,8.45212 6.15586,12.67976 13.93996,31.64137 13.93996,33.95699 0,2.09784 -2.00951,1.6458 -4.39332,-0.98828 z M 98.6147,222.37463 c -1.495248,-1.49525 -4.945248,-3.96644 -7.666667,-5.49153 -2.721418,-1.52509 -8.797948,-5.85171 -13.503397,-9.61471 -4.705451,-3.76298 -12.205451,-9.2418 -16.666667,-12.17513 C 55.103441,191.36215 51.865555,188.11114 50,184.27159 c -3.662773,-7.53845 -5.827991,-9.845 -9.241753,-9.845 -1.603379,0 -4.079912,-0.86333 -5.503407,-1.91851 -2.420216,-1.79401 -2.443496,-2.06538 -0.358736,-4.18182 2.995159,-3.04066 11.627243,-2.91326 17.063285,0.25185 2.92738,1.70444 5.579416,5.16785 8.227767,10.74499 3.129011,6.58934 6.0912,10.07437 14.860427,17.48335 14.73478,12.44918 27.619087,24.94361 27.619087,26.78334 0,2.16031 -0.96627,1.87054 -4.05197,-1.21516 z m 218.27419,-59.5036 C 316.4,162.38215 316,160.23211 316,158.09319 c 0,-2.13893 -1.146,-8.48893 -2.54667,-14.11112 -2.9945,-12.01974 -4.78266,-40.01623 -3.38778,-53.041365 0.84588,-7.89879 1.57933,-9.759 5.3244,-13.50407 2.38886,-2.38886 5.65956,-4.34339 7.26821,-4.34339 1.80349,0 3.19217,-1.02236 3.62217,-2.66666 0.96228,-3.67979 3.52263,-3.33916 8.67327,1.15389 2.40885,2.10131 6.85653,5.07616 9.88373,6.61078 6.35612,3.2222 13.82934,13.48169 13.82934,18.98541 0,2.26603 -2.00054,6.047155 -5.33334,10.080305 -2.93333,3.54974 -5.33366,7.06507 -5.33408,7.81184 -4.1e-4,0.74678 -2.40008,5.25778 -5.33258,10.02445 -2.93251,4.76666 -5.33218,10.19886 -5.33259,12.07154 -10e-4,5.27106 -6.25599,16.57979 -12.08089,21.84224 -5.32412,4.81002 -6.75655,5.47175 -8.3643,3.86399 z m 201.44628,-5.7142 c -15.05441,-7.52045 -23.00184,-17.02479 -23.00184,-27.50791 0,-5.70652 0.66626,-7.53648 4.21568,-11.57906 8.36651,-9.52893 7.65142,-13.99022 -3.69764,-23.068695 -11.4684,-9.17394 -14.76048,-11.22616 -18.02145,-11.23423 -4.05364,-0.01 -6.42777,-3.18433 -3.93125,-5.25625 3.15256,-2.6164 17.61292,2.02993 21.13228,6.79012 1.67502,2.2656 4.04493,3.79245 5.88646,3.79245 1.87927,0 3.08259,0.79705 3.08259,2.04184 0,2.86072 2.59387,3.54197 8.67521,2.27845 4.02146,-0.83553 5.40518,-1.84404 5.99571,-4.36992 0.61897,-2.64746 1.71904,-3.36346 5.67751,-3.69529 4.53342,-0.38003 4.78489,-0.61664 3.28066,-3.08684 -1.39117,-2.28455 -1.18392,-3.04025 1.41907,-5.17447 1.67649,-1.37457 6.32649,-3.45226 10.33333,-4.61708 4.00684,-1.16482 7.28518,-2.64743 7.28518,-3.29468 0,-0.64725 3.1178,-2.73049 6.92845,-4.62942 8.90587,-4.43797 16.85755,-4.60486 20.774,-0.43599 7.09724,7.55467 10.93704,23.37594 10.95415,45.134745 0.0133,16.85977 1.7547,25.3614 6.65346,32.4815 3.92927,5.711 5.17076,10.03382 2.88167,10.03382 -0.62788,0 -3.89492,-2.10232 -7.26009,-4.67182 -10.75835,-8.21461 -11.46363,-8.23845 -26.75667,-0.90466 -7.42956,3.56287 -15.84204,8.07511 -18.69437,10.02722 -6.36058,4.35309 -16.2088,4.74441 -23.8121,0.94617 z"
     id="path220"
     inkscape:connector-curvature="0" />
</svg>
