<?xml version="1.0" encoding="UTF-8" standalone="no"?>
<!-- Created with Inkscape (http://www.inkscape.org/) -->

<svg
   xmlns:dc="http://purl.org/dc/elements/1.1/"
   xmlns:cc="http://creativecommons.org/ns#"
   xmlns:rdf="http://www.w3.org/1999/02/22-rdf-syntax-ns#"
   xmlns:svg="http://www.w3.org/2000/svg"
   xmlns="http://www.w3.org/2000/svg"
   xmlns:sodipodi="http://sodipodi.sourceforge.net/DTD/sodipodi-0.dtd"
   xmlns:inkscape="http://www.inkscape.org/namespaces/inkscape"
   version="1.1"
   id="svg250"
   width="576"
   height="576"
   viewBox="0 0 576 576"
   sodipodi:docname="rat_paint.svg"
   inkscape:version="0.92.4 (5da689c313, 2019-01-14)">
  <metadata
     id="metadata256">
    <rdf:RDF>
      <cc:Work
         rdf:about="">
        <dc:format>image/svg+xml</dc:format>
        <dc:type
           rdf:resource="http://purl.org/dc/dcmitype/StillImage" />
        <dc:title></dc:title>
      </cc:Work>
    </rdf:RDF>
  </metadata>
  <defs
     id="defs254" />
  <sodipodi:namedview
     pagecolor="#ffffff"
     bordercolor="#666666"
     borderopacity="1"
     objecttolerance="10"
     gridtolerance="10"
     guidetolerance="10"
     inkscape:pageopacity="0"
     inkscape:pageshadow="2"
     inkscape:window-width="640"
     inkscape:window-height="480"
     id="namedview252"
     showgrid="false"
     inkscape:zoom="0.53993056"
     inkscape:cx="288"
     inkscape:cy="288"
     inkscape:window-x="0"
     inkscape:window-y="0"
     inkscape:window-maximized="1"
     inkscape:current-layer="svg250" />
  <path
     style="fill:#000000;stroke-width:0.95999998"
     d="m 333.32993,486.26421 0.53064,-3.95624 -3.80081,0.5098 c -2.09046,0.28038 -4.92495,1.30469 -6.29891,2.27623 -1.37394,0.97155 -3.09777,2.19845 -3.83074,2.72645 -0.94521,0.68088 -1.59957,0.54132 -2.25064,-0.48 -1.29317,-2.02856 -1.26812,-2.11775 1.91515,-6.81554 1.57439,-2.32345 2.87039,-4.4915 2.88,-4.81789 0.01,-0.32639 -3.41343,-0.66668 -7.60675,-0.7562 -8.90635,-0.19011 -12.15753,0.95928 -18.16612,6.4223 -5.02922,4.57257 -7.35228,4.40778 -8.74899,-0.62063 -1.57237,-5.6608 -1.28087,-6.44565 2.90723,-7.82785 2.13835,-0.70572 5.05435,-2.29501 6.48,-3.53175 2.17791,-1.8893 2.36201,-2.39376 1.1521,-3.15695 -1.25564,-0.79204 -12.74263,-0.50768 -17.52,0.43371 -1.91035,0.37644 -2.39513,-3.19007 -0.66832,-4.91688 0.70889,-0.70889 -0.72523,-4.42956 -4.79188,-12.432 -3.19195,-6.28117 -5.8072,-11.98468 -5.81167,-12.67444 -0.005,-0.68976 -1.25618,-2.41776 -2.78157,-3.84 -2.69028,-2.50835 -2.81078,-3.02607 -4.01902,-17.26709 -1.18611,-13.98026 -1.14863,-15.10322 0.78486,-23.52 1.17253,-5.10421 1.81351,-10.34887 1.51703,-12.41277 -0.54934,-3.82411 1.19348,-12.86598 2.89108,-14.99909 1.37556,-1.72846 2.40008,0.82137 2.49201,6.20216 0.09,5.26842 3.21799,8.30545 11.33675,11.00721 5.46288,1.81792 8.58236,2.11534 23.2011,2.21201 18.60996,0.12307 25.99448,-1.05153 28.42481,-4.52131 1.172,-1.67327 1.42482,-6.51033 1.42482,-27.26061 0,-15.73433 0.35195,-25.22639 0.93535,-25.22639 1.38762,0 3.86465,-5.28283 3.86465,-8.24224 0,-1.50279 -0.98147,-3.48718 -2.35374,-4.75896 -2.12049,-1.96522 -2.33877,-2.87988 -2.20261,-9.23009 0.12395,-5.78096 -0.246,-7.73935 -2.05697,-10.88871 -3.22513,-5.60869 -6.68475,-8.93062 -10.58503,-10.16374 -5.79033,-1.83067 -6.18954,-3.24912 -2.50475,-8.89945 2.09907,-3.21876 3.44634,-6.69078 3.87138,-9.97681 0.35854,-2.772 0.8687,-5.04 1.13369,-5.04 0.26498,0 1.75471,0.75194 3.31051,1.67097 1.77059,1.04591 3.08286,1.31523 3.50812,0.72 0.37367,-0.52303 1.1114,-0.96046 1.6394,-0.97206 2.41106,-0.053 14.88422,-4.6672 14.20433,-5.25466 -0.79713,-0.68876 -9.23104,-2.64206 -14.20532,-3.28996 -1.58345,-0.20624 -3.99149,-0.65921 -5.35117,-1.00658 -2.69713,-0.68908 -3.81722,0.18595 -12.90819,10.08399 -5.17155,5.63067 -9.84239,9.4626 -16.87485,13.84404 -2.42836,1.51295 -5.21925,3.94716 -6.202,5.40935 -0.98273,1.4622 -2.09833,2.466 -2.47909,2.23068 -0.38077,-0.23533 -2.57576,0.70978 -4.87775,2.10023 -4.2359,2.55857 -7.54033,6.62684 -8.90756,10.96658 -0.41196,1.30758 -2.63213,4.13561 -4.93371,6.28451 -4.01218,3.74602 -5.27628,6.17291 -3.21529,6.17291 0.53316,0 1.70917,-0.864 2.61335,-1.92 0.90417,-1.056 1.97994,-1.92 2.3906,-1.92 1.25346,0 0.76481,6.08922 -0.69335,8.64 -0.85817,1.50122 -1.3926,5.27609 -1.42707,10.08 -0.0391,5.44114 -0.59499,8.8694 -1.90708,11.76 -2.01291,4.43453 -4.52444,5.35516 -5.23787,1.92 -1.36445,-6.56983 -2.46798,-15.40466 -2.46798,-19.75863 0,-3.68348 -0.35688,-4.96137 -1.38557,-4.96137 -0.76206,0 -1.99734,-0.87343 -2.74506,-1.94096 -1.20074,-1.7143 -1.50109,-1.77034 -2.57197,-0.48 -1.67883,2.02287 -3.8574,1.82999 -3.8574,-0.3415 0,-3.11349 -2.25053,-4.17126 -5.39064,-2.53364 -3.48541,1.8177 -4.63166,1.82072 -6.12936,0.0161 -1.59179,-1.91799 -1.98493,-1.84306 -5.00031,0.95295 l -2.58069,2.39296 -1.40417,-2.00473 c -1.01961,-1.45572 -1.97265,-1.8243 -3.48,-1.34589 -1.43262,0.4547 -2.45843,0.1356 -3.3106,-1.02979 -1.16826,-1.5977 -1.41615,-1.57654 -4.6028,0.39293 -1.85243,1.14486 -3.59768,2.08157 -3.87833,2.08157 -0.28065,0 -1.287,-2.16 -2.23633,-4.8 -0.94933,-2.64 -2.25557,-4.8 -2.90276,-4.8 -0.64718,0 -2.39785,0.99052 -3.89035,2.20115 -1.49251,1.21064 -3.90166,2.9486 -5.35366,3.86213 -1.452,0.91354 -2.64,2.02427 -2.64,2.46829 0,0.44402 1.728,2.00481 3.84,3.46843 4.53499,3.14275 4.98324,6.15217 1.87329,12.57649 -1.84304,3.80721 -2.14296,4.01214 -4.76959,3.25883 -1.54159,-0.44211 -3.77669,-1.48593 -4.9669,-2.31959 -2.58482,-1.81047 -5.74641,-1.92581 -10.05746,-0.36693 -2.81149,1.01665 -3.5051,0.90621 -6.02928,-0.96 -3.58512,-2.65059 -5.58558,-2.61632 -8.96996,0.1536 -1.87261,1.53263 -3.53764,2.06747 -5.52725,1.77545 -3.22233,-0.47296 -7.63285,-5.10408 -7.63285,-8.01465 0,-3.12405 -2.65308,-7.27076 -8.0176,-12.53134 -1.50569,-1.47651 -3.10553,-2.45717 -3.5552,-2.17926 -0.44967,0.27792 -1.26964,-1.12773 -1.82215,-3.12367 -1.20951,-4.3694 -1.74773,-5.18305 -4.81866,-7.2846 -4.30091,-2.94329 -6.74072,-2.1132 -12.97704,4.41514 -5.40193,5.65487 -12.23095,10.59671 -17.75768,12.85041 -1.8382,0.74958 -3.41818,0.54592 -6.85936,-0.88417 -3.971332,-1.65041 -4.60598,-2.34005 -5.678424,-6.17045 -0.93619,-3.34373 -0.958794,-5.38932 -0.100636,-9.10707 1.398709,-6.05954 1.411124,-10.10679 0.03361,-10.95815 -0.680335,-0.42047 -0.860189,-2.21687 -0.491359,-4.90777 0.420288,-3.06633 0.153327,-4.89842 -0.961752,-6.60025 -1.11642,-1.70387 -1.432605,-3.88127 -1.142659,-7.86889 0.414351,-5.69856 1.887919,-8.31164 16.37234,-29.03316 5.05218,-7.2277 13.02076,-17.51804 22.57657,-29.15458 3.3,-4.01856 6,-7.74273 6,-8.27594 0,-0.53322 0.36891,-0.96948 0.81982,-0.96948 0.45089,0 1.98515,-1.08 3.40946,-2.4 3.99897,-3.70613 9.62733,-3.3371 15.31267,1.00398 2.45192,1.87218 4.45805,3.18881 4.45805,2.92584 0,-0.26298 0.98476,0.47323 2.18836,1.63602 4.36828,4.22016 5.76945,11.19474 3.35679,16.70899 -0.64617,1.47685 -4.90207,7.65865 -9.45755,13.73736 -7.81563,10.42896 -11.55984,16.31865 -11.42888,17.97775 0.15139,1.91781 -2.24957,9.92887 -3.14082,10.47969 -0.55505,0.34303 -1.53126,-0.0903 -2.16938,-0.96296 -0.63809,-0.87267 -1.35205,-1.58667 -1.58655,-1.58667 -0.23449,0 -2.77888,3.29737 -5.65417,7.32749 -9.16025,12.83936 -14.9336,17.84724 -19.1478,16.60905 -4.3268,-1.27128 -4.8,-1.03487 -4.8,2.39809 0,2.63803 -0.6218,3.72114 -3.12,5.43471 -5.07577,3.48158 -6.435321,5.72908 -6.458649,10.67689 -0.02467,5.23176 2.077539,7.10199 6.898989,6.1377 2.59953,-0.51991 14.01719,-8.8592 14.14513,-10.3314 0.0299,-0.34511 1.43002,-2.18111 3.11117,-4.08 3.54901,-4.00868 5.3776,-4.23042 13.78891,-1.67208 4.12664,1.25514 6.48644,1.50989 8.16,0.88091 2.79412,-1.05013 9.20366,-0.21231 11.05626,1.44519 0.72136,0.6454 1.97455,1.73048 2.78488,2.4113 0.81031,0.68082 1.47331,2.66644 1.47331,4.41251 0,3.62314 2.29651,8.80032 4.23338,9.54356 0.71841,0.27568 2.26368,-0.1694 3.43393,-0.98908 1.80135,-1.26172 2.7324,-1.30915 6.06975,-0.30926 3.65464,1.09495 4.06746,1.02616 5.66249,-0.94362 2.56,-3.16146 2.15324,-4.41274 -2.56211,-7.88154 -2.35541,-1.73273 -4.29941,-3.43144 -4.32,-3.7749 -0.0205,-0.34347 3.74256,-0.79279 8.36256,-0.9985 9.88609,-0.44018 16.96978,-3.10742 19.92316,-7.50172 1.05426,-1.56862 1.78007,-3.11261 1.61291,-3.43109 -0.16715,-0.31848 0.28344,-1.07971 1.00134,-1.69164 0.7179,-0.61191 2.57033,-3.84654 4.11653,-7.18807 l 2.81126,-6.07551 -2.32143,-1.75106 -2.32143,-1.75106 3.93746,-5.13343 c 4.37695,-5.70645 7.5128,-11.42696 8.50344,-15.51224 0.54916,-2.26475 0.30993,-2.78889 -1.48748,-3.25892 -2.37515,-0.62111 -2.37984,-0.47308 0.42661,-13.47667 1.16399,-5.39331 1.24967,-7.35669 0.38169,-8.74653 -0.82995,-1.32898 -0.85033,-2.88108 -0.0788,-6.00561 0.57221,-2.31741 0.81112,-5.36557 0.53091,-6.77368 -0.28021,-1.40811 -0.025,-4.81916 0.5671,-7.58009 0.59212,-2.76094 0.92361,-5.17284 0.73666,-5.35979 -0.45244,-0.45242 -13.13992,12.26042 -13.13992,13.16618 0,0.38835 -1.296,1.15787 -2.88,1.71006 -4.97612,1.73469 -3.65306,-2.24717 3.12,-9.38991 3.3,-3.48011 8.54024,-9.12929 11.64497,-12.55375 5.61741,-6.19588 5.65196,-6.21575 7.07709,-4.06938 2.85699,4.30285 4.99679,1.87279 5.02484,-5.70645 0.016,-4.34534 1.65676,-5.68214 2.47418,-2.01592 0.32856,1.4736 0.85564,3.54326 1.1713,4.59926 0.31565,1.056 0.6417,2.352 0.72455,2.88 0.0829,0.528 0.21642,1.2951 0.29685,1.70465 0.35641,1.81507 5.91236,-2.39218 6.39434,-4.84211 1.4803,-7.52451 2.86593,-10.30189 5.27188,-10.56705 2.93157,-0.3231 7.42996,3.41805 6.93555,5.76805 -0.38107,1.81129 4.06479,6.49646 6.16463,6.49646 1.61624,0 1.61816,-0.0657 -0.20379,6.96546 -1.72172,6.64436 -1.27212,7.39527 4.44259,7.41984 3.89028,0.0167 7.62102,2.87669 7.62102,5.84223 0,1.052 0.6148,2.14865 1.36623,2.437 2.42392,0.93015 13.41291,-2.49973 16.87377,-5.26663 4.36392,-3.48887 6.45692,-4.53137 10.59308,-5.27622 4.77935,-0.86069 7.64692,-3.12759 7.64692,-6.04512 0,-2.34789 0.17927,-2.42768 4.12489,-1.836 3.56217,0.53418 4.42155,0.30277 6.2996,-1.69631 l 2.1747,-2.31488 -3.17959,-1.12685 c -2.85443,-1.0116 -3.01253,-1.25159 -1.546,-2.34658 1.4781,-1.10365 1.26094,-1.52797 -2.28125,-4.45767 -5.13573,-4.24769 -6.55235,-5.69843 -6.55235,-6.71018 0,-2.0517 2.26276,-1.76271 7.70372,0.98388 5.92067,2.98875 8.90806,3.11406 9.94299,0.41707 0.72359,-1.88563 5.3172,-3.59447 6.71006,-2.49616 2.02689,1.59826 13.52675,2.9754 29.34357,3.514 14.72485,0.50142 18.29966,1.17941 18.29966,3.47066 0,0.46336 -9.9105,0.84246 -22.02334,0.84246 -19.86711,0 -26.50467,0.71711 -21.4306,2.31532 3.43906,1.08321 26.62734,5.19777 27.22194,4.8303 0.33847,-0.20919 1.38809,0.47347 2.33249,1.51702 1.68433,1.86116 1.64026,1.89736 -2.30954,1.89736 -2.21465,0 -8.15703,-0.46057 -13.2053,-1.02348 -5.04828,-0.56292 -9.44031,-0.76186 -9.76006,-0.4421 -0.93267,0.93266 2.60086,6.54739 5.64891,8.97603 1.53962,1.22675 4.8527,2.96117 7.3624,3.85427 6.63662,2.36171 7.31077,2.89963 5.84596,4.66463 -1.53394,1.84828 -0.0529,3.04994 9.50119,7.70914 7.70481,3.75734 8.45422,4.40723 9.39236,8.14511 0.56608,2.25543 0.31151,2.67799 -1.95624,3.24716 -2.41404,0.60588 -1.69264,1.24437 9.74642,8.62619 20.73814,13.3827 24.27212,16.66539 19.55341,18.16305 -1.056,0.33516 -1.91814,0.90427 -1.91587,1.26469 0.002,0.36042 1.73027,2.93207 3.84,5.71479 2.10973,2.7827 3.83587,5.25632 3.83587,5.49693 0,0.71583 11.63405,16.76076 12.57456,17.34203 0.47599,0.29418 0.86544,1.8342 0.86544,3.42227 0,1.60081 1.06941,4.28946 2.4,6.03396 2.83023,3.71063 2.98022,4.94521 0.75226,6.19205 -1.53435,0.85867 -1.49098,1.37398 0.63011,7.48771 1.25283,3.61106 3.28373,8.59022 4.51312,11.06478 5.68537,11.4438 11.21054,32.53876 9.08042,34.66888 -0.47894,0.47894 -1.1161,0.39118 -1.48421,-0.20445 -0.35476,-0.574 -1.19344,-1.04364 -1.86374,-1.04364 -0.85079,0 -1.74703,4.27491 -2.96864,14.16 -2.17992,17.63959 -2.05294,16.7584 -2.6631,18.48 -0.2807,0.792 -1.47561,5.328 -2.65535,10.08 -2.88806,11.63302 -4.41554,15.22561 -6.18489,14.54664 -1.9502,-0.74836 -2.12432,-0.2929 -3.92385,10.26427 -1.94463,11.40839 -1.26377,13.14143 3.95351,10.06315 9.85153,-5.81254 23.38767,-22.40358 24.70156,-30.27634 0.15767,-0.94475 0.75812,-2.58172 1.33431,-3.63772 2.18155,-3.99816 5.26989,-22.47608 5.7847,-34.61057 0.29756,-7.01357 0.0563,-16.56024 -0.54779,-21.683 -1.08439,-9.19472 -5.46775,-26.24527 -7.87531,-30.63366 -0.70992,-1.29402 -1.38763,-2.93578 -1.50602,-3.64833 -0.11839,-0.71256 -2.1538,-6.11256 -4.52312,-12 -6.00566,-14.92321 -6.60932,-17.19378 -6.65995,-25.05042 -0.0829,-12.87092 4.71818,-20.73429 14.77529,-24.19924 6.3317,-2.18146 13.55185,0.21349 16.18114,5.3673 2.86282,5.61159 3.31717,9.92502 1.42986,13.57466 l -1.6496,3.18999 -2.3287,-4.58214 c -2.45226,-4.82524 -6.8577,-7.6838 -10.02141,-6.50262 -3.79614,1.41731 -6.6006,4.89976 -6.6006,8.19638 0,1.79906 4.06265,14.86993 9.02812,29.04634 14.01721,40.01919 15.93079,48.42185 15.92671,69.93531 -0.005,23.52588 -5.83976,49.69308 -16.59124,74.4 -9.34853,21.48292 -17.92166,32.2686 -36.05348,45.35816 -12.06348,8.70874 -17.48005,10.90219 -39.92507,16.16767 -18.82315,4.41581 -20.91212,4.71417 -33.0064,4.71417 h -12.91146 z m -78.99784,-0.86827 c -12.07216,-1.11753 -13.38028,-2.11281 -9.12772,-6.94478 2.87193,-3.26323 4.90744,-4.05777 15.46256,-6.03562 6.87074,-1.28746 8.46728,-1.33777 9.11654,-0.28723 0.46422,0.75112 0.21544,2.14604 -0.60648,3.40043 -1.33229,2.03333 -1.20927,2.2084 2.79688,3.98051 5.07381,2.24439 5.88874,3.36354 3.89847,5.3538 -1.63978,1.63979 -7.90793,1.79486 -21.54025,0.53289 z m 61.81246,-108.86955 c -0.33531,-0.87381 -0.40923,-1.78918 -0.16426,-2.03414 0.3556,-0.3556 7.33128,-1.54828 9.3918,-1.60577 2.60737,-0.0728 3.84,0.43739 3.84,1.58928 0,1.55125 -1.38685,2.07684 -7.90894,2.99736 -3.73218,0.52674 -4.6584,0.35676 -5.1586,-0.94673 z m -30.19684,-0.93032 c -0.2601,-0.2601 -2.30583,-0.58105 -4.54608,-0.71324 -2.51436,-0.14835 -4.8868,-0.99465 -6.19916,-2.21136 l -2.12598,-1.97102 2.3878,-0.22431 c 3.5319,-0.33179 19.25611,2.94937 19.47733,4.06431 0.19149,0.96516 -8.11003,1.93951 -8.99391,1.05562 z m 4.83711,-14.52848 c -0.86361,-1.04058 -0.86119,-5.35439 0.0103,-18.42294 0.62587,-9.3853 1.20972,-18.54576 1.29746,-20.35655 0.15244,-3.14625 -0.0759,-3.38399 -5.14639,-5.35759 -10.62057,-4.13388 -14.02121,-8.30379 -4.53155,-5.55665 3.43582,0.99464 10.81142,1.57733 23.1977,1.83269 9.98814,0.20592 18.35751,0.57166 18.5986,0.81274 0.24109,0.2411 0.20771,1.0394 -0.0742,1.77401 -0.54272,1.41433 -8.48457,2.58715 -17.51912,2.58715 -3.52815,0 -5.7104,0.54937 -7.29918,1.83751 -2.07131,1.67937 -2.27588,2.6088 -2.37713,10.8 -0.061,4.92937 -0.57996,13.28249 -1.15338,18.56249 -0.57344,5.28 -1.06359,10.09379 -1.08922,10.69729 -0.0744,1.75097 -2.67985,2.27677 -3.91389,0.78985 z m 15.38727,-55.23257 c -10.68386,-1.19672 -17.48468,-1.52151 -20.89258,-0.99778 -6.97392,1.07176 -8.60787,-0.14556 -6.94763,-5.17616 1.54063,-4.66814 8.21437,-12.00064 10.92248,-12.0006 1.17575,2e-5 3.1648,1.41257 4.70212,3.33927 4.12991,5.17597 5.64057,5.62725 9.44098,2.82034 2.6539,-1.96012 3.92524,-2.29084 6.88784,-1.79174 3.51994,0.59301 6.98396,-0.80209 5.98899,-2.41199 -0.24017,-0.38859 0.65671,-1.2917 1.99306,-2.0069 2.9193,-1.56236 4.33903,-0.84543 8.49547,4.29 2.54203,3.14077 2.91799,4.36544 2.92324,9.52265 l 0.006,5.91834 -3.84,0.13441 c -2.112,0.0739 -10.968,-0.664 -19.68,-1.63984 z M 290.20845,190.67281 c -1.13408,-1.13408 -12.26666,-1.58533 -16.19636,-0.65649 -1.584,0.3744 -3.528,0.26511 -4.32,-0.24286 -2.36813,-1.51885 0.73418,-3.74797 6.2629,-4.50011 8.09439,-1.10119 9.30872,-5.14717 3.3371,-11.11878 -4.17832,-4.17833 -4.54914,-5.05658 -2.47162,-5.8538 1.70252,-0.65332 8.23162,1.07747 8.23162,2.1821 0,1.41554 2.80926,1.95695 5.28,1.01758 2.55602,-0.9718 5.28,-0.38473 5.28,1.13793 0,0.51288 -2.052,2.86601 -4.56,5.22917 l -4.56,4.29666 3.55271,3.06812 c 3.0774,2.65764 3.3876,3.28841 2.31859,4.71471 -0.78774,1.05103 -1.56717,1.31354 -2.15494,0.72577 z m -97.79636,-0.93236 c -0.32632,-0.528 -0.35533,-1.34505 -0.0645,-1.81567 0.82131,-1.32886 28.89686,-19.30433 30.15111,-19.30433 1.82484,0 1.26675,2.40572 -1.0466,4.51153 -2.15915,1.96544 -26.96937,17.56847 -27.93544,17.56847 -0.28119,0 -0.77824,-0.432 -1.10456,-0.96 z m -17.11192,-7.40805 c -1.01485,-1.64205 0.96372,-2.80209 17.11192,-10.03269 26.18989,-11.72693 34.09201,-14.5531 34.0653,-12.18333 -0.0382,3.38547 -1.23655,4.02336 -26.59402,14.15568 -21.0898,8.42704 -23.80613,9.31767 -24.5832,8.06034 z m 169.146,-19.89393 c -6.01198,-1.31812 -13.16507,-4.66588 -14.97781,-7.00986 -1.35495,-1.75202 -0.0272,-4.08816 2.32357,-4.08816 0.7616,0 7.51271,-1.76764 15.00244,-3.92809 17.38678,-5.01528 19.64641,-5.56322 20.28966,-4.91997 1.36699,1.367 0.24069,3.08607 -2.59194,3.95605 -1.716,0.52704 -6.144,1.98525 -9.84,3.24046 -3.696,1.25522 -9.42,2.84735 -12.72,3.53807 -5.553,1.16228 -7.94216,2.75163 -4.56,3.03348 2.07242,0.1727 1.8111,0.0867 10.97494,3.61252 4.39357,1.69044 6.37199,4.02276 3.26506,3.84911 -0.968,-0.0542 -4.19267,-0.63173 -7.16592,-1.28361 z m -158.75408,-2.21832 c -6.05581,-0.99181 -6.59019,-1.26224 -5.18982,-2.62648 1.3033,-1.26967 8.31808,-2.98819 15.26982,-3.7409 12.19852,-1.3208 30.93622,-2.6161 31.38289,-2.16943 0.29387,0.29387 0.3135,1.10971 0.0437,1.81298 -0.32845,0.85591 -6.31913,2.15235 -18.1186,3.92104 -21.85428,3.27586 -21.0719,3.18211 -23.38792,2.80279 z m 33.06646,-14.6931 c -0.76256,-0.48246 -2.98096,-0.88382 -4.9298,-0.8919 -3.4914,-0.0145 -5.93446,-1.62362 -3.4775,-2.29047 5.65822,-1.53571 6.97428,-2.36112 8.59287,-5.38925 2.43064,-4.54736 2.24641,-9.55178 -0.64692,-17.57276 -2.1019,-5.82695 -2.39098,-8.01149 -2.11393,-15.97402 0.17653,-5.073182 0.64596,-9.749832 1.04319,-10.392562 0.50692,-0.82022 2.78278,0.39137 7.63394,4.06405 6.41543,4.856942 10.21323,9.125692 11.76175,13.220312 0.82688,2.18642 -1.65979,2.24206 -4.91379,0.10996 -3.43456,-2.2504 -3.95691,-0.93226 -1.01572,2.56315 2.84582,3.38207 3.38247,8.61555 1.07945,10.52689 -0.792,0.6573 -1.44,2.35561 -1.44,3.77402 0,1.41841 -1.512,5.08985 -3.36,8.15876 -1.848,3.06891 -3.36,5.89339 -3.36,6.27663 0,0.38325 -0.7801,1.59626 -1.73354,2.6956 -1.21492,1.40081 -2.14832,1.73636 -3.12,1.12159 z m 81.65354,-0.24078 c -4.48983,-1.53112 -4.65645,-4.64196 -0.29638,-5.53368 1.68499,-0.34462 4.42157,-1.76922 6.08128,-3.16578 3.17196,-2.66903 3.42034,-2.63937 8.33729,0.99528 3.87279,2.86281 3.31549,4.53411 -2.34717,7.03897 -4.92135,2.17696 -6.99794,2.29427 -11.77502,0.66521 z m -46.7049,-3.78582 c -0.24663,-0.396 -2.3378,-0.72 -4.64706,-0.72 -3.36863,0 -4.32026,-0.38315 -4.8138,-1.93813 -1.60725,-5.06401 1.48438,-12.42924 4.69943,-11.19551 1.10586,0.42435 1.25149,1.21435 0.62596,3.39548 -0.70124,2.44506 -0.53107,2.91676 1.21717,3.37394 2.7461,0.71811 5.4632,-1.92008 5.4632,-5.30457 0,-2.93821 1.56029,-3.50506 4.83051,-1.75488 3.59185,1.9223 4.88929,12.77822 1.72929,14.46941 -1.87025,1.00092 -8.4245,0.76643 -9.1047,-0.32574 z m 66.6833,-11.04 c -3.03004,-3.16063 -3.32285,-3.87703 -2.39914,-5.86979 0.87095,-1.87894 0.73886,-2.49885 -0.76706,-3.6 -1.00054,-0.73161 -2.61452,-1.33021 -3.58662,-1.33021 -1.84301,0 -3.697,-3.46893 -2.93071,-5.48355 0.69149,-1.81796 13.4307,-11.79645 15.06014,-11.79645 3.47367,0 4.75485,10.42527 1.94371,15.81645 -0.81919,1.57104 -1.29439,3.60233 -1.056,4.51397 0.2384,0.91163 0.082,1.78623 -0.34757,1.94355 -0.42958,0.15731 -0.44389,2.1102 -0.0318,4.33975 1.17873,6.37743 -0.72255,6.85115 -5.88494,1.46628 z m -26.72236,-18.04478 c -2.35488,-4.40012 0.80332,-5.56511 5.30396,-1.9565 3.25223,2.60764 3.03664,3.29287 -1.19087,3.78509 -2.28616,0.26619 -3.21238,-0.14559 -4.11309,-1.82859 z m -7.76214,-0.85545 c -0.20564,-0.20242 -4.0459,-0.57683 -8.5339,-0.83202 l -8.16,-0.464 v -2.74187 c 0,-3.31037 3.08561,-4.19535 6.43878,-1.84671 1.18163,0.82766 3.51645,1.50483 5.18847,1.50483 3.25453,0 8.08418,3.11394 6.42249,4.14093 -0.54007,0.33378 -1.1502,0.44126 -1.35584,0.23884 z m -26.59344,-3.52357 c -1.22074,-0.46111 -5.10634,-1.29955 -8.63467,-1.8632 -6.3081,-1.00772 -6.55938,-1.16404 -15.06046,-9.368912 -8.41957,-8.12619 -10.41066,-10.74409 -8.17167,-10.74409 1.27604,0 6.87512,3.97586 11.14176,7.91167 1.63649,1.5096 3.56086,2.61503 4.27637,2.45652 0.71552,-0.1585 1.32058,0.33907 1.34458,1.10573 0.0288,0.92002 1.34913,1.50887 3.88363,1.73204 2.112,0.18597 5.01051,1.178712 6.44113,2.206092 1.43062,1.02737 2.97532,1.86795 3.43265,1.86795 1.32262,0 5.23499,4.54754 4.35842,5.06601 -0.43571,0.25771 -1.79099,0.0913 -3.01174,-0.36981 z"
     id="path260"
     inkscape:connector-curvature="0" />
</svg>
