<?xml version="1.0" encoding="UTF-8" standalone="no"?>
<!-- Created with Inkscape (http://www.inkscape.org/) -->

<svg
   xmlns:dc="http://purl.org/dc/elements/1.1/"
   xmlns:cc="http://creativecommons.org/ns#"
   xmlns:rdf="http://www.w3.org/1999/02/22-rdf-syntax-ns#"
   xmlns:svg="http://www.w3.org/2000/svg"
   xmlns="http://www.w3.org/2000/svg"
   xmlns:sodipodi="http://sodipodi.sourceforge.net/DTD/sodipodi-0.dtd"
   xmlns:inkscape="http://www.inkscape.org/namespaces/inkscape"
   version="1.1"
   id="svg10"
   width="576"
   height="576"
   viewBox="0 0 576 576"
   sodipodi:docname="rat_parachute.svg"
   inkscape:version="0.92.4 (5da689c313, 2019-01-14)">
  <metadata
     id="metadata16">
    <rdf:RDF>
      <cc:Work
         rdf:about="">
        <dc:format>image/svg+xml</dc:format>
        <dc:type
           rdf:resource="http://purl.org/dc/dcmitype/StillImage" />
        <dc:title></dc:title>
      </cc:Work>
    </rdf:RDF>
  </metadata>
  <defs
     id="defs14" />
  <sodipodi:namedview
     pagecolor="#ffffff"
     bordercolor="#666666"
     borderopacity="1"
     objecttolerance="10"
     gridtolerance="10"
     guidetolerance="10"
     inkscape:pageopacity="0"
     inkscape:pageshadow="2"
     inkscape:window-width="676"
     inkscape:window-height="696"
     id="namedview12"
     showgrid="false"
     inkscape:zoom="0.91319444"
     inkscape:cx="288"
     inkscape:cy="288"
     inkscape:window-x="681"
     inkscape:window-y="0"
     inkscape:window-maximized="0"
     inkscape:current-layer="svg10" />
  <path
     style="fill:#000000;stroke-width:0.95999998"
     d="m 245.35354,484.63928 c -6.8012,-7.14203 -6.9287,-7.40743 -10.77601,-22.43038 -3.20372,-12.50985 -3.38772,-14.70573 -1.37236,-16.37833 2.03583,-1.68959 1.89556,-2.13127 -2.4048,-7.57163 -3.85479,-4.87668 -7.35219,-7.32555 -11.62587,-8.14043 -1.25913,-0.24008 -2.93733,-0.6786 -3.72933,-0.97448 -0.792,-0.29587 -2.52,-0.76556 -3.84,-1.04374 -4.30926,-0.90815 -29.22133,-6.39921 -31.5574,-6.95581 -3.77029,-0.89832 -15.34661,-6.83002 -21.54726,-11.0408 -3.20166,-2.17421 -6.36789,-3.95311 -7.03605,-3.95311 -0.66816,0 -0.99234,-0.36 -0.7204,-0.8 0.27193,-0.44 0.0402,-0.8 -0.51493,-0.8 -2.21488,0 -20.92064,-17.6116 -24.98124,-23.52 -2.4795,-3.6078 -10.0717,-17.26709 -13.48906,-24.26845 -0.84522,-1.73165 -1.90682,-2.81165 -2.35912,-2.4 -0.4523,0.41164 -0.54656,0.26499 -0.20945,-0.32591 0.3371,-0.59089 -0.66886,-5.12689 -2.23549,-10.08 -3.54337,-11.20292 -5.43693,-22.77216 -6.2663,-38.28564 -0.52555,-9.83045 -0.26268,-14.51668 1.45393,-25.92 4.08058,-27.10705 10.29056,-38.4734 21.86821,-40.02629 3.90883,-0.52428 11.75456,2.53434 11.75456,4.58246 0,0.54843 0.3364,0.78923 0.74756,0.53512 0.41116,-0.2541 0.73516,2.7345 0.72,6.64136 -0.0244,6.27753 -0.30658,7.38225 -2.42756,9.50211 -1.32,1.3193 -3.804,2.6792 -5.52,3.02199 -2.98736,0.59675 -3.12,0.49571 -3.12,-2.37675 0,-1.65 0.36266,-3 0.8059,-3 1.11938,0 3.0341,-4.44333 3.0341,-7.04098 0,-1.7268 -0.60019,-2.19635 -3.04555,-2.38269 -2.32363,-0.17705 -3.81361,0.51237 -6.28576,2.90848 -4.62392,4.48168 -5.88093,7.47452 -8.50271,20.2442 -6.01554,29.29947 -0.77613,58.80391 14.67083,82.61508 2.44619,3.77075 4.91462,7.1733 5.4854,7.56121 0.57079,0.38792 0.68438,0.71192 0.25242,0.72 -0.43196,0.008 0.20989,1.4187 1.42632,3.1347 8.19911,11.56635 14.5384,17.47046 23.55285,21.936 4.82415,2.38977 10.02526,4.22369 12.71035,4.48169 4.05747,0.38988 4.92152,0.10599 8.05724,-2.64721 1.93181,-1.69614 3.27228,-3.47238 2.97884,-3.94719 -0.29345,-0.47481 -0.11298,-0.86329 0.40104,-0.86329 0.51402,0 1.98941,-1.88729 3.27865,-4.19399 2.87094,-5.13667 4.14877,-17.17894 2.01114,-18.95301 -1.86689,-1.54939 -1.67121,-2.296 1.56894,-5.98633 2.92113,-3.32699 3.66401,-5.42667 1.92,-5.42667 -0.528,0 -0.96,-0.92382 -0.96,-2.05293 0,-2.59477 4.90907,-19.65951 7.83653,-27.24107 1.22028,-3.1603 2.22427,-6.178 2.23109,-6.706 0.007,-0.528 1.01691,-1.77295 2.24469,-2.76656 1.56708,-1.2682 2.07335,-2.4399 1.69888,-3.93189 -0.42923,-1.71022 0.9386,-3.55784 7.003,-9.45939 6.03347,-5.87144 7.27814,-7.54839 6.24129,-8.40891 -0.94047,-0.78051 -1.02992,-1.57042 -0.32664,-2.8845 0.53266,-0.99531 1.27959,-1.73855 1.65983,-1.65167 1.33464,0.30498 5.90568,-2.38665 5.41137,-3.18646 -0.27487,-0.44475 0.24155,-0.52416 1.14759,-0.17649 1.20612,0.46284 1.43687,0.2916 0.86153,-0.63932 -0.47676,-0.77141 -0.41145,-1.04009 0.16606,-0.68317 0.52354,0.32356 1.90688,-0.0806 3.07409,-0.89817 1.59754,-1.11895 1.8646,-1.79687 1.08019,-2.74202 -1.28064,-1.54308 -2.13186,-5.52983 -1.03609,-4.85261 0.92093,0.56918 18.52954,-4.77829 22.29471,-6.77056 1.40146,-0.74155 5.07346,-1.39135 8.16,-1.44397 8.87515,-0.15134 10.46976,-0.86322 10.09952,-4.50872 -0.36745,-3.61828 0.88163,-3.89161 7.58135,-1.65896 2.33806,0.77915 9.65101,2.03761 16.25101,2.79659 7.29065,0.83839 13.82359,2.16738 16.64673,3.38642 2.55569,1.10357 5.10644,1.72235 5.66833,1.37509 0.5747,-0.35519 0.74282,-0.18032 0.38432,0.39975 -0.37345,0.60425 1.32311,1.95731 4.09804,3.26833 3.44113,1.62575 4.82104,2.86012 5.04896,4.51646 0.25801,1.87507 1.36775,2.60174 6.25787,4.0977 7.94203,2.42959 9.66926,4.70374 9.71592,12.79246 0.0198,3.42362 0.33739,7.20708 0.70587,8.40767 1.11126,3.62075 7.34263,13.21961 8.22705,12.673 0.4537,-0.28039 0.58903,0.10491 0.30071,0.85626 -0.28833,0.75134 0.14863,2.03892 0.97099,2.86128 0.82237,0.82237 1.49521,1.85965 1.49521,2.30506 0,0.44541 1.21841,2.31227 2.70759,4.14857 3.91083,4.82245 7.75726,13.09519 7.1566,15.39213 -0.28229,1.0795 -1.86122,2.55385 -3.50872,3.27635 -2.91179,1.27693 -2.80773,1.31585 3.72453,1.39343 7.83402,0.093 13.27667,2.28902 13.73981,5.54371 0.24876,1.74814 -0.38073,2.29015 -3.6969,3.18309 -5.68806,1.53165 -4.3603,1.83256 2.76377,0.62637 5.31889,-0.90055 7.13535,-0.76032 14.4,1.11162 4.57232,1.17819 9.49257,2.13088 10.93389,2.1171 1.44131,-0.0138 4.24931,0.56826 6.24,1.29345 1.99068,0.72519 6.81931,1.81545 10.73027,2.42281 4.53084,0.70362 7.53611,1.68586 8.2829,2.70716 1.31547,1.79901 1.14587,2.03419 -4.515,6.26031 -2.09473,1.56382 -3.77262,3.77321 -4.14171,5.45367 -0.70116,3.19237 -2.79602,5.34993 -4.29498,4.42352 -1.44949,-0.89584 -1.23115,-3.9983 0.51965,-7.38397 0.88759,-1.71643 1.16612,-3.2982 0.6684,-3.79592 -1.47226,-1.47226 -4.0526,1.332 -5.84654,6.3539 -0.94306,2.64 -2.12617,4.8 -2.62911,4.8 -0.50295,0 -1.13045,-2.37226 -1.39445,-5.27168 -0.36937,-4.05668 -0.87288,-5.34623 -2.18465,-5.59514 -2.13193,-0.40453 -6.97093,4.64542 -7.86506,8.20794 -1.33863,5.33348 -4.35029,6.84191 -4.35029,2.17888 0,-3.71339 -2.53723,-3.85225 -6.68082,-0.36564 -2.53161,2.1302 -5.81352,6.89394 -5.84813,8.48863 -0.006,0.25472 -1.29931,1.87467 -2.87507,3.5999 -1.77203,1.94013 -2.62684,3.69001 -2.24072,4.58694 1.15969,2.69384 0.87064,5.25705 -0.59526,5.27876 -1.11724,0.0165 -1.36848,1.02279 -1.1209,4.48941 0.39073,5.47088 -2.29648,10.71164 -4.17507,8.14251 -0.60527,-0.82776 -2.24123,-1.93873 -3.63546,-2.46882 -1.62696,-0.61856 -2.73696,-1.92155 -3.09893,-3.63773 -1.28496,-6.09213 -3.36105,-7.37888 -4.98098,-3.08718 -0.61539,1.63035 -2.00759,3.19666 -3.09378,3.48071 -2.23121,0.58348 -2.46369,1.3397 -0.89433,2.90906 0.66553,0.66553 0.91881,3.31659 0.65946,6.90217 l -0.4211,5.82161 3.38405,0.63486 c 2.71997,0.51027 4.56034,0.025 9.37822,-2.47298 3.2968,-1.70931 6.44522,-2.82907 6.99649,-2.48837 1.28363,0.79332 1.30158,4.04791 0.0267,4.83584 -0.53661,0.33164 -0.68586,1.07188 -0.33167,1.64499 0.35419,0.57309 0.25324,0.80056 -0.22434,0.50549 -0.47758,-0.29507 -3.20966,0.62165 -6.07127,2.03718 -4.05765,2.00715 -5.44176,3.28299 -6.28791,5.79608 -2.4949,7.40994 -10.43671,11.56863 -15.63338,8.18635 -1.44968,-0.94353 -3.06777,-2.25677 -3.59577,-2.91831 -0.74832,-0.9376 -2.75925,-0.45207 -9.12,2.20201 -4.488,1.87264 -8.376,3.70896 -8.64,4.0807 -0.264,0.37173 -1.26338,0.96531 -2.22085,1.31907 -1.00819,0.3725 -1.4508,1.11251 -1.05167,1.75831 0.4203,0.68006 0.2707,0.85648 -0.38344,0.45219 -0.58994,-0.3646 -2.84899,0.45847 -5.02012,1.82903 -4.70043,2.96726 -7.98967,2.84421 -8.43761,-0.31561 -0.17253,-1.21707 0.1732,-2.79952 0.76831,-3.51658 2.16558,-2.60937 12.25793,-7.8865 22.10538,-11.55856 5.544,-2.06733 10.97184,-4.40127 12.06186,-5.18653 1.84565,-1.32963 1.89202,-1.68855 0.6746,-5.22211 -0.78544,-2.27976 -1.21433,-6.8977 -1.07445,-11.56887 0.18122,-6.05177 -0.16179,-8.51905 -1.54797,-11.13451 -0.99024,-1.86841 -1.81923,-5.49084 -1.86741,-8.16 l -0.0866,-4.8 -7.38491,0.20977 c -6.60268,0.18755 -7.44843,0.01 -7.98468,-1.68 -0.45678,-1.43898 -1.46227,-1.88977 -4.21516,-1.88977 -4.22408,0 -5.30895,-0.74486 -3.77567,-2.59236 0.74588,-0.89873 0.78765,-1.64435 0.129,-2.303 -1.01647,-1.01647 -12.01705,-3.85624 -12.6164,-3.25688 -0.18898,0.18898 0.16688,1.89035 0.7908,3.78084 0.62391,1.89048 1.20697,7.42744 1.29567,12.30432 0.14036,7.71669 -0.10907,9.2461 -1.92269,11.78851 -1.14619,1.60679 -3.82702,6.28978 -5.9574,10.40664 -2.13039,4.11686 -5.82143,9.76537 -8.20234,12.55225 -2.3809,2.78687 -4.1644,5.23189 -3.96333,5.43336 0.20106,0.20148 -0.6841,0.429 -1.96702,0.5056 -1.28293,0.0766 -3.4066,0.40882 -4.71926,0.73828 -2.64059,0.66275 -2.44053,-1.6272 -2.76486,31.64632 -0.086,8.828 -0.36174,10.60961 -1.78181,11.51508 -2.43588,1.5532 -4.90999,-0.33632 -5.63483,-4.30344 -0.32714,-1.79053 -1.36126,-4.7206 -2.29802,-6.51126 -1.24457,-2.37903 -1.69334,-5.40118 -1.66656,-11.22297 0.0303,-6.59816 -0.27239,-8.24688 -1.7617,-9.59469 -1.5334,-1.38771 -2.40241,-1.46989 -5.89861,-0.55779 -2.25516,0.58834 -4.96428,1.18703 -6.02028,1.33044 -2.86105,0.38855 -3.32968,1.57008 -3.33995,8.42075 -0.011,7.35325 1.52268,13.78647 3.06019,12.83625 0.6077,-0.37558 0.78579,-0.21501 0.41927,0.37803 -0.35044,0.56701 -0.0648,1.60576 0.63472,2.30832 0.69953,0.70257 2.84909,3.57292 4.7768,6.37857 3.68696,5.36611 5.13836,10.18647 4.07546,13.53537 -1.17856,3.71331 -4.54443,2.38528 -10.91812,-4.30783 z m 134.49163,-60.58837 c -0.66,-0.25319 -1.2,-1.51503 -1.2,-2.8041 0,-4.2196 8.8189,-5.84366 9.40633,-1.73223 0.15748,1.10219 -0.27452,2.44663 -0.96,2.98763 -1.60408,1.26597 -5.70089,2.14154 -7.24633,1.5487 z m 3.78913,-10.97825 c -3.51949,-1.30195 -1.19195,-3.98959 6.73968,-7.7824 7.76481,-3.71305 16.36551,-9.95423 22.65405,-16.43913 4.67164,-4.8175 7.21576,-5.18051 7.69601,-1.09811 0.47253,4.01677 -11.20097,15.00311 -21.80139,20.51806 -9.57081,4.97928 -12.40323,5.86885 -15.28835,4.80158 z m 43.09069,-39.54627 c -0.74944,-0.74944 -0.22771,-1.88231 1.85791,-4.03412 3.91063,-4.03473 7.0051,-12.47618 5.58344,-15.2311 -1.679,-3.25359 -3.86273,-5.39169 -4.87057,-4.76882 -1.80417,1.11503 -7.26359,1.41746 -7.87019,0.43598 -0.55376,-0.89603 5.60383,-6.10453 8.40183,-7.10682 0.72775,-0.26068 0.27289,-1.34946 -1.26224,-3.0213 -2.12431,-2.3135 -2.84111,-2.53555 -6.24,-1.93305 -9.3283,1.65356 -11.45613,-0.39533 -4.05155,-3.90124 6.17706,-2.9247 7.03005,-4.27237 4.45415,-7.03728 -2.30481,-2.47391 -4.19664,-1.866 -4.38705,1.40972 -0.0795,1.36681 -0.56832,2.90898 -1.08639,3.42705 -0.51806,0.51806 -5.58407,1.51016 -11.25778,2.20466 -5.67372,0.69451 -10.58484,1.63124 -10.91361,2.08162 -0.32878,0.45038 -2.55022,1.5173 -4.93654,2.37092 -4.13774,1.48013 -4.60475,1.4566 -10.08,-0.50785 -4.17642,-1.49844 -5.66874,-2.49106 -5.47526,-3.64186 0.17011,-1.01185 -0.50886,-1.69377 -1.88399,-1.89215 -3.08154,-0.44458 -8.20948,-8.86097 -6.58869,-10.8139 0.6446,-0.77669 0.85206,-1.92984 0.46103,-2.56255 -0.44977,-0.72776 -0.3038,-0.89873 0.39735,-0.4654 1.59384,0.98505 1.36497,-0.26884 -0.36481,-1.99861 -1.12763,-1.12764 -1.21502,-1.78414 -0.37259,-2.7992 0.60529,-0.72934 0.84115,-2.002 0.52413,-2.82815 -0.33154,-0.86397 -0.17325,-1.25293 0.37259,-0.91557 1.54698,0.95608 1.0891,-4.65957 -0.57345,-7.0332 -0.83735,-1.1955 -3.16301,-3.20926 -5.16814,-4.47503 -2.81985,-1.7801 -3.73126,-3.03461 -4.02354,-5.5382 -0.35714,-3.05916 -0.20575,-3.24836 2.75886,-3.44802 1.72521,-0.11619 4.44959,0.46766 6.0542,1.29743 3.65152,1.88827 5.13602,1.04491 4.42432,-2.51354 -0.41382,-2.06913 -0.0214,-3.24378 1.58329,-4.73972 1.79393,-1.6723 2.13347,-3.01118 2.13347,-8.41267 v -6.42385 l 3.40503,-0.28633 c 2.79352,-0.2349 4.02146,0.31235 6.83738,3.04713 1.96241,1.90586 4.20435,5.51596 5.23497,8.42962 1.65775,4.68661 8.53378,13.08481 10.97909,13.40958 1.94986,0.25897 2.43214,0.46916 4.9686,2.16558 1.44378,0.96561 3.67033,1.81839 4.94788,1.89505 1.27754,0.0766 2.16068,0.40203 1.96252,0.72306 -0.19816,0.32102 1.2407,1.40102 3.19747,2.4 1.95678,0.99897 4.0929,2.31399 4.74695,2.92228 0.65405,0.60827 2.71264,2.04751 4.57465,3.1983 1.862,1.15078 3.38546,2.44667 3.38546,2.87976 0,0.43308 1.24862,1.58585 2.77472,2.5617 5.55598,3.55274 17.12114,20.07818 20.69339,29.56879 1.3158,3.49576 3.05376,7.3002 3.86213,8.45431 1.99575,2.84934 1.84812,5.2617 -0.36501,5.96412 -1.00912,0.32028 -2.95121,2.04607 -4.31576,3.83508 -2.12081,2.78053 -3.25513,3.34948 -7.81327,3.91898 -5.70354,0.71261 -6.79605,1.43031 -9.95302,6.5384 -2.17367,3.51707 -5.03766,4.87611 -6.72336,3.19041 z m -69.91982,-62.04376 c -1.188,-0.9899 -2.16,-2.14774 -2.16,-2.57296 0,-0.42523 -1.95721,-2.76024 -4.34937,-5.18892 l -4.34936,-4.41576 -0.59271,-9.72888 c -0.76763,-12.60019 0.2605,-14.62554 7.4244,-14.62554 4.96246,0 11.32053,2.07451 12.61869,4.11724 1.10675,1.74152 0.91757,6.23722 -0.29397,6.986 -0.58427,0.3611 -2.76188,0.0956 -4.83914,-0.58992 -4.92511,-1.62544 -6.66844,-0.0309 -7.31424,6.69004 -0.48333,5.03007 0.90328,8.31242 3.00448,7.11215 0.60017,-0.34283 0.7814,-0.28026 0.40274,0.13907 -0.37868,0.41932 1.03234,2.71737 3.13559,5.10678 3.45151,3.92114 3.69764,4.5348 2.52632,6.29889 -1.76525,2.65863 -2.68654,2.77734 -5.21343,0.67181 z m -59.76,-54.77206 c -0.792,-0.51183 -2.43263,-0.93722 -3.64584,-0.9453 -2.2682,-0.0151 -6.07845,-3.46439 -8.14482,-7.37319 -0.64314,-1.21658 -4.51194,-7.12735 -8.59733,-13.13506 -4.0854,-6.00772 -7.5414,-11.73836 -7.68,-12.73479 -0.54388,-3.90986 1.93458,-2.31265 7.90799,5.0962 3.432,4.25673 6.63075,7.5091 7.10833,7.2275 0.47758,-0.28161 0.628,-0.12127 0.33428,0.35631 -0.29373,0.47758 0.96722,2.59633 2.80212,4.70833 2.19533,2.52689 3.1678,3.18345 2.84382,1.92 -1.6265,-6.3431 -8.84002,-32.18933 -11.22609,-40.2234 -2.93019,-9.86612 -3.3201,-12.10676 -2.10246,-12.0819 2.07769,0.0424 3.47673,2.49084 6.88473,12.04878 8.9461,25.08992 13.09596,35.77721 13.95397,35.93617 0.50529,0.0936 3.17484,-5.10795 5.93234,-11.55906 5.30964,-12.42177 6.27798,-14.00276 7.94532,-12.97229 1.60837,0.99404 1.33218,2.58594 -2.85292,16.44403 -4.72535,15.647 -5.01128,16.98914 -3.501,16.43353 0.63665,-0.23422 1.01356,-1.01986 0.83756,-1.74586 -0.176,-0.726 -0.006,-1.00583 0.37815,-0.62185 0.38399,0.38398 2.1477,-0.57457 3.91937,-2.13011 2.96644,-2.60457 6.10248,-3.04167 6.10248,-0.85056 0,1.12705 -6.49908,10.93624 -9.57377,14.44987 -2.47601,2.82946 -6.75456,3.60846 -9.62623,1.75265 z m 28.8,-28.35377 c 0,-2.3631 2.48069,-5.53664 11.22451,-14.35954 4.93583,-4.98047 8.73615,-8.08022 9.53198,-7.77483 3.65655,1.40316 0.21654,6.15188 -13.7986,19.04814 -5.18234,4.76861 -6.95789,5.55616 -6.95789,3.08623 z m 11.39754,-5.00623 c -1.19411,-1.52262 -1.16016,-1.55657 0.36246,-0.36246 1.59912,1.25412 2.10766,2.04246 1.31754,2.04246 -0.19934,0 -0.95534,-0.756 -1.68,-1.68 z m 21.56457,-34.50154 c -0.7792,-0.2814 -0.86034,-1.30176 -0.26781,-3.36777 0.46754,-1.63023 0.57984,-3.40129 0.24956,-3.93569 -0.33344,-0.53952 -0.12635,-0.6786 0.46564,-0.31273 0.58858,0.36376 1.75586,-0.39372 2.60592,-1.69107 1.8251,-2.78545 4.25148,-3.9083 5.57834,-2.58144 0.63027,0.63027 0.0345,2.34029 -1.76053,5.05266 -1.49228,2.25498 -2.71323,4.64843 -2.71323,5.31877 0,0.67034 -0.21225,1.00655 -0.47167,0.74714 -0.25942,-0.25942 -0.94342,-0.10142 -1.52,0.35109 -0.57659,0.45253 -1.55138,0.6411 -2.16622,0.41904 z m -37.32681,-15.97476 c -0.82571,-3.28991 3.40032,-15.5237 5.3625,-15.5237 2.37397,0 2.13309,3.9934 -0.62115,10.29769 -3.3331,7.62925 -3.96372,8.32433 -4.74135,5.22601 z m -55.86158,-5.62304 c -1.73331,-2.09691 -4.26809,-13.3952 -3.60128,-16.05199 0.58401,-2.3269 0.70573,-2.37463 1.89789,-0.74424 2.02232,2.76569 4.63953,14.67237 3.624,16.487 -0.71439,1.27657 -1.07326,1.33434 -1.92061,0.30923 z m 105.0411,-0.54066 c -0.23018,-0.396 -0.73342,-3.74205 -1.11831,-7.43567 -0.92711,-8.89693 -3.89205,-16.58568 -7.84447,-20.34238 -2.92204,-2.77734 -3.72598,-3.04164 -8.75794,-2.87918 -6.12455,0.19774 -12.10934,3.33835 -18.8658,9.90013 -3.34035,3.24412 -3.58383,3.32972 -4.07948,1.43435 -0.28991,-1.1086 -0.84758,-1.81758 -1.23928,-1.5755 -0.3917,0.24207 -0.51441,-0.59443 -0.27269,-1.85892 0.99927,-5.2273 -4.77948,-15.48848 -11.04496,-19.61227 -5.7223,-3.76628 -11.7686,-5.35036 -20.39189,-5.34249 -6.79779,0.006 -9.07638,0.43231 -13.64935,2.55254 -5.76701,2.67383 -15.15065,10.65781 -15.15065,12.89076 0,0.71975 -0.47821,1.30863 -1.06271,1.30863 -0.58449,0 -0.81604,0.64282 -0.51455,1.42848 0.30149,0.78567 0.0664,1.32567 -0.52238,1.2 -0.58881,-0.12566 -1.9768,1.60752 -3.08442,3.85152 -1.10763,2.244 -2.26995,4.08 -2.58294,4.08 -0.313,0 -1.07259,-1.68056 -1.68799,-3.73457 -0.65877,-2.19877 -2.69634,-5.15969 -4.95473,-7.2 -3.48696,-3.15026 -4.34763,-3.46543 -9.46358,-3.46543 -4.17415,0 -6.25824,0.49593 -8.06866,1.92 -1.34248,1.056 -2.89076,1.92 -3.44061,1.92 -1.46419,0 -5.47049,5.6848 -6.93462,9.84 -0.69768,1.98 -1.63802,3.6 -2.08965,3.6 -0.45162,0 -1.72639,-2.04651 -2.83283,-4.5478 -5.04742,-11.41054 -2.47404,-33.30085 5.24847,-44.645649 0.98593,-1.4484 1.51719,-3.0791 1.18054,-3.62379 -0.33663,-0.54468 -0.25594,-0.8754 0.1793,-0.73493 0.43525,0.14047 2.95136,-2.06429 5.59136,-4.89948 2.64,-2.83519 7.25342,-7.04513 10.25204,-9.35544 5.8926,-4.53997 21.0324,-12.83291 23.42811,-12.83291 0.81024,0 1.27312,-0.324 1.02863,-0.72 -0.2445,-0.396 0.48601,-0.7891 1.62334,-0.87355 1.13733,-0.0845 3.79588,-0.91141 5.90788,-1.83769 2.112,-0.92627 4.488,-1.7679 5.28,-1.87028 0.792,-0.10238 4.00334,-0.67942 7.13631,-1.28231 6.99917,-1.34688 22.37915,-1.42503 29.40738,-0.14942 2.86897,0.52071 6.08031,1.07321 7.13631,1.22777 1.056,0.15457 2.352,0.5358 2.88,0.84719 0.528,0.31139 2.688,1.11011 4.8,1.77494 5.42663,1.70821 17.88669,7.79618 20.10102,9.82133 1.02356,0.93611 2.17635,1.70202 2.56175,1.70202 1.65163,0 9.24704,7.7623 14.30521,14.61953 3.01013,4.08075 5.821,7.10475 6.2464,6.72 0.4254,-0.38474 0.48681,-0.19856 0.13647,0.41374 -0.35033,0.61231 0.18272,3.025529 1.18456,5.362719 1.00183,2.3372 2.77445,8.05319 3.93913,12.70221 1.83172,7.31161 2.02418,9.82771 1.42555,18.63728 -0.81115,11.93717 -0.98355,13.54225 -1.66099,15.46452 -0.27912,0.792 -1.26734,3.6 -2.19605,6.24 -2.57813,7.32877 -6.09032,11.73061 -7.46823,9.36 z"
     id="path20"
     inkscape:connector-curvature="0" />
</svg>
