<?xml version="1.0" encoding="UTF-8" standalone="no"?>
<!-- Created with Inkscape (http://www.inkscape.org/) -->

<svg
   xmlns:dc="http://purl.org/dc/elements/1.1/"
   xmlns:cc="http://creativecommons.org/ns#"
   xmlns:rdf="http://www.w3.org/1999/02/22-rdf-syntax-ns#"
   xmlns:svg="http://www.w3.org/2000/svg"
   xmlns="http://www.w3.org/2000/svg"
   xmlns:sodipodi="http://sodipodi.sourceforge.net/DTD/sodipodi-0.dtd"
   xmlns:inkscape="http://www.inkscape.org/namespaces/inkscape"
   version="1.1"
   id="svg230"
   width="576"
   height="576"
   viewBox="0 0 576 576"
   sodipodi:docname="rat_camera.svg"
   inkscape:version="0.92.4 (5da689c313, 2019-01-14)">
  <metadata
     id="metadata236">
    <rdf:RDF>
      <cc:Work
         rdf:about="">
        <dc:format>image/svg+xml</dc:format>
        <dc:type
           rdf:resource="http://purl.org/dc/dcmitype/StillImage" />
        <dc:title></dc:title>
      </cc:Work>
    </rdf:RDF>
  </metadata>
  <defs
     id="defs234" />
  <sodipodi:namedview
     pagecolor="#ffffff"
     bordercolor="#666666"
     borderopacity="1"
     objecttolerance="10"
     gridtolerance="10"
     guidetolerance="10"
     inkscape:pageopacity="0"
     inkscape:pageshadow="2"
     inkscape:window-width="640"
     inkscape:window-height="480"
     id="namedview232"
     showgrid="false"
     inkscape:zoom="0.53993056"
     inkscape:cx="288"
     inkscape:cy="288"
     inkscape:window-x="0"
     inkscape:window-y="0"
     inkscape:window-maximized="1"
     inkscape:current-layer="svg230" />
  <path
     style="fill:#000000;stroke-width:0.95999998"
     d="m 311.27381,481.66695 c -1.09329,-0.67569 -1.03206,-1.25153 0.35878,-3.37422 0.92237,-1.40772 1.45114,-3.14814 1.17506,-3.86761 -0.61371,-1.5993 -12.08145,-5.25676 -16.48228,-5.25676 -4.72801,0 -16.41686,-2.63764 -21.34041,-4.81556 -2.36791,-1.04744 -4.69987,-1.90444 -5.18214,-1.90444 -0.48226,0 -2.04734,-0.85764 -3.47796,-1.90586 l -2.60113,-1.90586 -5.12653,2.55098 c -3.12584,1.55541 -5.46973,3.45362 -6.00592,4.86389 -1.15766,3.04491 -2.8781,2.35313 -4.95511,-1.99241 -0.92815,-1.94191 -2.0714,-3.53074 -2.54055,-3.53074 -1.70077,0 -6.89001,6.8816 -6.39353,8.47865 1.07277,3.45086 -0.72352,4.12249 -11.07264,4.14006 -9.91925,0.0168 -9.98346,0.002 -9.64721,-2.22088 0.18618,-1.23081 0.40218,-4.26719 0.48,-6.74753 0.13401,-4.27147 0.34989,-4.61378 4.08664,-6.48 2.16983,-1.08366 5.12718,-1.9703 6.57188,-1.9703 2.8497,0 7.87933,-2.57193 8.57503,-4.38489 0.55509,-1.44652 -5.04352,-8.28787 -6.19831,-7.57417 -0.47946,0.29633 -0.63169,-0.0869 -0.33827,-0.85148 0.30763,-0.80166 -0.40828,-2.0499 -1.691,-2.94834 -1.22346,-0.85695 -2.01008,-1.65778 -1.74805,-1.77961 0.26203,-0.12183 -0.5712,-1.94951 -1.85164,-4.06151 -2.66362,-4.39347 -2.54539,-4.07387 -4.04075,-10.92336 -0.88026,-4.03206 -0.86097,-6.50295 0.088,-11.27745 1.37187,-6.90179 0.95577,-8.99919 -1.7853,-8.99919 -1.0414,0 -2.15354,-0.42082 -2.47142,-0.93515 -0.83042,-1.34364 4.76998,-17.51941 7.63927,-22.06465 1.33396,-2.11313 2.42537,-4.24663 2.42537,-4.74112 0,-0.49449 0.33141,-1.04308 0.73646,-1.21908 0.76249,-0.33131 7.4912,-9.31557 9.55786,-12.76179 2.70869,-4.51682 4.10568,-8.32096 4.10568,-11.18013 0,-2.21985 1.45357,-4.94135 5.37078,-10.05562 3.25626,-4.25133 5.08766,-7.47012 4.65168,-8.17557 -0.45772,-0.7406 -0.31625,-0.91456 0.38921,-0.47856 1.45207,0.89743 1.46531,-3.88044 0.0266,-9.5941 -0.88709,-3.52292 -1.79404,-4.7105 -5.04,-6.59943 -2.17705,-1.2669 -5.25426,-2.6057 -6.83826,-2.97512 -3.35852,-0.78326 -7.2,-3.98114 -7.2,-5.99371 0,-0.76964 -0.85982,-2.79057 -1.91073,-4.49097 -1.0509,-1.7004 -2.41216,-6.31695 -3.02501,-10.259 -0.98298,-6.3227 -1.43662,-7.35236 -3.84928,-8.73703 -2.70594,-1.55301 -2.73498,-1.66695 -2.73498,-10.73156 v -9.16188 l -3.47171,-3.84277 c -3.93466,-4.3552 -5.01965,-4.6392 -7.34554,-1.92276 -3.04322,3.55422 -5.70501,2.08677 -6.8151,-3.75716 -0.42988,-2.26305 -0.14476,-4.00632 0.92139,-5.63346 2.38342,-3.63756 7.15899,-2.48886 16.6361,4.00158 8.93352,6.11818 13.33764,6.96848 17.44797,3.36868 1.97901,-1.73321 3.09633,-1.93946 7.86129,-1.45112 4.60948,0.47239 5.65747,0.30064 6.16026,-1.00964 0.85395,-2.22534 -4.40616,-6.67252 -9.51255,-8.04242 -8.0925,-2.17097 -12.19467,-5.29038 -12.25158,-9.31646 -0.0263,-1.86117 0.46752,-2.1602 3.56947,-2.16149 1.98,-8.2e-4 5.112,-0.80261 6.96,-1.78174 1.848,-0.97914 10.0197,-5.10105 18.15934,-9.15979 11.80885,-5.88836 15.35179,-7.25821 17.53331,-6.77906 2.67459,0.58744 11.34735,-2.66531 11.34735,-4.25587 0,-0.37768 1.836,-0.79441 4.08,-0.92609 3.11256,-0.18264 4.69316,-0.91005 6.66588,-3.06768 1.62539,-1.77774 3.58659,-2.85556 5.28,-2.90173 3.66631,-0.1 4.94629,-0.45978 20.93412,-5.88497 3.168,-1.075 6.948,-2.16716 8.4,-2.42703 2.4237,-0.43375 2.64,-0.22338 2.64,2.56766 0,2.51618 1.48693,4.60097 8.62764,12.0966 4.74521,4.98107 9.321,9.88625 10.16843,10.90042 0.84742,1.01416 3.38814,3.82772 5.64604,6.25234 2.25789,2.42464 3.97531,4.40843 3.8165,4.40843 -0.15882,0 1.08602,2.12202 2.76631,4.71561 1.68029,2.59358 5.64708,8.89036 8.81508,13.99285 3.168,5.10249 6.55719,9.71371 7.53154,10.24717 2.54794,1.39498 5.56866,-2.18707 6.14326,-7.28484 0.51255,-4.54738 -1.32636,-8.69421 -6.98228,-15.74542 -1.83288,-2.28505 -3.33252,-4.55305 -3.33252,-5.04 0,-2.26064 3.9262,-0.44932 8.42469,3.88666 4.77151,4.59912 5.13468,4.76434 10.0231,4.56 4.08315,-0.17068 5.00824,0.0687 4.74414,1.22797 -0.18044,0.792 0.20172,3.66285 0.84925,6.37966 1.53742,6.45045 0.87367,8.57821 -4.29869,13.78034 -2.3624,2.376 -4.31491,4.79305 -4.33889,5.37121 -0.024,0.57817 -0.9076,1.83312 -1.9636,2.78879 -2.66502,2.41181 -2.44669,7.17955 0.6059,13.23191 1.38925,2.75445 2.79325,5.22409 3.12,5.48809 0.65122,0.52615 1.84071,2.64233 7.55451,13.44 7.62847,14.41589 9.27919,17.14635 10.07036,16.65737 0.4434,-0.27403 0.51314,0.72595 0.15498,2.22219 -0.90595,3.78463 -1.20606,4.16044 -3.32241,4.16044 -2.46945,0 -2.42221,0.23526 1.61223,8.03129 3.25891,6.29738 12.11649,31.87229 13.4242,38.76031 0.32491,1.71138 0.86739,2.94309 1.20549,2.73712 0.33811,-0.20596 0.75927,3.57783 0.93592,8.4084 0.17665,4.83059 0.60865,8.89435 0.96,9.03059 0.35135,0.13624 0.63882,5.91666 0.63882,12.84539 0,12.34867 -0.0446,12.6143 -2.25828,13.43772 -2.16574,0.80559 -2.24443,1.17142 -1.92,8.92493 0.5011,11.97618 4.26732,15.96413 11.64967,12.33554 1.46926,-0.72218 2.41883,-1.72172 2.11014,-2.22117 -0.30869,-0.49947 0.0148,-0.68709 0.71878,-0.41693 1.75953,0.67518 7.88534,-5.76781 6.93928,-7.29857 -0.46097,-0.74587 -0.34207,-0.94767 0.318,-0.53972 1.48437,0.9174 5.49687,-6.47188 6.96707,-12.83029 1.43291,-6.19717 1.42485,-20.53403 -0.0154,-27.36461 -0.55665,-2.64 -1.21024,-6.04972 -1.45242,-7.57715 -1.22348,-7.71631 -5.24878,-19.2788 -11.06472,-31.78285 -4.97733,-10.70106 -7.80143,-24.64705 -7.8733,-38.88 -0.0623,-12.33567 1.90154,-20.13659 7.19878,-28.59575 3.43275,-5.48181 12.94421,-14.60425 15.22702,-14.60425 0.51076,0 0.62041,-0.49875 0.24367,-1.10833 -0.40959,-0.66274 -0.26484,-0.84866 0.36006,-0.46245 0.57478,0.35523 2.69353,0.0267 4.70833,-0.73003 4.42046,-1.66029 11.16897,-2.69001 13.00706,-1.98468 0.97509,0.37418 1.19035,1.60025 0.79629,4.53532 -0.50418,3.75514 -0.91117,4.21552 -6.12306,6.92634 -10.80582,5.62033 -17.21281,13.9347 -20.43745,26.5217 -2.64271,10.31551 -0.39421,23.42918 7.80193,45.50213 6.78102,18.26188 10.85118,31.71738 12.34162,40.8 1.54356,9.40631 2.29259,26.46431 1.20962,27.54728 -0.337,0.337 -0.61273,1.81442 -0.61273,3.28316 0,4.76961 -4.68418,17.65269 -8.64846,23.78621 -2.12794,3.29235 -3.61246,6.40117 -3.29891,6.9085 0.31354,0.50733 0.20564,0.80371 -0.2398,0.65864 -1.11651,-0.36366 -11.39589,9.80956 -11.06904,10.95472 0.14507,0.50831 -0.19785,0.6389 -0.76206,0.2902 -0.56421,-0.3487 -1.54691,-0.20433 -2.18378,0.32084 -0.63687,0.52517 -4.18195,2.13951 -7.87795,3.58742 -3.696,1.44791 -7.584,3.37157 -8.64,4.27482 -1.96423,1.68008 -7.70994,3.95827 -8.3553,3.3129 -0.1972,-0.19718 -7.90192,0.2611 -17.12161,1.01841 -9.2197,0.75731 -19.43398,1.38593 -22.6984,1.39692 -5.08249,0.0171 -6.02286,0.29586 -6.54469,1.93998 -0.73988,2.33117 -1.9523,2.367 -14.84805,0.4388 -9.65861,-1.44418 -10.33959,-1.41861 -27.24231,1.02276 -9.53485,1.37718 -17.59376,2.66321 -17.9087,2.85785 -0.31494,0.19465 -1.16582,-0.0128 -1.89086,-0.46082 z M 102.14868,260.1749 c -1.74627,-0.22902 -3.38348,-0.95957 -3.63823,-1.62345 -0.25475,-0.66387 0.85002,-4.48662 2.45504,-8.495 2.22639,-5.56012 2.91824,-8.79935 2.91824,-13.66309 0,-7.36408 -1.86867,-19.85004 -2.87748,-19.22656 -0.37683,0.2329 -0.4812,-0.64347 -0.23193,-1.94749 0.59676,-3.12174 1.33033,-2.99803 5.20637,0.87801 5.88804,5.88804 18.96059,6.83949 21.59099,1.57143 1.2501,-2.50366 0.91214,-10.86036 -0.45769,-11.31697 -1.04831,-0.34944 -0.29652,-5.02342 0.808,-5.02342 1.34508,0 6.20488,4.51521 7.53518,7.00089 2.49051,4.65356 10.1793,5.87701 18.69629,2.97499 4.3384,-1.47825 6.46478,-1.46295 10.69027,0.0769 1.056,0.38483 -0.16182,-1.17961 -2.70627,-3.47655 l -4.62627,-4.17623 1.93241,-2.06205 c 1.06282,-1.13413 2.46637,-2.24003 3.11899,-2.45757 1.8051,-0.6017 0.25306,-3.54649 -2.40101,-4.55557 -3.31849,-1.26169 -3.86782,-2.66666 -2.09846,-5.36703 1.91591,-2.92405 6.24286,-3.15357 8.68012,-0.46042 0.9444,1.04355 2.1581,1.6248 2.69712,1.29167 0.53901,-0.33313 0.71111,-0.17058 0.38245,0.36121 -0.32867,0.5318 -0.0712,1.68673 0.57209,2.56653 1.05394,1.44133 1.37506,1.45576 3.2452,0.14586 3.55882,-2.4927 2.52803,-5.20289 -5.16299,-13.57466 -1.16964,-1.27316 -2.58603,-4.02098 -3.14753,-6.10626 -1.23189,-4.57486 -4.03777,-6.7417 -8.72999,-6.7417 -6.77323,0 -10.74718,-6.1172 -7.42735,-11.43308 1.20585,-1.93087 2.11037,-1.4309 4.25808,2.35362 0.92649,1.6326 2.22112,1.89862 9.85661,2.02532 7.90042,0.1311 8.89438,-0.0491 9.82128,-1.78109 1.07213,-2.0033 0.4127,-8.01183 -0.97332,-8.86843 -0.43696,-0.27006 -4.97962,-1.00534 -10.09482,-1.63396 -7.28321,-0.89505 -9.50461,-1.5246 -10.24212,-2.90266 -0.51797,-0.96784 -0.60257,-1.76058 -0.18799,-1.76165 0.41457,-9.6e-4 5.89041,-0.20182 12.16853,-0.44613 10.86478,-0.4228 11.76283,-0.30906 18.63836,2.36072 3.97297,1.54271 7.65107,2.54072 8.17356,2.21781 0.52248,-0.32292 0.69072,-0.16765 0.37385,0.34506 -0.31686,0.5127 0.6441,1.65299 2.13548,2.53396 3.78315,2.23476 6.14262,7.70134 6.60568,15.30439 0.58561,9.61533 -0.30685,12.99072 -4.01294,15.17736 -2.98897,1.76353 -6.36875,7.10142 -6.36875,10.05857 0,0.77256 1.41151,3.0259 3.13668,5.00743 4.32013,4.96207 3.81452,7.49138 -2.71176,13.56552 -6.08606,5.66443 -6.66695,7.41551 -2.10492,6.34535 4.78379,-1.12218 7.04459,-0.84981 9.16025,1.10359 1.06526,0.98357 3.00227,2.52243 4.30446,3.4197 1.84179,1.2691 2.26068,2.22853 1.8861,4.32 -0.26482,1.47873 -0.98204,3.3366 -1.59381,4.1286 -0.61176,0.792 -1.24268,2.736 -1.40203,4.32 -0.15935,1.584 -1.12121,4.238 -2.13746,5.89776 -1.4699,2.40068 -1.64834,3.54221 -0.87262,5.5825 1.34933,3.54901 1.2218,9.69034 -0.22489,10.82982 -2.64297,2.08172 -7.07006,2.1277 -18.74271,0.19466 -6.7195,-1.11278 -13.26515,-2.14028 -14.54587,-2.28334 -1.28071,-0.14305 -3.34344,-1.51138 -4.58384,-3.04074 -1.2404,-1.52937 -2.69357,-3.32066 -3.22928,-3.98066 -2.5221,-3.10731 -11.0533,0.33242 -18.65462,7.52143 -2.88561,2.72909 -5.05792,5.26721 -4.82735,5.64028 0.23057,0.37305 -0.10178,0.79537 -0.73856,0.93846 -2.14988,0.48311 -26.09154,0.76621 -29.29282,0.34637 z m -18.085141,-5.16571 c -1.180397,-1.46004 -3.213108,-8.11168 -3.202892,-10.48083 0.0035,-0.792 1.101897,0.47687 2.44107,2.81972 2.452411,4.29042 3.071702,10.5182 0.761822,7.66111 z m 10.604151,-5.83623 c -0.41083,-0.66474 -0.63189,-5.16242 -0.49123,-9.99485 0.28336,-9.73552 -1.414493,-20.56975 -3.223536,-20.56975 -1.752173,0 -3.309137,4.18331 -4.475389,12.02463 -1.894816,12.73985 -5.386293,9.46113 -7.803044,-7.32756 -1.067576,-7.41622 -1.076507,-9.44316 -0.0503,-11.41707 0.686243,-1.32 1.250376,-3.0807 1.253628,-3.91266 0.0089,-2.27632 4.126574,-5.68734 6.865568,-5.68734 1.585532,0 2.851356,0.81365 3.682812,2.36724 0.696802,1.30198 1.700549,2.09923 2.230546,1.77167 0.550762,-0.34039 0.66552,-0.11319 0.26784,0.53027 -0.382694,0.61921 0.156336,2.52196 1.19784,4.22833 5.002825,8.1965 7.417015,24.55909 4.939525,33.47858 -1.15975,4.17532 -3.26514,6.33546 -4.39426,4.50851 z m 123.68363,-27.4797 c -2.15037,-2.25222 -3.64605,-3.08369 -4.77074,-2.6521 -0.90108,0.34577 -1.31321,0.30357 -0.91586,-0.0938 0.39735,-0.39736 -1.91377,-1.91914 -5.13583,-3.38175 -5.26571,-2.39029 -5.82728,-2.91945 -5.55173,-5.23144 0.50676,-4.25179 2.67808,-4.7991 8.86537,-2.2346 6.47431,2.68345 8.58646,1.97068 8.97437,-3.02845 0.19823,-2.55464 -0.76103,-4.76898 -4.41993,-10.20284 -2.57021,-3.81704 -4.84414,-6.76926 -5.05318,-6.5605 -0.35121,0.35076 -0.38038,-4.12223 -0.045,-6.89943 0.10431,-0.86372 2.65029,-1.2 9.08532,-1.2 8.6806,0 9.02056,0.0837 11.6996,2.88 2.215,2.31196 3.5608,2.88 6.82334,2.88 3.72077,0 4.11671,0.2395 4.68677,2.83501 0.40344,1.83684 0.0388,4.06535 -1.03557,6.32949 -1.40651,2.96401 -1.45302,3.6244 -0.30639,4.35029 2.8818,1.82436 7.45636,0.95295 10.47185,-1.99479 2.85148,-2.78741 3.23675,-2.88 11.98364,-2.88 8.30936,0 9.24607,-0.19335 11.62708,-2.4 1.42431,-1.32 3.39642,-2.4 4.38249,-2.4 0.98606,0 2.68606,-0.54 3.77776,-1.2 1.78204,-1.07734 2.36946,-0.77034 5.74697,3.00347 3.58846,4.00948 4.92199,7.79653 2.7454,7.79653 -0.55916,0 -0.7059,0.54 -0.32608,1.2 0.37981,0.66 0.32571,0.86841 -0.12023,0.46312 -0.44593,-0.40529 -2.14974,0.56088 -3.78623,2.14703 -2.40074,2.32689 -4.7307,3.25436 -12.06312,4.80184 -4.99822,1.05486 -12.20485,1.9247 -16.01472,1.93297 -5.54502,0.012 -9.16628,0.78117 -18.15064,3.85504 -6.17299,2.112 -11.86419,3.84 -12.64713,3.84 -1.71785,0 -3.96249,2.76219 -4.00466,4.92804 -0.0573,2.9414 -3.28915,2.50384 -6.52294,-0.88314 z m 162.47023,-8.5948 c -1.34897,-1.00276 -4.48012,-6.0101 -3.75818,-6.0101 0.32113,0 -0.96491,-2.10988 -2.85788,-4.68862 -1.89296,-2.57873 -3.43896,-5.06273 -3.43552,-5.52 0.009,-1.2005 -6.96141,-7.07138 -8.39575,-7.07138 -0.66577,0 -1.21049,-0.44126 -1.21049,-0.98058 0,-0.53932 -1.02545,-1.44781 -2.27879,-2.01887 -2.37271,-1.08108 -6.36121,-7.21371 -6.36121,-9.78087 0,-3.17346 5.24419,-2.088 11.75345,2.43277 1.44839,1.00592 3.13514,1.5189 3.74832,1.13993 0.66487,-0.41091 0.85671,-0.2713 0.47527,0.34588 -0.35179,0.56921 0.66147,1.96138 2.25167,3.0937 1.59021,1.13233 2.91867,1.70537 2.95214,1.27341 0.0335,-0.43196 0.44393,0.16602 0.91212,1.32883 0.94829,2.35515 8.18567,6.0458 11.85585,6.0458 5.77423,0 6.76556,2.08554 3.25118,6.8398 -1.64201,2.22131 -2.16,4.2264 -2.16,8.36113 0,5.34783 -0.0483,5.44327 -2.88,5.68917 -1.584,0.13755 -3.32197,-0.0784 -3.86218,-0.48 z M 96.61631,201.21927 c -0.4448,-0.7197 4.09229,-4.69091 5.35933,-4.69091 1.21749,0 3.06308,2.74786 2.47964,3.69188 -0.68867,1.11428 -7.25087,1.9506 -7.83897,0.99903 z m 200.05599,-4.10378 c -6.26773,-6.58543 -8.24629,-12.10713 -4.33827,-12.10713 1.59098,0 8.3497,9.57608 8.3497,11.83025 0,1.95186 -2.26825,2.10841 -4.01143,0.27688 z m 6.80963,-0.28166 c -3.31693,-3.97122 -6.73324,-10.14479 -6.44793,-11.65192 0.56798,-3.0003 5.66524,-2.45223 9.4986,1.02131 1.89688,1.71883 5.02133,4.46324 6.94323,6.09869 l 3.49435,2.97354 -2.62322,1.23051 c -4.56454,2.14115 -9.23286,2.28202 -10.86503,0.32787 z m -53.6791,-3.66655 c -1.39972,-1.68656 -0.731,-7.56029 1.11379,-9.78314 1.05916,-1.27622 1.41506,-1.19448 2.92645,0.67201 2.32266,2.86835 2.16457,5.17429 -0.55595,8.10979 -1.99468,2.1523 -2.42616,2.2763 -3.48429,1.00134 z m 64.25742,-3.33213 c -5.55853,-5.92058 -5.9647,-7.70679 -1.75245,-7.70679 2.68365,0 2.92491,-0.2357 2.39648,-2.34116 -0.32318,-1.28765 -0.15401,-2.60915 0.37593,-2.93666 1.47192,-0.9097 1.14708,-2.40218 -0.52282,-2.40218 -1.98611,0 -4.54869,-5.94865 -2.98982,-6.94045 2.10781,-1.34108 6.57576,-0.73763 9.07102,1.22514 2.0063,1.57816 3.70599,1.92557 8.63949,1.76585 6.94156,-0.22472 7.84759,0.46364 7.87095,5.97999 0.0137,3.24097 -0.55796,4.31791 -5.74272,10.81803 -4.51209,5.6568 -5.53388,6.45628 -8.94606,6.99976 -3.4653,0.55194 -3.9197,0.31059 -8.4,-4.46153 z m 34.24098,2.69545 c 0.2727,-0.44123 0.0383,-0.80224 -0.52084,-0.80224 -0.55916,0 -1.01666,-1.24564 -1.01666,-2.76808 0,-3.77436 4.05879,-4.74614 6.19648,-1.48361 2.43404,3.71483 2.17139,4.57648 -1.59563,5.23448 -1.95754,0.34192 -3.33604,0.26068 -3.06335,-0.18055 z m -86.44137,-9.35142 c -0.97903,-1.5841 8.17427,-6.81082 11.92743,-6.81082 3.39599,0 7.69644,2.71978 7.69644,4.86753 0,1.67218 -2.82308,2.10898 -5.76222,0.89155 -2.35823,-0.97681 -3.51374,-0.91309 -6.72219,0.37067 -4.38574,1.75483 -6.35948,1.94311 -7.13946,0.68107 z m -19.56895,-3.96458 c -4.62613,-2.82044 -5.69057,-4.02369 -5.20433,-5.88306 0.4459,-1.70512 5.23774,-3.30583 6.87224,-2.29566 0.50706,0.31338 2.65649,0.18005 4.77652,-0.29629 3.15887,-0.70975 4.12296,-0.56952 5.34148,0.77695 2.27016,2.50849 1.87782,4.85182 -0.81233,4.85182 -1.26458,0 -3.31658,1.07254 -4.56,2.38341 -2.73416,2.88251 -2.47541,2.86383 -6.41358,0.46283 z m -33.35747,-3.42547 c -0.56667,-0.2352 -0.83365,-1.76751 -0.5933,-3.40513 l 0.43701,-2.9775 7.23931,0.656 c 7.59573,0.68831 11.54601,2.05112 10.10947,3.48766 -0.46417,0.46417 -3.85855,1.2796 -7.54307,1.81205 -7.21616,1.04283 -8.07411,1.08079 -9.64942,0.42692 z m 7.75029,-9.34703 c -7.36043,-1.70784 -7.50472,-1.90046 -6.97459,-9.30974 0.32846,-4.59071 1.20535,-7.81999 2.99106,-11.01496 1.3895,-2.48609 2.24748,-4.9714 1.90662,-5.52293 -0.36069,-0.58361 -0.15647,-0.71645 0.48858,-0.31778 0.69666,0.43056 1.10833,-0.0281 1.10833,-1.23502 0,-1.056 -0.42633,-2.18348 -0.94739,-2.50551 -0.52105,-0.32204 -1.64885,-2.9985 -2.50621,-5.9477 -1.28145,-4.40802 -1.37027,-6.3211 -0.49912,-10.75114 1.16716,-5.93546 4.99524,-13.99951 8.82857,-18.59784 2.31748,-2.779971 2.60877,-2.876841 4.55389,-1.514421 1.14292,0.800531 1.86708,1.666481 1.60922,1.924331 -0.25784,0.25786 0.8249,4.29615 2.40612,8.97398 3.50965,10.38295 3.63281,15.07363 0.54809,20.87519 -1.27975,2.40688 -2.03575,4.66722 -1.68,5.02297 0.35576,0.35576 0.21483,0.55967 -0.31317,0.45314 -2.13336,-0.43041 -3.34401,0.13004 -4.35284,2.01505 -1.4139,2.64189 0.32768,4.73864 3.93595,4.73864 1.71012,0 3.25872,0.78623 4.20246,2.13361 1.58853,2.26795 2.01289,5.54639 0.71791,5.54639 -0.42708,0 -1.61508,0.68327 -2.64,1.51837 -1.17818,0.95999 -1.33392,1.3583 -0.42348,1.08309 2.50053,-0.75586 2.32171,6.11657 -0.25915,9.95952 -2.52158,3.75466 -5.0525,4.24742 -12.70085,2.47276 z m 65.74012,-9.01172 c -1.30191,-0.91188 -2.86596,-1.73119 -3.47568,-1.82068 -3.31692,-0.48682 -6.60558,-2.97026 -6.84422,-5.16843 -0.62835,-5.7882 7.79507,-12.69937 13.21978,-10.84645 3.16857,1.0823 3.21417,4.33478 0.0711,5.07674 -3.40832,0.8046 -3.48079,2.57363 -0.17546,4.28288 2.07683,1.07397 3.07338,2.4326 3.51638,4.79402 1.02384,5.45754 -1.59551,6.98546 -6.31198,3.68192 z m 20.70455,-1.46202 c -0.2063,-0.66 -0.63688,-2.78043 -0.95688,-4.71206 -0.38319,-2.31319 -1.92551,-4.89668 -4.51815,-7.56822 -3.93113,-4.05076 -3.93555,-4.06381 -3.333,-9.82875 0.33185,-3.17494 0.60336,-8.53788 0.60336,-11.91763 0,-5.33082 0.3198,-6.4414 2.41364,-8.38191 1.32751,-1.23028 3.59955,-2.47407 5.04899,-2.76395 1.44943,-0.28989 3.92729,-1.63814 5.50636,-2.9961 1.57905,-1.35797 3.60953,-2.46956 4.51216,-2.47021 1.94289,-9.6e-4 6.08694,4.22219 7.70179,7.84959 0.62945,1.41392 1.39222,2.41764 1.69504,2.23049 0.30283,-0.18716 0.62174,0.384 0.7087,1.26923 0.087,0.88524 0.68918,3.84006 1.33825,6.56629 1.1688,4.90921 1.15084,4.99012 -1.8724,8.4334 -1.67889,1.91215 -3.05253,4.04324 -3.05253,4.73574 0,3.09854 -8.43379,16.94837 -11.72396,19.2529 -2.59079,1.81466 -3.57555,1.8875 -4.07137,0.30119 z m -48.84467,-13.84 c -0.352,-0.352 -0.64,-1.69072 -0.64,-2.97492 0,-3.39056 -2.77175,-8.70134 -4.89264,-9.37448 -2.58082,-0.81912 -2.37247,-4.88288 0.33264,-6.48806 3.41265,-2.02501 22.10229,-1.61154 24.4815,0.54162 1.84867,1.67302 3.60745,2.26364 2.78683,0.93584 -0.24474,-0.396 0.48576,-0.8026 1.62334,-0.90354 1.13758,-0.10096 3.47233,-0.47398 5.18833,-0.82896 2.69156,-0.55679 3.12,-0.38291 3.12,1.2663 0,1.05144 -0.6538,3.47648 -1.45288,5.38896 -1.64203,3.92992 -3.29496,4.27638 -9.58712,2.00955 -2.112,-0.76086 -4.53118,-1.3899 -5.37596,-1.39785 -2.16473,-0.0203 -9.69713,5.61645 -9.00395,6.73805 0.31528,0.51012 0.11573,0.92749 -0.44343,0.92749 -0.55916,0 -1.01666,0.6328 -1.01666,1.40623 0,0.77342 -0.8356,1.85342 -1.85689,2.4 -2.18709,1.17049 -2.42103,1.19585 -3.26311,0.35377 z m -18.36063,-22.3223 c -2.30759,-4.55382 -2.33241,-4.79709 -0.69552,-6.81856 1.97401,-2.43781 2.60989,-1.9041 5.39637,4.52923 3.37182,7.78474 -0.86944,9.85024 -4.70085,2.28933 z"
     id="path240"
     inkscape:connector-curvature="0" />
</svg>
