<?xml version="1.0" encoding="UTF-8" standalone="no"?>
<!-- Created with Inkscape (http://www.inkscape.org/) -->

<svg
   xmlns:dc="http://purl.org/dc/elements/1.1/"
   xmlns:cc="http://creativecommons.org/ns#"
   xmlns:rdf="http://www.w3.org/1999/02/22-rdf-syntax-ns#"
   xmlns:svg="http://www.w3.org/2000/svg"
   xmlns="http://www.w3.org/2000/svg"
   xmlns:sodipodi="http://sodipodi.sourceforge.net/DTD/sodipodi-0.dtd"
   xmlns:inkscape="http://www.inkscape.org/namespaces/inkscape"
   version="1.1"
   id="svg10"
   width="576"
   height="576"
   viewBox="0 0 576 576"
   sodipodi:docname="rat_jackhammer.svg"
   inkscape:version="0.92.4 (5da689c313, 2019-01-14)">
  <metadata
     id="metadata16">
    <rdf:RDF>
      <cc:Work
         rdf:about="">
        <dc:format>image/svg+xml</dc:format>
        <dc:type
           rdf:resource="http://purl.org/dc/dcmitype/StillImage" />
        <dc:title></dc:title>
      </cc:Work>
    </rdf:RDF>
  </metadata>
  <defs
     id="defs14" />
  <sodipodi:namedview
     pagecolor="#ffffff"
     bordercolor="#666666"
     borderopacity="1"
     objecttolerance="10"
     gridtolerance="10"
     guidetolerance="10"
     inkscape:pageopacity="0"
     inkscape:pageshadow="2"
     inkscape:window-width="1366"
     inkscape:window-height="705"
     id="namedview12"
     showgrid="false"
     inkscape:zoom="0.93055556"
     inkscape:cx="127.34328"
     inkscape:cy="288"
     inkscape:window-x="-8"
     inkscape:window-y="-8"
     inkscape:window-maximized="1"
     inkscape:current-layer="svg10" />
  <path
     style="fill:#000000;stroke-width:0.95999998"
     d="m 156.59514,498.6765 c -1.4335,-1.4335 -1.56638,-4.53316 -1.29002,-30.09003 0.28075,-25.96365 0.16091,-28.63908 -1.35046,-30.15045 -2.28343,-2.28344 -2.14322,-6.03818 0.2539,-6.799 1.78441,-0.56635 1.81656,-0.79241 0.48,-3.37702 -1.81564,-3.51108 -1.82384,-6.78093 -0.0229,-9.1619 1.99031,-2.63143 1.84469,-2.98865 -1.49026,-3.65564 -4.14289,-0.82857 -8.55924,-4.20573 -8.55924,-6.54518 0,-1.59303 0.41029,-1.84247 2.16,-1.31317 2.8392,0.8589 2.80648,0.85705 12.08,0.68174 11.14469,-0.21067 9.83255,-2.59287 -2.96,-5.37389 -2.69741,-0.5864 -3.52708,-2.75578 -1.52675,-3.99205 1.01613,-0.62801 5.01867,-0.6351 9.92675,-0.0176 1.056,0.13286 4.08,1.23394 6.72,2.44686 6.95309,3.19448 10.23189,3.39088 13.20441,0.7909 3.0182,-2.63993 3.3815,-5.24152 4.5253,-32.40545 0.45577,-10.824 1.60001,-24.3304 2.54277,-30.01423 l 1.71411,-10.33422 -2.06611,-1.44716 c -1.13636,-0.79594 -2.7253,-2.10635 -3.53098,-2.91202 -0.80567,-0.80568 -3.3109,-1.77842 -5.56718,-2.16164 -3.2464,-0.5514 -4.16632,-1.14264 -4.40909,-2.83375 -0.21681,-1.51035 0.20544,-2.16945 1.44,-2.24772 0.96072,-0.0609 2.17877,-0.2111 2.70677,-0.33378 0.528,-0.12267 1.5384,-0.28883 2.24533,-0.36926 0.86346,-0.0982 0.46949,-1.1158 -1.20027,-3.10021 -4.73206,-5.62374 -4.11888,-11.09868 1.50387,-13.4277 1.52475,-0.63158 2.96727,-1.46384 3.20562,-1.84949 0.23834,-0.38564 -1.27683,-2.59739 -3.36705,-4.915 -2.76941,-3.07067 -3.80408,-5.06023 -3.81394,-7.33382 -0.0127,-2.91326 -0.23258,-3.12 -3.31884,-3.12 -2.68385,0 -4.40139,1.01481 -9.13534,5.39761 l -5.83005,5.3976 -5.50467,-0.71355 c -3.02756,-0.39245 -9.17666,-0.76937 -13.66466,-0.8376 -8.84714,-0.13451 -10.56,-0.70334 -10.56,-3.50694 0,-4.13258 7.90818,-5.57491 16.10786,-2.93783 5.99851,1.92917 6.04291,1.92943 9.12,0.0533 1.70068,-1.03694 2.78877,-1.88697 2.41798,-1.88894 -0.37079,-0.002 0.38521,-1.14667 1.68,-2.54377 2.85519,-3.08081 2.91828,-4.58046 0.42943,-10.20693 -1.0586,-2.39316 -1.69137,-4.95932 -1.40614,-5.70261 0.61461,-1.60167 -2.01652,-4.10205 -5.10953,-4.85558 -1.21021,-0.29484 -4.95794,0.25251 -8.32827,1.21634 -3.37033,0.96382 -6.37615,1.50414 -6.6796,1.20068 -1.30996,-1.30995 -0.32361,-2.93223 2.80827,-4.61886 1.848,-0.99521 3.36,-2.04152 3.36,-2.32513 0,-0.2836 2.59551,-0.64428 5.76781,-0.8015 4.64424,-0.23016 6.32605,0.11165 8.63346,1.75467 1.5761,1.12228 3.36732,1.73045 3.9805,1.35148 0.64863,-0.40087 0.85722,-0.27211 0.49876,0.30788 -0.33887,0.54829 0.6913,1.53846 2.28926,2.20036 2.58039,1.06883 3.14444,0.97885 5.04264,-0.80441 1.51561,-1.42385 2.55176,-1.74575 3.56241,-1.10673 0.78384,0.49562 2.98712,0.90774 4.89617,0.91582 4.39742,0.0186 17.2333,-6.26387 17.88433,-8.75343 0.25773,-0.98553 1.09171,-1.79187 1.85328,-1.79187 0.76158,0 1.1622,-0.36 0.89027,-0.8 -0.27194,-0.44001 0.063,-0.80001 0.74415,-0.80001 0.68123,0 4.7226,-2.07242 8.98082,-4.6054 7.64235,-4.546 10.35991,-7.68476 9.22168,-10.65094 -0.3717,-0.96863 0.65784,-2.7991 2.8411,-5.05138 2.29276,-2.36523 4.8727,-7.08142 7.80869,-14.27444 4.44594,-10.89235 5.1553,-13.7379 3.42467,-13.7379 -2.21786,0 -0.54887,-5.92299 2.64882,-9.40027 0.66486,-0.72299 0.92211,-1.77844 0.57167,-2.34545 -0.35043,-0.56702 -0.21767,-0.77168 0.29504,-0.45481 0.5127,0.31686 1.71755,-0.75341 2.67746,-2.37839 1.6753,-2.83608 1.67807,-3.24771 0.069,-10.2678 -0.9219,-4.0223 -1.99417,-7.96128 -2.38279,-8.75328 -1.23133,-2.50936 -7.87974,-4.12478 -18.14012,-4.40764 -5.46746,-0.15073 -10.18792,-0.52113 -10.48992,-0.82312 -0.30198,-0.302 0.2834,-1.21167 1.30085,-2.0215 2.39401,-1.90549 11.82135,-1.38731 28.24992,1.55278 l 12,2.14754 4.32,4.65964 c 2.80755,3.02827 5.10891,4.65834 6.57335,4.65596 1.48725,-0.003 3.70098,1.60646 6.51132,4.73222 4.04123,4.49483 9.78883,7.59365 11.79023,6.35672 0.50184,-0.31016 1.18476,-0.12328 1.5176,0.41527 1.44213,2.3334 9.56187,-1.38224 15.08061,-6.90097 2.91212,-2.91213 4.66631,-3.9101 6.76793,-3.85034 3.89209,0.11066 6.81177,-1.12986 14.3541,-6.09877 3.55461,-2.34178 6.72168,-4.25779 7.03794,-4.25779 0.31627,0 2.10215,-1.1648 3.96864,-2.58844 1.86649,-1.42364 5.18567,-2.84253 7.37595,-3.15309 3.88053,-0.55021 3.7917,-0.59944 -3.47519,-1.92573 -8.48051,-1.54779 -9.83325,-2.14911 -9.10484,-4.04732 1.28169,-3.34003 47.31298,-0.68177 48.47125,2.79918 0.63422,1.90602 -3.80099,2.4016 -11.68252,1.30538 -13.84172,-1.92521 -15.43061,-1.14396 -3.9396,1.93706 5.78973,1.55238 10.94493,3.24066 11.456,3.75173 1.97863,1.97863 -0.66058,2.15368 -7.813,0.51821 -11.58066,-2.64804 -12.78096,-2.67616 -5.69103,-0.13334 3.60731,1.29378 7.9926,3.03273 9.74509,3.86434 1.75249,0.83161 3.61484,1.51202 4.13855,1.51202 0.95259,0 2.11762,2.19527 2.11762,3.99022 0,0.57288 -1.91515,0.74657 -4.8,0.43534 -2.64,-0.28482 -4.8,-0.31824 -4.8,-0.0743 0,1.40965 6.04919,12.9287 6.78947,12.9287 0.48979,0 0.89053,0.49922 0.89053,1.10939 0,0.61015 1.18659,2.66215 2.63687,4.56 1.45027,1.89783 2.65924,3.66661 2.68658,3.93061 0.0274,0.264 1.43275,3.16768 3.12313,6.45262 3.38624,6.58047 3.81295,8.90742 1.63347,8.90742 -1.86571,0 -1.82075,1.36429 0.23388,7.09623 1.5252,4.25493 1.54111,4.78599 0.16936,5.65126 -1.35114,0.85228 -1.25876,1.58638 0.85874,6.82377 1.30501,3.22781 2.53291,8.02874 2.72865,10.66874 0.19576,2.64 2.03603,9.66488 4.08949,15.61084 2.05347,5.94596 4.26446,13.07396 4.91333,15.84 0.64886,2.76604 1.43463,5.46116 1.74615,5.98916 0.31153,0.528 0.64366,1.392 0.73808,1.92 0.0945,0.528 0.7045,2.256 1.35574,3.84 0.65123,1.584 1.33926,4.07501 1.52894,5.53557 0.18969,1.46056 1.0236,4.26856 1.85315,6.24 3.45642,8.21427 8.13677,24.48131 10.09093,35.0721 1.85835,10.07154 1.92874,11.45546 0.63475,12.48 -1.24765,0.98785 -1.34637,3.20768 -0.69162,15.55233 0.91537,17.25834 0.0752,34.50352 -1.68957,34.68 -0.66,0.066 -1.632,0.174 -2.16,0.24 -0.53961,0.0675 -0.96,3.13506 -0.96,7.00519 0,3.78685 -0.62933,10.37485 -1.39852,14.64 -1.52645,8.4642 -2.39794,28.39762 -1.24148,28.39589 0.396,-5.9e-4 0.72,-0.45858 0.72,-1.01774 0,-0.55916 0.37422,-0.78538 0.83159,-0.5027 1.35395,0.83678 9.87337,-6.31818 9.30054,-7.81097 -0.28058,-0.73116 -0.11612,-1.08587 0.36546,-0.78824 1.23496,0.76325 5.13073,-4.99062 4.29479,-6.3432 -0.395,-0.63912 -0.27256,-0.85749 0.28692,-0.51171 1.83156,1.13196 8.90206,-28.14871 7.61012,-31.51544 -0.25266,-0.65841 -0.0106,-1.64591 0.53793,-2.19443 1.50885,-1.50885 2.12449,-32.61607 0.90637,-45.79665 -1.51179,-16.35828 -7.6497,-46.3424 -9.19745,-44.93018 -0.46847,0.42745 -0.54383,0.24756 -0.16932,-0.40426 0.37113,-0.64594 -0.84444,-7.98994 -2.70127,-16.32 -3.04236,-13.64867 -5.35475,-29.90283 -5.04938,-35.49288 0.16364,-2.99528 4.48272,-8.99859 8.34814,-11.60351 2.58898,-1.7447 4.35427,-2.15821 8.29181,-1.94231 2.75142,0.15088 4.84965,0.42723 4.66274,0.61414 -0.44377,0.44378 6.42381,6.44809 7.13602,6.239 0.29975,-0.088 0.60796,0.776 0.68492,1.92 0.077,1.144 0.60665,3.808 1.17709,5.92 2.34803,8.69329 0.93067,16.23826 -3.19874,17.02764 -1.3776,0.26335 -2.27753,0.25161 -1.99984,-0.0261 0.2777,-0.27769 0.12347,-0.97664 -0.34273,-1.55322 -0.46619,-0.57659 -1.34704,-3.48401 -1.95744,-6.46096 -0.61039,-2.97695 -1.91884,-6.1448 -2.90765,-7.03965 -1.69333,-1.53245 -1.85157,-1.52474 -2.72274,0.13264 -3.00291,5.71302 -0.95402,22.01764 5.00634,39.83926 3.889,11.6282 11.82115,39.18613 13.49383,46.88038 0.91424,4.20542 1.79547,14.18736 2.11879,24 0.46334,14.06229 0.1998,19.61593 -1.6172,34.08 -1.1939,9.504 -2.24044,17.93559 -2.32564,18.73688 -0.0851,0.80128 -0.41046,1.88128 -0.72284,2.4 -0.31236,0.51871 -1.08443,3.53512 -1.7157,6.70312 -2.03148,10.19492 -4.02223,16.12349 -8.5425,25.44 -2.43372,5.016 -4.36976,9.65535 -4.30233,10.30967 0.0674,0.65432 -0.21168,0.98307 -0.62025,0.73057 -0.40855,-0.25251 -1.27667,0.18415 -1.92915,0.97033 -0.65248,0.78618 -0.8213,1.42943 -0.37517,1.42943 0.44613,0 -0.15619,0.67756 -1.33851,1.50568 -1.19949,0.84016 -1.86237,2.00708 -1.49969,2.64 0.35748,0.62388 0.29201,0.80963 -0.14549,0.41278 -0.4375,-0.39685 -3.63876,2.02334 -7.11391,5.37819 -9.47491,9.14693 -15.90946,12.03952 -34.15846,15.35558 -12.05054,2.18972 -15.95819,2.01599 -22.20657,-0.98729 -2.06144,-0.99083 -2.87036,-1.96598 -2.57326,-3.10208 0.69679,-2.66451 -1.90859,-3.96924 -11.22292,-5.6202 -6.96423,-1.23441 -9.57873,-1.32907 -12.81352,-0.4639 -6.30229,1.68561 -13.96593,-0.52556 -21.39708,-6.17364 -1.81059,-1.37615 -4.94775,-2.51942 -7.85968,-2.8643 -4.10061,-0.48565 -5.49529,-0.19365 -9.06394,1.89772 -2.80836,1.64581 -5.89636,2.54829 -9.24171,2.70094 -4.33244,0.19769 -5.34119,0.63475 -7.32764,3.17489 -5.1836,6.62842 -5.11333,6.58873 -10.65454,6.01682 -2.83655,-0.29275 -5.83663,-1.21153 -6.66683,-2.04173 -1.85264,-1.85264 -2.55638,-1.85754 -8.48488,-0.059 -2.91296,0.88368 -8.63748,1.42961 -14.99054,1.42961 -8.95622,0 -10.60443,-0.2568 -12.81657,-1.99687 -1.39624,-1.09829 -2.2899,-2.3993 -1.98592,-2.89115 0.30399,-0.49186 2.7921,-2.34728 5.52915,-4.12317 5.395,-3.50045 11.90084,-9.82442 11.01662,-10.70864 -0.30173,-0.30173 -1.67689,-0.66889 -3.05591,-0.81591 -1.37903,-0.14704 -2.83064,-0.6239 -3.2258,-1.05971 -0.39515,-0.4358 -0.0705,-0.43645 0.72154,-0.002 0.792,0.43501 0.23009,-0.3594 -1.24868,-1.76537 -5.1235,-4.87123 -6.64759,-11.88468 -4.1023,-18.87774 2.02816,-5.57227 -1.92895,-13.44 -6.75971,-13.44 -1.19679,0 -2.44692,-0.43837 -2.77805,-0.97414 -0.70191,-1.13571 0.98456,-16.31667 3.02627,-27.24121 0.99643,-5.33163 1.11465,-7.87647 0.39912,-8.592 -1.49853,-1.49853 -1.24909,-4.45646 0.90335,-10.71265 2.26188,-6.57427 2.22694,-6.30445 0.77701,-6 -2.10923,0.44289 -1.87138,-2.94529 0.46678,-6.64918 1.2745,-2.01895 2.36719,-4.00452 2.42818,-4.41236 0.061,-0.40786 0.78633,-1.70386 1.61185,-2.88 4.51899,-6.43837 6.19987,-9.58055 5.62371,-10.5128 -0.38596,-0.62449 -0.19718,-0.76605 0.47092,-0.35315 0.6446,0.3984 1.3956,-0.0453 1.77986,-1.05167 0.36561,-0.95746 1.40645,-2.53953 2.31296,-3.51571 0.90651,-0.97617 1.92525,-2.92017 2.26386,-4.32 0.3386,-1.39982 1.68907,-5.25669 3.00104,-8.57081 1.31197,-3.31412 2.14836,-6.40923 1.85863,-6.87801 -0.28972,-0.46877 -0.14917,-0.99722 0.31232,-1.17432 1.16412,-0.44672 2.37612,-4.64199 1.34106,-4.64199 -0.46266,0 -1.62253,-0.57132 -2.57748,-1.26959 -1.62588,-1.18887 -1.63754,-1.46047 -0.18348,-4.27233 1.89797,-3.67026 1.9164,-4.05808 0.19278,-4.05808 -1.83896,0 -2.38847,-1.95443 -1.25853,-4.47613 0.781,-1.74296 0.35504,-2.65136 -2.65449,-5.66088 -3.09712,-3.09713 -3.36998,-3.70499 -2.00582,-4.46841 0.9968,-0.55784 2.79473,-0.4824 4.87634,0.20459 1.84632,0.60934 5.11371,0.81586 7.42482,0.46929 3.42443,-0.51352 4.60342,-0.24454 6.92197,1.57923 1.67962,1.32119 4.3547,2.28682 6.70512,2.42034 6.39476,0.36328 8.11561,0.70136 7.62345,1.49769 -0.25639,0.41485 0.61383,0.75428 1.93383,0.75428 3.12908,0 3.64351,-0.99753 2.90291,-5.62901 -0.40393,-2.52602 -1.02428,-3.66718 -1.82625,-3.35944 -0.71434,0.27412 -1.63644,-0.74427 -2.239,-2.47274 -1.31056,-3.7595 -2.35713,-3.71291 -4.0711,0.18119 -1.78094,4.04627 -5.67913,4.39355 -7.00479,0.62405 -1.33232,-3.78843 1.8824,-13.24362 4.89179,-14.38779 3.80814,-1.44785 9.64548,-0.99483 13.44902,1.04374 3.5699,1.91336 9.88364,2.39529 14.46739,1.10431 3.46017,-0.97454 2.15267,-2.30502 -4.61666,-4.69785 -11.82937,-4.18145 -15.67303,-5.21045 -17.88403,-4.78779 -1.21983,0.23319 -2.01659,0.0983 -1.77059,-0.29975 0.90162,-1.45883 -5.10188,-6.67818 -7.85054,-6.82514 -4.50208,-0.24071 -4.96898,-0.32792 -5.70709,-1.06602 -1.10824,-1.10825 -7.87976,-0.82859 -8.61167,0.35565 -0.41047,0.66417 -2.08017,0.83588 -4.4473,0.45736 -2.45494,-0.39256 -3.57854,-0.26378 -3.18957,0.36559 0.33913,0.54872 0.0106,0.74531 -0.75455,0.45166 -0.82277,-0.31572 -3.10211,1.42315 -5.80257,4.42672 l -4.44752,4.9467 -12.24728,-0.1453 c -6.73601,-0.0799 -17.38885,-0.50509 -23.67298,-0.94483 -12.28273,-0.8595 -19.09139,-0.41254 -18.54801,1.21761 0.18635,0.55902 1.60666,1.35769 3.15625,1.77481 2.5556,0.68794 25.48865,2.45608 42.0412,3.2414 3.62105,0.17179 6.75206,0.48067 6.95778,0.6864 0.77853,0.77852 4.19806,15.43888 3.71403,15.92291 -0.27888,0.27889 -1.76712,-0.87253 -3.30719,-2.55869 -2.57582,-2.82014 -3.3236,-3.08118 -9.33425,-3.25829 -13.3668,-0.39389 -18.14439,0.3215 -18.9318,2.83477 -0.28911,0.92278 -0.70725,4.03883 -0.92921,6.92457 -0.32753,4.2582 -0.88363,5.6296 -2.95143,7.2784 -2.2913,1.82701 -2.39321,2.15993 -1.01209,3.30616 1.04382,0.86629 1.35168,2.1127 0.9611,3.89103 -0.45373,2.06582 -0.051,3.02836 1.91347,4.57364 1.78945,1.40758 3.37136,4.68865 5.63337,11.68431 1.72987,5.34993 2.84258,9.91419 2.47267,10.14279 -0.59474,0.36758 -2.11144,6.01738 -2.30785,8.59687 -0.0402,0.528 -0.34361,1.392 -0.67425,1.92 -0.33063,0.528 -0.89467,3.12 -1.25342,5.76 -0.35875,2.64 -1.24529,8.472 -1.97009,12.96 -0.72481,4.488 -2.00505,15.72 -2.84498,24.96 l -1.52716,16.8 -4.51623,4.04219 c -2.48392,2.22321 -6.56822,4.74192 -9.07622,5.59715 -4.69386,1.60061 -5.57685,3.12666 -3.19012,5.51341 1.18651,1.18651 1.1116,1.7946 -0.55968,4.54279 -1.63209,2.68377 -1.7464,3.51516 -0.74145,5.39291 1.03115,1.92674 0.86028,2.69896 -1.29352,5.84577 -1.36489,1.99418 -2.77366,5.35378 -3.13061,7.46578 -0.35694,2.112 -1.93774,9.672 -3.51287,16.8 -1.57513,7.128 -3.45034,17.88841 -4.16714,23.91203 -1.24989,10.50353 -2.04107,12.51566 -4.93604,12.55327 -0.62229,0.008 -1.85058,-0.70446 -2.72955,-1.58342 z m -15.47876,-97.77987 c -0.58892,-1.53469 0.25927,-11.5821 1.09142,-12.92854 0.26721,-0.43237 1.35799,-8.28027 2.42396,-17.43979 1.06596,-9.15953 2.80221,-21.83768 3.85832,-28.17368 3.15957,-18.95533 5.30228,-23.95316 9.76862,-22.78519 1.68689,0.44114 1.69758,0.57594 0.17867,2.2543 -0.88852,0.98181 -1.66179,3.04914 -1.71838,4.59405 -0.0565,1.5449 -0.30171,2.61186 -0.54474,2.37101 -0.83951,-0.83198 -9.00932,51.87488 -10.1754,65.64583 -0.58507,6.90932 -0.90369,7.92 -2.49682,7.92 -1.00439,0 -2.07794,-0.65609 -2.38565,-1.45799 z m 32.87126,-16.98034 c -2.25856,-1.26394 -1.86156,-2.68167 0.75094,-2.68167 4.4221,0 4.7071,-1.9633 1.57367,-10.84096 -3.07231,-8.70452 -3.38996,-10.27904 -2.07375,-10.27904 1.12089,0 7.92863,15.12256 8.46134,18.79582 0.25486,1.75739 -0.0806,3.35938 -0.82753,3.95117 -1.84954,1.4655 -6.12795,2.0378 -7.88467,1.05468 z m -17.20243,-2.9053 c -3.44403,-3.44404 -3.23567,-6.48173 0.78621,-11.46174 1.84541,-2.28505 4.89354,-6.18381 6.77362,-8.66392 2.13961,-2.82247 3.92805,-4.3137 4.78096,-3.9864 1.17119,0.44942 1.16461,0.90581 -0.0468,3.24841 -0.77518,1.49904 -1.8215,2.98021 -2.32516,3.29149 -1.91103,1.18108 -6.77759,9.33966 -6.16363,10.33306 0.36754,0.5947 0.19776,0.7646 -0.39684,0.39712 -1.54636,-0.95571 -2.40716,2.84785 -1.16837,5.16257 1.8434,3.44442 0.51842,4.4378 -2.23998,1.67941 z m 8.95091,-3.07971 c 0,-1.28884 0.432,-2.61034 0.96,-2.93666 1.6234,-1.00332 1.06472,-2.4 -0.96,-2.4 -2.78392,0 -2.3719,-1.6671 1.4604,-5.90899 2.69285,-2.98066 3.49981,-3.43053 3.96747,-2.21183 0.32289,0.84143 0.0977,2.01924 -0.5004,2.61735 -1.63484,1.63484 -1.32266,2.45637 1.06272,2.7967 3.36535,0.48014 3.14454,3.36404 -0.53967,7.04825 -3.93437,3.93437 -5.45052,4.2112 -5.45052,0.99518 z m -1.11072,-60.08359 c -2.3791,-1.38875 -1.10957,-4.47301 2.10588,-5.1161 2.22043,-0.44408 2.86592,-1.19309 3.37728,-3.91889 0.34771,-1.85342 0.17663,-4.67671 -0.38018,-6.27397 -0.93768,-2.68984 -0.84766,-2.90411 1.22013,-2.90411 3.71243,0 4.71262,2.19932 3.97303,8.73637 -1.00593,8.89131 -1.84682,10.46893 -5.56166,10.43444 -1.72907,-0.016 -3.85958,-0.44704 -4.73448,-0.95774 z m 69.31051,-30.16513 c -1.38357,-1.6671 -0.5954,-11.18431 1.15886,-13.99333 1.22333,-1.95887 4.56135,-1.37754 4.56135,0.79438 0,2.05427 -3.00598,12.96881 -3.83143,13.91169 -0.36627,0.41838 -1.21622,0.0977 -1.88878,-0.71274 z m 14.34363,-0.0679 c -0.65677,-0.79137 -1.3766,-4.40487 -1.59962,-8.03002 -0.31934,-5.19087 -0.0742,-6.92247 1.15393,-8.15059 3.64786,-3.64785 5.86743,-0.2254 4.2807,6.60059 -0.49095,2.112 -0.90293,5.2185 -0.91552,6.90334 -0.0269,3.59286 -1.23776,4.70304 -2.91949,2.67668 z m -97.66342,-5.88389 c -1.5958,-1.1306 -2.16,-2.48798 -2.16,-5.19659 0,-2.01643 0.36366,-3.891 0.80813,-4.1657 1.22964,-0.75996 8.90183,7.26254 8.57859,8.97029 -0.38554,2.03685 -4.5837,2.26457 -7.22672,0.392 z m -26.3575,-7.10596 c -2.67921,-2.6792 -2.87767,-3.31028 -2.32018,-7.37764 0.96926,-7.07145 3.46268,-9.90494 9.7629,-11.09438 4.00823,-0.75673 6.12674,0.60217 4.51249,2.8945 -3.77447,5.35998 -3.53,9.08355 0.63694,9.70152 3.50011,0.51907 2.32557,5.04941 -1.83465,7.07645 -4.90672,2.39077 -7.45011,2.10695 -10.7575,-1.20045 z m 140.3575,-116.85658 c 0,-1.46653 0.63275,-3.56977 1.4061,-4.67389 0.77337,-1.10413 1.11053,-2.30308 0.74927,-2.66435 -0.36126,-0.36127 0.0302,-0.39317 0.87011,-0.0709 0.83983,0.32227 2.23065,-0.11775 3.09074,-0.97784 0.86008,-0.86007 1.56378,-1.24996 1.56378,-0.86641 0,0.38354 0.81084,-0.0365 1.80188,-0.93333 1.04963,-0.9499 2.0632,-3.60062 2.42783,-6.34933 0.57665,-4.34695 1.90153,-6.66633 3.11488,-5.45297 0.27326,0.27326 0.7435,2.36852 1.04496,4.65612 0.78755,5.97626 2.45853,7.93904 8.50982,9.99594 5.41651,1.84113 8.12991,4.55806 6.33987,6.34811 -0.6115,0.6115 -1.89714,0.46335 -3.68894,-0.42509 -4.14816,-2.05682 -14.13013,-4.02019 -14.51832,-2.85563 -0.17822,0.53467 -1.17492,0.74962 -2.21489,0.47766 -1.31736,-0.34449 -2.88527,0.55992 -5.16951,2.98192 -3.93158,4.16863 -5.32758,4.38088 -5.32758,0.80994 z m -29.5011,-3.17197 c -2.11532,-2.37408 -3.24106,-2.88769 -5.70006,-2.60063 -1.68528,0.19676 -2.85297,0.016 -2.59485,-0.40164 0.25813,-0.41766 -0.96017,-0.77525 -2.70733,-0.79466 -5.08811,-0.0565 -16.13515,-2.45366 -17.38782,-3.77307 -0.92282,-0.97198 1.87307,-1.09931 14.21116,-0.64719 8.448,0.30958 14.82,0.32272 14.16,0.0292 -0.66,-0.29351 -1.2,-1.30876 -1.2,-2.2561 0,-0.94735 -0.54,-2.15418 -1.2,-2.68183 -1.36607,-1.09214 -17.70257,-5.99627 -19.97349,-5.99594 -2.08311,3.1e-4 -7.95506,-4.48341 -6.80356,-5.19508 0.51829,-0.32032 6.70117,0.70314 13.7397,2.27437 7.03854,1.57122 15.12435,3.08643 17.96846,3.36715 6.83932,0.67503 12.58889,2.27024 12.58889,3.49276 0,1.47556 -5.64778,5.99097 -9.03039,7.21985 -2.46213,0.89446 -1.5572,0.99582 5.29531,0.59311 9.42943,-0.55416 11.7152,0.66043 6.19598,3.29236 -1.87079,0.89211 -3.68004,2.51611 -4.02055,3.60887 -0.85982,2.75924 -2.1333,3.39517 -6.83295,3.41213 -3.3487,0.0121 -4.54112,-0.51114 -6.7085,-2.94365 z m 89.39132,-7.51118 c -5.59758,-0.68315 -7.50049,-1.93227 -8.85267,-5.81118 -0.72023,-2.06603 -0.60671,-3.22138 0.46713,-4.75451 1.28022,-1.82777 1.22531,-2.27093 -0.56307,-4.54449 -2.34172,-2.97701 -2.51637,-5.00864 -0.5566,-6.47445 0.91363,-0.68333 1.2112,-1.86687 0.82919,-3.29793 -0.54504,-2.04179 -0.97344,-2.18355 -5.02502,-1.66286 -5.74599,0.73845 -8.95116,-0.89056 -9.78629,-4.97384 -0.34751,-1.69914 -0.25633,-2.85727 0.20264,-2.57362 0.45896,0.28365 0.83447,-0.12462 0.83447,-0.90727 0,-0.78265 1.10301,-2.73385 2.45113,-4.33599 2.03573,-2.41934 2.34058,-3.5023 1.79878,-6.39028 -0.35878,-1.912495 -0.22349,-4.414795 0.30065,-5.560655 0.52415,-1.14586 1.3347,-3.33937 1.80122,-4.87447 0.46652,-1.5351 1.60627,-2.90117 2.53279,-3.03572 0.92651,-0.13456 1.44103,0.14943 1.14335,0.63109 -0.29768,0.48164 0.40527,0.87572 1.56211,0.87572 1.15684,0 3.57916,0.91211 5.38294,2.0269 3.045,1.88192 3.40345,1.91482 5.01105,0.45997 1.7677,-1.59976 14.49598,-3.69965 14.49598,-2.39153 0,0.39166 1.26423,0.98978 2.80941,1.32916 3.41788,0.75069 5.06521,3.12185 7.14651,10.286635 0.87412,3.00913 2.01564,5.73462 2.53669,6.05666 0.52106,0.32203 0.94739,2.94958 0.94739,5.83898 0,3.93137 -0.38678,5.4019 -1.53688,5.84324 -0.84529,0.32436 -1.85543,0.0744 -2.24475,-0.55558 -0.52672,-0.85224 -1.0144,-0.77596 -1.90576,0.29807 -0.65884,0.79386 -0.87796,1.96105 -0.48693,2.59376 0.42951,0.69496 0.30466,0.89926 -0.31536,0.51608 -0.56449,-0.34887 -1.92783,0.82435 -3.02967,2.60716 -1.88438,3.049 -1.91775,3.48404 -0.56199,7.32668 1.64727,4.66887 1.85573,7.68381 0.53128,7.68381 -0.5517,0 -0.51308,1.13879 0.0981,2.89201 1.71337,4.91499 0.71459,5.76465 -6.59792,5.61282 -3.58056,-0.0743 -8.71952,-0.4048 -11.4199,-0.73437 z m -85.63342,-12.51981 c 0.0278,-0.29186 -0.0563,-0.74665 -0.18691,-1.01065 -0.60828,-1.22952 -0.4756,-5.58018 0.15825,-5.18844 1.0699,0.66123 2.42343,-2.43089 3.19176,-7.29156 0.61739,-3.90579 0.54934,-4.14396 -0.70969,-2.48402 -1.00131,1.32014 -1.90358,1.61447 -3.21138,1.04759 -1.00036,-0.43361 -2.25083,-0.68381 -2.77883,-0.55598 -0.528,0.12783 -0.67286,-0.0547 -0.32192,-0.40567 0.35095,-0.35095 -0.39363,-2.1584 -1.65461,-4.01655 -1.26098,-1.85817 -2.56601,-4.83536 -2.90006,-6.61599 -0.78941,-4.2079 1.13466,-12.456915 3.91794,-16.797325 1.41683,-2.20947 2.02918,-4.31199 1.72274,-5.91502 -0.33779,-1.7671 0.0386,-2.76204 1.30024,-3.43691 2.94208,-1.57376 13.51432,-3.33386 16.11084,-2.68217 3.59008,0.90105 9.18483,6.89291 9.18483,9.83676 0,1.974 0.33775,2.333 1.68,1.78573 0.924,-0.37674 4.261,-1.39849 7.41556,-2.27056 4.2632,-1.17855 6.04172,-2.19966 6.92818,-3.97773 1.50409,-3.01691 2.56269,-3.04784 8.28255,-0.24201 3.56116,1.7469 5.82667,2.19268 9.84,1.93621 2.86754,-0.18325 5.21371,-0.04 5.21371,0.31827 0,0.3583 0.83604,0.87008 1.85788,1.13729 1.38719,0.36276 1.72634,1.05997 1.33868,2.75197 -1.83893,8.02637 -2.41433,9.39316 -4.19192,9.957335 -1.05188,0.33386 -1.68755,0.97101 -1.4126,1.41591 0.27496,0.44488 -0.0428,1.00829 -0.70606,1.25202 -0.93011,0.34176 -0.85832,1.08307 0.31385,3.24072 1.11458,2.05161 1.27589,3.42722 0.60495,5.15886 -3.08961,7.97403 -4.9968,8.68006 -7.77575,2.87851 -1.22775,-2.56313 -2.77063,-4.11527 -4.79077,-4.81949 -1.63888,-0.57132 -4.56116,-2.58293 -6.49395,-4.47025 l -3.51415,-3.43148 -6.57508,3.22199 c -5.71467,2.80037 -6.61654,3.59887 -6.89196,6.10199 -0.17428,1.584 -1.17876,3.80643 -2.23219,4.93872 -1.2235,1.3151 -1.54733,2.28616 -0.89653,2.68837 1.13488,0.7014 0.90437,3.9147 -0.36357,5.06817 -0.45026,0.4096 -0.5079,0.20474 -0.12809,-0.45526 0.84021,-1.46004 -0.79976,-1.55815 -3.33805,-0.19969 -1.54552,0.82713 -1.68421,1.34578 -0.80111,2.99584 0.767,1.43317 0.77044,1.81166 0.0122,1.34304 -0.58067,-0.35887 -1.05577,-0.20857 -1.05577,0.33403 0,0.54259 -0.61122,0.75197 -1.35827,0.46531 -0.75795,-0.29086 -3.08302,1.037 -5.26072,3.00442 -2.37364,2.14443 -5.01355,3.60257 -6.73862,3.72199 -1.55989,0.10799 -2.8134,-0.0424 -2.78559,-0.33429 z m 32.4632,-6.77065 c -1.05578,-1.97274 -0.88705,-2.1346 2.4,-2.30214 1.33225,-0.0679 1.89824,-0.74447 1.8489,-2.21013 -0.0391,-1.16174 0.2849,-1.89225 0.72,-1.62334 0.4351,0.26891 0.7911,0.0314 0.7911,-0.52773 0,-2.07543 1.53542,-0.92032 2.62949,1.97818 0.99319,2.63124 1.49007,2.94205 4.09274,2.56006 3.37278,-0.49502 4.54487,0.59637 2.84287,2.64715 -0.80892,0.97469 -3.14902,1.39795 -7.72887,1.39795 -5.58616,0 -6.72237,-0.28718 -7.59623,-1.92 z m 11.73667,-5.7698 c -1.29762,-2.07783 0.57688,-4.18928 3.25766,-3.66948 2.54754,0.49398 2.59102,2.29839 0.0948,3.93398 -2.07513,1.35967 -2.35178,1.33784 -3.35246,-0.2645 z m -14.99396,-1.50872 c -0.89672,-2.3368 -0.769,-2.47051 2.04908,-2.14524 3.49987,0.40396 4.30181,3.66376 0.90131,3.66376 -1.30222,0 -2.6299,-0.68333 -2.95039,-1.51852 z"
     id="path20"
     inkscape:connector-curvature="0" />
</svg>
