<?xml version="1.0" encoding="UTF-8" standalone="no"?>
<!-- Created with Inkscape (http://www.inkscape.org/) -->

<svg
   xmlns:dc="http://purl.org/dc/elements/1.1/"
   xmlns:cc="http://creativecommons.org/ns#"
   xmlns:rdf="http://www.w3.org/1999/02/22-rdf-syntax-ns#"
   xmlns:svg="http://www.w3.org/2000/svg"
   xmlns="http://www.w3.org/2000/svg"
   xmlns:sodipodi="http://sodipodi.sourceforge.net/DTD/sodipodi-0.dtd"
   xmlns:inkscape="http://www.inkscape.org/namespaces/inkscape"
   version="1.1"
   id="svg270"
   width="576"
   height="576"
   viewBox="0 0 576 576"
   sodipodi:docname="zebra.svg"
   inkscape:version="0.92.4 (5da689c313, 2019-01-14)">
  <metadata
     id="metadata276">
    <rdf:RDF>
      <cc:Work
         rdf:about="">
        <dc:format>image/svg+xml</dc:format>
        <dc:type
           rdf:resource="http://purl.org/dc/dcmitype/StillImage" />
        <dc:title></dc:title>
      </cc:Work>
    </rdf:RDF>
  </metadata>
  <defs
     id="defs274" />
  <sodipodi:namedview
     pagecolor="#ffffff"
     bordercolor="#666666"
     borderopacity="1"
     objecttolerance="10"
     gridtolerance="10"
     guidetolerance="10"
     inkscape:pageopacity="0"
     inkscape:pageshadow="2"
     inkscape:window-width="640"
     inkscape:window-height="480"
     id="namedview272"
     showgrid="false"
     inkscape:zoom="0.53993056"
     inkscape:cx="288"
     inkscape:cy="288"
     inkscape:window-x="0"
     inkscape:window-y="0"
     inkscape:window-maximized="1"
     inkscape:current-layer="svg270" />
  <path
     style="fill:#000000;stroke-width:0.95999998"
     d="m 375.25742,444.09619 c -10.89483,-0.67681 -13.79385,-1.48674 -10.97268,-3.06554 1.08112,-0.60504 4.97314,-0.50079 11.27164,0.30189 9.6137,1.22516 9.6215,1.22446 11.30914,-1.01289 1.81047,-2.4002 4.81448,-2.1597 4.81448,0.38544 0,1.1538 0.9589,1.31271 5.04,0.83525 10.57308,-1.23699 9.74964,-0.049 10.50636,-15.15839 0.50264,-10.03623 1.00487,-13.49458 2.04416,-14.07619 0.98473,-0.55109 1.57414,-3.65174 2.06606,-10.86864 0.37853,-5.55367 0.97066,-10.2679 1.31583,-10.47606 0.34518,-0.20816 2.95348,-1.06586 5.79622,-1.906 l 5.16863,-1.52752 -0.57759,4.214 c -0.31768,2.3177 -1.49458,14.2996 -2.61535,26.62645 -1.12076,12.32685 -2.34252,22.73465 -2.715,23.12843 -1.12482,1.18911 -19.35635,3.56608 -26.02932,3.39362 -3.432,-0.0887 -10.82216,-0.44593 -16.42258,-0.79385 z m 63.77629,-2.7698 c -0.93522,-1.09227 -2.85472,-1.98594 -4.26555,-1.98594 h -2.56513 l 2.55888,-8.4 c 2.31695,-7.60582 2.55696,-9.83979 2.53849,-23.62846 l -0.0205,-15.22847 -3.64695,-0.22648 c -2.00583,-0.12457 -4.12778,-0.70732 -4.71545,-1.295 -1.49726,-1.49725 -2.20216,-24.86609 -0.85422,-28.31935 1.71045,-4.38203 2.97662,-2.01189 2.97662,5.57192 0,10.56105 0.62476,11.6057 7.36289,12.31132 3.07841,0.32237 8.03614,0.87331 11.01716,1.22432 8.22608,0.96858 14.13036,-0.19504 15.42676,-3.0403 1.47511,-3.23754 0.74624,-3.54861 -4.13706,-1.76572 -4.99435,1.82344 -12.95631,1.83261 -17.26753,0.0199 l -3.07085,-1.29119 5.65432,-1.05108 c 3.10987,-0.57811 6.95031,-1.30843 8.53431,-1.62294 3.3496,-0.6651 11.43839,-5.18006 10.66532,-5.95312 -0.28897,-0.28897 -1.59635,0.17631 -2.90529,1.03396 -4.53382,2.97067 -3.66305,-0.34139 1.7599,-6.69395 2.94804,-3.45339 5.36007,-6.67635 5.36007,-7.16212 0,-2.42019 -7.56173,0.2363 -14.31628,5.02943 -5.86486,4.16178 -6.80372,4.42787 -6.80372,1.92824 0,-2.05125 6.60142,-8.14047 11.67916,-10.77296 1.93553,-1.00345 4.50586,-3.23824 5.71183,-4.9662 1.20597,-1.72795 2.75739,-3.48889 3.4476,-3.91321 0.6902,-0.42431 2.15455,-2.53491 3.25411,-4.69023 1.50294,-2.946 1.7092,-4.09797 0.83095,-4.64076 -2.08247,-1.28704 -8.91886,0.19444 -16.17884,3.50604 -6.104,2.78433 -13.54476,4.29579 -13.54476,2.75139 0,-0.91916 10.5074,-10.35186 13.65059,-12.25439 1.73217,-1.04846 4.4949,-3.08244 6.13939,-4.51995 1.67276,-1.4622 4.72562,-2.89117 6.9297,-3.24363 2.5759,-0.4119 4.30946,-1.32084 5.0078,-2.6257 0.58744,-1.09765 0.90648,-2.15732 0.70898,-2.35483 -0.19751,-0.1975 -3.14851,0.88242 -6.55778,2.39982 -3.40928,1.51741 -8.14268,3.3821 -10.51868,4.14376 -2.376,0.76166 -5.076,1.70896 -6,2.10511 -1.02203,0.43818 -1.68,0.30406 -1.68,-0.34243 0,-0.5845 0.756,-1.89575 1.68,-2.9139 0.924,-1.01815 2.23703,-2.53015 2.91785,-3.36 0.68082,-0.82985 2.33098,-1.50881 3.66703,-1.50881 3.36847,0 10.93512,-5.367 10.93512,-7.75625 0,-2.33114 2.12044,-3.27781 4.4952,-2.00687 0.97088,0.5196 2.9095,0.72598 4.30805,0.45863 2.50729,-0.4793 2.53935,-0.58595 2.29459,-7.6333 -0.20967,-6.03723 -0.0159,-7.10248 1.24735,-6.8592 1.96027,0.37752 4.14243,10.98822 7.26315,35.31699 1.32069,10.296 3.06302,23.64478 3.87184,29.66396 1.52842,11.37438 1.24066,27.39664 -0.60087,33.45604 -0.78549,2.58459 -1.42586,3.12 -3.73163,3.12 -4.15192,0 -5.67349,3.18205 -6.84276,14.3103 -0.89337,8.50254 -0.81771,10.08161 0.62912,13.13059 1.20582,2.54108 1.44315,4.40139 0.88953,6.97244 -0.41531,1.92867 -0.64126,4.87966 -0.50212,6.55777 0.24367,2.93882 0.0912,3.07535 -4.14296,3.7103 -7.79936,1.16959 -9.20303,-2.48736 -7.3855,-19.2414 1.22808,-11.32047 0.41607,-19.52808 -2.18981,-22.13395 -0.96278,-0.96287 -3.59502,-1.38608 -8.62078,-1.38608 -8.4006,0 -7.87133,-0.54403 -11.20749,11.52 -1.88203,6.80568 -2.26304,10.49632 -2.2957,22.23676 -0.0215,7.74222 -0.25516,14.27975 -0.51916,14.52785 -0.264,0.24811 -1.86282,0.74725 -3.55294,1.10919 -2.4357,0.52161 -3.42554,0.24626 -4.77335,-1.32786 z M 472.06,385.00045 c -0.319,-0.319 -1.147,-0.3531 -1.84,-0.0758 -0.76582,0.30645 -0.53835,0.53394 0.58,0.58 1.012,0.0417 1.579,-0.18522 1.26,-0.50421 z m -113.1261,56.79438 c -0.20564,-0.20537 -1.88191,-0.5455 -3.72504,-0.75584 l -3.35113,-0.38243 -3.54484,-24.41806 c -1.94965,-13.42993 -3.57365,-25.60605 -3.60886,-27.05805 -0.15759,-6.49766 3.88591,0.46154 5.15954,8.88 2.54543,16.82486 6.61945,35.24881 8.17283,36.96 2.15644,2.37553 3.29433,5.89756 2.13655,6.61311 -0.47583,0.29408 -1.03341,0.36666 -1.23905,0.16127 z m -144.5226,-6.48895 c -1.41934,-1.5583 -2.15938,-3.97604 -2.5221,-8.23975 -0.28234,-3.31887 -1.15475,-7.01321 -1.93868,-8.20964 -1.54478,-2.35764 -2.89822,-25.48585 -2.64036,-45.11967 0.16829,-12.81457 -1.18576,-25.42101 -3.88355,-36.15637 -1.12784,-4.488 -2.18472,-8.30851 -2.34863,-8.49002 -0.27544,-0.30502 -0.81949,1.31715 -3.49139,10.41002 -0.54303,1.848 -1.32697,12.648 -1.74211,24 -0.57632,15.76012 -1.15292,21.75203 -2.43875,25.34344 -1.40203,3.91599 -1.59017,6.6885 -1.12375,16.56 0.47466,10.0458 0.3447,11.85656 -0.85101,11.85656 -2.65202,0 -2.50608,2.8498 0.47183,9.21343 1.63746,3.49918 2.9772,6.96163 2.9772,7.69435 0,1.75344 -8.55141,1.87868 -9.02713,0.13222 -2.6851,-9.85757 -3.404,-16.89114 -3.91884,-38.34127 -0.47452,-19.77043 -0.3314,-24.26964 0.86304,-27.1283 1.27314,-3.04707 1.26943,-3.87849 -0.0334,-7.49873 -0.80598,-2.23943 -1.93198,-9.6877 -2.50226,-16.5517 l -1.03687,-12.48 -16.70835,-0.311 c -13.43299,-0.25003 -17.76632,-0.675 -22.10533,-2.16784 -6.22722,-2.14248 -9.31741,-4.49046 -7.99963,-6.07828 0.48644,-0.58613 1.02491,-2.35655 1.19661,-3.93428 l 0.31216,-2.8686 -12.48,-0.49333 c -9.14833,-0.36164 -13.56754,-0.96544 -16.55377,-2.26175 -2.24058,-0.97263 -3.90192,-2.04663 -3.69188,-2.38666 0.21005,-0.34004 6.57924,-0.2598 14.15378,0.17832 11.41931,0.66051 14.23573,1.12592 16.48734,2.72454 1.49351,1.06036 2.81003,1.78191 2.92561,1.60342 1.19934,-1.85213 2.4269,-5.93677 1.99446,-6.63648 -0.30187,-0.48843 -0.1607,-0.88806 0.31371,-0.88806 1.20687,0 2.55531,-3.24289 5.01935,-12.071 2.61668,-9.37504 2.84956,-9.77054 4.45793,-7.57095 0.8089,1.10623 1.29347,4.4319 1.29347,8.87724 0,5.56127 0.41642,7.69312 1.91334,9.79535 1.05233,1.47787 2.24465,5.00056 2.6496,7.8282 l 0.73626,5.14116 5.2704,0.51851 c 3.57889,0.35209 6.48805,1.36652 9.06437,3.16072 3.46614,2.4139 4.36421,2.60259 10.3936,2.18367 3.6298,-0.2522 7.61775,-1.12563 8.86212,-1.94096 2.51877,-1.65037 7.19031,-7.42308 7.19031,-8.88522 0,-0.51812 1.08,-1.95664 2.4,-3.19672 1.72205,-1.61778 2.4,-3.25892 2.4,-5.8098 0,-4.09564 1.59923,-5.86538 4.59285,-5.08253 1.63704,0.4281 2.30578,-0.0125 3.07004,-2.02267 0.53741,-1.4135 0.97711,-3.65027 0.97711,-4.97061 0,-1.32033 0.47844,-3.29457 1.06319,-4.3872 0.85276,-1.59339 1.22986,-1.72341 1.90529,-0.65689 0.46316,0.73134 0.84874,2.4635 0.85682,3.84926 l 0.0147,2.51956 3.79613,-1.87818 c 4.53722,-2.24483 6.92695,-1.69651 9.72366,2.23111 2.5392,3.56598 1.7069,4.63025 -1.93745,2.47748 -3.47467,-2.05253 -5.90733,-2.05472 -10.41317,-0.01 l -3.56917,1.62018 7.61976,0.5991 c 4.57276,0.35954 7.77261,1.05765 8.00199,1.74581 0.21023,0.63068 0.77239,0.90557 1.24925,0.61085 0.47685,-0.29471 0.62976,0.0824 0.33979,0.83807 -0.30353,0.79097 -2.49001,1.63427 -5.15333,1.98757 -4.8622,0.645 -10.68057,3.89804 -11.33654,6.33824 -0.32539,1.21046 -0.2365,1.22422 0.55764,0.0863 0.53767,-0.77042 3.19585,-1.54037 6.16933,-1.78696 4.28863,-0.35564 5.33691,-0.14061 5.85147,1.20033 0.97582,2.54294 -0.11801,3.37745 -4.47602,3.41484 -2.90572,0.025 -4.82336,0.72199 -6.90334,2.50933 -2.01296,1.72973 -2.30196,2.26781 -0.96,1.78728 1.056,-0.37813 3.03535,-1.09226 4.39854,-1.58695 2.70183,-0.98047 7.60146,0.32933 7.60146,2.03206 0,0.54107 -1.188,0.98537 -2.64,0.98735 -2.56278,0.004 -9.52691,3.50949 -8.67107,4.36534 0.23401,0.23401 2.50983,-0.28473 5.05736,-1.15278 5.42789,-1.84945 7.07123,-1.19616 8.62898,3.4304 l 1.06332,3.15807 1.11652,-2.45052 c 0.9334,-2.04859 0.8215,-2.81328 -0.68229,-4.66231 -1.67532,-2.05994 -1.69013,-2.33254 -0.21581,-3.9705 1.47267,-1.63611 1.46731,-1.82347 -0.077,-2.6877 -1.95151,-1.09187 -2.31332,-6.59333 -0.43362,-6.59333 0.67453,0 2.09201,0.6063 3.14998,1.34733 1.7802,1.2469 1.87431,2.02119 1.26253,10.38768 -0.3636,4.97238 -2.02108,14.19367 -3.68347,20.49267 -2.15667,8.17196 -3.16154,14.47709 -3.50815,22.01232 -0.26717,5.808 -0.73713,11.64 -1.04435,12.96 l -0.55858,2.4 -0.62014,-2.4 c -0.43852,-1.69712 -1.38219,-2.48896 -3.22218,-2.70376 -1.43112,-0.16707 -2.59574,-0.59907 -2.58806,-0.96 0.0422,-1.98222 3.17748,-9.3146 4.3576,-10.19097 1.16658,-0.86632 1.18272,-1.40387 0.10409,-3.46744 -0.70209,-1.3432 -1.55565,-3.83775 -1.89678,-5.54345 -0.57327,-2.86634 -0.47628,-3.02421 1.28044,-2.08404 1.16424,0.62309 1.90068,0.65723 1.90068,0.0881 0,-0.511 -0.87533,-1.20691 -1.94518,-1.54646 -1.52071,-0.48266 -1.89686,-1.33472 -1.72379,-3.90469 0.25134,-3.73199 0.38056,-3.83288 2.36612,-1.84732 1.95357,1.95358 3.22285,1.81083 3.22285,-0.36246 0,-3.17387 -2.22468,-4.14575 -5.86893,-2.56389 -1.78809,0.77616 -2.6509,1.42811 -1.91735,1.44878 1.03272,0.0291 1.20613,1.11483 0.7684,4.81082 -0.31347,2.6467 -0.1592,5.02426 0.34627,5.33666 1.39245,0.86058 1.0854,5.61334 -0.49786,7.70661 -0.7752,1.02491 -1.4232,3.34147 -1.44,5.14789 -0.0168,1.80642 -0.71437,4.04004 -1.55017,4.96359 -1.39943,1.54636 -1.34248,1.77256 0.72,2.85932 3.38622,1.78427 3.64905,2.61833 3.66494,11.63018 0.008,4.58564 0.50083,9.55364 1.09499,11.04 0.59416,1.48638 1.1614,6.5905 1.26052,11.3425 0.14963,7.17403 0.56237,9.26751 2.43256,12.33836 1.6762,2.75231 2.27464,5.20803 2.33949,9.6 l 0.0871,5.90164 -3.38998,0.28543 c -2.54741,0.21449 -3.88925,-0.26273 -5.39872,-1.92 z M 57.87624,431.18133 c 0.299669,-2.90352 1.223459,-5.95772 2.052865,-6.78713 1.975167,-1.97516 2.418242,-4.14983 2.709117,-13.29671 0.160532,-5.04811 0.645017,-7.73637 1.441778,-8 0.791555,-0.26189 1.222966,0.69214 1.267474,2.80296 0.03711,1.76 0.381455,3.99788 0.76521,4.97307 0.638513,1.62257 0.807369,1.64098 1.989374,0.21674 1.047666,-1.26235 1.084458,-2.81084 0.19479,-8.19799 -1.320239,-7.99435 -1.462628,-31.37244 -0.19585,-32.15536 0.495549,-0.30626 1.296201,0.14935 1.779226,1.01246 0.715521,1.27857 1.260026,1.36498 2.939003,0.46642 2.464119,-1.31876 2.526361,-1.86341 0.537452,-4.70297 -1.071695,-1.53006 -1.230283,-2.52794 -0.534914,-3.36581 0.543623,-0.65503 0.654109,-1.73186 0.245525,-2.39296 -0.480614,-0.77765 -1.15913,0.1873 -1.921915,2.73325 -0.6746,2.25161 -1.668123,3.77371 -2.322204,3.55767 -1.25651,-0.41502 -3.099747,-13.33366 -2.226969,-15.60808 0.79567,-2.07348 2.523798,-1.72868 2.523798,0.50356 0,1.9875 2.31601,2.64922 3.36,0.96 0.871955,-1.41085 3.36,-1.16952 3.36,0.3259 0,0.70725 1.134294,1.80273 2.520653,2.4344 2.483732,1.13166 2.510708,1.24993 1.841656,8.07409 -0.373449,3.80909 -1.330592,9.30161 -2.126984,12.20561 -0.796393,2.904 -1.808953,12.624 -2.250136,21.6 -0.869332,17.68683 -1.87633,22.27513 -4.991414,22.74293 -1.747119,0.26237 -1.994309,1.02597 -2.116176,6.53707 -0.07589,3.432 -0.473894,6.78 -0.884448,7.44 -0.438301,0.7046 -2.760107,1.2 -5.624114,1.2 h -4.877651 z m 61.63195,0.71912 c -1.09499,-6.8105 -1.42036,-7.44762 -5.13323,-10.05198 -4.22312,-2.96224 -4.93496,-5.15641 -4.93496,-15.21136 0,-3.59884 -0.432,-6.81034 -0.96,-7.13666 -0.528,-0.32632 -0.96,-1.83832 -0.96,-3.36 0,-1.52168 -0.432,-3.03368 -0.96,-3.36 -1.71034,-1.05705 -1.02126,-2.16976 1.68,-2.71286 1.452,-0.29194 3.76697,-0.81166 5.14438,-1.15495 2.3251,-0.57949 2.58281,-0.31268 3.6,3.72693 0.60259,2.3931 1.09847,5.7798 1.10195,7.52599 0.004,1.74619 0.88514,4.47089 1.95923,6.05489 2.55855,3.77315 5.71444,10.57142 5.71444,12.30978 0,0.75632 0.648,1.91292 1.44,2.57022 0.792,0.6573 1.44,1.59507 1.44,2.08392 0,0.48885 0.75766,2.48796 1.6837,4.44246 0.92602,1.95449 1.54397,4.52562 1.37322,5.71362 -0.28173,1.96015 -0.8332,2.16 -5.96019,2.16 H 120.087 Z m 245.79021,-24.96 c -0.36685,-0.924 -0.90789,-5.892 -1.2023,-11.04 -0.46322,-8.0998 -0.76327,-9.36 -2.22852,-9.36 -1.34198,0 -1.94233,1.39394 -2.89415,6.72 -0.66051,3.696 -1.54417,6.72 -1.96368,6.72 -0.79436,0 -1.6129,-3.84876 -2.04027,-9.59333 -0.23867,-3.20803 -0.44201,-3.38065 -4.69267,-3.98371 -6.51935,-0.92493 -8.51681,-2.27571 -8.51681,-5.75944 0,-2.48193 0.26605,-2.81865 1.68,-2.12623 0.924,0.4525 6.19254,0.68908 11.70786,0.52575 9.14515,-0.27081 10.23412,-0.5032 12.37092,-2.64 4.29449,-4.2945 10.43798,-1.83506 10.9333,4.37696 0.22296,2.79615 -0.0259,3.30992 -1.4833,3.06156 -2.4619,-0.41955 -4.26106,1.35763 -4.98569,4.92478 -2.2192,10.92458 -4.57603,19.85366 -5.24037,19.85366 -0.42751,0 -1.07745,-0.756 -1.44432,-1.68 z M 106.56,388.13455 c 0,-0.70725 1.08,-1.77799 2.4,-2.37943 1.32,-0.60143 2.4,-1.53477 2.4,-2.07409 0,-1.21381 -0.61397,-1.23333 -2.75484,-0.0875 -2.35822,1.26208 -4.70331,-0.28687 -3.19176,-2.10817 0.62147,-0.74883 0.9425,-1.54894 0.71341,-1.77803 -0.22909,-0.22909 1.26184,-0.39416 3.31319,-0.36681 4.29105,0.0572 4.18463,-0.0199 5.54473,4.01455 1.02486,3.03999 1.00871,3.06171 -3.3885,4.56 -5.3252,1.81445 -5.03623,1.80186 -5.03623,0.21953 z m 303.36,-2.10183 c -2.46473,-0.71759 -9.52854,-1.29094 -16.44808,-1.33501 l -12.1281,-0.0773 -0.46528,-2.43399 c -0.79387,-4.15289 1.60375,-4.60317 21.30102,-4.00054 9.80124,0.29987 19.11644,0.92739 20.70044,1.3945 3.72953,1.0998 4.49619,4.65793 1.26657,5.87824 -4.22863,1.59781 -9.92134,1.82751 -14.22657,0.57406 z m -307.2,-8.97858 c 0,-0.52218 1.489,-1.48784 3.30889,-2.14592 1.81989,-0.65808 3.08603,-1.55709 2.81366,-1.9978 -0.27237,-0.44071 -0.89737,-0.55275 -1.38889,-0.24897 -0.49151,0.30377 -0.89366,-0.12468 -0.89366,-0.95212 0,-0.86632 1.67711,-2.17547 3.95403,-3.08651 3.91765,-1.56754 3.93509,-1.59638 1.89499,-3.13523 -1.62578,-1.22632 -1.81138,-1.80078 -0.88203,-2.73013 1.5783,-1.5783 4.13977,-1.48806 5.53663,0.19505 0.88747,1.06934 0.75406,2.81099 -0.6047,7.89398 l -1.74342,6.52192 -5.99776,0.31758 c -3.52799,0.18679 -5.99774,-0.0734 -5.99774,-0.63185 z m -2.57604,-6.78321 c -0.0968,-1.87577 -0.64261,-7.48047 -1.212878,-12.45489 -0.99816,-8.70691 -0.958474,-9.12784 1.063372,-11.28 3.099016,-3.29875 12.364616,-3.21085 17.331766,0.16441 1.94256,1.32 4.24081,2.4 5.10723,2.4 1.3207,0 1.46466,0.65943 0.89069,4.08 -0.90267,5.37957 -2.08941,8.4 -3.30038,8.4 -1.25107,0 -1.27927,-4.37406 -0.0431,-6.68389 1.12447,-2.1011 -0.0198,-2.48251 -10.06068,-3.35345 -6.35523,-0.55125 -6.56367,-0.50732 -3.84,0.80925 2.94333,1.42276 2.15527,1.89365 -2.64,1.57747 -1.83646,-0.1211 -2.64,0.28623 -2.64,1.33826 0,1.44331 0.38546,1.6776 3.12,1.89636 1.40103,0.11208 2.60437,1.54497 2.6253,3.12612 0.009,0.63948 -0.7993,0.89727 -1.9053,0.60804 -1.07346,-0.28071 -1.92,-0.0295 -1.92,0.56988 0,0.58958 0.864,1.07196 1.92,1.07196 2.58258,0 2.44536,1.55868 -0.19808,2.24996 -1.16494,0.30464 -1.87285,0.79911 -1.57314,1.09883 0.29971,0.29971 1.68111,0.11296 3.06975,-0.415 3.19405,-1.21438 5.90841,-0.35725 4.4466,1.40413 -0.56314,0.67854 -2.08617,1.50032 -3.38451,1.82618 -1.71035,0.42928 -2.36062,1.24559 -2.36062,2.96344 0,1.87174 -0.4548,2.33331 -2.16,2.19218 -1.76331,-0.14593 -2.19233,-0.80511 -2.33603,-3.58924 z m -57.057644,-3.17048 c -0.159632,-1.68499 -0.11856,-1.9236 0.702297,-4.08 0.653277,-1.71616 0.556446,-1.77807 -0.912071,-0.5832 -2.401556,1.95406 -2.784098,0.89712 -1.508624,-4.16824 0.774619,-3.07629 2.033208,-5.16838 3.968593,-6.59678 1.558823,-1.15048 6.04956,-6.08778 9.979416,-10.97178 6.926525,-8.60824 9.004073,-10.34501 9.004073,-7.52712 0,1.08286 0.75716,0.98706 3.793626,-0.48 2.086494,-1.00809 4.570494,-1.86324 5.52,-1.90036 1.546556,-0.0605 1.530784,-0.14397 -0.151429,-0.80194 -1.032792,-0.40396 -3.068305,-0.28511 -4.523362,0.26411 -1.455056,0.54923 -2.94726,0.69688 -3.316007,0.32814 -1.05247,-1.05247 1.3608,-7.98417 6.465991,-18.57243 3.810318,-7.90267 4.693321,-10.69669 4.702575,-14.88 0.02156,-9.74556 9.577936,-37.60108 16.023197,-46.70541 6.035857,-8.52603 10.052879,-10.94088 19.173449,-11.5262 5.33146,-0.34216 7.12907,-0.17257 6.63555,0.62597 -0.3723,0.60238 -1.0706,1.09524 -1.55179,1.09524 -0.4812,0 -3.15571,1.02931 -5.94335,2.28735 -2.78764,1.25805 -6.05229,2.58692 -7.25475,2.95305 -2.90866,0.88562 -8.313348,6.05601 -10.076437,9.6396 -3.991897,8.1138 -6.092986,21.60774 -4.512176,28.9788 1.535624,7.16037 3.900297,8.50346 14.374913,8.16467 10.81519,-0.34982 23.67539,1.20089 27.84,3.35699 l 3.36,1.73954 -16.32,0.57168 c -8.976,0.31443 -17.94,0.90251 -19.92,1.30685 -4.434221,0.90551 -4.642111,2.72617 -1.2,10.50939 2.426131,5.48592 3.07092,9.21208 1.594099,9.21208 -0.443251,0 -1.297987,-1.08 -1.899427,-2.4 -2.38521,-5.23498 -5.17873,-1.3826 -8.509703,11.73523 -1.309416,5.15667 -2.748914,9.81935 -3.198883,10.36153 -0.44997,0.54219 -1.681748,4.10227 -2.737285,7.9113 -1.055537,3.80903 -2.189823,7.36346 -2.520636,7.89873 -1.019842,1.65013 -2.259426,1.08024 -2.581396,-1.18679 -0.227868,-1.60445 -1.105172,-2.28346 -3.41097,-2.64 C 70.626802,350.47168 67.2,347.88254 67.2,345.74985 c 0,-0.79718 0.7344,-1.4494 1.632,-1.4494 1.269333,0 1.376,-0.256 0.48,-1.152 -0.6336,-0.6336 -1.152,-2.1456 -1.152,-3.36 0,-1.568 -0.556522,-2.208 -1.92,-2.208 -1.056,0 -1.935112,-0.54 -1.953583,-1.2 -0.01847,-0.66 -1.076189,1.02874 -2.350489,3.75275 -1.274299,2.72401 -2.748035,5.21919 -3.274971,5.54486 -0.526935,0.32566 -2.150257,4.25292 -3.607383,8.72725 -1.457126,4.47432 -2.905531,8.13514 -3.218678,8.13514 -0.313148,0 -0.4284,-1.62 -0.256119,-3.6 0.300481,-3.45337 0.174789,-3.33608 -3.086006,2.88 -3.202699,6.10532 -5.148261,8.00538 -5.406455,5.28 z m 67.622584,-8.71304 c -1.67811,-0.61983 -3.33511,-1.41596 -3.68222,-1.76918 -1.10196,-1.12134 3.34144,-2.84448 6.53768,-2.53529 2.55224,0.24688 3.12734,0.74677 3.3794,2.93751 0.34395,2.98922 -1.0283,3.29008 -6.23486,1.36696 z m 320.11144,-2.2054 c -1.27293,-2.21691 -2.82139,-25.2574 -2.05128,-30.52234 1.14843,-7.85138 3.23094,-8.30376 3.23094,-0.70185 0,3.17755 0.68801,9.84966 1.52892,14.82691 1.47064,8.70466 1.45736,9.20559 -0.34824,13.14418 -1.03242,2.25206 -2.09457,3.71594 -2.36034,3.2531 z M 116.81353,343.10068 c -2.50082,-2.67218 -3.06912,-2.84897 -7.47919,-2.32667 -4.45444,0.52756 -4.83414,0.40374 -5.69354,-1.85664 -1.6815,-4.42272 -1.33278,-4.68195 6.68785,-4.97143 7.33105,-0.26459 7.73,-0.16557 11.03864,2.73945 3.94576,3.46442 4.3409,5.91007 1.2991,8.04063 -2.65074,1.85665 -2.5743,1.87787 -5.85286,-1.62534 z m 6.95381,-6.09144 c -3.83421,-4.10419 -7.19084,-5.34379 -13.68486,-5.05381 l -5.92248,0.26447 -1.73131,-3.50164 c -0.95223,-1.92591 -1.81623,-4.71578 -1.92,-6.19973 l -0.18869,-2.69808 12.48,-0.24039 c 14.60841,-0.28139 17.11438,0.48713 17.58764,5.39367 0.51956,5.38662 -0.36078,6.16589 -3.46206,3.06461 -2.79694,-2.79693 -5.58362,-3.45549 -17.48558,-4.13225 -4.23091,-0.24057 -4.3262,-0.1813 -4.62083,2.87436 -0.24026,2.49196 0.0496,3.11386 1.44,3.08947 0.95746,-0.0168 2.5794,-0.6648 3.60431,-1.44 3.07546,-2.32615 10.86134,-1.81674 14.48582,0.94779 2.98688,2.27821 4.60802,6.2588 3.60911,8.8619 -0.70129,1.82755 -1.57351,1.5715 -4.19107,-1.23037 z m -64.551727,-7.47732 c -0.278066,-0.72463 -0.06085,-1.76223 0.482694,-2.30578 0.543548,-0.54354 1.979999,-3.94419 3.192113,-7.55698 1.902309,-5.66997 2.546136,-6.61039 4.705574,-6.87333 2.405088,-0.29286 2.456233,-0.20014 1.323968,2.4 -1.966796,4.51656 -7.602305,14.66692 -8.425629,15.17576 -0.42523,0.26281 -1.000654,-0.11505 -1.27872,-0.83967 z M 430.08,313.45114 c 0,-6.15498 2.25454,-15.73587 4.23626,-18.00238 1.41929,-1.62326 1.65372,-2.41662 0.80374,-2.72 -1.93734,-0.69149 -1.38159,-2.72668 1.10846,-4.05932 2.59035,-1.38632 4.41154,-0.71536 4.41154,1.62527 0,0.85853 -1.512,4.48269 -3.36,8.0537 -1.95609,3.77986 -3.36,7.89129 -3.36,9.83989 0,3.98438 -1.4805,8.27215 -2.85624,8.27215 -0.54107,0 -0.98376,-1.3542 -0.98376,-3.00931 z M 227.13447,309.584 c -1.5845,-2.26218 -1.23659,-3.68355 0.90161,-3.68355 1.10582,0 1.15624,-0.45325 0.2674,-2.40406 -1.46047,-3.20537 -0.44018,-3.98083 2.60899,-1.98294 2.12415,1.3918 2.39587,2.08473 1.83911,4.69003 -1.189,5.56378 -3.22827,6.79106 -5.61711,3.38052 z M 63.860815,307.10045 c -0.300403,-1.98 -1.013592,-4.896 -1.584865,-6.48 -1.992566,-5.5249 -3.030869,-10.85889 -2.422417,-12.44448 0.864415,-2.25264 2.281271,-1.04296 3.063462,2.61549 0.936516,4.38027 2.129425,5.50899 5.822262,5.50899 2.66294,0 3.332085,-0.42999 3.844166,-2.47029 0.914949,-3.64545 2.486667,-1.38216 2.122069,3.05579 -0.234624,2.85592 -0.750892,3.78473 -2.225492,4.0039 -4.607788,0.68483 -6.24,1.27487 -6.24,2.25573 0,0.67841 1.186094,0.82604 3.36,0.41821 3.77643,-0.70846 4.002498,-0.20625 1.849688,4.10917 -1.170721,2.34676 -2.132285,3.02749 -4.2765,3.02749 -2.459383,0 -2.826766,-0.39928 -3.312373,-3.6 z m 61.899185,1.0903 c -5.4347,-1.71076 -8.92335,-2.24012 -19.44,-2.94978 -4.62,-0.31176 -8.4,-0.90459 -8.4,-1.3174 0,-1.59339 6.75205,-2.32212 19.2,-2.07222 13.94974,0.28005 15.36,0.80087 15.36,5.67258 0,2.508 -0.66225,2.57371 -6.72,0.66682 z m 198.58056,-4.2103 c -4.85781,-11.0718 -6.55253,-29.19778 -4.75765,-50.88588 3.13753,-37.91188 3.12462,-37.5232 1.52447,-45.89765 -1.24612,-6.5216 -1.34986,-9.86424 -0.56653,-18.25391 0.59812,-6.40597 0.62519,-11.71003 0.0719,-14.09647 -1.16121,-5.00895 -1.17151,-4.89023 0.57577,-6.63752 1.2044,-1.20437 3.83936,-1.50857 13.06688,-1.50857 h 11.55827 l -0.59928,3.19444 c -1.59978,8.52751 -2.45666,36.23905 -2.47462,80.0289 -0.011,26.90294 -0.39516,48.41534 -0.86973,48.70864 -0.46747,0.28892 -1.61086,-1.5216 -2.54087,-4.02335 -1.38255,-3.71909 -1.86875,-9.97595 -2.66604,-34.30863 -0.85757,-26.1725 -0.77413,-31.61161 0.69223,-45.12 1.24183,-11.44011 1.40433,-16.04916 0.63676,-18.06044 -0.56681,-1.48525 -1.30659,-7.53325 -1.64395,-13.44 l -0.61337,-10.73956 h -2.62518 c -1.57112,0 -2.45649,0.43956 -2.20507,1.09476 0.23105,0.60211 -0.52569,6.21811 -1.68165,12.48 -2.00596,10.86637 -2.07758,13.13528 -1.57142,49.78524 0.3597,26.04625 0.14956,43.65035 -0.65319,54.72 -1.15607,15.94159 -1.21769,16.2421 -2.65773,12.96 z m -17.60454,-0.24 c -0.22204,-0.66 -1.0885,-5.736 -1.92548,-11.28 -1.28145,-8.48823 -1.37768,-13.49093 -0.60937,-31.68 0.67284,-15.92903 1.33813,-22.80347 2.53398,-26.18387 1.39292,-3.93745 1.46128,-5.4266 0.48481,-10.56 -0.62524,-3.28686 -1.11459,-6.40813 -1.08746,-6.93613 1.10094,-21.42296 1.20977,-27.5478 0.6275,-35.3141 -0.62572,-8.34604 -0.89467,-9.3259 -2.55972,-9.3259 -1.92232,0 -2.38912,0.7106 -3.15318,4.8 -0.24663,1.32 -1.134,4.94684 -1.97193,8.05964 -2.72091,10.1078 -4.3373,21.91456 -4.81084,35.14036 -0.25522,7.128 -0.4731,13.15057 -0.48418,13.38348 -0.011,0.23292 -0.61341,-0.38784 -1.3385,-1.37946 -1.27287,-1.74077 -1.34133,-1.73053 -1.98469,0.29652 -0.36649,1.1547 -1.10031,2.09946 -1.63071,2.09946 -0.5304,0 -2.98238,1.18264 -5.44886,2.6281 -3.32301,1.94741 -4.02842,2.71592 -2.72356,2.96721 0.96852,0.18652 2.60245,-0.56412 3.63095,-1.66809 3.47408,-3.72898 10.39341,-1.70569 15.60685,4.56361 3.30136,3.97 3.46837,4.51544 3.46837,11.32767 0,9.82375 -2.19858,13.7815 -7.65581,13.7815 -2.47597,0 -2.90419,1.83062 -2.90419,12.41526 0,9.12233 -1.21511,15.42474 -2.97392,15.42474 -0.47869,0 -0.86608,-6.87035 -0.86608,-15.36 0,-14.40294 -0.11266,-15.36 -1.80804,-15.36 -0.99441,0 -2.01684,-0.79848 -2.27205,-1.77441 -0.27008,-1.0328 -1.67273,-2.01615 -3.35605,-2.35282 -3.17208,-0.63442 -4.45161,-3.37913 -3.41796,-7.33183 0.4165,-1.59269 0.26116,-2.0739 -0.51468,-1.5944 -0.61117,0.37773 -1.11122,1.49978 -1.11122,2.49346 0,2.06476 -1.83068,3.56207 -2.74733,2.24703 -0.65487,-0.93948 -5.48894,-3.02397 -15.40524,-6.64284 -3.38392,-1.23494 -6.52101,-2.61377 -6.97133,-3.06409 -0.45031,-0.45031 -0.45494,-3.47894 -0.0103,-6.7303 0.44465,-3.25135 0.47861,-6.24865 0.0754,-6.66067 -0.40314,-0.41203 -0.90522,-2.47713 -1.11575,-4.58913 -0.21053,-2.112 -0.49037,2.64 -0.62186,10.56 l -0.23909,14.4 -1.86925,-3.84 c -1.60142,-3.2898 -1.78496,-5.09664 -1.28093,-12.61032 0.46229,-6.89128 0.27212,-9.38184 -0.88762,-11.62452 -2.30473,-4.45685 -14.08631,-16.09564 -18.60678,-18.38127 -4.52963,-2.29025 -5.244,-4.73483 -2.5201,-8.62376 l 1.55991,-2.22707 5.40009,5.71378 c 2.97006,3.14257 6.1561,5.97908 7.0801,6.30334 0.924,0.32426 1.68,1.24655 1.68,2.04953 0,0.80298 2.16,3.84511 4.8,6.76029 l 4.8,5.30032 v -3.03912 c 0,-2.55759 -1.30686,-4.30258 -8.24822,-11.01346 -4.53652,-4.3859 -9.07252,-8.23598 -10.08,-8.55574 -1.43739,-0.45621 -1.83178,-1.49245 -1.83178,-4.81293 0,-4.21192 0.0122,-4.22692 2.62046,-3.23525 1.44125,0.54797 2.94664,1.50927 3.34531,2.13624 0.43945,0.69113 0.7364,0.19502 0.75423,-1.26006 0.0427,-3.48536 1.34128,-5.01264 3.94857,-4.64399 1.92109,0.27162 2.38449,1.02219 2.86725,4.64399 0.31669,2.376 0.65382,3.888 0.74918,3.36 0.0953,-0.528 0.61371,-0.204 1.1519,0.72 1.98578,3.40939 2.77634,1.55105 0.90261,-2.12175 -3.52622,-6.91197 -1.92793,-9.52476 1.78514,-2.91825 1.18701,2.112 2.57252,3.84 3.07891,3.84 0.50639,0 0.21944,-1.07025 -0.63764,-2.37833 -0.85709,-1.30808 -1.89726,-3.79208 -2.31149,-5.52 -0.41423,-1.72792 -1.06515,-3.89767 -1.4465,-4.82167 -1.04485,-2.53169 0.98114,-2.04363 3.98503,0.96 l 2.64023,2.64 0.58833,-2.4 c 0.49634,-2.02476 1.1035,-2.37492 3.8834,-2.23957 1.81229,0.0882 5.10902,1.14716 7.32604,2.35316 3.96015,2.15421 4.06616,2.16089 6.03386,0.38015 1.10159,-0.99693 1.77661,-2.40229 1.50003,-3.12303 -0.27657,-0.72074 -0.0885,-1.05434 0.41796,-0.74134 0.50643,0.313 2.20803,-0.0966 3.78132,-0.91013 1.57329,-0.81359 3.54066,-1.47924 4.37196,-1.47924 1.853,0 3.44803,3.86744 2.72901,6.61697 -0.6397,2.44622 -2.21928,2.68814 -2.2398,0.34303 -0.0408,-4.6614 -1.65107,-4.38021 -7.51398,1.31207 -5.00882,4.86304 -5.74178,6.01337 -5.27433,8.27762 l 0.5429,2.6297 1.84428,-2.34463 c 1.01436,-1.28955 2.30315,-3.66091 2.86397,-5.2697 0.65452,-1.87755 1.67364,-2.92506 2.84578,-2.92506 2.04094,0 2.48591,1.53792 0.62608,2.16389 -0.92018,0.30969 -0.87266,0.80029 0.20376,2.10388 1.24284,1.50511 1.2121,1.84015 -0.26821,2.92258 -1.45139,1.06128 -1.47827,1.29691 -0.20376,1.78599 1.87419,0.71919 1.87969,3.44898 0.0123,6.11504 -1.36863,1.95401 -1.23608,2.30286 2.21127,5.81984 3.5615,3.63346 4.21968,5.96878 1.68219,5.96878 -0.68335,0 -1.78025,0.648 -2.43755,1.44 -1.36907,1.64964 0.0358,1.9802 1.632,0.384 1.49796,-1.49796 5.088,2.29529 5.088,5.376 0,1.83085 -0.51223,2.41443 -2.16,2.46085 l -2.16,0.0609 2.26958,0.90875 c 1.87704,0.75157 2.06425,1.15615 1.08245,2.33915 -0.65291,0.78672 -2.23627,1.4304 -3.51856,1.4304 -1.80013,0 -2.65699,-0.82039 -3.76002,-3.6 -0.78571,-1.98 -1.73567,-4.36608 -2.11101,-5.3024 -0.37534,-0.93631 -0.67525,1.05795 -0.66646,4.43172 0.0147,5.6476 1.31595,9.27068 3.32956,9.27068 0.39075,0 2.38082,-1.32744 4.42239,-2.94987 2.3584,-1.87423 4.47531,-2.80395 5.80544,-2.54967 1.81799,0.34753 2.15919,-0.11707 2.5925,-3.53013 0.75434,-5.94155 0.0887,-51.67731 -0.78112,-53.67486 -0.41783,-0.95949 -0.37833,-2.10621 0.0877,-2.54828 0.67996,-0.64488 25.54656,-1.62167 28.51284,-1.12002 0.43196,0.0731 -0.0543,1.32083 -1.08063,2.77283 -1.0263,1.452 -2.12934,3.936 -2.45119,5.52 -1.44992,7.13583 -2.76284,42.79126 -2.96939,80.64 -0.19323,35.4103 -0.4443,41.79189 -1.76572,44.88 -1.61859,3.78258 -2.39307,4.38953 -3.06242,2.4 z m -75.80174,-4.50003 c -1.29345,-1.42923 -1.53458,-2.74035 -1.04114,-5.66097 0.56619,-3.35126 1.00328,-3.85727 3.69451,-4.27701 1.67879,-0.26183 3.41384,-0.1393 3.85567,0.27229 1.08387,1.00971 -2.30099,11.52572 -3.70984,11.52572 -0.61375,0 -1.87339,-0.83701 -2.7992,-1.86003 z m 120.87432,-7.43544 c -1.44596,-3.29164 -1.67439,-37.97962 -0.37182,-56.46453 0.70692,-10.032 1.30284,-22.56 1.32426,-27.84 0.0355,-8.75754 -1.70329,-36.40091 -2.50571,-39.83514 -0.26632,-1.13979 0.75129,-1.43614 4.94467,-1.44 l 5.28,-0.005 -0.13468,3.84 c -0.57714,16.45573 -2.56727,60.72976 -3.1501,70.08 -0.39496,6.336 -0.36775,13.032 0.0605,14.88 1.49736,6.4623 0.91237,20.22557 -1.22278,28.7689 -2.26271,9.05363 -3.08384,10.61176 -4.22428,8.01563 z m 111.19372,-2.55957 c -1.69273,-0.60773 -3.63673,-1.69176 -4.32,-2.40896 -1.04462,-1.09648 0.24726,-1.1968 8.11768,-0.63041 10.99517,0.79127 12.66376,-0.59861 2.69508,-2.2449 -9.3401,-1.54248 -11.34108,-1.4117 -12.53508,0.81931 -1.31936,2.46523 -4.19556,2.46175 -5.88291,-0.007 -0.98484,-1.44098 -2.8348,-2.08134 -7.33355,-2.53848 -8.43478,-0.85709 -8.40462,-0.59531 -3.6063,-31.30339 l 2.26329,-14.48451 -1.91444,-4.85697 c -1.27257,-3.22853 -1.8091,-6.48741 -1.60026,-9.71998 0.28685,-4.44014 0.002,-5.22799 -3.27815,-9.06011 -5.76306,-6.73328 -7.78469,-13.18398 -7.69007,-24.53796 0.0465,-5.57176 0.7476,-12.20401 1.66421,-15.74131 1.34228,-5.18005 1.41234,-7.13038 0.45916,-12.78156 -1.16618,-6.91384 -0.4808,-9.44781 2.11538,-7.82092 0.706,0.44241 2.03964,0.68002 2.96364,0.52801 2.14654,-0.35314 2.12082,0.96153 -0.10571,5.40255 -1.63201,3.25522 -2.11165,6.41092 -3.60547,23.72175 -0.4764,5.52075 -0.33488,5.99467 3.40707,11.40957 2.28465,3.30607 3.90411,6.76158 3.90411,8.33033 0,1.71605 0.86367,3.36011 2.4,4.56859 1.32,1.03832 2.4,2.2831 2.4,2.76619 0,0.48309 0.57172,1.66023 1.27048,2.61584 1.10099,1.50569 1.54341,1.56704 3.31634,0.45983 2.3056,-1.43987 4.05429,-0.48746 2.30918,1.25766 -0.65365,0.65364 -1.136,3.92946 -1.136,7.71492 0,5.34604 0.4279,7.20864 2.28333,9.93916 l 2.28332,3.36021 0.64873,-4.32602 c 0.37895,-2.52704 0.17979,-5.8912 -0.47893,-8.08982 -0.74521,-2.4873 -0.81377,-4.32467 -0.20216,-5.41756 1.30046,-2.32379 5.5527,10.8601 4.6556,14.43443 -0.38366,1.52861 -0.14412,3.11256 0.60877,4.02542 1.04373,1.2655 1.31775,0.29577 1.72134,-6.09183 l 0.48,-7.59692 3.74075,7.00155 c 3.42179,6.40457 6.64456,9.81315 7.99827,8.45944 0.29402,-0.29402 0.0454,-1.12403 -0.5525,-1.84445 -0.5979,-0.72042 -2.36525,-3.70507 -3.92745,-6.63256 -2.78239,-5.21408 -2.94899,-7.54403 -0.3874,-5.4181 2.95602,2.45328 -0.35049,-3.71856 -3.96011,-7.39185 -1.07336,-1.09228 -2.7263,-3.42794 -3.6732,-5.19035 -1.30319,-2.42554 -1.99152,-2.93451 -2.832,-2.09403 -1.6882,1.6882 -4.15042,1.3396 -7.64373,-1.0822 -5.00792,-3.47184 -10.5045,-9.49305 -9.96036,-10.91105 0.27361,-0.71301 0.10101,-1.2964 -0.38354,-1.2964 -0.48456,0 -2.04145,-1.5214 -3.45975,-3.3809 -2.4049,-3.15298 -2.47291,-3.49782 -1.00886,-5.11559 1.20971,-1.33671 1.56988,-3.72768 1.56988,-10.42155 0,-6.3069 0.37111,-8.99485 1.35453,-9.81102 1.95624,-1.62354 2.70614,0.21144 1.40929,3.4485 -0.59945,1.49631 -1.06343,6.25016 -1.03106,10.56411 0.0656,8.73891 1.60174,12.92728 5.48815,14.96358 1.31822,0.69068 3.19572,2.74552 4.17222,4.5663 1.23514,2.30307 2.66904,3.49328 4.71181,3.91107 2.79341,0.57132 2.98479,0.40819 3.93127,-3.35058 0.59358,-2.35732 2.35311,-5.26755 4.36199,-7.21463 1.8519,-1.79493 3.14546,-3.62212 2.87458,-4.06041 -0.27087,-0.43828 0.15894,-0.5469 0.95516,-0.24137 1.21683,0.46694 1.30131,0.0452 0.52986,-2.64466 -0.50479,-1.76049 -0.9178,-4.41817 -0.9178,-5.90636 0,-4.1813 -4.57884,-12.88049 -8.25588,-15.68511 -2.38074,-1.81588 -3.15069,-3.02684 -2.7424,-4.31324 0.31221,-0.9837 0.10655,-1.78854 -0.45703,-1.78854 -0.56358,0 -1.02469,0.648 -1.02469,1.44 0,1.83191 -1.97665,1.84571 -4.37652,0.0305 -2.38582,-1.80454 -3.7783,-1.81857 -5.54106,-0.0558 -1.2463,1.2463 -1.60073,1.13084 -2.97711,-0.96978 -1.21301,-1.85128 -1.32685,-2.82463 -0.50908,-4.35264 1.11722,-2.08755 4.47187,-2.1242 4.01998,-0.044 -0.14507,0.66789 0.16005,0.9524 0.67808,0.63224 0.51802,-0.32015 0.6985,-1.21626 0.40108,-1.99136 -0.29744,-0.77507 -0.11296,-1.40924 0.40995,-1.40924 0.52292,0 1.17669,-0.864 1.45284,-1.92 0.70225,-2.6854 2.27135,-2.39096 3.75502,0.70462 0.93226,1.9451 2.19131,2.77633 4.86299,3.21061 4.04883,0.65811 3.75651,0.43677 5.28887,4.00477 0.71053,1.65444 1.8695,2.64 3.10451,2.64 1.08389,0 2.21306,0.63156 2.50927,1.40345 0.2962,0.77191 1.28892,1.64162 2.20604,1.9327 1.70076,0.5398 3.47358,3.65589 8.61151,15.13647 l 2.8967,6.47262 -2.59653,0.53556 c -1.4281,0.29457 -3.89254,0.93239 -5.47654,1.41739 -2.82166,0.86396 -2.80708,0.87662 0.72,0.62459 3.16522,-0.22618 3.6,0.003 3.6,1.89333 0,1.18281 -0.432,2.41757 -0.96,2.74389 -1.69896,1.05002 -1.023,2.3844 1.08848,2.14868 1.63322,-0.18232 2.26756,0.53416 3.12916,3.53438 0.59439,2.06968 1.58162,3.93002 2.19386,4.13411 0.792,0.264 0.72012,-0.93492 -0.24916,-4.15564 -2.03706,-6.76857 -1.82898,-9.22283 0.75015,-8.8483 1.68093,0.2441 2.32345,1.28737 3.14509,5.10677 0.73048,3.39556 1.22711,4.30844 1.69738,3.12 0.36564,-0.924 1.41274,-1.68 2.32692,-1.68 1.29276,0 1.40612,0.256 0.51012,1.152 -0.6336,0.6336 -1.152,3.42013 -1.152,6.1923 0,2.98279 -0.48985,5.35368 -1.2,5.808 -1.28626,0.82288 -5.52,9.24842 -5.52,10.9853 0,0.60387 1.03533,0.84831 2.44868,0.57813 2.18507,-0.4177 2.76042,0.14945 5.34432,5.26813 1.5926,3.15492 2.63881,6.40552 2.3249,7.22354 -0.49069,1.27874 -0.76469,1.23106 -1.95378,-0.34004 -1.26323,-1.66903 -1.3857,-1.40511 -1.41359,3.04591 -0.0479,7.64801 -1.9549,25.31476 -3.35988,31.12673 -0.70202,2.904 -1.55597,7.58569 -1.8977,10.40376 -0.34172,2.81807 -1.00733,5.84207 -1.47914,6.72 -0.47181,0.87793 -1.08562,2.67624 -1.36403,3.99624 -0.47576,2.25569 -0.89774,2.40872 -7.01798,2.54496 -3.5815,0.0798 -7.89676,-0.35227 -9.58948,-0.96 z M 61.479925,278.49245 c 0.05343,-7.64446 2.736173,-15.20965 5.538667,-15.61877 1.155774,-0.16872 2.101408,0.17683 2.101408,0.7679 0,1.62009 -5.935877,18.60387 -6.868035,19.65087 -0.453362,0.50921 -0.794332,-1.6107 -0.77204,-4.8 z M 233.7124,276.65673 c -0.96812,-1.7977 -2.6252,-3.49473 -3.68239,-3.7712 -1.81533,-0.47471 -1.83178,-0.60254 -0.2961,-2.29946 0.89435,-0.98824 1.62609,-2.4833 1.62609,-3.32234 0,-2.53106 -4.85856,-11.50204 -8.54196,-15.77211 -1.90192,-2.20485 -5.18604,-6.23906 -7.29804,-8.96493 -2.112,-2.72585 -4.50987,-5.67388 -5.3286,-6.55117 -0.81872,-0.87729 -2.24095,-2.79569 -3.16051,-4.26313 -1.5015,-2.3961 -1.82179,-2.51818 -3.1423,-1.19768 -1.32051,1.32051 -1.1674,1.72533 1.50215,3.97161 1.6349,1.37567 3.44458,3.38323 4.02151,4.46123 0.99077,1.85128 0.84647,1.92716 -2.60095,1.36772 -2.10178,-0.34107 -4.17788,-0.15411 -4.89469,0.44078 -0.94486,0.78418 -1.46221,0.46123 -2.14716,-1.34033 -0.9411,-2.4753 -3.45336,-4.00283 -5.00554,-3.04352 -0.49655,0.30688 -0.62549,2.03629 -0.28652,3.84311 0.40129,2.13914 0.24412,3.28514 -0.45055,3.28514 -0.58676,0 -1.06684,-0.41173 -1.06684,-0.91496 0,-0.50323 -1.46706,-1.61113 -3.26014,-2.46199 -2.32375,-1.1027 -3.37309,-2.31661 -3.65338,-4.22637 -0.32336,-2.20318 -0.0852,-2.59877 1.34013,-2.22603 0.95337,0.2493 1.73339,-0.0291 1.73339,-0.61869 0,-0.58958 0.6225,-1.07196 1.38334,-1.07196 1.79268,0 2.6978,-1.53697 3.37286,-5.72739 0.45408,-2.81871 0.9912,-3.444 3.17517,-3.69637 2.30146,-0.26596 2.62863,-0.71838 2.62863,-3.635 v -3.33123 l 5.80984,4.83499 c 5.93804,4.94168 8.28905,6.01672 7.25287,3.31648 -0.3205,-0.83518 -0.58271,-1.90282 -0.58271,-2.37255 0,-0.46972 -1.404,-1.21535 -3.12,-1.65696 -2.42075,-0.62297 -3.18808,-1.38217 -3.42376,-3.38745 -0.16707,-1.42149 0.10654,-2.58452 0.60803,-2.58452 0.50149,0 1.17313,-0.972 1.49253,-2.16 0.53561,-1.99212 0.96757,-1.72531 5.55804,3.43314 2.73751,3.07623 6.8468,6.47192 9.13174,7.54597 5.55566,2.61147 12.56542,10.47345 17.06239,19.13679 2.02246,3.89626 4.30075,7.80527 5.06286,8.6867 1.7144,1.98282 0.75865,12.3174 -1.13911,12.3174 -0.65233,0 -4.26548,-4.644 -8.02921,-10.32 -3.76374,-5.676 -7.92813,-11.94 -9.25421,-13.92 -2.22737,-3.32575 -6.03497,-5.14275 -5.0293,-2.4 0.242,0.66 0.95811,1.0813 1.59136,0.93621 0.63324,-0.14507 0.87937,0.1763 0.54695,0.71417 -0.33243,0.53787 2.01146,5.01601 5.20864,9.95141 3.19717,4.93541 5.81305,9.26274 5.81305,9.6163 0,0.35356 0.91381,2.5869 2.0307,4.96297 1.70991,3.63767 1.92549,5.30261 1.36468,10.53944 -0.36632,3.42061 -1.0028,6.42743 -1.41439,6.68181 -0.4116,0.25438 -1.54047,-1.00834 -2.50859,-2.80603 z m 140.10284,-3.63538 c -0.42086,-2.7725 -0.70202,-14.7609 -0.62481,-26.6409 0.107,-16.46512 0.48238,-22.56092 1.57903,-25.64213 1.21186,-3.40493 1.30175,-6.96127 0.57022,-22.56 -0.47763,-10.18483 -0.88446,-20.17387 -0.90405,-22.19787 -0.0243,-2.50497 -0.41879,-3.55292 -1.23563,-3.28201 -0.89172,0.29575 -1.34087,6.05046 -1.74835,22.40001 -0.42558,17.07621 -1.14121,25.87063 -3.19652,39.282 -1.4565,9.504 -2.97961,17.62428 -3.3847,18.04505 -2.37645,2.46848 -2.73416,-53.26581 -0.44858,-69.89043 1.12649,-8.19374 1.2558,-11.50097 0.48,-12.27677 -0.58402,-0.58402 -1.06185,-1.77292 -1.06185,-2.642 0,-1.36081 1.85893,-1.6689 13.3912,-2.21941 7.36517,-0.35159 14.04845,-0.89145 14.85173,-1.19971 0.99975,-0.38363 1.9534,0.47313 3.02279,2.71566 1.47626,3.09575 1.39854,4.57456 -1.41173,26.86146 -2.03077,16.10514 -2.97862,27.80683 -2.98857,36.89576 -0.01,9.05688 -0.62329,16.65923 -1.91942,23.78981 -1.66237,9.14549 -2.82741,13.41275 -2.88322,10.56058 -0.01,-0.484 -0.6368,-4.95071 -1.39406,-9.92601 -0.75725,-4.97531 -1.21456,-9.30857 -1.01623,-9.62947 0.19832,-0.3209 0.83537,-5.7542 1.41566,-12.07399 0.58029,-6.31979 1.55823,-15.01543 2.17321,-19.32364 0.9704,-6.79806 0.90796,-8.36819 -0.47249,-11.8825 -1.37096,-3.4901 -1.45373,-5.40984 -0.59931,-13.89938 1.25096,-12.42957 0.93032,-18.02624 -0.96505,-16.84458 -2.07903,1.29617 -3.86063,18.38008 -3.91065,37.49957 -0.038,14.55326 -0.82641,25.53351 -4.39615,61.23028 -0.38448,3.84465 -1.02716,7.19307 -1.42817,7.44091 -0.40102,0.24783 -1.07346,-1.81779 -1.4943,-4.59029 z m -298.1803,-1.24596 c -0.347798,-0.3478 -0.22794,-1.69606 0.26635,-2.99614 0.494291,-1.30008 0.89871,-3.43003 0.89871,-4.73321 0,-1.30318 1.087278,-4.51506 2.416172,-7.1375 1.328895,-2.62245 2.076976,-4.76809 1.662402,-4.76809 -0.414573,0 -2.844888,1.728 -5.4007,3.84 -2.555812,2.112 -5.247893,3.84 -5.982403,3.84 -1.669434,0 -1.666811,-0.42289 0.02263,-3.64767 2.441447,-4.66024 7.61154,-8.44341 16.438043,-12.0284 12.864717,-5.22517 15.406696,-4.57295 7.593266,1.94829 -3.068439,2.56097 -5.910616,6.50797 -9.539557,13.24778 -5.921428,10.99751 -7.48732,13.32252 -8.374906,12.43494 z m 320.80321,-1.47494 c -1.88302,-17.9998 -1.37006,-43.18441 1.1618,-57.04 0.57889,-3.168 1.31972,-15.69036 1.64629,-27.82747 l 0.59376,-22.06747 6.24,-1.73078 c 6.9,-1.91383 18.98236,-3.54909 20.92713,-2.83232 2.24982,0.82918 0.74046,3.30866 -2.68713,4.41425 l -3.36,1.08379 -0.21793,9.12 c -0.44381,18.57268 -3.47876,51.85094 -5.58497,61.23926 -1.13225,5.04694 -2.12877,0.32135 -2.93744,-13.9296 -1.07205,-18.89259 -1.11337,-45.47266 -0.0793,-51.00363 0.59919,-3.20482 0.5068,-4.00489 -0.39791,-3.44576 -0.64805,0.40052 -2.42686,0.82644 -3.95289,0.94649 -1.52604,0.12005 -2.99076,0.43441 -3.25493,0.69859 -0.26418,0.26419 0.0295,8.73091 0.65254,18.81496 1.12432,18.19644 0.20274,42.98093 -1.98561,53.39969 -0.4436,2.112 -1.96138,9.672 -3.37284,16.8 -2.1988,11.10416 -3.20983,15.08791 -3.39059,13.36 z M 141.12,245.29871 c -10.70902,-2.89582 -16.32,-4.84381 -16.32,-5.66589 0,-1.3093 3.00691,-1.1268 12.96,0.78663 6.99334,1.34444 11.38443,1.54009 23.04,1.02666 7.92,-0.34889 15.588,-0.94375 17.04,-1.32191 4.63329,-1.20672 2.83577,0.96686 -3.02385,3.65648 -5.26819,2.41816 -6.5256,2.59372 -18,2.51319 -6.78488,-0.0476 -13.84815,-0.49544 -15.69615,-0.99516 z m 101.27621,-2.77551 c -1.57523,-7.17199 -9.24305,-17.24807 -17.10772,-22.48083 -8.70631,-5.79275 -12.04703,-9.38452 -11.48126,-12.34409 0.64735,-3.38643 4.23422,-3.54061 6.37458,-0.27401 0.83744,1.27811 3.90189,3.76211 6.80988,5.52 2.908,1.7579 5.54391,3.95943 5.85759,4.89228 0.31368,0.93285 2.29959,2.5783 4.41314,3.65655 2.43731,1.24343 4.30762,3.08091 5.11366,5.0239 1.722,4.15101 2.92214,17.52222 1.64363,18.31238 -0.55138,0.34078 -1.26467,-0.67245 -1.6235,-2.30618 z m 247.3837,-40.36811 c 0.16883,-2.30962 0.85127,-4.28679 1.56018,-4.52006 0.93723,-0.3084 1.1832,0.63725 0.96,3.69078 -0.16883,2.30962 -0.85127,4.28679 -1.56018,4.52006 -0.93723,0.3084 -1.1832,-0.63725 -0.96,-3.69078 z M 476.48,189.30268 c 0,-0.76878 0.36704,-1.17092 0.81566,-0.89366 0.44861,0.27725 0.56712,0.90625 0.26334,1.39777 -0.77628,1.25604 -1.079,1.11461 -1.079,-0.50411 z M 251.52,171.49479 c -4.488,-0.3913 -12.696,-1.58974 -18.24,-2.66319 -5.544,-1.07346 -12.456,-2.23915 -15.36,-2.59043 -2.904,-0.35128 -8.736,-1.2501 -12.96,-1.99736 -4.224,-0.74726 -17.96451,-2.87617 -30.53446,-4.73091 -26.2664,-3.87567 -28.47357,-4.33668 -41.46554,-8.66093 -5.28,-1.75738 -12.15453,-3.91098 -15.27673,-4.78576 C 111.59302,144.35983 92.926911,135.0259 85.592856,130.01949 80.384671,126.46426 64.32,110.69664 64.32,109.14 c 0,-0.5829 0.639974,-1.30539 1.422164,-1.60554 1.446496,-0.55507 3.778464,1.08513 20.177836,14.19222 5.694823,4.55155 12.116534,8.68855 13.92,8.96755 0.264,0.0408 1.56,0.68727 2.88,1.43652 11.1569,6.33279 40.05206,16.05801 54.24,18.25552 3.696,0.57246 15.95012,2.54076 27.23137,4.37402 11.28126,1.83324 21.00126,3.25761 21.6,3.16526 0.59875,-0.0923 1.73663,0.0691 2.52863,0.35887 0.792,0.28974 5.112,0.99467 9.6,1.56653 4.488,0.57184 12.912,1.92567 18.72,3.0085 5.808,1.08283 18.336,2.36566 27.84,2.85073 17.44783,0.89051 22.63155,1.68493 23.25802,3.56433 0.18872,0.56616 -0.43113,1.33188 -1.37745,1.70161 -2.54943,0.99605 -25.45421,1.33704 -34.84057,0.51867 z m 207.29364,-19.31833 c -0.49038,-0.91629 -1.75606,-1.94035 -2.81262,-2.27568 -3.28625,-1.04301 -2.11971,-2.19772 2.63898,-2.61221 9.94972,-0.86665 27.30983,-5.78027 43.21226,-12.23082 9.0291,-3.6625 17.20206,-7.06671 18.16214,-7.5649 0.96008,-0.49819 2.8256,-1.40652 4.1456,-2.01849 1.32,-0.61198 3.912,-1.93371 5.76,-2.93718 1.848,-1.00348 3.9,-1.84526 4.56,-1.87062 2.07948,-0.0799 1.30237,1.86841 -1.2,3.00856 -1.32,0.60144 -2.4,1.45618 -2.4,1.89943 0,0.44324 -0.55986,0.8059 -1.24414,0.8059 -0.68429,0 -4.24829,1.84934 -7.92,4.10965 -12.06519,7.42734 -20.1378,11.10063 -29.79515,13.55775 -5.23639,1.3323 -14.62703,4.0811 -20.86809,6.10847 -10.46334,3.39894 -11.41684,3.55632 -12.23898,2.02014 z"
     id="path280"
     inkscape:connector-curvature="0" />
</svg>
