<?xml version="1.0" encoding="UTF-8"?>
<!DOCTYPE svg PUBLIC "-//W3C//DTD SVG 1.0//EN" "http://www.w3.org/TR/2001/REC-SVG-20010904/DTD/svg10.dtd">
<svg xmlns="http://www.w3.org/2000/svg" width="100%" height="100%">
    <desc></desc>
    <g alignment-baseline="baseline" transform="translate (100, 100)">
        <!--Y Axis number of works--> <line x1="0" y1="0" x2="0" y2="200" stroke="black" stroke-width="2"/>
        <!--X Axis works by year--> <line x1="0" y1="200" x2="800" y2="200" stroke="black" stroke-width="2"/>
        <rect x ="10" y="188" width="10" height="10" style="fill:red;stroke-width:2;stroke:red" /><!--1997--><text x="10" y="180" fill="black">1</text><text x="19" y="220" fill="black" transform="rotate(-90 19,220)">'97</text>
        <rect x ="32.5" y="188" width="10" height="10" style="fill:red;stroke-width:2;stroke:red" /><!--1999--><text x="32.5" y="180" fill="black">1</text><text x="41" y="220" fill="black" transform="rotate(-90 41,220)">'99</text>
        <rect x ="55" y="188" width="10" height="10" style="fill:black;stroke-width:2;stroke:black" /><!--2000--><text x="55" y="180" fill="black">1</text><text x="64" y="220" fill="black" transform="rotate(-90 64,220)">'00</text>
        <rect x ="75" y="188" width="10" height="10" style="fill:red;stroke-width:2;stroke:red" /><!--2001--><text x="75" y="180" fill="black">1</text><text x="95" y="220" fill="black" transform="rotate(-90 95,220)">'01</text>
        <rect x ="87" y="188" width="10" height="10" style="fill:slategrey;stroke-width:2;stroke:slategrey" /><!--2001--><text x="87" y="180" fill="black">1</text>
        <rect x ="99" y="180" width="10" height="20" style="fill:black;stroke-width:2;stroke:black" /><!--2001--><text x="99" y="170" fill="black">2</text>
        <rect x ="119" y="168" width="10" height="30" style="fill:red;stroke-width:2;stroke:red" /><!--2002--><text x="119" y="158" fill="black">3</text><text x="142" y="220" fill="black" transform="rotate(-90 142,220)">'02</text>
        <rect x ="131" y="178" width="10" height="20" style="fill:slategrey;stroke-width:2;stroke:slategrey" /><!--2002--><text x="131" y="168" fill="black">2</text>
        <rect x ="143" y="158" width="10" height="40" style="fill:black;stroke-width:2;stroke:black" /><!--2002--><text x="143" y="148" fill="black">4</text>
        <rect x ="163" y="178" width="10" height="20" style="fill:red;stroke-width:2;stroke:red" /><!--2003--><text x="163" y="168" fill="black">2</text><text x="184" y="220" fill="black" transform="rotate(-90 184,220)">'03</text>
        <rect x ="175" y="98" width="10" height="100" style="fill:slategrey;stroke-width:2;stroke:slategrey" /><!--2003--><text x="175" y="88" fill="black">10</text>
        <rect x ="187" y="168" width="10" height="30" style="fill:black;stroke-width:2;stroke:black" /><!--2003--><text x="187" y="158" fill="black">3</text>
        <rect x ="207" y="168" width="10" height="30" style="fill:red;stroke-width:2;stroke:red" /><!--04--><text x="207" y="158" fill="black">3</text><text x="228" y="220" fill="black" transform="rotate(-90 228,220)">'04</text>
        <rect x ="219" y="108" width="10" height="90" style="fill:slategrey;stroke-width:2;stroke:slategrey" /><!--04--><text x="219" y="98" fill="black">9</text>
            <rect x ="231" y="178" width="10" height="20" style="fill:black;stroke-width:2;stroke:black" /><!--04--><text x="231" y="168" fill="black">2</text>
        <rect x ="251" y="128" width="10" height="70" style="fill:red;stroke-width:2;stroke:red" /><!--05--><text x="251" y="118" fill="black">7</text><text x="272" y="220" fill="black" transform="rotate(-90 272,220)">'05</text>
        <rect x ="263" y="168" width="10" height="30" style="fill:slategrey;stroke-width:2;stroke:slategrey" /><!--05--><text x="263" y="158" fill="black">3</text>
        <rect x ="275" y="168" width="10" height="30" style="fill:black;stroke-width:2;stroke:black" /><!--05--><text x="275" y="158" fill="black">3</text>
        <rect x ="295" y="148" width="10" height="50" style="fill:red;stroke-width:2;stroke:red" /><!--06--><text x="295" y="138" fill="black">5</text><text x="316" y="220" fill="black" transform="rotate(-90 316,220)" >'06</text>
        <rect x ="307" y="158" width="10" height="40" style="fill:slategrey;stroke-width:2;stroke:slategrey" /><!--06--><text x="307" y="148" fill="black">4</text>
        <rect x ="319" y="178" width="10" height="20" style="fill:black;stroke-width:2;stroke:black" /><!--06--><text x="319" y="168" fill="black">2</text>
        <rect x ="339" y="108" width="10" height="90" style="fill:red;stroke-width:2;stroke:red" /><!--07--><text x="339" y="98" fill="black">9</text><text x="360" y="220" fill="black" transform="rotate(-90 360,220)">'07</text>
        <rect x ="351" y="188" width="10" height="10" style="fill:slategrey;stroke-width:2;stroke:slategrey" /><!--07--><text x="351" y="178" fill="black">1</text>
        <rect x ="363" y="178" width="10" height="20" style="fill:black;stroke-width:2;stroke:black" /><!--07--><text x="363" y="168" fill="black">2</text>
        <rect x ="383" y="78" width="10" height="120" style="fill:red;stroke-width:2;stroke:red" /><!--08--><text x="383" y="68" fill="black">12</text><text x="404" y="220" fill="black" transform="rotate(-90 404,220)">'08</text>
        <rect x ="395" y="188" width="10" height="10" style="fill:slategrey;stroke-width:2;stroke:slategrey" /><!--08--><text x="395" y="178" fill="black">1</text>
        <rect x ="407" y="178" width="10" height="20" style="fill:black;stroke-width:2;stroke:black" /><!--08--><text x="407" y="168" fill="black">2</text>
        <rect x ="427" y="158" width="10" height="40" style="fill:red;stroke-width:2;stroke:red" /><!--09--><text x="427" y="148" fill="black">4</text><text x="448" y="220" fill="black" transform="rotate(-90 448,220)">'09</text>
        <rect x ="439" y="178" width="10" height="20" style="fill:slategrey;stroke-width:2;stroke:slategrey" /><!--09--><text x="439" y="168" fill="black">2</text>
        <rect x ="451" y="188" width="10" height="10" style="fill:black;stroke-width:2;stroke:black" /><!--09--><text x="451" y="178" fill="black">1</text>
        <rect x ="471" y="88" width="10" height="110" style="fill:red;stroke-width:2;stroke:red" /><!--10--><text x="471" y="78" fill="black">11</text><text x="486" y="220" fill="black" transform="rotate(-90 486,220)">'10</text>
        <rect x ="483" y="188" width="10" height="10" style="fill:black;stroke-width:2;stroke:black" /><!--10--><text x="483" y="178" fill="black">1</text>
        <rect x ="503" y="98" width="10" height="100" style="fill:red;stroke-width:2;stroke:red" /><!--11--><text x="503" y="88" fill="black">10</text><text x="520" y="220" fill="black" transform="rotate(-90 520,220)">'11</text>
        <rect x ="515" y="188" width="10" height="10" style="fill:black;stroke-width:2;stroke:black" /><!--11--><text x="515" y="178" fill="black">1</text>
        <rect x ="535" y="148" width="10" height="50" style="fill:red;stroke-width:2;stroke:red" /><!--12--><text x="535" y="138" fill="black">5</text><text x="552" y="220" fill="black" transform="rotate(-90 552,220)">'12</text>
        <rect x ="547" y="188" width="10" height="10" style="fill:slategrey;stroke-width:2;stroke:slategrey" /><!--12--><text x="547" y="178" fill="black">1</text>
        <rect x ="567" y="138" width="10" height="60" style="fill:red;stroke-width:2;stroke:red" /><!--13--><text x="567" y="128" fill="black">6</text><text x="583" y="220" fill="black" transform="rotate(-90 583,220)">'13</text>
        <rect x ="579" y="188" width="10" height="10" style="fill:black;stroke-width:2;stroke:black" /><!--13--><text x="579" y="178" fill="black">1</text>
        <rect x ="599" y="168" width="10" height="30" style="fill:red;stroke-width:2;stroke:red" /><!--14--><text x="599" y="158" fill="black">3</text><text x="615" y="220" fill="black" transform="rotate(-90 615,220)">'14</text>
        <rect x ="611" y="188" width="10" height="10" style="fill:slategrey;stroke-width:2;stroke:slategrey" /><!--14--><text x="611" y="178" fill="black">1</text>
        <rect x ="631" y="158" width="10" height="40" style="fill:red;stroke-width:2;stroke:red" /><!--15--><text x="631" y="148" fill="black">4</text><text x="648" y="220" fill="black" transform="rotate(-90 648,220)">'15</text>
        <rect x ="643" y="188" width="10" height="10" style="fill:black;stroke-width:2;stroke:black" /><!--15--><text x="643" y="178" fill="black">1</text>
        <rect x ="663" y="188" width="10" height="10" style="fill:red;stroke-width:2;stroke:red" /><!--16--><text x="663" y="178" fill="black">1</text><text x="673" y="220" fill="black" transform="rotate(-90 673,220)">'16</text>
        <rect x ="683" y="178" width="10" height="20" style="fill:slategrey;stroke-width:2;stroke:slategrey" /><!--17--><text x="683" y="168" fill="black">2</text><text x="700" y="220" fill="black" transform="rotate(-90 700,220)">'17</text>
        <rect x ="695" y="188" width="10" height="10" style="fill:black;stroke-width:2;stroke:black" /><!--17--><text x="695" y="178" fill="black">1</text>
        <rect x ="715" y="118" width="10" height="80" style="fill:red;stroke-width:2;stroke:red" /><!--18--><text x="715" y="108" fill="black">8</text><text x="725" y="220" fill="black" transform="rotate(-90 725,220)">'18</text>
        <text x="250" y="250" fill="slategrey">Years of marked up works.</text>
        
        <!--legend--> 
        <rect x ="100" y="10" width="30" height="30" style=" fill:red;stroke-width:2;stroke:red" />
        <rect x ="250" y="10" width="30" height="30" style=" fill:slategrey;stroke-width:2;stroke:slategrey" />
        <rect x ="400" y="10" width="30" height="30" style=" fill:black;stroke-width:2;stroke:black" />
        <text x="150" y="30" fill="red">Graffiti</text>
        <text x="300" y="30" fill="slategrey">Print</text>
        <text x="450" y="30" fill="black">Misc</text>
        
    </g>
    <g>
        <text x="95" y="270" fill="slategrey"  transform="rotate(-90 95,270)">Number of Works</text>
        
    </g>
</svg>